%TF.GenerationSoftware,KiCad,Pcbnew,8.0.4+dfsg-1*%
%TF.CreationDate,2025-01-29T13:42:24+01:00*%
%TF.ProjectId,panel,70616e65-6c2e-46b6-9963-61645f706362,rev?*%
%TF.SameCoordinates,Original*%
%TF.FileFunction,Soldermask,Bot*%
%TF.FilePolarity,Negative*%
%FSLAX46Y46*%
G04 Gerber Fmt 4.6, Leading zero omitted, Abs format (unit mm)*
G04 Created by KiCad (PCBNEW 8.0.4+dfsg-1) date 2025-01-29 13:42:24*
%MOMM*%
%LPD*%
G01*
G04 APERTURE LIST*
%ADD10C,0.500000*%
%ADD11R,2.070000X1.600000*%
%ADD12R,1.308000X1.600000*%
%ADD13R,2.257300X1.600000*%
%ADD14O,1.225400X1.600000*%
%ADD15O,1.225400X1.562000*%
%ADD16R,2.257300X1.562000*%
%ADD17O,1.700000X1.700000*%
%ADD18R,1.700000X1.700000*%
%ADD19C,1.524000*%
%ADD20R,1.524000X1.524000*%
%ADD21R,1.676400X1.676400*%
G04 APERTURE END LIST*
D10*
%TO.C,mouse-bite-2mm-slot*%
X131838000Y-97548000D03*
X131838000Y-99048000D03*
X132588000Y-97548000D03*
X132588000Y-99048000D03*
X133338000Y-97548000D03*
X133338000Y-99048000D03*
%TD*%
%TO.C,mouse-bite-2mm-slot*%
X133744400Y-41886000D03*
X133744400Y-40386000D03*
X132994400Y-41886000D03*
X132994400Y-40386000D03*
X132244400Y-41886000D03*
X132244400Y-40386000D03*
%TD*%
%TO.C,mouse-bite-2mm-slot*%
X164072000Y-63234000D03*
X164072000Y-61734000D03*
X163322000Y-63234000D03*
X163322000Y-61734000D03*
X162572000Y-63234000D03*
X162572000Y-61734000D03*
%TD*%
D11*
%TO.C,J3*%
X96755000Y-82296000D03*
D12*
X97936000Y-82296000D03*
D13*
X96848650Y-84836000D03*
D14*
X97977300Y-84836000D03*
D13*
X96848650Y-87376000D03*
D14*
X97977300Y-87376000D03*
D13*
X96848650Y-89916000D03*
D14*
X97977300Y-89916000D03*
D13*
X96848650Y-92456000D03*
D14*
X97977300Y-92456000D03*
D13*
X96848650Y-94996000D03*
D14*
X97977300Y-94996000D03*
D13*
X96848650Y-97536000D03*
D14*
X97977300Y-97536000D03*
D13*
X96848650Y-100076000D03*
D14*
X97977300Y-100076000D03*
X105222700Y-100076000D03*
D13*
X106351350Y-100076000D03*
D14*
X105222700Y-97536000D03*
D13*
X106351350Y-97536000D03*
D14*
X105222700Y-94996000D03*
D13*
X106351350Y-94996000D03*
D14*
X105222700Y-92456000D03*
D13*
X106351350Y-92456000D03*
D14*
X105222700Y-89916000D03*
D13*
X106351350Y-89916000D03*
D14*
X105222700Y-87376000D03*
D13*
X106351350Y-87376000D03*
D14*
X105222700Y-84836000D03*
D13*
X106351350Y-84836000D03*
D15*
X105222700Y-82315000D03*
D16*
X106351350Y-82315000D03*
%TD*%
D10*
%TO.C,mouse-bite-2mm-slot*%
X164072000Y-40374000D03*
X164072000Y-38874000D03*
X163322000Y-40374000D03*
X163322000Y-38874000D03*
X162572000Y-40374000D03*
X162572000Y-38874000D03*
%TD*%
%TO.C,mouse-bite-2mm-slot*%
X100850000Y-61734000D03*
X100850000Y-63234000D03*
X101600000Y-61734000D03*
X101600000Y-63234000D03*
X102350000Y-61734000D03*
X102350000Y-63234000D03*
%TD*%
D11*
%TO.C,J2*%
X96755000Y-42164000D03*
D12*
X97936000Y-42164000D03*
D13*
X96848650Y-44704000D03*
D14*
X97977300Y-44704000D03*
D13*
X96848650Y-47244000D03*
D14*
X97977300Y-47244000D03*
D13*
X96848650Y-49784000D03*
D14*
X97977300Y-49784000D03*
D13*
X96848650Y-52324000D03*
D14*
X97977300Y-52324000D03*
D13*
X96848650Y-54864000D03*
D14*
X97977300Y-54864000D03*
D13*
X96848650Y-57404000D03*
D14*
X97977300Y-57404000D03*
D13*
X96848650Y-59944000D03*
D14*
X97977300Y-59944000D03*
X105222700Y-59944000D03*
D13*
X106351350Y-59944000D03*
D14*
X105222700Y-57404000D03*
D13*
X106351350Y-57404000D03*
D14*
X105222700Y-54864000D03*
D13*
X106351350Y-54864000D03*
D14*
X105222700Y-52324000D03*
D13*
X106351350Y-52324000D03*
D14*
X105222700Y-49784000D03*
D13*
X106351350Y-49784000D03*
D14*
X105222700Y-47244000D03*
D13*
X106351350Y-47244000D03*
D14*
X105222700Y-44704000D03*
D13*
X106351350Y-44704000D03*
D15*
X105222700Y-42183000D03*
D16*
X106351350Y-42183000D03*
%TD*%
D10*
%TO.C,mouse-bite-2mm-slot*%
X100850000Y-38874000D03*
X100850000Y-40374000D03*
X101600000Y-38874000D03*
X101600000Y-40374000D03*
X102350000Y-38874000D03*
X102350000Y-40374000D03*
%TD*%
%TO.C,mouse-bite-2mm-slot*%
X100850000Y-79006000D03*
X100850000Y-80506000D03*
X101600000Y-79006000D03*
X101600000Y-80506000D03*
X102350000Y-79006000D03*
X102350000Y-80506000D03*
%TD*%
D11*
%TO.C,J4*%
X158477000Y-82296000D03*
D12*
X159658000Y-82296000D03*
D13*
X158570650Y-84836000D03*
D14*
X159699300Y-84836000D03*
D13*
X158570650Y-87376000D03*
D14*
X159699300Y-87376000D03*
D13*
X158570650Y-89916000D03*
D14*
X159699300Y-89916000D03*
D13*
X158570650Y-92456000D03*
D14*
X159699300Y-92456000D03*
D13*
X158570650Y-94996000D03*
D14*
X159699300Y-94996000D03*
D13*
X158570650Y-97536000D03*
D14*
X159699300Y-97536000D03*
D13*
X158570650Y-100076000D03*
D14*
X159699300Y-100076000D03*
X166944700Y-100076000D03*
D13*
X168073350Y-100076000D03*
D14*
X166944700Y-97536000D03*
D13*
X168073350Y-97536000D03*
D14*
X166944700Y-94996000D03*
D13*
X168073350Y-94996000D03*
D14*
X166944700Y-92456000D03*
D13*
X168073350Y-92456000D03*
D14*
X166944700Y-89916000D03*
D13*
X168073350Y-89916000D03*
D14*
X166944700Y-87376000D03*
D13*
X168073350Y-87376000D03*
D14*
X166944700Y-84836000D03*
D13*
X168073350Y-84836000D03*
D15*
X166944700Y-82315000D03*
D16*
X168073350Y-82315000D03*
%TD*%
%TO.C,J5*%
X168073350Y-42183000D03*
D15*
X166944700Y-42183000D03*
D13*
X168073350Y-44704000D03*
D14*
X166944700Y-44704000D03*
D13*
X168073350Y-47244000D03*
D14*
X166944700Y-47244000D03*
D13*
X168073350Y-49784000D03*
D14*
X166944700Y-49784000D03*
D13*
X168073350Y-52324000D03*
D14*
X166944700Y-52324000D03*
D13*
X168073350Y-54864000D03*
D14*
X166944700Y-54864000D03*
D13*
X168073350Y-57404000D03*
D14*
X166944700Y-57404000D03*
D13*
X168073350Y-59944000D03*
D14*
X166944700Y-59944000D03*
X159699300Y-59944000D03*
D13*
X158570650Y-59944000D03*
D14*
X159699300Y-57404000D03*
D13*
X158570650Y-57404000D03*
D14*
X159699300Y-54864000D03*
D13*
X158570650Y-54864000D03*
D14*
X159699300Y-52324000D03*
D13*
X158570650Y-52324000D03*
D14*
X159699300Y-49784000D03*
D13*
X158570650Y-49784000D03*
D14*
X159699300Y-47244000D03*
D13*
X158570650Y-47244000D03*
D14*
X159699300Y-44704000D03*
D13*
X158570650Y-44704000D03*
D12*
X159658000Y-42164000D03*
D11*
X158477000Y-42164000D03*
%TD*%
D10*
%TO.C,mouse-bite-2mm-slot*%
X162572000Y-101866000D03*
X162572000Y-103366000D03*
X163322000Y-101866000D03*
X163322000Y-103366000D03*
X164072000Y-101866000D03*
X164072000Y-103366000D03*
%TD*%
%TO.C,mouse-bite-2mm-slot*%
X100850000Y-101866000D03*
X100850000Y-103366000D03*
X101600000Y-101866000D03*
X101600000Y-103366000D03*
X102350000Y-101866000D03*
X102350000Y-103366000D03*
%TD*%
%TO.C,mouse-bite-2mm-slot*%
X162572000Y-79006000D03*
X162572000Y-80506000D03*
X163322000Y-79006000D03*
X163322000Y-80506000D03*
X164072000Y-79006000D03*
X164072000Y-80506000D03*
%TD*%
D17*
%TO.C,J1*%
X145186400Y-66014600D03*
X145186400Y-63474600D03*
X145186400Y-60934600D03*
X145186400Y-58394600D03*
X145186400Y-55854600D03*
D18*
X145186400Y-53314600D03*
%TD*%
D19*
%TO.C,PMOD1*%
X126898400Y-46075600D03*
X129438400Y-46075600D03*
X131978400Y-46075600D03*
X134518400Y-46075600D03*
X137058400Y-46075600D03*
X139598400Y-46075600D03*
X126898400Y-48615600D03*
X129438400Y-48615600D03*
X131978400Y-48615600D03*
X134518400Y-48615600D03*
X137058400Y-48615600D03*
X139598400Y-48615600D03*
%TD*%
D20*
%TO.C,CON1*%
X144186400Y-73798600D03*
D19*
X144186400Y-76338600D03*
X144186400Y-78878600D03*
X144186400Y-81418600D03*
X144186400Y-83958600D03*
X144186400Y-86498600D03*
X144186400Y-89038600D03*
X144186400Y-91578600D03*
X121326400Y-91578600D03*
X121326400Y-89038600D03*
X121326400Y-86498600D03*
X121326400Y-83958600D03*
X121326400Y-81418600D03*
X121326400Y-78878600D03*
X121326400Y-76338600D03*
D21*
X121326400Y-73798600D03*
%TD*%
M02*
