M48
; DRILL file {KiCad 8.0.4+dfsg-1} date 2025-01-29T13:42:26+0100
; FORMAT={-:-/ absolute / inch / decimal}
; #@! TF.CreationDate,2025-01-29T13:42:26+01:00
; #@! TF.GenerationSoftware,Kicad,Pcbnew,8.0.4+dfsg-1
; #@! TF.FileFunction,Plated,1,2,PTH
FMAT,2
INCH
; #@! TA.AperFunction,Plated,PTH,ViaDrill
T1C0.0118
; #@! TA.AperFunction,Plated,PTH,ComponentDrill
T2C0.0315
; #@! TA.AperFunction,Plated,PTH,ComponentDrill
T3C0.0350
; #@! TA.AperFunction,Plated,PTH,ComponentDrill
T4C0.0394
; #@! TA.AperFunction,Plated,PTH,ComponentDrill
T5C0.0400
%
G90
G05
T1
X3.92Y-2.3
X3.92Y-3.88
X3.93Y-1.66
X3.93Y-2.38
X3.93Y-3.24
X3.93Y-3.96
X3.95Y-2.21
X3.95Y-3.79
X4.0036Y-1.9661
X4.0036Y-3.5461
X4.0163Y-2.0133
X4.0163Y-3.5933
X4.0333Y-1.9033
X4.0333Y-3.4833
X4.04Y-2.22
X4.04Y-3.8
X4.06Y-1.65
X4.06Y-3.23
X4.07Y-2.38
X4.07Y-3.96
X4.08Y-2.15
X4.08Y-3.73
X4.882Y-3.178
X4.886Y-2.872
X4.892Y-3.704
X4.91Y-2.07
X4.926Y-3.114
X4.951Y-2.644
X4.964Y-3.174
X5.008Y-2.814
X5.078Y-2.648
X5.0786Y-2.3166
X5.08Y-2.704
X5.118Y-2.368
X5.126Y-3.098
X5.1262Y-2.9892
X5.16Y-2.414
X5.1613Y-2.068
X5.2143Y-2.9156
X5.216Y-2.67
X5.216Y-3.449
X5.236Y-3.059
X5.26Y-2.284
X5.26Y-2.42
X5.282Y-3.614
X5.338Y-3.076
X5.346Y-2.684
X5.392Y-2.584
X5.396Y-2.75
X5.468Y-2.234
X5.521Y-3.034
X5.541Y-3.724
X5.581Y-2.554
X6.35Y-2.3
X6.35Y-3.88
X6.36Y-1.66
X6.36Y-2.38
X6.36Y-3.24
X6.36Y-3.96
X6.38Y-2.21
X6.38Y-3.79
X6.4336Y-1.9661
X6.4336Y-3.5461
X6.4463Y-2.0133
X6.4463Y-3.5933
X6.4633Y-1.9033
X6.4633Y-3.4833
X6.47Y-2.22
X6.47Y-3.8
X6.49Y-1.65
X6.49Y-3.23
X6.5Y-2.38
X6.5Y-3.96
X6.51Y-2.15
X6.51Y-3.73
T2
X3.8Y-1.66
X3.8Y-1.76
X3.8Y-1.86
X3.8Y-1.96
X3.8Y-2.06
X3.8Y-2.16
X3.8Y-2.26
X3.8Y-2.36
X3.8Y-3.24
X3.8Y-3.34
X3.8Y-3.44
X3.8Y-3.54
X3.8Y-3.64
X3.8Y-3.74
X3.8Y-3.84
X3.8Y-3.94
X3.85Y-1.66
X3.85Y-1.76
X3.85Y-1.86
X3.85Y-1.96
X3.85Y-2.06
X3.85Y-2.16
X3.85Y-2.26
X3.85Y-2.36
X3.85Y-3.24
X3.85Y-3.34
X3.85Y-3.44
X3.85Y-3.54
X3.85Y-3.64
X3.85Y-3.74
X3.85Y-3.84
X3.85Y-3.94
X4.15Y-1.66
X4.15Y-1.76
X4.15Y-1.86
X4.15Y-1.96
X4.15Y-2.06
X4.15Y-2.16
X4.15Y-2.26
X4.15Y-2.36
X4.15Y-3.24
X4.15Y-3.34
X4.15Y-3.44
X4.15Y-3.54
X4.15Y-3.64
X4.15Y-3.74
X4.15Y-3.84
X4.15Y-3.94
X4.2Y-1.66
X4.2Y-1.76
X4.2Y-1.86
X4.2Y-1.96
X4.2Y-2.06
X4.2Y-2.16
X4.2Y-2.26
X4.2Y-2.36
X4.2Y-3.24
X4.2Y-3.34
X4.2Y-3.44
X4.2Y-3.54
X4.2Y-3.64
X4.2Y-3.74
X4.2Y-3.84
X4.2Y-3.94
X6.23Y-1.66
X6.23Y-1.76
X6.23Y-1.86
X6.23Y-1.96
X6.23Y-2.06
X6.23Y-2.16
X6.23Y-2.26
X6.23Y-2.36
X6.23Y-3.24
X6.23Y-3.34
X6.23Y-3.44
X6.23Y-3.54
X6.23Y-3.64
X6.23Y-3.74
X6.23Y-3.84
X6.23Y-3.94
X6.28Y-1.66
X6.28Y-1.76
X6.28Y-1.86
X6.28Y-1.96
X6.28Y-2.06
X6.28Y-2.16
X6.28Y-2.26
X6.28Y-2.36
X6.28Y-3.24
X6.28Y-3.34
X6.28Y-3.44
X6.28Y-3.54
X6.28Y-3.64
X6.28Y-3.74
X6.28Y-3.84
X6.28Y-3.94
X6.58Y-1.66
X6.58Y-1.76
X6.58Y-1.86
X6.58Y-1.96
X6.58Y-2.06
X6.58Y-2.16
X6.58Y-2.26
X6.58Y-2.36
X6.58Y-3.24
X6.58Y-3.34
X6.58Y-3.44
X6.58Y-3.54
X6.58Y-3.64
X6.58Y-3.74
X6.58Y-3.84
X6.58Y-3.94
X6.63Y-1.66
X6.63Y-1.76
X6.63Y-1.86
X6.63Y-1.96
X6.63Y-2.06
X6.63Y-2.16
X6.63Y-2.26
X6.63Y-2.36
X6.63Y-3.24
X6.63Y-3.34
X6.63Y-3.44
X6.63Y-3.54
X6.63Y-3.64
X6.63Y-3.74
X6.63Y-3.84
X6.63Y-3.94
T3
X4.7766Y-2.9055
X4.7766Y-3.0055
X4.7766Y-3.1055
X4.7766Y-3.2055
X4.7766Y-3.3055
X4.7766Y-3.4055
X4.7766Y-3.5055
X4.7766Y-3.6055
X5.6766Y-2.9055
X5.6766Y-3.0055
X5.6766Y-3.1055
X5.6766Y-3.2055
X5.6766Y-3.3055
X5.6766Y-3.4055
X5.6766Y-3.5055
X5.6766Y-3.6055
T4
X5.716Y-2.099
X5.716Y-2.199
X5.716Y-2.299
X5.716Y-2.399
X5.716Y-2.499
X5.716Y-2.599
T5
X4.996Y-1.814
X4.996Y-1.914
X5.096Y-1.814
X5.096Y-1.914
X5.196Y-1.814
X5.196Y-1.914
X5.296Y-1.814
X5.296Y-1.914
X5.396Y-1.814
X5.396Y-1.914
X5.496Y-1.814
X5.496Y-1.914
M30
