M48
; DRILL file {KiCad 8.0.4+dfsg-1} date 2025-01-29T13:42:26+0100
; FORMAT={-:-/ absolute / inch / decimal}
; #@! TF.CreationDate,2025-01-29T13:42:26+01:00
; #@! TF.GenerationSoftware,Kicad,Pcbnew,8.0.4+dfsg-1
; #@! TF.FileFunction,NonPlated,1,2,NPTH
FMAT,2
INCH
; #@! TA.AperFunction,NonPlated,NPTH,ComponentDrill
T1C0.0197
%
G90
G05
T1
X3.9705Y-1.5305
X3.9705Y-1.5895
X3.9705Y-2.4305
X3.9705Y-2.4895
X3.9705Y-3.1105
X3.9705Y-3.1695
X3.9705Y-4.0105
X3.9705Y-4.0695
X4.0Y-1.5305
X4.0Y-1.5895
X4.0Y-2.4305
X4.0Y-2.4895
X4.0Y-3.1105
X4.0Y-3.1695
X4.0Y-4.0105
X4.0Y-4.0695
X4.0295Y-1.5305
X4.0295Y-1.5895
X4.0295Y-2.4305
X4.0295Y-2.4895
X4.0295Y-3.1105
X4.0295Y-3.1695
X4.0295Y-4.0105
X4.0295Y-4.0695
X5.1905Y-3.8405
X5.1905Y-3.8995
X5.2065Y-1.59
X5.2065Y-1.6491
X5.22Y-3.8405
X5.22Y-3.8995
X5.236Y-1.59
X5.236Y-1.6491
X5.2495Y-3.8405
X5.2495Y-3.8995
X5.2655Y-1.59
X5.2655Y-1.6491
X6.4005Y-1.5305
X6.4005Y-1.5895
X6.4005Y-2.4305
X6.4005Y-2.4895
X6.4005Y-3.1105
X6.4005Y-3.1695
X6.4005Y-4.0105
X6.4005Y-4.0695
X6.43Y-1.5305
X6.43Y-1.5895
X6.43Y-2.4305
X6.43Y-2.4895
X6.43Y-3.1105
X6.43Y-3.1695
X6.43Y-4.0105
X6.43Y-4.0695
X6.4595Y-1.5305
X6.4595Y-1.5895
X6.4595Y-2.4305
X6.4595Y-2.4895
X6.4595Y-3.1105
X6.4595Y-3.1695
X6.4595Y-4.0105
X6.4595Y-4.0695
M30
