%TF.GenerationSoftware,KiCad,Pcbnew,8.0.4+dfsg-1*%
%TF.CreationDate,2025-01-29T13:42:23+01:00*%
%TF.ProjectId,panel,70616e65-6c2e-46b6-9963-61645f706362,rev?*%
%TF.SameCoordinates,Original*%
%TF.FileFunction,Copper,L2,Bot*%
%TF.FilePolarity,Positive*%
%FSLAX46Y46*%
G04 Gerber Fmt 4.6, Leading zero omitted, Abs format (unit mm)*
G04 Created by KiCad (PCBNEW 8.0.4+dfsg-1) date 2025-01-29 13:42:23*
%MOMM*%
%LPD*%
G01*
G04 APERTURE LIST*
%TA.AperFunction,CastellatedPad*%
%ADD10R,2.070000X1.600000*%
%TD*%
%TA.AperFunction,ComponentPad*%
%ADD11R,1.308000X1.600000*%
%TD*%
%TA.AperFunction,CastellatedPad*%
%ADD12R,2.257300X1.600000*%
%TD*%
%TA.AperFunction,ComponentPad*%
%ADD13O,1.225400X1.600000*%
%TD*%
%TA.AperFunction,ComponentPad*%
%ADD14O,1.225400X1.562000*%
%TD*%
%TA.AperFunction,CastellatedPad*%
%ADD15R,2.257300X1.562000*%
%TD*%
%TA.AperFunction,ComponentPad*%
%ADD16O,1.700000X1.700000*%
%TD*%
%TA.AperFunction,ComponentPad*%
%ADD17R,1.700000X1.700000*%
%TD*%
%TA.AperFunction,ComponentPad*%
%ADD18C,1.524000*%
%TD*%
%TA.AperFunction,ComponentPad*%
%ADD19R,1.524000X1.524000*%
%TD*%
%TA.AperFunction,ComponentPad*%
%ADD20R,1.676400X1.676400*%
%TD*%
%TA.AperFunction,ViaPad*%
%ADD21C,0.600000*%
%TD*%
%TA.AperFunction,Conductor*%
%ADD22C,0.200000*%
%TD*%
G04 APERTURE END LIST*
D10*
%TO.P,J3,1,Pin_1*%
%TO.N,/SDO1*%
X96755000Y-82296000D03*
D11*
X97936000Y-82296000D03*
D12*
%TO.P,J3,2,Pin_2*%
%TO.N,/CSB1*%
X96848650Y-84836000D03*
D13*
X97977300Y-84836000D03*
D12*
%TO.P,J3,3,Pin_3*%
%TO.N,/INT4*%
X96848650Y-87376000D03*
D13*
X97977300Y-87376000D03*
D12*
%TO.P,J3,4,Pin_4*%
%TO.N,/INT3*%
X96848650Y-89916000D03*
D13*
X97977300Y-89916000D03*
D12*
%TO.P,J3,5,Pin_5*%
%TO.N,/VDDIO*%
X96848650Y-92456000D03*
D13*
X97977300Y-92456000D03*
D12*
%TO.P,J3,6,Pin_6*%
%TO.N,/SDO2*%
X96848650Y-94996000D03*
D13*
X97977300Y-94996000D03*
D12*
%TO.P,J3,7,Pin_7*%
%TO.N,/SDA_SDI*%
X96848650Y-97536000D03*
D13*
X97977300Y-97536000D03*
D12*
%TO.P,J3,8,Pin_8*%
%TO.N,/SCL{slash}SCK*%
X96848650Y-100076000D03*
D13*
X97977300Y-100076000D03*
%TO.P,J3,9,Pin_9*%
%TO.N,/PS*%
X105222700Y-100076000D03*
D12*
X106351350Y-100076000D03*
D13*
%TO.P,J3,10,Pin_10*%
%TO.N,/GNDIO*%
X105222700Y-97536000D03*
D12*
X106351350Y-97536000D03*
D13*
%TO.P,J3,11,Pin_11*%
%TO.N,/CSB2*%
X105222700Y-94996000D03*
D12*
X106351350Y-94996000D03*
D13*
%TO.P,J3,12,Pin_12*%
%TO.N,/GNDA*%
X105222700Y-92456000D03*
D12*
X106351350Y-92456000D03*
D13*
%TO.P,J3,13,Pin_13*%
%TO.N,/VDD*%
X105222700Y-89916000D03*
D12*
X106351350Y-89916000D03*
D13*
%TO.P,J3,14,Pin_14*%
%TO.N,/NC*%
X105222700Y-87376000D03*
D12*
X106351350Y-87376000D03*
D13*
%TO.P,J3,15,Pin_15*%
%TO.N,/INT2*%
X105222700Y-84836000D03*
D12*
X106351350Y-84836000D03*
D14*
%TO.P,J3,16,Pin_16*%
%TO.N,/INT1*%
X105222700Y-82315000D03*
D15*
X106351350Y-82315000D03*
%TD*%
D10*
%TO.P,J2,1,Pin_1*%
%TO.N,/SDO1*%
X96755000Y-42164000D03*
D11*
X97936000Y-42164000D03*
D12*
%TO.P,J2,2,Pin_2*%
%TO.N,/CSB1*%
X96848650Y-44704000D03*
D13*
X97977300Y-44704000D03*
D12*
%TO.P,J2,3,Pin_3*%
%TO.N,/INT4*%
X96848650Y-47244000D03*
D13*
X97977300Y-47244000D03*
D12*
%TO.P,J2,4,Pin_4*%
%TO.N,/INT3*%
X96848650Y-49784000D03*
D13*
X97977300Y-49784000D03*
D12*
%TO.P,J2,5,Pin_5*%
%TO.N,/VDDIO*%
X96848650Y-52324000D03*
D13*
X97977300Y-52324000D03*
D12*
%TO.P,J2,6,Pin_6*%
%TO.N,/SDO2*%
X96848650Y-54864000D03*
D13*
X97977300Y-54864000D03*
D12*
%TO.P,J2,7,Pin_7*%
%TO.N,/SDA_SDI*%
X96848650Y-57404000D03*
D13*
X97977300Y-57404000D03*
D12*
%TO.P,J2,8,Pin_8*%
%TO.N,/SCL{slash}SCK*%
X96848650Y-59944000D03*
D13*
X97977300Y-59944000D03*
%TO.P,J2,9,Pin_9*%
%TO.N,/PS*%
X105222700Y-59944000D03*
D12*
X106351350Y-59944000D03*
D13*
%TO.P,J2,10,Pin_10*%
%TO.N,/GNDIO*%
X105222700Y-57404000D03*
D12*
X106351350Y-57404000D03*
D13*
%TO.P,J2,11,Pin_11*%
%TO.N,/CSB2*%
X105222700Y-54864000D03*
D12*
X106351350Y-54864000D03*
D13*
%TO.P,J2,12,Pin_12*%
%TO.N,/GNDA*%
X105222700Y-52324000D03*
D12*
X106351350Y-52324000D03*
D13*
%TO.P,J2,13,Pin_13*%
%TO.N,/VDD*%
X105222700Y-49784000D03*
D12*
X106351350Y-49784000D03*
D13*
%TO.P,J2,14,Pin_14*%
%TO.N,/NC*%
X105222700Y-47244000D03*
D12*
X106351350Y-47244000D03*
D13*
%TO.P,J2,15,Pin_15*%
%TO.N,/INT2*%
X105222700Y-44704000D03*
D12*
X106351350Y-44704000D03*
D14*
%TO.P,J2,16,Pin_16*%
%TO.N,/INT1*%
X105222700Y-42183000D03*
D15*
X106351350Y-42183000D03*
%TD*%
D10*
%TO.P,J4,1,Pin_1*%
%TO.N,/SDO1*%
X158477000Y-82296000D03*
D11*
X159658000Y-82296000D03*
D12*
%TO.P,J4,2,Pin_2*%
%TO.N,/CSB1*%
X158570650Y-84836000D03*
D13*
X159699300Y-84836000D03*
D12*
%TO.P,J4,3,Pin_3*%
%TO.N,/INT4*%
X158570650Y-87376000D03*
D13*
X159699300Y-87376000D03*
D12*
%TO.P,J4,4,Pin_4*%
%TO.N,/INT3*%
X158570650Y-89916000D03*
D13*
X159699300Y-89916000D03*
D12*
%TO.P,J4,5,Pin_5*%
%TO.N,/VDDIO*%
X158570650Y-92456000D03*
D13*
X159699300Y-92456000D03*
D12*
%TO.P,J4,6,Pin_6*%
%TO.N,/SDO2*%
X158570650Y-94996000D03*
D13*
X159699300Y-94996000D03*
D12*
%TO.P,J4,7,Pin_7*%
%TO.N,/SDA_SDI*%
X158570650Y-97536000D03*
D13*
X159699300Y-97536000D03*
D12*
%TO.P,J4,8,Pin_8*%
%TO.N,/SCL{slash}SCK*%
X158570650Y-100076000D03*
D13*
X159699300Y-100076000D03*
%TO.P,J4,9,Pin_9*%
%TO.N,/PS*%
X166944700Y-100076000D03*
D12*
X168073350Y-100076000D03*
D13*
%TO.P,J4,10,Pin_10*%
%TO.N,/GNDIO*%
X166944700Y-97536000D03*
D12*
X168073350Y-97536000D03*
D13*
%TO.P,J4,11,Pin_11*%
%TO.N,/CSB2*%
X166944700Y-94996000D03*
D12*
X168073350Y-94996000D03*
D13*
%TO.P,J4,12,Pin_12*%
%TO.N,/GNDA*%
X166944700Y-92456000D03*
D12*
X168073350Y-92456000D03*
D13*
%TO.P,J4,13,Pin_13*%
%TO.N,/VDD*%
X166944700Y-89916000D03*
D12*
X168073350Y-89916000D03*
D13*
%TO.P,J4,14,Pin_14*%
%TO.N,/NC*%
X166944700Y-87376000D03*
D12*
X168073350Y-87376000D03*
D13*
%TO.P,J4,15,Pin_15*%
%TO.N,/INT2*%
X166944700Y-84836000D03*
D12*
X168073350Y-84836000D03*
D14*
%TO.P,J4,16,Pin_16*%
%TO.N,/INT1*%
X166944700Y-82315000D03*
D15*
X168073350Y-82315000D03*
%TD*%
%TO.P,J5,16,Pin_16*%
%TO.N,/INT1*%
X168073350Y-42183000D03*
D14*
X166944700Y-42183000D03*
D12*
%TO.P,J5,15,Pin_15*%
%TO.N,/INT2*%
X168073350Y-44704000D03*
D13*
X166944700Y-44704000D03*
D12*
%TO.P,J5,14,Pin_14*%
%TO.N,/NC*%
X168073350Y-47244000D03*
D13*
X166944700Y-47244000D03*
D12*
%TO.P,J5,13,Pin_13*%
%TO.N,/VDD*%
X168073350Y-49784000D03*
D13*
X166944700Y-49784000D03*
D12*
%TO.P,J5,12,Pin_12*%
%TO.N,/GNDA*%
X168073350Y-52324000D03*
D13*
X166944700Y-52324000D03*
D12*
%TO.P,J5,11,Pin_11*%
%TO.N,/CSB2*%
X168073350Y-54864000D03*
D13*
X166944700Y-54864000D03*
D12*
%TO.P,J5,10,Pin_10*%
%TO.N,/GNDIO*%
X168073350Y-57404000D03*
D13*
X166944700Y-57404000D03*
D12*
%TO.P,J5,9,Pin_9*%
%TO.N,/PS*%
X168073350Y-59944000D03*
D13*
X166944700Y-59944000D03*
%TO.P,J5,8,Pin_8*%
%TO.N,/SCL{slash}SCK*%
X159699300Y-59944000D03*
D12*
X158570650Y-59944000D03*
D13*
%TO.P,J5,7,Pin_7*%
%TO.N,/SDA_SDI*%
X159699300Y-57404000D03*
D12*
X158570650Y-57404000D03*
D13*
%TO.P,J5,6,Pin_6*%
%TO.N,/SDO2*%
X159699300Y-54864000D03*
D12*
X158570650Y-54864000D03*
D13*
%TO.P,J5,5,Pin_5*%
%TO.N,/VDDIO*%
X159699300Y-52324000D03*
D12*
X158570650Y-52324000D03*
D13*
%TO.P,J5,4,Pin_4*%
%TO.N,/INT3*%
X159699300Y-49784000D03*
D12*
X158570650Y-49784000D03*
D13*
%TO.P,J5,3,Pin_3*%
%TO.N,/INT4*%
X159699300Y-47244000D03*
D12*
X158570650Y-47244000D03*
D13*
%TO.P,J5,2,Pin_2*%
%TO.N,/CSB1*%
X159699300Y-44704000D03*
D12*
X158570650Y-44704000D03*
D11*
%TO.P,J5,1,Pin_1*%
%TO.N,/SDO1*%
X159658000Y-42164000D03*
D10*
X158477000Y-42164000D03*
%TD*%
D16*
%TO.P,J1,6,Pin_6*%
%TO.N,Net-(J1-Pin_6)*%
X145186400Y-66014600D03*
%TO.P,J1,5,Pin_5*%
%TO.N,Net-(J1-Pin_5)*%
X145186400Y-63474600D03*
%TO.P,J1,4,Pin_4*%
%TO.N,/SDA*%
X145186400Y-60934600D03*
%TO.P,J1,3,Pin_3*%
%TO.N,/SCL*%
X145186400Y-58394600D03*
%TO.P,J1,2,Pin_2*%
%TO.N,GND*%
X145186400Y-55854600D03*
D17*
%TO.P,J1,1,Pin_1*%
%TO.N,/3V3*%
X145186400Y-53314600D03*
%TD*%
D18*
%TO.P,PMOD1,12,VCC*%
%TO.N,/3V3*%
X126898400Y-46075600D03*
%TO.P,PMOD1,11,GND*%
%TO.N,GND*%
X129438400Y-46075600D03*
%TO.P,PMOD1,10,IOB3*%
%TO.N,/DIST_INT*%
X131978400Y-46075600D03*
%TO.P,PMOD1,9,IOB2*%
%TO.N,/BARO_INT*%
X134518400Y-46075600D03*
%TO.P,PMOD1,8,IOB1*%
%TO.N,/IMU_INT 4*%
X137058400Y-46075600D03*
%TO.P,PMOD1,7,IOB0*%
%TO.N,/IMU_INT 3*%
X139598400Y-46075600D03*
%TO.P,PMOD1,6,VCC*%
%TO.N,/3V3*%
X126898400Y-48615600D03*
%TO.P,PMOD1,5,GND*%
%TO.N,GND*%
X129438400Y-48615600D03*
%TO.P,PMOD1,4,IOA3*%
%TO.N,/SDA*%
X131978400Y-48615600D03*
%TO.P,PMOD1,3,IOA2*%
%TO.N,/SCL*%
X134518400Y-48615600D03*
%TO.P,PMOD1,2,IOA1*%
%TO.N,/IMU_INT 2*%
X137058400Y-48615600D03*
%TO.P,PMOD1,1,IOA0*%
%TO.N,/IMU_INT 1*%
X139598400Y-48615600D03*
%TD*%
D19*
%TO.P,CON1,P16,PWM*%
%TO.N,unconnected-(CON1-PWM-PadP16)*%
X144186400Y-73798600D03*
D18*
%TO.P,CON1,P15,INT*%
%TO.N,/INT*%
X144186400Y-76338600D03*
%TO.P,CON1,P14,RX*%
%TO.N,unconnected-(CON1-RX-PadP14)*%
X144186400Y-78878600D03*
%TO.P,CON1,P13,TX*%
%TO.N,unconnected-(CON1-TX-PadP13)*%
X144186400Y-81418600D03*
%TO.P,CON1,P12,SCL*%
%TO.N,/SCL*%
X144186400Y-83958600D03*
%TO.P,CON1,P11,SDA*%
%TO.N,/SDA*%
X144186400Y-86498600D03*
%TO.P,CON1,P10,5V*%
%TO.N,unconnected-(CON1-5V-PadP10)*%
X144186400Y-89038600D03*
%TO.P,CON1,P9,GND2*%
%TO.N,GND*%
X144186400Y-91578600D03*
%TO.P,CON1,P8,GND1*%
X121326400Y-91578600D03*
%TO.P,CON1,P7,3V3*%
%TO.N,/3V3*%
X121326400Y-89038600D03*
%TO.P,CON1,P6,MOSI*%
%TO.N,/DIST_INT*%
X121326400Y-86498600D03*
%TO.P,CON1,P5,MISO*%
%TO.N,/BARO_INT*%
X121326400Y-83958600D03*
%TO.P,CON1,P4,SCK*%
%TO.N,/IMU_INT 4*%
X121326400Y-81418600D03*
%TO.P,CON1,P3,CS*%
%TO.N,/IMU_INT 3*%
X121326400Y-78878600D03*
%TO.P,CON1,P2,RST*%
%TO.N,/IMU_INT 2*%
X121326400Y-76338600D03*
D20*
%TO.P,CON1,P1,AN*%
%TO.N,/IMU_INT 1*%
X121326400Y-73798600D03*
%TD*%
D21*
%TO.N,/GNDA*%
X164167735Y-88475735D03*
X99822000Y-82296000D03*
X99568000Y-58420000D03*
X99822000Y-60452000D03*
X161544000Y-82296000D03*
X102616000Y-56388000D03*
X103124000Y-82042000D03*
X99822000Y-100584000D03*
X164167735Y-48343735D03*
X161544000Y-100584000D03*
X103124000Y-41910000D03*
X161544000Y-60452000D03*
X99822000Y-42164000D03*
X164846000Y-41910000D03*
X102013484Y-51139000D03*
X102445735Y-48343735D03*
X164846000Y-82042000D03*
X163735484Y-91271000D03*
X100330000Y-56134000D03*
X161290000Y-58420000D03*
X165100000Y-60452000D03*
X99568000Y-98552000D03*
X162052000Y-96266000D03*
X102013484Y-91271000D03*
X103378000Y-100584000D03*
X102445735Y-88475735D03*
X164338000Y-96520000D03*
X100330000Y-96266000D03*
X162052000Y-56134000D03*
X161290000Y-98552000D03*
X163735484Y-51139000D03*
X165100000Y-100584000D03*
X102616000Y-96520000D03*
X161544000Y-42164000D03*
X103378000Y-60452000D03*
X164338000Y-56388000D03*
%TO.N,/PS*%
X103632000Y-94742000D03*
X165354000Y-54610000D03*
X165354000Y-94742000D03*
X103632000Y-54610000D03*
%TO.N,/INT1*%
X163414000Y-49939000D03*
X163414000Y-90071000D03*
X101692000Y-49939000D03*
X101692000Y-90071000D03*
%TO.N,GND*%
X138887200Y-56743600D03*
X133604000Y-58013600D03*
X133604000Y-61468000D03*
X124256800Y-94081600D03*
%TO.N,/IMU_INT 4*%
X124002800Y-80721200D03*
X124104400Y-72948800D03*
%TO.N,/IMU_INT 2*%
X126085600Y-80619600D03*
X137058400Y-69850000D03*
%TO.N,/SDA*%
X140233400Y-77063600D03*
X132444400Y-74055587D03*
X128981200Y-67259200D03*
X128996400Y-58841600D03*
%TO.N,/SCL*%
X131097400Y-52527200D03*
X129032000Y-68681600D03*
X141757400Y-64871600D03*
X124714000Y-52578000D03*
X132486400Y-67818000D03*
%TO.N,Net-(J1-Pin_5)*%
X134162800Y-91795600D03*
X135585200Y-78130400D03*
%TO.N,Net-(JP3-A)*%
X136956800Y-65633600D03*
X140741400Y-94589600D03*
%TO.N,Net-(JP5-A)*%
X131064000Y-61315600D03*
X127203200Y-71475600D03*
%TO.N,Net-(JP10-A)*%
X130206665Y-75926865D03*
X125755400Y-67157600D03*
X129997200Y-60147200D03*
X130200400Y-78689200D03*
%TO.N,Net-(JP11-A)*%
X135788400Y-68173600D03*
X125120400Y-79095600D03*
%TO.N,Net-(JP12-A)*%
X132486400Y-87604600D03*
X132994400Y-77698600D03*
%TD*%
D22*
%TO.N,/GNDA*%
X102445735Y-48343735D02*
X102445735Y-50706749D01*
X102445735Y-50706749D02*
X102013484Y-51139000D01*
X102445735Y-90838749D02*
X102013484Y-91271000D01*
X164167735Y-88475735D02*
X164167735Y-90838749D01*
X164167735Y-50706749D02*
X163735484Y-51139000D01*
X102445735Y-88475735D02*
X102445735Y-90838749D01*
X164167735Y-90838749D02*
X163735484Y-91271000D01*
X164167735Y-48343735D02*
X164167735Y-50706749D01*
%TO.N,/PS*%
X165354000Y-58166000D02*
X167132000Y-59944000D01*
X165354000Y-54610000D02*
X165354000Y-58166000D01*
X165354000Y-98298000D02*
X167132000Y-100076000D01*
X103632000Y-98298000D02*
X105410000Y-100076000D01*
X103632000Y-54610000D02*
X103632000Y-58166000D01*
X103632000Y-58166000D02*
X105410000Y-59944000D01*
X103632000Y-94742000D02*
X103632000Y-98298000D01*
X165354000Y-94742000D02*
X165354000Y-98298000D01*
%TO.N,/INT1*%
X163414000Y-49939000D02*
X163322000Y-49847000D01*
X163567735Y-45728265D02*
X167132000Y-42164000D01*
X163322000Y-49847000D02*
X163322000Y-46990000D01*
X163322000Y-46990000D02*
X163567735Y-46744265D01*
X163322000Y-89979000D02*
X163322000Y-87122000D01*
X101845735Y-86876265D02*
X101845735Y-85860265D01*
X101600000Y-87122000D02*
X101845735Y-86876265D01*
X101600000Y-89979000D02*
X101600000Y-87122000D01*
X163567735Y-86876265D02*
X163567735Y-85860265D01*
X101845735Y-45728265D02*
X105410000Y-42164000D01*
X163567735Y-85860265D02*
X167132000Y-82296000D01*
X101600000Y-49847000D02*
X101600000Y-46990000D01*
X163414000Y-90071000D02*
X163322000Y-89979000D01*
X163567735Y-46744265D02*
X163567735Y-45728265D01*
X101845735Y-85860265D02*
X105410000Y-82296000D01*
X101692000Y-49939000D02*
X101600000Y-49847000D01*
X101692000Y-90071000D02*
X101600000Y-89979000D01*
X101845735Y-46744265D02*
X101845735Y-45728265D01*
X163322000Y-87122000D02*
X163567735Y-86876265D01*
X101600000Y-46990000D02*
X101845735Y-46744265D01*
%TO.N,GND*%
X133604000Y-61468000D02*
X133604000Y-58013600D01*
X135839200Y-56743600D02*
X138887200Y-56743600D01*
X134569200Y-58013600D02*
X135839200Y-56743600D01*
X133604000Y-58013600D02*
X134569200Y-58013600D01*
%TO.N,/BARO_INT*%
X125624400Y-45063600D02*
X121716800Y-48971200D01*
X121716800Y-70510400D02*
X121666000Y-70561200D01*
X120238200Y-74886801D02*
X120560799Y-75209400D01*
X122738400Y-82546600D02*
X121326400Y-83958600D01*
X122737200Y-75209400D02*
X122738400Y-75210600D01*
X134518400Y-46075600D02*
X133506400Y-45063600D01*
X121716800Y-48971200D02*
X121716800Y-70510400D01*
X121666000Y-71282600D02*
X120238200Y-72710400D01*
X133506400Y-45063600D02*
X125624400Y-45063600D01*
X121666000Y-70561200D02*
X121666000Y-71282600D01*
X120560799Y-75209400D02*
X122737200Y-75209400D01*
X122738400Y-75210600D02*
X122738400Y-82546600D01*
X120238200Y-72710400D02*
X120238200Y-74886801D01*
%TO.N,/IMU_INT 1*%
X122938200Y-72186800D02*
X121326400Y-73798600D01*
X133036400Y-67014000D02*
X133036400Y-68045818D01*
X139598400Y-48615600D02*
X140055600Y-49072800D01*
X140055600Y-49072800D02*
X140055600Y-59994800D01*
X133036400Y-68045818D02*
X128895418Y-72186800D01*
X128895418Y-72186800D02*
X122938200Y-72186800D01*
X140055600Y-59994800D02*
X133036400Y-67014000D01*
%TO.N,/IMU_INT 4*%
X124002800Y-73050400D02*
X124104400Y-72948800D01*
X124002800Y-80721200D02*
X124002800Y-73050400D01*
%TO.N,/IMU_INT 2*%
X129047818Y-80619600D02*
X126085600Y-80619600D01*
X137058400Y-69850000D02*
X137058400Y-72609018D01*
X137058400Y-72609018D02*
X129047818Y-80619600D01*
%TO.N,/SDA*%
X140233400Y-77063600D02*
X140233400Y-71967782D01*
X146286400Y-68089600D02*
X145186400Y-69189600D01*
X145186400Y-69189600D02*
X145198400Y-69201600D01*
X131826000Y-61198182D02*
X129469418Y-58841600D01*
X145198400Y-74798600D02*
X145186400Y-74810600D01*
X145186400Y-75907415D02*
X145198400Y-75919415D01*
X146286400Y-62034600D02*
X146286400Y-68089600D01*
X132283200Y-55554800D02*
X132283200Y-48920400D01*
X137058400Y-68792782D02*
X132444400Y-73406782D01*
X140233400Y-71967782D02*
X137058400Y-68792782D01*
X128981200Y-67259200D02*
X128981200Y-65735200D01*
X145186400Y-74810600D02*
X145186400Y-75907415D01*
X131826000Y-62890400D02*
X131826000Y-61198182D01*
X129469418Y-58841600D02*
X128996400Y-58841600D01*
X128981200Y-65735200D02*
X131826000Y-62890400D01*
X145198400Y-69201600D02*
X145198400Y-74798600D01*
X132444400Y-73406782D02*
X132444400Y-74055587D01*
X145186400Y-60934600D02*
X146286400Y-62034600D01*
X128996400Y-58841600D02*
X132283200Y-55554800D01*
X132283200Y-48920400D02*
X131978400Y-48615600D01*
X145198400Y-85486600D02*
X144186400Y-86498600D01*
X145198400Y-75919415D02*
X145198400Y-85486600D01*
%TO.N,/DIST_INT*%
X119888200Y-72565426D02*
X120929400Y-71524226D01*
X138074400Y-45660415D02*
X138074400Y-46990000D01*
X120929400Y-71524226D02*
X120929400Y-48031400D01*
X120929400Y-48031400D02*
X125069600Y-43891200D01*
X120294400Y-86498600D02*
X120294400Y-75437975D01*
X125069600Y-43891200D02*
X136305185Y-43891200D01*
X137976800Y-47087600D02*
X132990400Y-47087600D01*
X120294400Y-75437975D02*
X119888200Y-75031775D01*
X136305185Y-43891200D02*
X138074400Y-45660415D01*
X119888200Y-75031775D02*
X119888200Y-72565426D01*
X121326400Y-86498600D02*
X120294400Y-86498600D01*
X138074400Y-46990000D02*
X137976800Y-47087600D01*
X132990400Y-47087600D02*
X131978400Y-46075600D01*
%TO.N,/SCL*%
X129032000Y-68681600D02*
X129895600Y-67818000D01*
X141757400Y-61823600D02*
X145186400Y-58394600D01*
X143174400Y-82946600D02*
X143174400Y-66288600D01*
X143174400Y-66288600D02*
X141757400Y-64871600D01*
X129895600Y-67818000D02*
X132486400Y-67818000D01*
X124764800Y-52527200D02*
X124714000Y-52578000D01*
X144186400Y-83958600D02*
X143174400Y-82946600D01*
X141757400Y-64871600D02*
X141757400Y-61823600D01*
X131097400Y-52527200D02*
X124764800Y-52527200D01*
%TO.N,Net-(J1-Pin_5)*%
X135585200Y-78130400D02*
X134162800Y-79552800D01*
X134162800Y-79552800D02*
X134162800Y-91948000D01*
%TO.N,Net-(JP3-A)*%
X141376400Y-69951600D02*
X141376400Y-93954600D01*
X136956800Y-65633600D02*
X137058400Y-65633600D01*
X137058400Y-65633600D02*
X141376400Y-69951600D01*
X141376400Y-93954600D02*
X140741400Y-94589600D01*
%TO.N,Net-(JP5-A)*%
X127152400Y-65227200D02*
X131064000Y-61315600D01*
X127152400Y-71424800D02*
X127152400Y-65227200D01*
X127203200Y-71475600D02*
X127152400Y-71424800D01*
%TO.N,Net-(JP10-A)*%
X130206665Y-78682935D02*
X130206665Y-75926865D01*
X130200400Y-78689200D02*
X130206665Y-78682935D01*
X125755400Y-60147200D02*
X125755400Y-67157600D01*
X129997200Y-60147200D02*
X125755400Y-60147200D01*
%TO.N,Net-(JP11-A)*%
X125120400Y-73355200D02*
X125120400Y-79095600D01*
X134200574Y-68173600D02*
X129018974Y-73355200D01*
X135788400Y-68173600D02*
X134200574Y-68173600D01*
X129018974Y-73355200D02*
X125120400Y-73355200D01*
%TO.N,Net-(JP12-A)*%
X132994400Y-87096600D02*
X132486400Y-87604600D01*
X132994400Y-77698600D02*
X132994400Y-87096600D01*
%TD*%
%TA.AperFunction,Conductor*%
%TO.N,/GNDA*%
G36*
X163759001Y-40771217D02*
G01*
X163764684Y-40774498D01*
X163764686Y-40774500D01*
X163846579Y-40821781D01*
X163878810Y-40840390D01*
X163878814Y-40840392D01*
X164006108Y-40874500D01*
X164006110Y-40874500D01*
X164137890Y-40874500D01*
X164137892Y-40874500D01*
X164265186Y-40840392D01*
X164297421Y-40821780D01*
X164365319Y-40805306D01*
X164431347Y-40828156D01*
X164432184Y-40828758D01*
X164559181Y-40921027D01*
X164771866Y-41029395D01*
X164998885Y-41103158D01*
X165234649Y-41140500D01*
X165288108Y-41140500D01*
X165960489Y-41140500D01*
X166027528Y-41160185D01*
X166073283Y-41212989D01*
X166083227Y-41282147D01*
X166060807Y-41337386D01*
X165992606Y-41431255D01*
X165913056Y-41587379D01*
X165913055Y-41587382D01*
X165858911Y-41754020D01*
X165858911Y-41754023D01*
X165831500Y-41927089D01*
X165831500Y-42438916D01*
X165845728Y-42528748D01*
X165836773Y-42598041D01*
X165810936Y-42635827D01*
X163199021Y-45247743D01*
X163087216Y-45359547D01*
X163087214Y-45359549D01*
X163069393Y-45390416D01*
X163061861Y-45403464D01*
X163008158Y-45496480D01*
X162967234Y-45649208D01*
X162967234Y-45649210D01*
X162967234Y-45817311D01*
X162967235Y-45817324D01*
X162967235Y-46444167D01*
X162947550Y-46511206D01*
X162930916Y-46531848D01*
X162841481Y-46621282D01*
X162841479Y-46621285D01*
X162791361Y-46708094D01*
X162791359Y-46708096D01*
X162762425Y-46758209D01*
X162762424Y-46758210D01*
X162762423Y-46758215D01*
X162721499Y-46910943D01*
X162721499Y-46910945D01*
X162721499Y-47079046D01*
X162721500Y-47079059D01*
X162721500Y-49500775D01*
X162702494Y-49566747D01*
X162688209Y-49589481D01*
X162628633Y-49759737D01*
X162628630Y-49759750D01*
X162608435Y-49938996D01*
X162608435Y-49939003D01*
X162628630Y-50118249D01*
X162628631Y-50118254D01*
X162688211Y-50288523D01*
X162757388Y-50398617D01*
X162784184Y-50441262D01*
X162911738Y-50568816D01*
X163002080Y-50625582D01*
X163012092Y-50631873D01*
X163064478Y-50664789D01*
X163234745Y-50724368D01*
X163234750Y-50724369D01*
X163413996Y-50744565D01*
X163414000Y-50744565D01*
X163414004Y-50744565D01*
X163593249Y-50724369D01*
X163593252Y-50724368D01*
X163593255Y-50724368D01*
X163763522Y-50664789D01*
X163916262Y-50568816D01*
X164043816Y-50441262D01*
X164139789Y-50288522D01*
X164199368Y-50118255D01*
X164199369Y-50118249D01*
X164219565Y-49939003D01*
X164219565Y-49938996D01*
X164199369Y-49759750D01*
X164199368Y-49759745D01*
X164139788Y-49589476D01*
X164043815Y-49436737D01*
X163958819Y-49351741D01*
X163925334Y-49290418D01*
X163922500Y-49264060D01*
X163922500Y-47290098D01*
X163942185Y-47223059D01*
X163958819Y-47202416D01*
X164048255Y-47112981D01*
X164127312Y-46976049D01*
X164168236Y-46823322D01*
X164168236Y-46665207D01*
X164168236Y-46657612D01*
X164168235Y-46657594D01*
X164168235Y-46028361D01*
X164187920Y-45961322D01*
X164204549Y-45940685D01*
X165619819Y-44525414D01*
X165681142Y-44491930D01*
X165750834Y-44496914D01*
X165806767Y-44538786D01*
X165831184Y-44604250D01*
X165831500Y-44613096D01*
X165831500Y-44978910D01*
X165858911Y-45151976D01*
X165858911Y-45151979D01*
X165913055Y-45318617D01*
X165913056Y-45318620D01*
X165992606Y-45474744D01*
X166095599Y-45616501D01*
X166219499Y-45740401D01*
X166361256Y-45843394D01*
X166361258Y-45843395D01*
X166400746Y-45863516D01*
X166451541Y-45911491D01*
X166468336Y-45979312D01*
X166445798Y-46045446D01*
X166400746Y-46084484D01*
X166361258Y-46104604D01*
X166290377Y-46156102D01*
X166219499Y-46207599D01*
X166219497Y-46207601D01*
X166219496Y-46207601D01*
X166095601Y-46331496D01*
X166095601Y-46331497D01*
X166095599Y-46331499D01*
X166051367Y-46392377D01*
X165992606Y-46473255D01*
X165913056Y-46629379D01*
X165913055Y-46629382D01*
X165858911Y-46796020D01*
X165858911Y-46796023D01*
X165831500Y-46969089D01*
X165831500Y-47518910D01*
X165858911Y-47691976D01*
X165858911Y-47691979D01*
X165913055Y-47858617D01*
X165913056Y-47858620D01*
X165992606Y-48014744D01*
X166095599Y-48156501D01*
X166219499Y-48280401D01*
X166361256Y-48383394D01*
X166361258Y-48383395D01*
X166400746Y-48403516D01*
X166451541Y-48451491D01*
X166468336Y-48519312D01*
X166445798Y-48585446D01*
X166400746Y-48624484D01*
X166361258Y-48644604D01*
X166290377Y-48696102D01*
X166219499Y-48747599D01*
X166219497Y-48747601D01*
X166219496Y-48747601D01*
X166095601Y-48871496D01*
X166095601Y-48871497D01*
X166095599Y-48871499D01*
X166051367Y-48932377D01*
X165992606Y-49013255D01*
X165913056Y-49169379D01*
X165913055Y-49169382D01*
X165858911Y-49336020D01*
X165858911Y-49336023D01*
X165831500Y-49509089D01*
X165831500Y-50058910D01*
X165858911Y-50231976D01*
X165858911Y-50231979D01*
X165913055Y-50398617D01*
X165913056Y-50398620D01*
X165992606Y-50554744D01*
X166095599Y-50696501D01*
X166219499Y-50820401D01*
X166361256Y-50923394D01*
X166391950Y-50939033D01*
X166401295Y-50943795D01*
X166452091Y-50991770D01*
X166468886Y-51059591D01*
X166446348Y-51125726D01*
X166401296Y-51164764D01*
X166361520Y-51185031D01*
X166219822Y-51287982D01*
X166219821Y-51287982D01*
X166095982Y-51411821D01*
X166095982Y-51411822D01*
X165993033Y-51553517D01*
X165913518Y-51709573D01*
X165859398Y-51876140D01*
X165832000Y-52049123D01*
X165832000Y-52074000D01*
X166816314Y-52074000D01*
X166811920Y-52078394D01*
X166759259Y-52169606D01*
X166732000Y-52271339D01*
X166732000Y-52376661D01*
X166759259Y-52478394D01*
X166811920Y-52569606D01*
X166816314Y-52574000D01*
X165832000Y-52574000D01*
X165832000Y-52598876D01*
X165859398Y-52771859D01*
X165913518Y-52938426D01*
X165993033Y-53094482D01*
X166095982Y-53236177D01*
X166095982Y-53236178D01*
X166219821Y-53360017D01*
X166361519Y-53462968D01*
X166401294Y-53483234D01*
X166452091Y-53531208D01*
X166468886Y-53599029D01*
X166446349Y-53665164D01*
X166401297Y-53704203D01*
X166361256Y-53724606D01*
X166219499Y-53827599D01*
X166219497Y-53827601D01*
X166219496Y-53827601D01*
X166095601Y-53951496D01*
X166095596Y-53951502D01*
X166068148Y-53989280D01*
X166012817Y-54031944D01*
X165943204Y-54037922D01*
X165881409Y-54005314D01*
X165880151Y-54004073D01*
X165856262Y-53980184D01*
X165703523Y-53884211D01*
X165533254Y-53824631D01*
X165533249Y-53824630D01*
X165354004Y-53804435D01*
X165353996Y-53804435D01*
X165174750Y-53824630D01*
X165174745Y-53824631D01*
X165004476Y-53884211D01*
X164851737Y-53980184D01*
X164724184Y-54107737D01*
X164628211Y-54260476D01*
X164568631Y-54430745D01*
X164568630Y-54430750D01*
X164548435Y-54609996D01*
X164548435Y-54610003D01*
X164568630Y-54789249D01*
X164568631Y-54789254D01*
X164628211Y-54959523D01*
X164724185Y-55112263D01*
X164726445Y-55115097D01*
X164727334Y-55117275D01*
X164727889Y-55118158D01*
X164727734Y-55118255D01*
X164752855Y-55179783D01*
X164753500Y-55192412D01*
X164753500Y-58079330D01*
X164753499Y-58079348D01*
X164753499Y-58245054D01*
X164753498Y-58245054D01*
X164794423Y-58397785D01*
X164819026Y-58440397D01*
X164819027Y-58440401D01*
X164873475Y-58534709D01*
X164873481Y-58534717D01*
X164992349Y-58653585D01*
X164992355Y-58653590D01*
X165810936Y-59472172D01*
X165844421Y-59533495D01*
X165845728Y-59579251D01*
X165831500Y-59669083D01*
X165831500Y-60218910D01*
X165858911Y-60391976D01*
X165858911Y-60391979D01*
X165913055Y-60558617D01*
X165913056Y-60558620D01*
X165992608Y-60714747D01*
X166033198Y-60770615D01*
X166056678Y-60836421D01*
X166040853Y-60904475D01*
X165990747Y-60953170D01*
X165932880Y-60967500D01*
X165419892Y-60967500D01*
X165354000Y-60967500D01*
X165234649Y-60967500D01*
X165179995Y-60976156D01*
X164998888Y-61004841D01*
X164998887Y-61004841D01*
X164771863Y-61078606D01*
X164559176Y-61186975D01*
X164432308Y-61279150D01*
X164366501Y-61302630D01*
X164298448Y-61286804D01*
X164297425Y-61286220D01*
X164265190Y-61267610D01*
X164265188Y-61267609D01*
X164265186Y-61267608D01*
X164137892Y-61233500D01*
X164006108Y-61233500D01*
X163878814Y-61267608D01*
X163878813Y-61267608D01*
X163878811Y-61267609D01*
X163878810Y-61267609D01*
X163759000Y-61336782D01*
X163691100Y-61353255D01*
X163635000Y-61336782D01*
X163515189Y-61267609D01*
X163515186Y-61267608D01*
X163387892Y-61233500D01*
X163256108Y-61233500D01*
X163128814Y-61267608D01*
X163128813Y-61267608D01*
X163128811Y-61267609D01*
X163128810Y-61267609D01*
X163009000Y-61336782D01*
X162941100Y-61353255D01*
X162885000Y-61336782D01*
X162765189Y-61267609D01*
X162765186Y-61267608D01*
X162637892Y-61233500D01*
X162506108Y-61233500D01*
X162378814Y-61267608D01*
X162378811Y-61267609D01*
X162346573Y-61286221D01*
X162278672Y-61302691D01*
X162212646Y-61279837D01*
X162211691Y-61279150D01*
X162084822Y-61186975D01*
X162084821Y-61186974D01*
X162084819Y-61186973D01*
X161872134Y-61078605D01*
X161645115Y-61004842D01*
X161645113Y-61004841D01*
X161645111Y-61004841D01*
X161480498Y-60978768D01*
X161409351Y-60967500D01*
X161409350Y-60967500D01*
X160711120Y-60967500D01*
X160644081Y-60947815D01*
X160598326Y-60895011D01*
X160588382Y-60825853D01*
X160610802Y-60770615D01*
X160631562Y-60742039D01*
X160651394Y-60714744D01*
X160730943Y-60558620D01*
X160785089Y-60391975D01*
X160812500Y-60218911D01*
X160812500Y-59669089D01*
X160785089Y-59496025D01*
X160785088Y-59496021D01*
X160785088Y-59496020D01*
X160730944Y-59329382D01*
X160730943Y-59329379D01*
X160651393Y-59173255D01*
X160548401Y-59031499D01*
X160424501Y-58907599D01*
X160282744Y-58804606D01*
X160243253Y-58784484D01*
X160192458Y-58736510D01*
X160175663Y-58668689D01*
X160198200Y-58602555D01*
X160243254Y-58563515D01*
X160282744Y-58543394D01*
X160424501Y-58440401D01*
X160548401Y-58316501D01*
X160651394Y-58174744D01*
X160730943Y-58018620D01*
X160785089Y-57851975D01*
X160812500Y-57678911D01*
X160812500Y-57129089D01*
X160785089Y-56956025D01*
X160785088Y-56956021D01*
X160785088Y-56956020D01*
X160730944Y-56789382D01*
X160730943Y-56789379D01*
X160651393Y-56633255D01*
X160548401Y-56491499D01*
X160424501Y-56367599D01*
X160282744Y-56264606D01*
X160243253Y-56244484D01*
X160192458Y-56196510D01*
X160175663Y-56128689D01*
X160198200Y-56062555D01*
X160243254Y-56023515D01*
X160282744Y-56003394D01*
X160424501Y-55900401D01*
X160548401Y-55776501D01*
X160651394Y-55634744D01*
X160730943Y-55478620D01*
X160785089Y-55311975D01*
X160812500Y-55138911D01*
X160812500Y-54589089D01*
X160785089Y-54416025D01*
X160785088Y-54416021D01*
X160785088Y-54416020D01*
X160730944Y-54249382D01*
X160730943Y-54249379D01*
X160690410Y-54169830D01*
X160651394Y-54093256D01*
X160548401Y-53951499D01*
X160424501Y-53827599D01*
X160282744Y-53724606D01*
X160243253Y-53704484D01*
X160192458Y-53656510D01*
X160175663Y-53588689D01*
X160198200Y-53522555D01*
X160243254Y-53483515D01*
X160282744Y-53463394D01*
X160424501Y-53360401D01*
X160548401Y-53236501D01*
X160651394Y-53094744D01*
X160730943Y-52938620D01*
X160785089Y-52771975D01*
X160812500Y-52598911D01*
X160812500Y-52049089D01*
X160785089Y-51876025D01*
X160785088Y-51876021D01*
X160785088Y-51876020D01*
X160730944Y-51709382D01*
X160730943Y-51709379D01*
X160690410Y-51629830D01*
X160651394Y-51553256D01*
X160548401Y-51411499D01*
X160424501Y-51287599D01*
X160282744Y-51184606D01*
X160243253Y-51164484D01*
X160192458Y-51116510D01*
X160175663Y-51048689D01*
X160198200Y-50982555D01*
X160243254Y-50943515D01*
X160282744Y-50923394D01*
X160424501Y-50820401D01*
X160548401Y-50696501D01*
X160651394Y-50554744D01*
X160730943Y-50398620D01*
X160785089Y-50231975D01*
X160812500Y-50058911D01*
X160812500Y-49509089D01*
X160785089Y-49336025D01*
X160785088Y-49336021D01*
X160785088Y-49336020D01*
X160730944Y-49169382D01*
X160730943Y-49169379D01*
X160651393Y-49013255D01*
X160548401Y-48871499D01*
X160424501Y-48747599D01*
X160282744Y-48644606D01*
X160243253Y-48624484D01*
X160192458Y-48576510D01*
X160175663Y-48508689D01*
X160198200Y-48442555D01*
X160243254Y-48403515D01*
X160282744Y-48383394D01*
X160424501Y-48280401D01*
X160548401Y-48156501D01*
X160651394Y-48014744D01*
X160730943Y-47858620D01*
X160785089Y-47691975D01*
X160812500Y-47518911D01*
X160812500Y-46969089D01*
X160785089Y-46796025D01*
X160785088Y-46796021D01*
X160785088Y-46796020D01*
X160730944Y-46629382D01*
X160730943Y-46629379D01*
X160669851Y-46509480D01*
X160651394Y-46473256D01*
X160548401Y-46331499D01*
X160424501Y-46207599D01*
X160282744Y-46104606D01*
X160243253Y-46084484D01*
X160192458Y-46036510D01*
X160175663Y-45968689D01*
X160198200Y-45902555D01*
X160243254Y-45863515D01*
X160282744Y-45843394D01*
X160424501Y-45740401D01*
X160548401Y-45616501D01*
X160651394Y-45474744D01*
X160730943Y-45318620D01*
X160785089Y-45151975D01*
X160812500Y-44978911D01*
X160812500Y-44429089D01*
X160785089Y-44256025D01*
X160785088Y-44256021D01*
X160785088Y-44256020D01*
X160730944Y-44089382D01*
X160730943Y-44089379D01*
X160651393Y-43933255D01*
X160548401Y-43791499D01*
X160424501Y-43667599D01*
X160419131Y-43663697D01*
X160376467Y-43608370D01*
X160370488Y-43538757D01*
X160403093Y-43476961D01*
X160448686Y-43447199D01*
X160554326Y-43407798D01*
X160554326Y-43407797D01*
X160554331Y-43407796D01*
X160669546Y-43321546D01*
X160755796Y-43206331D01*
X160806091Y-43071483D01*
X160812500Y-43011873D01*
X160812499Y-41316128D01*
X160808374Y-41277753D01*
X160820781Y-41208994D01*
X160868392Y-41157857D01*
X160931664Y-41140500D01*
X161409350Y-41140500D01*
X161409351Y-41140500D01*
X161645115Y-41103158D01*
X161872134Y-41029395D01*
X162084819Y-40921027D01*
X162211690Y-40828848D01*
X162277496Y-40805368D01*
X162345550Y-40821193D01*
X162346441Y-40821701D01*
X162378814Y-40840392D01*
X162506108Y-40874500D01*
X162506110Y-40874500D01*
X162637890Y-40874500D01*
X162637892Y-40874500D01*
X162765186Y-40840392D01*
X162879314Y-40774500D01*
X162879315Y-40774498D01*
X162884999Y-40771217D01*
X162952899Y-40754744D01*
X163009001Y-40771217D01*
X163014684Y-40774498D01*
X163014686Y-40774500D01*
X163096579Y-40821781D01*
X163128810Y-40840390D01*
X163128814Y-40840392D01*
X163256108Y-40874500D01*
X163256110Y-40874500D01*
X163387890Y-40874500D01*
X163387892Y-40874500D01*
X163515186Y-40840392D01*
X163629314Y-40774500D01*
X163629315Y-40774498D01*
X163634999Y-40771217D01*
X163702899Y-40754744D01*
X163759001Y-40771217D01*
G37*
%TD.AperFunction*%
%TD*%
%TA.AperFunction,Conductor*%
%TO.N,/GNDA*%
G36*
X163759001Y-80903217D02*
G01*
X163764684Y-80906498D01*
X163764686Y-80906500D01*
X163846579Y-80953781D01*
X163878810Y-80972390D01*
X163878814Y-80972392D01*
X164006108Y-81006500D01*
X164006110Y-81006500D01*
X164137890Y-81006500D01*
X164137892Y-81006500D01*
X164265186Y-80972392D01*
X164297421Y-80953780D01*
X164365319Y-80937306D01*
X164431347Y-80960156D01*
X164432184Y-80960758D01*
X164559181Y-81053027D01*
X164771866Y-81161395D01*
X164998885Y-81235158D01*
X165234649Y-81272500D01*
X165288108Y-81272500D01*
X165960489Y-81272500D01*
X166027528Y-81292185D01*
X166073283Y-81344989D01*
X166083227Y-81414147D01*
X166060807Y-81469386D01*
X165992606Y-81563255D01*
X165913056Y-81719379D01*
X165913055Y-81719382D01*
X165858911Y-81886020D01*
X165858911Y-81886023D01*
X165831500Y-82059089D01*
X165831500Y-82570916D01*
X165845728Y-82660748D01*
X165836773Y-82730041D01*
X165810936Y-82767827D01*
X163199021Y-85379743D01*
X163087216Y-85491547D01*
X163087214Y-85491549D01*
X163069393Y-85522416D01*
X163061861Y-85535464D01*
X163008158Y-85628480D01*
X162967234Y-85781208D01*
X162967234Y-85781210D01*
X162967234Y-85949311D01*
X162967235Y-85949324D01*
X162967235Y-86576167D01*
X162947550Y-86643206D01*
X162930916Y-86663848D01*
X162841481Y-86753282D01*
X162841479Y-86753285D01*
X162791361Y-86840094D01*
X162791359Y-86840096D01*
X162762425Y-86890209D01*
X162762424Y-86890210D01*
X162762423Y-86890215D01*
X162721499Y-87042943D01*
X162721499Y-87042945D01*
X162721499Y-87211046D01*
X162721500Y-87211059D01*
X162721500Y-89632775D01*
X162702494Y-89698747D01*
X162688209Y-89721481D01*
X162628633Y-89891737D01*
X162628630Y-89891750D01*
X162608435Y-90070996D01*
X162608435Y-90071003D01*
X162628630Y-90250249D01*
X162628631Y-90250254D01*
X162688211Y-90420523D01*
X162757388Y-90530617D01*
X162784184Y-90573262D01*
X162911738Y-90700816D01*
X163002080Y-90757582D01*
X163012092Y-90763873D01*
X163064478Y-90796789D01*
X163234745Y-90856368D01*
X163234750Y-90856369D01*
X163413996Y-90876565D01*
X163414000Y-90876565D01*
X163414004Y-90876565D01*
X163593249Y-90856369D01*
X163593252Y-90856368D01*
X163593255Y-90856368D01*
X163763522Y-90796789D01*
X163916262Y-90700816D01*
X164043816Y-90573262D01*
X164139789Y-90420522D01*
X164199368Y-90250255D01*
X164199369Y-90250249D01*
X164219565Y-90071003D01*
X164219565Y-90070996D01*
X164199369Y-89891750D01*
X164199368Y-89891745D01*
X164139788Y-89721476D01*
X164043815Y-89568737D01*
X163958819Y-89483741D01*
X163925334Y-89422418D01*
X163922500Y-89396060D01*
X163922500Y-87422098D01*
X163942185Y-87355059D01*
X163958819Y-87334416D01*
X164048255Y-87244981D01*
X164127312Y-87108049D01*
X164168236Y-86955322D01*
X164168236Y-86797207D01*
X164168236Y-86789612D01*
X164168235Y-86789594D01*
X164168235Y-86160361D01*
X164187920Y-86093322D01*
X164204549Y-86072685D01*
X165619819Y-84657414D01*
X165681142Y-84623930D01*
X165750834Y-84628914D01*
X165806767Y-84670786D01*
X165831184Y-84736250D01*
X165831500Y-84745096D01*
X165831500Y-85110910D01*
X165858911Y-85283976D01*
X165858911Y-85283979D01*
X165913055Y-85450617D01*
X165913056Y-85450620D01*
X165992606Y-85606744D01*
X166095599Y-85748501D01*
X166219499Y-85872401D01*
X166361256Y-85975394D01*
X166361258Y-85975395D01*
X166400746Y-85995516D01*
X166451541Y-86043491D01*
X166468336Y-86111312D01*
X166445798Y-86177446D01*
X166400746Y-86216484D01*
X166361258Y-86236604D01*
X166290377Y-86288102D01*
X166219499Y-86339599D01*
X166219497Y-86339601D01*
X166219496Y-86339601D01*
X166095601Y-86463496D01*
X166095601Y-86463497D01*
X166095599Y-86463499D01*
X166051367Y-86524377D01*
X165992606Y-86605255D01*
X165913056Y-86761379D01*
X165913055Y-86761382D01*
X165858911Y-86928020D01*
X165858911Y-86928023D01*
X165831500Y-87101089D01*
X165831500Y-87650910D01*
X165858911Y-87823976D01*
X165858911Y-87823979D01*
X165913055Y-87990617D01*
X165913056Y-87990620D01*
X165992606Y-88146744D01*
X166095599Y-88288501D01*
X166219499Y-88412401D01*
X166361256Y-88515394D01*
X166361258Y-88515395D01*
X166400746Y-88535516D01*
X166451541Y-88583491D01*
X166468336Y-88651312D01*
X166445798Y-88717446D01*
X166400746Y-88756484D01*
X166361258Y-88776604D01*
X166290377Y-88828102D01*
X166219499Y-88879599D01*
X166219497Y-88879601D01*
X166219496Y-88879601D01*
X166095601Y-89003496D01*
X166095601Y-89003497D01*
X166095599Y-89003499D01*
X166051367Y-89064377D01*
X165992606Y-89145255D01*
X165913056Y-89301379D01*
X165913055Y-89301382D01*
X165858911Y-89468020D01*
X165858911Y-89468023D01*
X165831500Y-89641089D01*
X165831500Y-90190910D01*
X165858911Y-90363976D01*
X165858911Y-90363979D01*
X165913055Y-90530617D01*
X165913056Y-90530620D01*
X165992606Y-90686744D01*
X166095599Y-90828501D01*
X166219499Y-90952401D01*
X166361256Y-91055394D01*
X166391950Y-91071033D01*
X166401295Y-91075795D01*
X166452091Y-91123770D01*
X166468886Y-91191591D01*
X166446348Y-91257726D01*
X166401296Y-91296764D01*
X166361520Y-91317031D01*
X166219822Y-91419982D01*
X166219821Y-91419982D01*
X166095982Y-91543821D01*
X166095982Y-91543822D01*
X165993033Y-91685517D01*
X165913518Y-91841573D01*
X165859398Y-92008140D01*
X165832000Y-92181123D01*
X165832000Y-92206000D01*
X166816314Y-92206000D01*
X166811920Y-92210394D01*
X166759259Y-92301606D01*
X166732000Y-92403339D01*
X166732000Y-92508661D01*
X166759259Y-92610394D01*
X166811920Y-92701606D01*
X166816314Y-92706000D01*
X165832000Y-92706000D01*
X165832000Y-92730876D01*
X165859398Y-92903859D01*
X165913518Y-93070426D01*
X165993033Y-93226482D01*
X166095982Y-93368177D01*
X166095982Y-93368178D01*
X166219821Y-93492017D01*
X166361519Y-93594968D01*
X166401294Y-93615234D01*
X166452091Y-93663208D01*
X166468886Y-93731029D01*
X166446349Y-93797164D01*
X166401297Y-93836203D01*
X166361256Y-93856606D01*
X166219499Y-93959599D01*
X166219497Y-93959601D01*
X166219496Y-93959601D01*
X166095601Y-94083496D01*
X166095596Y-94083502D01*
X166068148Y-94121280D01*
X166012817Y-94163944D01*
X165943204Y-94169922D01*
X165881409Y-94137314D01*
X165880151Y-94136073D01*
X165856262Y-94112184D01*
X165703523Y-94016211D01*
X165533254Y-93956631D01*
X165533249Y-93956630D01*
X165354004Y-93936435D01*
X165353996Y-93936435D01*
X165174750Y-93956630D01*
X165174745Y-93956631D01*
X165004476Y-94016211D01*
X164851737Y-94112184D01*
X164724184Y-94239737D01*
X164628211Y-94392476D01*
X164568631Y-94562745D01*
X164568630Y-94562750D01*
X164548435Y-94741996D01*
X164548435Y-94742003D01*
X164568630Y-94921249D01*
X164568631Y-94921254D01*
X164628211Y-95091523D01*
X164724185Y-95244263D01*
X164726445Y-95247097D01*
X164727334Y-95249275D01*
X164727889Y-95250158D01*
X164727734Y-95250255D01*
X164752855Y-95311783D01*
X164753500Y-95324412D01*
X164753500Y-98211330D01*
X164753499Y-98211348D01*
X164753499Y-98377054D01*
X164753498Y-98377054D01*
X164794423Y-98529785D01*
X164819026Y-98572397D01*
X164819027Y-98572401D01*
X164873475Y-98666709D01*
X164873481Y-98666717D01*
X164992349Y-98785585D01*
X164992355Y-98785590D01*
X165810936Y-99604172D01*
X165844421Y-99665495D01*
X165845728Y-99711251D01*
X165831500Y-99801083D01*
X165831500Y-100350910D01*
X165858911Y-100523976D01*
X165858911Y-100523979D01*
X165913055Y-100690617D01*
X165913056Y-100690620D01*
X165992608Y-100846747D01*
X166033198Y-100902615D01*
X166056678Y-100968421D01*
X166040853Y-101036475D01*
X165990747Y-101085170D01*
X165932880Y-101099500D01*
X165419892Y-101099500D01*
X165354000Y-101099500D01*
X165234649Y-101099500D01*
X165179995Y-101108156D01*
X164998888Y-101136841D01*
X164998887Y-101136841D01*
X164771863Y-101210606D01*
X164559176Y-101318975D01*
X164432308Y-101411150D01*
X164366501Y-101434630D01*
X164298448Y-101418804D01*
X164297425Y-101418220D01*
X164265190Y-101399610D01*
X164265188Y-101399609D01*
X164265186Y-101399608D01*
X164137892Y-101365500D01*
X164006108Y-101365500D01*
X163878814Y-101399608D01*
X163878813Y-101399608D01*
X163878811Y-101399609D01*
X163878810Y-101399609D01*
X163759000Y-101468782D01*
X163691100Y-101485255D01*
X163635000Y-101468782D01*
X163515189Y-101399609D01*
X163515186Y-101399608D01*
X163387892Y-101365500D01*
X163256108Y-101365500D01*
X163128814Y-101399608D01*
X163128813Y-101399608D01*
X163128811Y-101399609D01*
X163128810Y-101399609D01*
X163009000Y-101468782D01*
X162941100Y-101485255D01*
X162885000Y-101468782D01*
X162765189Y-101399609D01*
X162765186Y-101399608D01*
X162637892Y-101365500D01*
X162506108Y-101365500D01*
X162378814Y-101399608D01*
X162378811Y-101399609D01*
X162346573Y-101418221D01*
X162278672Y-101434691D01*
X162212646Y-101411837D01*
X162211691Y-101411150D01*
X162084822Y-101318975D01*
X162084821Y-101318974D01*
X162084819Y-101318973D01*
X161872134Y-101210605D01*
X161645115Y-101136842D01*
X161645113Y-101136841D01*
X161645111Y-101136841D01*
X161480498Y-101110768D01*
X161409351Y-101099500D01*
X161409350Y-101099500D01*
X160711120Y-101099500D01*
X160644081Y-101079815D01*
X160598326Y-101027011D01*
X160588382Y-100957853D01*
X160610802Y-100902615D01*
X160631562Y-100874039D01*
X160651394Y-100846744D01*
X160730943Y-100690620D01*
X160785089Y-100523975D01*
X160812500Y-100350911D01*
X160812500Y-99801089D01*
X160785089Y-99628025D01*
X160785088Y-99628021D01*
X160785088Y-99628020D01*
X160730944Y-99461382D01*
X160730943Y-99461379D01*
X160651393Y-99305255D01*
X160548401Y-99163499D01*
X160424501Y-99039599D01*
X160282744Y-98936606D01*
X160243253Y-98916484D01*
X160192458Y-98868510D01*
X160175663Y-98800689D01*
X160198200Y-98734555D01*
X160243254Y-98695515D01*
X160282744Y-98675394D01*
X160424501Y-98572401D01*
X160548401Y-98448501D01*
X160651394Y-98306744D01*
X160730943Y-98150620D01*
X160785089Y-97983975D01*
X160812500Y-97810911D01*
X160812500Y-97261089D01*
X160785089Y-97088025D01*
X160785088Y-97088021D01*
X160785088Y-97088020D01*
X160730944Y-96921382D01*
X160730943Y-96921379D01*
X160651393Y-96765255D01*
X160548401Y-96623499D01*
X160424501Y-96499599D01*
X160282744Y-96396606D01*
X160243253Y-96376484D01*
X160192458Y-96328510D01*
X160175663Y-96260689D01*
X160198200Y-96194555D01*
X160243254Y-96155515D01*
X160282744Y-96135394D01*
X160424501Y-96032401D01*
X160548401Y-95908501D01*
X160651394Y-95766744D01*
X160730943Y-95610620D01*
X160785089Y-95443975D01*
X160812500Y-95270911D01*
X160812500Y-94721089D01*
X160785089Y-94548025D01*
X160785088Y-94548021D01*
X160785088Y-94548020D01*
X160730944Y-94381382D01*
X160730943Y-94381379D01*
X160690410Y-94301830D01*
X160651394Y-94225256D01*
X160548401Y-94083499D01*
X160424501Y-93959599D01*
X160282744Y-93856606D01*
X160243253Y-93836484D01*
X160192458Y-93788510D01*
X160175663Y-93720689D01*
X160198200Y-93654555D01*
X160243254Y-93615515D01*
X160282744Y-93595394D01*
X160424501Y-93492401D01*
X160548401Y-93368501D01*
X160651394Y-93226744D01*
X160730943Y-93070620D01*
X160785089Y-92903975D01*
X160812500Y-92730911D01*
X160812500Y-92181089D01*
X160785089Y-92008025D01*
X160785088Y-92008021D01*
X160785088Y-92008020D01*
X160730944Y-91841382D01*
X160730943Y-91841379D01*
X160690410Y-91761830D01*
X160651394Y-91685256D01*
X160548401Y-91543499D01*
X160424501Y-91419599D01*
X160282744Y-91316606D01*
X160243253Y-91296484D01*
X160192458Y-91248510D01*
X160175663Y-91180689D01*
X160198200Y-91114555D01*
X160243254Y-91075515D01*
X160282744Y-91055394D01*
X160424501Y-90952401D01*
X160548401Y-90828501D01*
X160651394Y-90686744D01*
X160730943Y-90530620D01*
X160785089Y-90363975D01*
X160812500Y-90190911D01*
X160812500Y-89641089D01*
X160785089Y-89468025D01*
X160785088Y-89468021D01*
X160785088Y-89468020D01*
X160730944Y-89301382D01*
X160730943Y-89301379D01*
X160651393Y-89145255D01*
X160548401Y-89003499D01*
X160424501Y-88879599D01*
X160282744Y-88776606D01*
X160243253Y-88756484D01*
X160192458Y-88708510D01*
X160175663Y-88640689D01*
X160198200Y-88574555D01*
X160243254Y-88535515D01*
X160282744Y-88515394D01*
X160424501Y-88412401D01*
X160548401Y-88288501D01*
X160651394Y-88146744D01*
X160730943Y-87990620D01*
X160785089Y-87823975D01*
X160812500Y-87650911D01*
X160812500Y-87101089D01*
X160785089Y-86928025D01*
X160785088Y-86928021D01*
X160785088Y-86928020D01*
X160730944Y-86761382D01*
X160730943Y-86761379D01*
X160669851Y-86641480D01*
X160651394Y-86605256D01*
X160548401Y-86463499D01*
X160424501Y-86339599D01*
X160282744Y-86236606D01*
X160243253Y-86216484D01*
X160192458Y-86168510D01*
X160175663Y-86100689D01*
X160198200Y-86034555D01*
X160243254Y-85995515D01*
X160282744Y-85975394D01*
X160424501Y-85872401D01*
X160548401Y-85748501D01*
X160651394Y-85606744D01*
X160730943Y-85450620D01*
X160785089Y-85283975D01*
X160812500Y-85110911D01*
X160812500Y-84561089D01*
X160785089Y-84388025D01*
X160785088Y-84388021D01*
X160785088Y-84388020D01*
X160730944Y-84221382D01*
X160730943Y-84221379D01*
X160651393Y-84065255D01*
X160548401Y-83923499D01*
X160424501Y-83799599D01*
X160419131Y-83795697D01*
X160376467Y-83740370D01*
X160370488Y-83670757D01*
X160403093Y-83608961D01*
X160448686Y-83579199D01*
X160554326Y-83539798D01*
X160554326Y-83539797D01*
X160554331Y-83539796D01*
X160669546Y-83453546D01*
X160755796Y-83338331D01*
X160806091Y-83203483D01*
X160812500Y-83143873D01*
X160812499Y-81448128D01*
X160808374Y-81409753D01*
X160820781Y-81340994D01*
X160868392Y-81289857D01*
X160931664Y-81272500D01*
X161409350Y-81272500D01*
X161409351Y-81272500D01*
X161645115Y-81235158D01*
X161872134Y-81161395D01*
X162084819Y-81053027D01*
X162211690Y-80960848D01*
X162277496Y-80937368D01*
X162345550Y-80953193D01*
X162346441Y-80953701D01*
X162378814Y-80972392D01*
X162506108Y-81006500D01*
X162506110Y-81006500D01*
X162637890Y-81006500D01*
X162637892Y-81006500D01*
X162765186Y-80972392D01*
X162879314Y-80906500D01*
X162879315Y-80906498D01*
X162884999Y-80903217D01*
X162952899Y-80886744D01*
X163009001Y-80903217D01*
X163014684Y-80906498D01*
X163014686Y-80906500D01*
X163096579Y-80953781D01*
X163128810Y-80972390D01*
X163128814Y-80972392D01*
X163256108Y-81006500D01*
X163256110Y-81006500D01*
X163387890Y-81006500D01*
X163387892Y-81006500D01*
X163515186Y-80972392D01*
X163629314Y-80906500D01*
X163629315Y-80906498D01*
X163634999Y-80903217D01*
X163702899Y-80886744D01*
X163759001Y-80903217D01*
G37*
%TD.AperFunction*%
%TD*%
%TA.AperFunction,Conductor*%
%TO.N,/GNDA*%
G36*
X102037001Y-40771217D02*
G01*
X102042684Y-40774498D01*
X102042686Y-40774500D01*
X102124579Y-40821781D01*
X102156810Y-40840390D01*
X102156814Y-40840392D01*
X102284108Y-40874500D01*
X102284110Y-40874500D01*
X102415890Y-40874500D01*
X102415892Y-40874500D01*
X102543186Y-40840392D01*
X102575421Y-40821780D01*
X102643319Y-40805306D01*
X102709347Y-40828156D01*
X102710184Y-40828758D01*
X102837181Y-40921027D01*
X103049866Y-41029395D01*
X103276885Y-41103158D01*
X103512649Y-41140500D01*
X103566108Y-41140500D01*
X104238489Y-41140500D01*
X104305528Y-41160185D01*
X104351283Y-41212989D01*
X104361227Y-41282147D01*
X104338807Y-41337386D01*
X104270606Y-41431255D01*
X104191056Y-41587379D01*
X104191055Y-41587382D01*
X104136911Y-41754020D01*
X104136911Y-41754023D01*
X104109500Y-41927089D01*
X104109500Y-42438916D01*
X104123728Y-42528748D01*
X104114773Y-42598041D01*
X104088936Y-42635827D01*
X101477021Y-45247743D01*
X101365216Y-45359547D01*
X101365214Y-45359549D01*
X101347393Y-45390416D01*
X101339861Y-45403464D01*
X101286158Y-45496480D01*
X101245234Y-45649208D01*
X101245234Y-45649210D01*
X101245234Y-45817311D01*
X101245235Y-45817324D01*
X101245235Y-46444167D01*
X101225550Y-46511206D01*
X101208916Y-46531848D01*
X101119481Y-46621282D01*
X101119479Y-46621285D01*
X101069361Y-46708094D01*
X101069359Y-46708096D01*
X101040425Y-46758209D01*
X101040424Y-46758210D01*
X101040423Y-46758215D01*
X100999499Y-46910943D01*
X100999499Y-46910945D01*
X100999499Y-47079046D01*
X100999500Y-47079059D01*
X100999500Y-49500775D01*
X100980494Y-49566747D01*
X100966209Y-49589481D01*
X100906633Y-49759737D01*
X100906630Y-49759750D01*
X100886435Y-49938996D01*
X100886435Y-49939003D01*
X100906630Y-50118249D01*
X100906631Y-50118254D01*
X100966211Y-50288523D01*
X101035388Y-50398617D01*
X101062184Y-50441262D01*
X101189738Y-50568816D01*
X101280080Y-50625582D01*
X101290092Y-50631873D01*
X101342478Y-50664789D01*
X101512745Y-50724368D01*
X101512750Y-50724369D01*
X101691996Y-50744565D01*
X101692000Y-50744565D01*
X101692004Y-50744565D01*
X101871249Y-50724369D01*
X101871252Y-50724368D01*
X101871255Y-50724368D01*
X102041522Y-50664789D01*
X102194262Y-50568816D01*
X102321816Y-50441262D01*
X102417789Y-50288522D01*
X102477368Y-50118255D01*
X102477369Y-50118249D01*
X102497565Y-49939003D01*
X102497565Y-49938996D01*
X102477369Y-49759750D01*
X102477368Y-49759745D01*
X102417788Y-49589476D01*
X102321815Y-49436737D01*
X102236819Y-49351741D01*
X102203334Y-49290418D01*
X102200500Y-49264060D01*
X102200500Y-47290098D01*
X102220185Y-47223059D01*
X102236819Y-47202416D01*
X102326255Y-47112981D01*
X102405312Y-46976049D01*
X102446236Y-46823322D01*
X102446236Y-46665207D01*
X102446236Y-46657612D01*
X102446235Y-46657594D01*
X102446235Y-46028361D01*
X102465920Y-45961322D01*
X102482549Y-45940685D01*
X103897819Y-44525414D01*
X103959142Y-44491930D01*
X104028834Y-44496914D01*
X104084767Y-44538786D01*
X104109184Y-44604250D01*
X104109500Y-44613096D01*
X104109500Y-44978910D01*
X104136911Y-45151976D01*
X104136911Y-45151979D01*
X104191055Y-45318617D01*
X104191056Y-45318620D01*
X104270606Y-45474744D01*
X104373599Y-45616501D01*
X104497499Y-45740401D01*
X104639256Y-45843394D01*
X104639258Y-45843395D01*
X104678746Y-45863516D01*
X104729541Y-45911491D01*
X104746336Y-45979312D01*
X104723798Y-46045446D01*
X104678746Y-46084484D01*
X104639258Y-46104604D01*
X104568377Y-46156102D01*
X104497499Y-46207599D01*
X104497497Y-46207601D01*
X104497496Y-46207601D01*
X104373601Y-46331496D01*
X104373601Y-46331497D01*
X104373599Y-46331499D01*
X104329367Y-46392377D01*
X104270606Y-46473255D01*
X104191056Y-46629379D01*
X104191055Y-46629382D01*
X104136911Y-46796020D01*
X104136911Y-46796023D01*
X104109500Y-46969089D01*
X104109500Y-47518910D01*
X104136911Y-47691976D01*
X104136911Y-47691979D01*
X104191055Y-47858617D01*
X104191056Y-47858620D01*
X104270606Y-48014744D01*
X104373599Y-48156501D01*
X104497499Y-48280401D01*
X104639256Y-48383394D01*
X104639258Y-48383395D01*
X104678746Y-48403516D01*
X104729541Y-48451491D01*
X104746336Y-48519312D01*
X104723798Y-48585446D01*
X104678746Y-48624484D01*
X104639258Y-48644604D01*
X104568377Y-48696102D01*
X104497499Y-48747599D01*
X104497497Y-48747601D01*
X104497496Y-48747601D01*
X104373601Y-48871496D01*
X104373601Y-48871497D01*
X104373599Y-48871499D01*
X104329367Y-48932377D01*
X104270606Y-49013255D01*
X104191056Y-49169379D01*
X104191055Y-49169382D01*
X104136911Y-49336020D01*
X104136911Y-49336023D01*
X104109500Y-49509089D01*
X104109500Y-50058910D01*
X104136911Y-50231976D01*
X104136911Y-50231979D01*
X104191055Y-50398617D01*
X104191056Y-50398620D01*
X104270606Y-50554744D01*
X104373599Y-50696501D01*
X104497499Y-50820401D01*
X104639256Y-50923394D01*
X104669950Y-50939033D01*
X104679295Y-50943795D01*
X104730091Y-50991770D01*
X104746886Y-51059591D01*
X104724348Y-51125726D01*
X104679296Y-51164764D01*
X104639520Y-51185031D01*
X104497822Y-51287982D01*
X104497821Y-51287982D01*
X104373982Y-51411821D01*
X104373982Y-51411822D01*
X104271033Y-51553517D01*
X104191518Y-51709573D01*
X104137398Y-51876140D01*
X104110000Y-52049123D01*
X104110000Y-52074000D01*
X105094314Y-52074000D01*
X105089920Y-52078394D01*
X105037259Y-52169606D01*
X105010000Y-52271339D01*
X105010000Y-52376661D01*
X105037259Y-52478394D01*
X105089920Y-52569606D01*
X105094314Y-52574000D01*
X104110000Y-52574000D01*
X104110000Y-52598876D01*
X104137398Y-52771859D01*
X104191518Y-52938426D01*
X104271033Y-53094482D01*
X104373982Y-53236177D01*
X104373982Y-53236178D01*
X104497821Y-53360017D01*
X104639519Y-53462968D01*
X104679294Y-53483234D01*
X104730091Y-53531208D01*
X104746886Y-53599029D01*
X104724349Y-53665164D01*
X104679297Y-53704203D01*
X104639256Y-53724606D01*
X104497499Y-53827599D01*
X104497497Y-53827601D01*
X104497496Y-53827601D01*
X104373601Y-53951496D01*
X104373596Y-53951502D01*
X104346148Y-53989280D01*
X104290817Y-54031944D01*
X104221204Y-54037922D01*
X104159409Y-54005314D01*
X104158151Y-54004073D01*
X104134262Y-53980184D01*
X103981523Y-53884211D01*
X103811254Y-53824631D01*
X103811249Y-53824630D01*
X103632004Y-53804435D01*
X103631996Y-53804435D01*
X103452750Y-53824630D01*
X103452745Y-53824631D01*
X103282476Y-53884211D01*
X103129737Y-53980184D01*
X103002184Y-54107737D01*
X102906211Y-54260476D01*
X102846631Y-54430745D01*
X102846630Y-54430750D01*
X102826435Y-54609996D01*
X102826435Y-54610003D01*
X102846630Y-54789249D01*
X102846631Y-54789254D01*
X102906211Y-54959523D01*
X103002185Y-55112263D01*
X103004445Y-55115097D01*
X103005334Y-55117275D01*
X103005889Y-55118158D01*
X103005734Y-55118255D01*
X103030855Y-55179783D01*
X103031500Y-55192412D01*
X103031500Y-58079330D01*
X103031499Y-58079348D01*
X103031499Y-58245054D01*
X103031498Y-58245054D01*
X103072423Y-58397785D01*
X103097026Y-58440397D01*
X103097027Y-58440401D01*
X103151475Y-58534709D01*
X103151481Y-58534717D01*
X103270349Y-58653585D01*
X103270355Y-58653590D01*
X104088936Y-59472172D01*
X104122421Y-59533495D01*
X104123728Y-59579251D01*
X104109500Y-59669083D01*
X104109500Y-60218910D01*
X104136911Y-60391976D01*
X104136911Y-60391979D01*
X104191055Y-60558617D01*
X104191056Y-60558620D01*
X104270608Y-60714747D01*
X104311198Y-60770615D01*
X104334678Y-60836421D01*
X104318853Y-60904475D01*
X104268747Y-60953170D01*
X104210880Y-60967500D01*
X103697892Y-60967500D01*
X103632000Y-60967500D01*
X103512649Y-60967500D01*
X103457995Y-60976156D01*
X103276888Y-61004841D01*
X103276887Y-61004841D01*
X103049863Y-61078606D01*
X102837176Y-61186975D01*
X102710308Y-61279150D01*
X102644501Y-61302630D01*
X102576448Y-61286804D01*
X102575425Y-61286220D01*
X102543190Y-61267610D01*
X102543188Y-61267609D01*
X102543186Y-61267608D01*
X102415892Y-61233500D01*
X102284108Y-61233500D01*
X102156814Y-61267608D01*
X102156813Y-61267608D01*
X102156811Y-61267609D01*
X102156810Y-61267609D01*
X102037000Y-61336782D01*
X101969100Y-61353255D01*
X101913000Y-61336782D01*
X101793189Y-61267609D01*
X101793186Y-61267608D01*
X101665892Y-61233500D01*
X101534108Y-61233500D01*
X101406814Y-61267608D01*
X101406813Y-61267608D01*
X101406811Y-61267609D01*
X101406810Y-61267609D01*
X101287000Y-61336782D01*
X101219100Y-61353255D01*
X101163000Y-61336782D01*
X101043189Y-61267609D01*
X101043186Y-61267608D01*
X100915892Y-61233500D01*
X100784108Y-61233500D01*
X100656814Y-61267608D01*
X100656811Y-61267609D01*
X100624573Y-61286221D01*
X100556672Y-61302691D01*
X100490646Y-61279837D01*
X100489691Y-61279150D01*
X100362822Y-61186975D01*
X100362821Y-61186974D01*
X100362819Y-61186973D01*
X100150134Y-61078605D01*
X99923115Y-61004842D01*
X99923113Y-61004841D01*
X99923111Y-61004841D01*
X99758498Y-60978768D01*
X99687351Y-60967500D01*
X99687350Y-60967500D01*
X98989120Y-60967500D01*
X98922081Y-60947815D01*
X98876326Y-60895011D01*
X98866382Y-60825853D01*
X98888802Y-60770615D01*
X98909562Y-60742039D01*
X98929394Y-60714744D01*
X99008943Y-60558620D01*
X99063089Y-60391975D01*
X99090500Y-60218911D01*
X99090500Y-59669089D01*
X99063089Y-59496025D01*
X99063088Y-59496021D01*
X99063088Y-59496020D01*
X99008944Y-59329382D01*
X99008943Y-59329379D01*
X98929393Y-59173255D01*
X98826401Y-59031499D01*
X98702501Y-58907599D01*
X98560744Y-58804606D01*
X98521253Y-58784484D01*
X98470458Y-58736510D01*
X98453663Y-58668689D01*
X98476200Y-58602555D01*
X98521254Y-58563515D01*
X98560744Y-58543394D01*
X98702501Y-58440401D01*
X98826401Y-58316501D01*
X98929394Y-58174744D01*
X99008943Y-58018620D01*
X99063089Y-57851975D01*
X99090500Y-57678911D01*
X99090500Y-57129089D01*
X99063089Y-56956025D01*
X99063088Y-56956021D01*
X99063088Y-56956020D01*
X99008944Y-56789382D01*
X99008943Y-56789379D01*
X98929393Y-56633255D01*
X98826401Y-56491499D01*
X98702501Y-56367599D01*
X98560744Y-56264606D01*
X98521253Y-56244484D01*
X98470458Y-56196510D01*
X98453663Y-56128689D01*
X98476200Y-56062555D01*
X98521254Y-56023515D01*
X98560744Y-56003394D01*
X98702501Y-55900401D01*
X98826401Y-55776501D01*
X98929394Y-55634744D01*
X99008943Y-55478620D01*
X99063089Y-55311975D01*
X99090500Y-55138911D01*
X99090500Y-54589089D01*
X99063089Y-54416025D01*
X99063088Y-54416021D01*
X99063088Y-54416020D01*
X99008944Y-54249382D01*
X99008943Y-54249379D01*
X98968410Y-54169830D01*
X98929394Y-54093256D01*
X98826401Y-53951499D01*
X98702501Y-53827599D01*
X98560744Y-53724606D01*
X98521253Y-53704484D01*
X98470458Y-53656510D01*
X98453663Y-53588689D01*
X98476200Y-53522555D01*
X98521254Y-53483515D01*
X98560744Y-53463394D01*
X98702501Y-53360401D01*
X98826401Y-53236501D01*
X98929394Y-53094744D01*
X99008943Y-52938620D01*
X99063089Y-52771975D01*
X99090500Y-52598911D01*
X99090500Y-52049089D01*
X99063089Y-51876025D01*
X99063088Y-51876021D01*
X99063088Y-51876020D01*
X99008944Y-51709382D01*
X99008943Y-51709379D01*
X98968410Y-51629830D01*
X98929394Y-51553256D01*
X98826401Y-51411499D01*
X98702501Y-51287599D01*
X98560744Y-51184606D01*
X98521253Y-51164484D01*
X98470458Y-51116510D01*
X98453663Y-51048689D01*
X98476200Y-50982555D01*
X98521254Y-50943515D01*
X98560744Y-50923394D01*
X98702501Y-50820401D01*
X98826401Y-50696501D01*
X98929394Y-50554744D01*
X99008943Y-50398620D01*
X99063089Y-50231975D01*
X99090500Y-50058911D01*
X99090500Y-49509089D01*
X99063089Y-49336025D01*
X99063088Y-49336021D01*
X99063088Y-49336020D01*
X99008944Y-49169382D01*
X99008943Y-49169379D01*
X98929393Y-49013255D01*
X98826401Y-48871499D01*
X98702501Y-48747599D01*
X98560744Y-48644606D01*
X98521253Y-48624484D01*
X98470458Y-48576510D01*
X98453663Y-48508689D01*
X98476200Y-48442555D01*
X98521254Y-48403515D01*
X98560744Y-48383394D01*
X98702501Y-48280401D01*
X98826401Y-48156501D01*
X98929394Y-48014744D01*
X99008943Y-47858620D01*
X99063089Y-47691975D01*
X99090500Y-47518911D01*
X99090500Y-46969089D01*
X99063089Y-46796025D01*
X99063088Y-46796021D01*
X99063088Y-46796020D01*
X99008944Y-46629382D01*
X99008943Y-46629379D01*
X98947851Y-46509480D01*
X98929394Y-46473256D01*
X98826401Y-46331499D01*
X98702501Y-46207599D01*
X98560744Y-46104606D01*
X98521253Y-46084484D01*
X98470458Y-46036510D01*
X98453663Y-45968689D01*
X98476200Y-45902555D01*
X98521254Y-45863515D01*
X98560744Y-45843394D01*
X98702501Y-45740401D01*
X98826401Y-45616501D01*
X98929394Y-45474744D01*
X99008943Y-45318620D01*
X99063089Y-45151975D01*
X99090500Y-44978911D01*
X99090500Y-44429089D01*
X99063089Y-44256025D01*
X99063088Y-44256021D01*
X99063088Y-44256020D01*
X99008944Y-44089382D01*
X99008943Y-44089379D01*
X98929393Y-43933255D01*
X98826401Y-43791499D01*
X98702501Y-43667599D01*
X98697131Y-43663697D01*
X98654467Y-43608370D01*
X98648488Y-43538757D01*
X98681093Y-43476961D01*
X98726686Y-43447199D01*
X98832326Y-43407798D01*
X98832326Y-43407797D01*
X98832331Y-43407796D01*
X98947546Y-43321546D01*
X99033796Y-43206331D01*
X99084091Y-43071483D01*
X99090500Y-43011873D01*
X99090499Y-41316128D01*
X99086374Y-41277753D01*
X99098781Y-41208994D01*
X99146392Y-41157857D01*
X99209664Y-41140500D01*
X99687350Y-41140500D01*
X99687351Y-41140500D01*
X99923115Y-41103158D01*
X100150134Y-41029395D01*
X100362819Y-40921027D01*
X100489690Y-40828848D01*
X100555496Y-40805368D01*
X100623550Y-40821193D01*
X100624441Y-40821701D01*
X100656814Y-40840392D01*
X100784108Y-40874500D01*
X100784110Y-40874500D01*
X100915890Y-40874500D01*
X100915892Y-40874500D01*
X101043186Y-40840392D01*
X101157314Y-40774500D01*
X101157315Y-40774498D01*
X101162999Y-40771217D01*
X101230899Y-40754744D01*
X101287001Y-40771217D01*
X101292684Y-40774498D01*
X101292686Y-40774500D01*
X101374579Y-40821781D01*
X101406810Y-40840390D01*
X101406814Y-40840392D01*
X101534108Y-40874500D01*
X101534110Y-40874500D01*
X101665890Y-40874500D01*
X101665892Y-40874500D01*
X101793186Y-40840392D01*
X101907314Y-40774500D01*
X101907315Y-40774498D01*
X101912999Y-40771217D01*
X101980899Y-40754744D01*
X102037001Y-40771217D01*
G37*
%TD.AperFunction*%
%TD*%
%TA.AperFunction,Conductor*%
%TO.N,/GNDA*%
G36*
X102037001Y-80903217D02*
G01*
X102042684Y-80906498D01*
X102042686Y-80906500D01*
X102124579Y-80953781D01*
X102156810Y-80972390D01*
X102156814Y-80972392D01*
X102284108Y-81006500D01*
X102284110Y-81006500D01*
X102415890Y-81006500D01*
X102415892Y-81006500D01*
X102543186Y-80972392D01*
X102575421Y-80953780D01*
X102643319Y-80937306D01*
X102709347Y-80960156D01*
X102710184Y-80960758D01*
X102837181Y-81053027D01*
X103049866Y-81161395D01*
X103276885Y-81235158D01*
X103512649Y-81272500D01*
X103566108Y-81272500D01*
X104238489Y-81272500D01*
X104305528Y-81292185D01*
X104351283Y-81344989D01*
X104361227Y-81414147D01*
X104338807Y-81469386D01*
X104270606Y-81563255D01*
X104191056Y-81719379D01*
X104191055Y-81719382D01*
X104136911Y-81886020D01*
X104136911Y-81886023D01*
X104109500Y-82059089D01*
X104109500Y-82570916D01*
X104123728Y-82660748D01*
X104114773Y-82730041D01*
X104088936Y-82767827D01*
X101477021Y-85379743D01*
X101365216Y-85491547D01*
X101365214Y-85491549D01*
X101347393Y-85522416D01*
X101339861Y-85535464D01*
X101286158Y-85628480D01*
X101245234Y-85781208D01*
X101245234Y-85781210D01*
X101245234Y-85949311D01*
X101245235Y-85949324D01*
X101245235Y-86576167D01*
X101225550Y-86643206D01*
X101208916Y-86663848D01*
X101119481Y-86753282D01*
X101119479Y-86753285D01*
X101069361Y-86840094D01*
X101069359Y-86840096D01*
X101040425Y-86890209D01*
X101040424Y-86890210D01*
X101040423Y-86890215D01*
X100999499Y-87042943D01*
X100999499Y-87042945D01*
X100999499Y-87211046D01*
X100999500Y-87211059D01*
X100999500Y-89632775D01*
X100980494Y-89698747D01*
X100966209Y-89721481D01*
X100906633Y-89891737D01*
X100906630Y-89891750D01*
X100886435Y-90070996D01*
X100886435Y-90071003D01*
X100906630Y-90250249D01*
X100906631Y-90250254D01*
X100966211Y-90420523D01*
X101035388Y-90530617D01*
X101062184Y-90573262D01*
X101189738Y-90700816D01*
X101280080Y-90757582D01*
X101290092Y-90763873D01*
X101342478Y-90796789D01*
X101512745Y-90856368D01*
X101512750Y-90856369D01*
X101691996Y-90876565D01*
X101692000Y-90876565D01*
X101692004Y-90876565D01*
X101871249Y-90856369D01*
X101871252Y-90856368D01*
X101871255Y-90856368D01*
X102041522Y-90796789D01*
X102194262Y-90700816D01*
X102321816Y-90573262D01*
X102417789Y-90420522D01*
X102477368Y-90250255D01*
X102477369Y-90250249D01*
X102497565Y-90071003D01*
X102497565Y-90070996D01*
X102477369Y-89891750D01*
X102477368Y-89891745D01*
X102417788Y-89721476D01*
X102321815Y-89568737D01*
X102236819Y-89483741D01*
X102203334Y-89422418D01*
X102200500Y-89396060D01*
X102200500Y-87422098D01*
X102220185Y-87355059D01*
X102236819Y-87334416D01*
X102326255Y-87244981D01*
X102405312Y-87108049D01*
X102446236Y-86955322D01*
X102446236Y-86797207D01*
X102446236Y-86789612D01*
X102446235Y-86789594D01*
X102446235Y-86160361D01*
X102465920Y-86093322D01*
X102482549Y-86072685D01*
X103897819Y-84657414D01*
X103959142Y-84623930D01*
X104028834Y-84628914D01*
X104084767Y-84670786D01*
X104109184Y-84736250D01*
X104109500Y-84745096D01*
X104109500Y-85110910D01*
X104136911Y-85283976D01*
X104136911Y-85283979D01*
X104191055Y-85450617D01*
X104191056Y-85450620D01*
X104270606Y-85606744D01*
X104373599Y-85748501D01*
X104497499Y-85872401D01*
X104639256Y-85975394D01*
X104639258Y-85975395D01*
X104678746Y-85995516D01*
X104729541Y-86043491D01*
X104746336Y-86111312D01*
X104723798Y-86177446D01*
X104678746Y-86216484D01*
X104639258Y-86236604D01*
X104568377Y-86288102D01*
X104497499Y-86339599D01*
X104497497Y-86339601D01*
X104497496Y-86339601D01*
X104373601Y-86463496D01*
X104373601Y-86463497D01*
X104373599Y-86463499D01*
X104329367Y-86524377D01*
X104270606Y-86605255D01*
X104191056Y-86761379D01*
X104191055Y-86761382D01*
X104136911Y-86928020D01*
X104136911Y-86928023D01*
X104109500Y-87101089D01*
X104109500Y-87650910D01*
X104136911Y-87823976D01*
X104136911Y-87823979D01*
X104191055Y-87990617D01*
X104191056Y-87990620D01*
X104270606Y-88146744D01*
X104373599Y-88288501D01*
X104497499Y-88412401D01*
X104639256Y-88515394D01*
X104639258Y-88515395D01*
X104678746Y-88535516D01*
X104729541Y-88583491D01*
X104746336Y-88651312D01*
X104723798Y-88717446D01*
X104678746Y-88756484D01*
X104639258Y-88776604D01*
X104568377Y-88828102D01*
X104497499Y-88879599D01*
X104497497Y-88879601D01*
X104497496Y-88879601D01*
X104373601Y-89003496D01*
X104373601Y-89003497D01*
X104373599Y-89003499D01*
X104329367Y-89064377D01*
X104270606Y-89145255D01*
X104191056Y-89301379D01*
X104191055Y-89301382D01*
X104136911Y-89468020D01*
X104136911Y-89468023D01*
X104109500Y-89641089D01*
X104109500Y-90190910D01*
X104136911Y-90363976D01*
X104136911Y-90363979D01*
X104191055Y-90530617D01*
X104191056Y-90530620D01*
X104270606Y-90686744D01*
X104373599Y-90828501D01*
X104497499Y-90952401D01*
X104639256Y-91055394D01*
X104669950Y-91071033D01*
X104679295Y-91075795D01*
X104730091Y-91123770D01*
X104746886Y-91191591D01*
X104724348Y-91257726D01*
X104679296Y-91296764D01*
X104639520Y-91317031D01*
X104497822Y-91419982D01*
X104497821Y-91419982D01*
X104373982Y-91543821D01*
X104373982Y-91543822D01*
X104271033Y-91685517D01*
X104191518Y-91841573D01*
X104137398Y-92008140D01*
X104110000Y-92181123D01*
X104110000Y-92206000D01*
X105094314Y-92206000D01*
X105089920Y-92210394D01*
X105037259Y-92301606D01*
X105010000Y-92403339D01*
X105010000Y-92508661D01*
X105037259Y-92610394D01*
X105089920Y-92701606D01*
X105094314Y-92706000D01*
X104110000Y-92706000D01*
X104110000Y-92730876D01*
X104137398Y-92903859D01*
X104191518Y-93070426D01*
X104271033Y-93226482D01*
X104373982Y-93368177D01*
X104373982Y-93368178D01*
X104497821Y-93492017D01*
X104639519Y-93594968D01*
X104679294Y-93615234D01*
X104730091Y-93663208D01*
X104746886Y-93731029D01*
X104724349Y-93797164D01*
X104679297Y-93836203D01*
X104639256Y-93856606D01*
X104497499Y-93959599D01*
X104497497Y-93959601D01*
X104497496Y-93959601D01*
X104373601Y-94083496D01*
X104373596Y-94083502D01*
X104346148Y-94121280D01*
X104290817Y-94163944D01*
X104221204Y-94169922D01*
X104159409Y-94137314D01*
X104158151Y-94136073D01*
X104134262Y-94112184D01*
X103981523Y-94016211D01*
X103811254Y-93956631D01*
X103811249Y-93956630D01*
X103632004Y-93936435D01*
X103631996Y-93936435D01*
X103452750Y-93956630D01*
X103452745Y-93956631D01*
X103282476Y-94016211D01*
X103129737Y-94112184D01*
X103002184Y-94239737D01*
X102906211Y-94392476D01*
X102846631Y-94562745D01*
X102846630Y-94562750D01*
X102826435Y-94741996D01*
X102826435Y-94742003D01*
X102846630Y-94921249D01*
X102846631Y-94921254D01*
X102906211Y-95091523D01*
X103002185Y-95244263D01*
X103004445Y-95247097D01*
X103005334Y-95249275D01*
X103005889Y-95250158D01*
X103005734Y-95250255D01*
X103030855Y-95311783D01*
X103031500Y-95324412D01*
X103031500Y-98211330D01*
X103031499Y-98211348D01*
X103031499Y-98377054D01*
X103031498Y-98377054D01*
X103072423Y-98529785D01*
X103097026Y-98572397D01*
X103097027Y-98572401D01*
X103151475Y-98666709D01*
X103151481Y-98666717D01*
X103270349Y-98785585D01*
X103270355Y-98785590D01*
X104088936Y-99604172D01*
X104122421Y-99665495D01*
X104123728Y-99711251D01*
X104109500Y-99801083D01*
X104109500Y-100350910D01*
X104136911Y-100523976D01*
X104136911Y-100523979D01*
X104191055Y-100690617D01*
X104191056Y-100690620D01*
X104270608Y-100846747D01*
X104311198Y-100902615D01*
X104334678Y-100968421D01*
X104318853Y-101036475D01*
X104268747Y-101085170D01*
X104210880Y-101099500D01*
X103697892Y-101099500D01*
X103632000Y-101099500D01*
X103512649Y-101099500D01*
X103457995Y-101108156D01*
X103276888Y-101136841D01*
X103276887Y-101136841D01*
X103049863Y-101210606D01*
X102837176Y-101318975D01*
X102710308Y-101411150D01*
X102644501Y-101434630D01*
X102576448Y-101418804D01*
X102575425Y-101418220D01*
X102543190Y-101399610D01*
X102543188Y-101399609D01*
X102543186Y-101399608D01*
X102415892Y-101365500D01*
X102284108Y-101365500D01*
X102156814Y-101399608D01*
X102156813Y-101399608D01*
X102156811Y-101399609D01*
X102156810Y-101399609D01*
X102037000Y-101468782D01*
X101969100Y-101485255D01*
X101913000Y-101468782D01*
X101793189Y-101399609D01*
X101793186Y-101399608D01*
X101665892Y-101365500D01*
X101534108Y-101365500D01*
X101406814Y-101399608D01*
X101406813Y-101399608D01*
X101406811Y-101399609D01*
X101406810Y-101399609D01*
X101287000Y-101468782D01*
X101219100Y-101485255D01*
X101163000Y-101468782D01*
X101043189Y-101399609D01*
X101043186Y-101399608D01*
X100915892Y-101365500D01*
X100784108Y-101365500D01*
X100656814Y-101399608D01*
X100656811Y-101399609D01*
X100624573Y-101418221D01*
X100556672Y-101434691D01*
X100490646Y-101411837D01*
X100489691Y-101411150D01*
X100362822Y-101318975D01*
X100362821Y-101318974D01*
X100362819Y-101318973D01*
X100150134Y-101210605D01*
X99923115Y-101136842D01*
X99923113Y-101136841D01*
X99923111Y-101136841D01*
X99758498Y-101110768D01*
X99687351Y-101099500D01*
X99687350Y-101099500D01*
X98989120Y-101099500D01*
X98922081Y-101079815D01*
X98876326Y-101027011D01*
X98866382Y-100957853D01*
X98888802Y-100902615D01*
X98909562Y-100874039D01*
X98929394Y-100846744D01*
X99008943Y-100690620D01*
X99063089Y-100523975D01*
X99090500Y-100350911D01*
X99090500Y-99801089D01*
X99063089Y-99628025D01*
X99063088Y-99628021D01*
X99063088Y-99628020D01*
X99008944Y-99461382D01*
X99008943Y-99461379D01*
X98929393Y-99305255D01*
X98826401Y-99163499D01*
X98702501Y-99039599D01*
X98560744Y-98936606D01*
X98521253Y-98916484D01*
X98470458Y-98868510D01*
X98453663Y-98800689D01*
X98476200Y-98734555D01*
X98521254Y-98695515D01*
X98560744Y-98675394D01*
X98702501Y-98572401D01*
X98826401Y-98448501D01*
X98929394Y-98306744D01*
X99008943Y-98150620D01*
X99063089Y-97983975D01*
X99090500Y-97810911D01*
X99090500Y-97261089D01*
X99063089Y-97088025D01*
X99063088Y-97088021D01*
X99063088Y-97088020D01*
X99008944Y-96921382D01*
X99008943Y-96921379D01*
X98929393Y-96765255D01*
X98826401Y-96623499D01*
X98702501Y-96499599D01*
X98560744Y-96396606D01*
X98521253Y-96376484D01*
X98470458Y-96328510D01*
X98453663Y-96260689D01*
X98476200Y-96194555D01*
X98521254Y-96155515D01*
X98560744Y-96135394D01*
X98702501Y-96032401D01*
X98826401Y-95908501D01*
X98929394Y-95766744D01*
X99008943Y-95610620D01*
X99063089Y-95443975D01*
X99090500Y-95270911D01*
X99090500Y-94721089D01*
X99063089Y-94548025D01*
X99063088Y-94548021D01*
X99063088Y-94548020D01*
X99008944Y-94381382D01*
X99008943Y-94381379D01*
X98968410Y-94301830D01*
X98929394Y-94225256D01*
X98826401Y-94083499D01*
X98702501Y-93959599D01*
X98560744Y-93856606D01*
X98521253Y-93836484D01*
X98470458Y-93788510D01*
X98453663Y-93720689D01*
X98476200Y-93654555D01*
X98521254Y-93615515D01*
X98560744Y-93595394D01*
X98702501Y-93492401D01*
X98826401Y-93368501D01*
X98929394Y-93226744D01*
X99008943Y-93070620D01*
X99063089Y-92903975D01*
X99090500Y-92730911D01*
X99090500Y-92181089D01*
X99063089Y-92008025D01*
X99063088Y-92008021D01*
X99063088Y-92008020D01*
X99008944Y-91841382D01*
X99008943Y-91841379D01*
X98968410Y-91761830D01*
X98929394Y-91685256D01*
X98826401Y-91543499D01*
X98702501Y-91419599D01*
X98560744Y-91316606D01*
X98521253Y-91296484D01*
X98470458Y-91248510D01*
X98453663Y-91180689D01*
X98476200Y-91114555D01*
X98521254Y-91075515D01*
X98560744Y-91055394D01*
X98702501Y-90952401D01*
X98826401Y-90828501D01*
X98929394Y-90686744D01*
X99008943Y-90530620D01*
X99063089Y-90363975D01*
X99090500Y-90190911D01*
X99090500Y-89641089D01*
X99063089Y-89468025D01*
X99063088Y-89468021D01*
X99063088Y-89468020D01*
X99008944Y-89301382D01*
X99008943Y-89301379D01*
X98929393Y-89145255D01*
X98826401Y-89003499D01*
X98702501Y-88879599D01*
X98560744Y-88776606D01*
X98521253Y-88756484D01*
X98470458Y-88708510D01*
X98453663Y-88640689D01*
X98476200Y-88574555D01*
X98521254Y-88535515D01*
X98560744Y-88515394D01*
X98702501Y-88412401D01*
X98826401Y-88288501D01*
X98929394Y-88146744D01*
X99008943Y-87990620D01*
X99063089Y-87823975D01*
X99090500Y-87650911D01*
X99090500Y-87101089D01*
X99063089Y-86928025D01*
X99063088Y-86928021D01*
X99063088Y-86928020D01*
X99008944Y-86761382D01*
X99008943Y-86761379D01*
X98947851Y-86641480D01*
X98929394Y-86605256D01*
X98826401Y-86463499D01*
X98702501Y-86339599D01*
X98560744Y-86236606D01*
X98521253Y-86216484D01*
X98470458Y-86168510D01*
X98453663Y-86100689D01*
X98476200Y-86034555D01*
X98521254Y-85995515D01*
X98560744Y-85975394D01*
X98702501Y-85872401D01*
X98826401Y-85748501D01*
X98929394Y-85606744D01*
X99008943Y-85450620D01*
X99063089Y-85283975D01*
X99090500Y-85110911D01*
X99090500Y-84561089D01*
X99063089Y-84388025D01*
X99063088Y-84388021D01*
X99063088Y-84388020D01*
X99008944Y-84221382D01*
X99008943Y-84221379D01*
X98929393Y-84065255D01*
X98826401Y-83923499D01*
X98702501Y-83799599D01*
X98697131Y-83795697D01*
X98654467Y-83740370D01*
X98648488Y-83670757D01*
X98681093Y-83608961D01*
X98726686Y-83579199D01*
X98832326Y-83539798D01*
X98832326Y-83539797D01*
X98832331Y-83539796D01*
X98947546Y-83453546D01*
X99033796Y-83338331D01*
X99084091Y-83203483D01*
X99090500Y-83143873D01*
X99090499Y-81448128D01*
X99086374Y-81409753D01*
X99098781Y-81340994D01*
X99146392Y-81289857D01*
X99209664Y-81272500D01*
X99687350Y-81272500D01*
X99687351Y-81272500D01*
X99923115Y-81235158D01*
X100150134Y-81161395D01*
X100362819Y-81053027D01*
X100489690Y-80960848D01*
X100555496Y-80937368D01*
X100623550Y-80953193D01*
X100624441Y-80953701D01*
X100656814Y-80972392D01*
X100784108Y-81006500D01*
X100784110Y-81006500D01*
X100915890Y-81006500D01*
X100915892Y-81006500D01*
X101043186Y-80972392D01*
X101157314Y-80906500D01*
X101157315Y-80906498D01*
X101162999Y-80903217D01*
X101230899Y-80886744D01*
X101287001Y-80903217D01*
X101292684Y-80906498D01*
X101292686Y-80906500D01*
X101374579Y-80953781D01*
X101406810Y-80972390D01*
X101406814Y-80972392D01*
X101534108Y-81006500D01*
X101534110Y-81006500D01*
X101665890Y-81006500D01*
X101665892Y-81006500D01*
X101793186Y-80972392D01*
X101907314Y-80906500D01*
X101907315Y-80906498D01*
X101912999Y-80903217D01*
X101980899Y-80886744D01*
X102037001Y-80903217D01*
G37*
%TD.AperFunction*%
%TD*%
%TA.AperFunction,Conductor*%
%TO.N,GND*%
G36*
X133414345Y-42270611D02*
G01*
X133431524Y-42283092D01*
X133431940Y-42282551D01*
X133437090Y-42286503D01*
X133551210Y-42352390D01*
X133551208Y-42352390D01*
X133551212Y-42352391D01*
X133551214Y-42352392D01*
X133678508Y-42386500D01*
X133678510Y-42386500D01*
X133810290Y-42386500D01*
X133810292Y-42386500D01*
X133937586Y-42352392D01*
X133960526Y-42339147D01*
X134020371Y-42326425D01*
X134068216Y-42344789D01*
X134206181Y-42445027D01*
X134418866Y-42553395D01*
X134645885Y-42627158D01*
X134645886Y-42627158D01*
X134645889Y-42627159D01*
X134881646Y-42664500D01*
X134881649Y-42664500D01*
X134935108Y-42664500D01*
X146720500Y-42664500D01*
X146778691Y-42683407D01*
X146814655Y-42732907D01*
X146819500Y-42763500D01*
X146819500Y-94747678D01*
X146800593Y-94805869D01*
X146790504Y-94817682D01*
X144855682Y-96752504D01*
X144801165Y-96780281D01*
X144785678Y-96781500D01*
X134500646Y-96781500D01*
X134264889Y-96818840D01*
X134037865Y-96892605D01*
X133825181Y-97000972D01*
X133825177Y-97000975D01*
X133685172Y-97102693D01*
X133626981Y-97121600D01*
X133577483Y-97108337D01*
X133531187Y-97081608D01*
X133488754Y-97070238D01*
X133403892Y-97047500D01*
X133272108Y-97047500D01*
X133194200Y-97068375D01*
X133144809Y-97081609D01*
X133030690Y-97147496D01*
X133025540Y-97151449D01*
X133024183Y-97149680D01*
X132978465Y-97172963D01*
X132918036Y-97163378D01*
X132900874Y-97150909D01*
X132900460Y-97151449D01*
X132895309Y-97147496D01*
X132781189Y-97081609D01*
X132781191Y-97081609D01*
X132731799Y-97068375D01*
X132653892Y-97047500D01*
X132522108Y-97047500D01*
X132444200Y-97068375D01*
X132394809Y-97081609D01*
X132280690Y-97147496D01*
X132275540Y-97151449D01*
X132274183Y-97149680D01*
X132228465Y-97172963D01*
X132168036Y-97163378D01*
X132150874Y-97150909D01*
X132150460Y-97151449D01*
X132145309Y-97147496D01*
X132031189Y-97081609D01*
X132031191Y-97081609D01*
X131981799Y-97068375D01*
X131903892Y-97047500D01*
X131772108Y-97047500D01*
X131644814Y-97081608D01*
X131644812Y-97081608D01*
X131644812Y-97081609D01*
X131598514Y-97108338D01*
X131538665Y-97121057D01*
X131490826Y-97102693D01*
X131350822Y-97000974D01*
X131350818Y-97000972D01*
X131138134Y-96892605D01*
X130911110Y-96818840D01*
X130675354Y-96781500D01*
X130675351Y-96781500D01*
X130621892Y-96781500D01*
X119759692Y-96781500D01*
X119701501Y-96762593D01*
X119683178Y-96745322D01*
X119140986Y-96084958D01*
X119118673Y-96027986D01*
X119118500Y-96022136D01*
X119118500Y-91795599D01*
X133731996Y-91795599D01*
X133731996Y-91795600D01*
X133753081Y-91928727D01*
X133753082Y-91928729D01*
X133814270Y-92048817D01*
X133814272Y-92048820D01*
X133909580Y-92144128D01*
X134029674Y-92205319D01*
X134162800Y-92226404D01*
X134295926Y-92205319D01*
X134416020Y-92144128D01*
X134511328Y-92048820D01*
X134572519Y-91928726D01*
X134593604Y-91795600D01*
X134572519Y-91662474D01*
X134511328Y-91542380D01*
X134417294Y-91448346D01*
X134389519Y-91393832D01*
X134388300Y-91378345D01*
X134388300Y-79687213D01*
X134407207Y-79629022D01*
X134417296Y-79617209D01*
X134919791Y-79114714D01*
X135452934Y-78581570D01*
X135507449Y-78553795D01*
X135538422Y-78553795D01*
X135585200Y-78561204D01*
X135718326Y-78540119D01*
X135838420Y-78478928D01*
X135933728Y-78383620D01*
X135994919Y-78263526D01*
X136016004Y-78130400D01*
X135994919Y-77997274D01*
X135933728Y-77877180D01*
X135838420Y-77781872D01*
X135838417Y-77781870D01*
X135718329Y-77720682D01*
X135718327Y-77720681D01*
X135585200Y-77699596D01*
X135452072Y-77720681D01*
X135452070Y-77720682D01*
X135331982Y-77781870D01*
X135236670Y-77877182D01*
X135175482Y-77997270D01*
X135175481Y-77997272D01*
X135154396Y-78130398D01*
X135154396Y-78130400D01*
X135161804Y-78177174D01*
X135152232Y-78237606D01*
X135134027Y-78262665D01*
X134035065Y-79361629D01*
X134035064Y-79361630D01*
X134035063Y-79361629D01*
X133971630Y-79425062D01*
X133971630Y-79425065D01*
X133937299Y-79507945D01*
X133937299Y-79609177D01*
X133937300Y-79609186D01*
X133937300Y-91378345D01*
X133918393Y-91436536D01*
X133908309Y-91448342D01*
X133814272Y-91542380D01*
X133814270Y-91542382D01*
X133753082Y-91662470D01*
X133753081Y-91662472D01*
X133731996Y-91795599D01*
X119118500Y-91795599D01*
X119118500Y-89038600D01*
X120434011Y-89038600D01*
X120453512Y-89224138D01*
X120511162Y-89401567D01*
X120511163Y-89401569D01*
X120511164Y-89401571D01*
X120511166Y-89401576D01*
X120585271Y-89529928D01*
X120604442Y-89563133D01*
X120729275Y-89701774D01*
X120880205Y-89811432D01*
X120880209Y-89811434D01*
X120880211Y-89811435D01*
X121050630Y-89887309D01*
X121050637Y-89887312D01*
X121233120Y-89926100D01*
X121233123Y-89926100D01*
X121419677Y-89926100D01*
X121419680Y-89926100D01*
X121602163Y-89887312D01*
X121772595Y-89811432D01*
X121923525Y-89701774D01*
X122048358Y-89563133D01*
X122141638Y-89401567D01*
X122199288Y-89224138D01*
X122218789Y-89038600D01*
X122199288Y-88853062D01*
X122141638Y-88675633D01*
X122141634Y-88675627D01*
X122141633Y-88675623D01*
X122093712Y-88592622D01*
X122048358Y-88514067D01*
X121923525Y-88375426D01*
X121772595Y-88265768D01*
X121772591Y-88265766D01*
X121772588Y-88265764D01*
X121602169Y-88189890D01*
X121602164Y-88189888D01*
X121602163Y-88189888D01*
X121602160Y-88189887D01*
X121602159Y-88189887D01*
X121567450Y-88182509D01*
X121419680Y-88151100D01*
X121233120Y-88151100D01*
X121116759Y-88175833D01*
X121050640Y-88189887D01*
X121050630Y-88189890D01*
X120880216Y-88265762D01*
X120880209Y-88265766D01*
X120729273Y-88375427D01*
X120653048Y-88460084D01*
X120604442Y-88514067D01*
X120604440Y-88514069D01*
X120604440Y-88514070D01*
X120511166Y-88675623D01*
X120511164Y-88675628D01*
X120453512Y-88853060D01*
X120453512Y-88853062D01*
X120434011Y-89038600D01*
X119118500Y-89038600D01*
X119118500Y-72520571D01*
X119662699Y-72520571D01*
X119662699Y-72621803D01*
X119662700Y-72621812D01*
X119662700Y-74978932D01*
X119662699Y-74978946D01*
X119662699Y-74986920D01*
X119662699Y-75076630D01*
X119665282Y-75082865D01*
X119677475Y-75112302D01*
X119697028Y-75159508D01*
X119697029Y-75159509D01*
X119697030Y-75159511D01*
X119760464Y-75222945D01*
X119760465Y-75222945D01*
X120039904Y-75502384D01*
X120067681Y-75556901D01*
X120068900Y-75572388D01*
X120068900Y-86543456D01*
X120103228Y-86626333D01*
X120103229Y-86626334D01*
X120103230Y-86626336D01*
X120166664Y-86689770D01*
X120166665Y-86689770D01*
X120166666Y-86689771D01*
X120249543Y-86724100D01*
X120249545Y-86724100D01*
X120394568Y-86724100D01*
X120452759Y-86743007D01*
X120488722Y-86792506D01*
X120511161Y-86861565D01*
X120511166Y-86861576D01*
X120569254Y-86962186D01*
X120604442Y-87023133D01*
X120729275Y-87161774D01*
X120880205Y-87271432D01*
X120880209Y-87271434D01*
X120880211Y-87271435D01*
X121050630Y-87347309D01*
X121050637Y-87347312D01*
X121233120Y-87386100D01*
X121233123Y-87386100D01*
X121419677Y-87386100D01*
X121419680Y-87386100D01*
X121602163Y-87347312D01*
X121772595Y-87271432D01*
X121923525Y-87161774D01*
X122048358Y-87023133D01*
X122141638Y-86861567D01*
X122199288Y-86684138D01*
X122218789Y-86498600D01*
X122199288Y-86313062D01*
X122141638Y-86135633D01*
X122141634Y-86135627D01*
X122141633Y-86135623D01*
X122063982Y-86001129D01*
X122048358Y-85974067D01*
X121923525Y-85835426D01*
X121772595Y-85725768D01*
X121772591Y-85725766D01*
X121772588Y-85725764D01*
X121602169Y-85649890D01*
X121602164Y-85649888D01*
X121602163Y-85649888D01*
X121602160Y-85649887D01*
X121602159Y-85649887D01*
X121567450Y-85642509D01*
X121419680Y-85611100D01*
X121233120Y-85611100D01*
X121116759Y-85635833D01*
X121050640Y-85649887D01*
X121050630Y-85649890D01*
X120880216Y-85725762D01*
X120880209Y-85725766D01*
X120729270Y-85835429D01*
X120729269Y-85835430D01*
X120692471Y-85876300D01*
X120639483Y-85906893D01*
X120578633Y-85900497D01*
X120533164Y-85859556D01*
X120519900Y-85810056D01*
X120519900Y-84647143D01*
X120538807Y-84588952D01*
X120588307Y-84552988D01*
X120649493Y-84552988D01*
X120692472Y-84580900D01*
X120729270Y-84621770D01*
X120729274Y-84621772D01*
X120729275Y-84621774D01*
X120880205Y-84731432D01*
X120880209Y-84731434D01*
X120880211Y-84731435D01*
X121050630Y-84807309D01*
X121050637Y-84807312D01*
X121233120Y-84846100D01*
X121233123Y-84846100D01*
X121419677Y-84846100D01*
X121419680Y-84846100D01*
X121602163Y-84807312D01*
X121772595Y-84731432D01*
X121923525Y-84621774D01*
X122048358Y-84483133D01*
X122141638Y-84321567D01*
X122199288Y-84144138D01*
X122218789Y-83958600D01*
X122199288Y-83773062D01*
X122141638Y-83595633D01*
X122130805Y-83576870D01*
X122118083Y-83517025D01*
X122142967Y-83461129D01*
X122146518Y-83457385D01*
X122866134Y-82737770D01*
X122866136Y-82737770D01*
X122929570Y-82674336D01*
X122943790Y-82640005D01*
X122963901Y-82591454D01*
X122963901Y-82501745D01*
X122963901Y-82493771D01*
X122963900Y-82493757D01*
X122963900Y-75266986D01*
X122963901Y-75266977D01*
X122963901Y-75165745D01*
X122929570Y-75082865D01*
X122929569Y-75082862D01*
X122864937Y-75018230D01*
X122864935Y-75018229D01*
X122825199Y-75001770D01*
X122803626Y-74992834D01*
X122782055Y-74983899D01*
X122692345Y-74983899D01*
X122680822Y-74983899D01*
X122680814Y-74983900D01*
X120695212Y-74983900D01*
X120637021Y-74964993D01*
X120625208Y-74954904D01*
X120601607Y-74931303D01*
X120573830Y-74876786D01*
X120583401Y-74816354D01*
X120626666Y-74773089D01*
X120671607Y-74762299D01*
X122176962Y-74762299D01*
X122176964Y-74762299D01*
X122191604Y-74759387D01*
X122213568Y-74755019D01*
X122255081Y-74727281D01*
X122282819Y-74685768D01*
X122290100Y-74649163D01*
X122290099Y-73194813D01*
X122309006Y-73136623D01*
X122319095Y-73124810D01*
X123002610Y-72441296D01*
X123057127Y-72413519D01*
X123072614Y-72412300D01*
X123807732Y-72412300D01*
X123865923Y-72431207D01*
X123901887Y-72480707D01*
X123901887Y-72541893D01*
X123865923Y-72591393D01*
X123852680Y-72599507D01*
X123852146Y-72599779D01*
X123851181Y-72600271D01*
X123755870Y-72695582D01*
X123694682Y-72815670D01*
X123694681Y-72815672D01*
X123673596Y-72948799D01*
X123673596Y-72948800D01*
X123694681Y-73081927D01*
X123694682Y-73081929D01*
X123731306Y-73153806D01*
X123755872Y-73202020D01*
X123755876Y-73202024D01*
X123758392Y-73205487D01*
X123777300Y-73263677D01*
X123777300Y-80303945D01*
X123758393Y-80362136D01*
X123748309Y-80373942D01*
X123654272Y-80467980D01*
X123654270Y-80467982D01*
X123593082Y-80588070D01*
X123593081Y-80588072D01*
X123571996Y-80721199D01*
X123571996Y-80721200D01*
X123593081Y-80854327D01*
X123593082Y-80854329D01*
X123654270Y-80974417D01*
X123654272Y-80974420D01*
X123749580Y-81069728D01*
X123869674Y-81130919D01*
X124002800Y-81152004D01*
X124135926Y-81130919D01*
X124256020Y-81069728D01*
X124351328Y-80974420D01*
X124412519Y-80854326D01*
X124433604Y-80721200D01*
X124431488Y-80707843D01*
X124429635Y-80696145D01*
X124417512Y-80619599D01*
X125654796Y-80619599D01*
X125654796Y-80619600D01*
X125675881Y-80752727D01*
X125675882Y-80752729D01*
X125727649Y-80854327D01*
X125737072Y-80872820D01*
X125832380Y-80968128D01*
X125952474Y-81029319D01*
X126085600Y-81050404D01*
X126218726Y-81029319D01*
X126338820Y-80968128D01*
X126432853Y-80874094D01*
X126487368Y-80846319D01*
X126502855Y-80845100D01*
X128991432Y-80845100D01*
X128991440Y-80845101D01*
X129002963Y-80845101D01*
X129092672Y-80845101D01*
X129092673Y-80845101D01*
X129151278Y-80820825D01*
X129175554Y-80810770D01*
X129238988Y-80747336D01*
X129238988Y-80747335D01*
X129252894Y-80733429D01*
X129252903Y-80733419D01*
X132400065Y-77586256D01*
X132454580Y-77558481D01*
X132515012Y-77568052D01*
X132558277Y-77611317D01*
X132567848Y-77671747D01*
X132563596Y-77698596D01*
X132563596Y-77698600D01*
X132584681Y-77831727D01*
X132584682Y-77831729D01*
X132607842Y-77877182D01*
X132645872Y-77951820D01*
X132739905Y-78045853D01*
X132767681Y-78100368D01*
X132768900Y-78115855D01*
X132768900Y-86962186D01*
X132749993Y-87020377D01*
X132739903Y-87032190D01*
X132618665Y-87153427D01*
X132564149Y-87181204D01*
X132533176Y-87181204D01*
X132486402Y-87173796D01*
X132486399Y-87173796D01*
X132353272Y-87194881D01*
X132353270Y-87194882D01*
X132233182Y-87256070D01*
X132137870Y-87351382D01*
X132076682Y-87471470D01*
X132076681Y-87471472D01*
X132055596Y-87604599D01*
X132055596Y-87604600D01*
X132076681Y-87737727D01*
X132076682Y-87737729D01*
X132137870Y-87857817D01*
X132137872Y-87857820D01*
X132233180Y-87953128D01*
X132353274Y-88014319D01*
X132486400Y-88035404D01*
X132619526Y-88014319D01*
X132739620Y-87953128D01*
X132834928Y-87857820D01*
X132896119Y-87737726D01*
X132917204Y-87604600D01*
X132909795Y-87557822D01*
X132919366Y-87497390D01*
X132937570Y-87472335D01*
X133185570Y-87224336D01*
X133219900Y-87141455D01*
X133219900Y-87051746D01*
X133219900Y-78115855D01*
X133238807Y-78057664D01*
X133248890Y-78045857D01*
X133342928Y-77951820D01*
X133404119Y-77831726D01*
X133425204Y-77698600D01*
X133425203Y-77698596D01*
X133420951Y-77671747D01*
X133404119Y-77565474D01*
X133342928Y-77445380D01*
X133247620Y-77350072D01*
X133247617Y-77350070D01*
X133127529Y-77288882D01*
X133127527Y-77288881D01*
X132994400Y-77267796D01*
X132994397Y-77267796D01*
X132967547Y-77272048D01*
X132907115Y-77262476D01*
X132863851Y-77219210D01*
X132854281Y-77158778D01*
X132882056Y-77104265D01*
X137186134Y-72800188D01*
X137186136Y-72800188D01*
X137249570Y-72736754D01*
X137267627Y-72693161D01*
X137283901Y-72653872D01*
X137283901Y-72564163D01*
X137283901Y-72556189D01*
X137283900Y-72556175D01*
X137283900Y-70267255D01*
X137302807Y-70209064D01*
X137312890Y-70197257D01*
X137406928Y-70103220D01*
X137468119Y-69983126D01*
X137489204Y-69850000D01*
X137478997Y-69785558D01*
X137488568Y-69725129D01*
X137531832Y-69681864D01*
X137592264Y-69672292D01*
X137646781Y-69700069D01*
X137646782Y-69700069D01*
X139978904Y-72032191D01*
X140006681Y-72086708D01*
X140007900Y-72102195D01*
X140007900Y-76646345D01*
X139988993Y-76704536D01*
X139978909Y-76716342D01*
X139884872Y-76810380D01*
X139884870Y-76810382D01*
X139823682Y-76930470D01*
X139823681Y-76930472D01*
X139802596Y-77063599D01*
X139802596Y-77063600D01*
X139823681Y-77196727D01*
X139823682Y-77196729D01*
X139884870Y-77316817D01*
X139884872Y-77316820D01*
X139980180Y-77412128D01*
X140100274Y-77473319D01*
X140233400Y-77494404D01*
X140366526Y-77473319D01*
X140486620Y-77412128D01*
X140581928Y-77316820D01*
X140643119Y-77196726D01*
X140664204Y-77063600D01*
X140643119Y-76930474D01*
X140581928Y-76810380D01*
X140487894Y-76716346D01*
X140460119Y-76661832D01*
X140458900Y-76646345D01*
X140458900Y-72024168D01*
X140458901Y-72024159D01*
X140458901Y-71922927D01*
X140424570Y-71840047D01*
X140424570Y-71840046D01*
X140361136Y-71776612D01*
X140361134Y-71776611D01*
X137186135Y-68601612D01*
X137103255Y-68567281D01*
X137013545Y-68567281D01*
X137013543Y-68567281D01*
X136954942Y-68591553D01*
X136954943Y-68591554D01*
X136930665Y-68601611D01*
X136930664Y-68601612D01*
X132316665Y-73215611D01*
X132316664Y-73215612D01*
X132316663Y-73215611D01*
X132253231Y-73279044D01*
X132253230Y-73279046D01*
X132243172Y-73303325D01*
X132218899Y-73361925D01*
X132218899Y-73463159D01*
X132218900Y-73463168D01*
X132218900Y-73638332D01*
X132199993Y-73696523D01*
X132189909Y-73708329D01*
X132095872Y-73802367D01*
X132095870Y-73802369D01*
X132034682Y-73922457D01*
X132034681Y-73922459D01*
X132013596Y-74055586D01*
X132013596Y-74055587D01*
X132034681Y-74188714D01*
X132034682Y-74188716D01*
X132095870Y-74308804D01*
X132095872Y-74308807D01*
X132191180Y-74404115D01*
X132311274Y-74465306D01*
X132444400Y-74486391D01*
X132577526Y-74465306D01*
X132697620Y-74404115D01*
X132792928Y-74308807D01*
X132854119Y-74188713D01*
X132875204Y-74055587D01*
X132854119Y-73922461D01*
X132792928Y-73802367D01*
X132698894Y-73708333D01*
X132671119Y-73653819D01*
X132669900Y-73638332D01*
X132669900Y-73541195D01*
X132688807Y-73483004D01*
X132698896Y-73471191D01*
X134561361Y-71608726D01*
X136470019Y-69700067D01*
X136524534Y-69672292D01*
X136584966Y-69681863D01*
X136628231Y-69725128D01*
X136637802Y-69785560D01*
X136627596Y-69849999D01*
X136627596Y-69850000D01*
X136648681Y-69983127D01*
X136648682Y-69983129D01*
X136709870Y-70103217D01*
X136709872Y-70103220D01*
X136803905Y-70197253D01*
X136831681Y-70251768D01*
X136832900Y-70267255D01*
X136832900Y-72474604D01*
X136813993Y-72532795D01*
X136803904Y-72544608D01*
X130768010Y-78580501D01*
X130713493Y-78608278D01*
X130653061Y-78598707D01*
X130609797Y-78555443D01*
X130548928Y-78435980D01*
X130461159Y-78348211D01*
X130433384Y-78293697D01*
X130432165Y-78278210D01*
X130432165Y-76344120D01*
X130451072Y-76285929D01*
X130461155Y-76274122D01*
X130555193Y-76180085D01*
X130616384Y-76059991D01*
X130637469Y-75926865D01*
X130637309Y-75925857D01*
X130627284Y-75862560D01*
X130616384Y-75793739D01*
X130555193Y-75673645D01*
X130459885Y-75578337D01*
X130459882Y-75578335D01*
X130339794Y-75517147D01*
X130339792Y-75517146D01*
X130206665Y-75496061D01*
X130073537Y-75517146D01*
X130073535Y-75517147D01*
X129953447Y-75578335D01*
X129858135Y-75673647D01*
X129796947Y-75793735D01*
X129796946Y-75793737D01*
X129775861Y-75926864D01*
X129775861Y-75926865D01*
X129796946Y-76059992D01*
X129796947Y-76059994D01*
X129844367Y-76153060D01*
X129858137Y-76180085D01*
X129952170Y-76274118D01*
X129979946Y-76328633D01*
X129981165Y-76344120D01*
X129981165Y-78265680D01*
X129962258Y-78323871D01*
X129952169Y-78335684D01*
X129947181Y-78340671D01*
X129947180Y-78340672D01*
X129851872Y-78435980D01*
X129851870Y-78435982D01*
X129790682Y-78556070D01*
X129790681Y-78556072D01*
X129769596Y-78689199D01*
X129769596Y-78689200D01*
X129790681Y-78822327D01*
X129790682Y-78822329D01*
X129800899Y-78842380D01*
X129851872Y-78942420D01*
X129947180Y-79037728D01*
X130066643Y-79098597D01*
X130109907Y-79141861D01*
X130119478Y-79202293D01*
X130091701Y-79256810D01*
X128983409Y-80365104D01*
X128928892Y-80392881D01*
X128913405Y-80394100D01*
X126502855Y-80394100D01*
X126444664Y-80375193D01*
X126432857Y-80365109D01*
X126338820Y-80271072D01*
X126338817Y-80271070D01*
X126218729Y-80209882D01*
X126218727Y-80209881D01*
X126085600Y-80188796D01*
X125952472Y-80209881D01*
X125952470Y-80209882D01*
X125832382Y-80271070D01*
X125737070Y-80366382D01*
X125675882Y-80486470D01*
X125675881Y-80486472D01*
X125654796Y-80619599D01*
X124417512Y-80619599D01*
X124412519Y-80588074D01*
X124351328Y-80467980D01*
X124257294Y-80373946D01*
X124229519Y-80319432D01*
X124228300Y-80303945D01*
X124228300Y-79095599D01*
X124689596Y-79095599D01*
X124689596Y-79095600D01*
X124710681Y-79228727D01*
X124710682Y-79228729D01*
X124742585Y-79291342D01*
X124771872Y-79348820D01*
X124867180Y-79444128D01*
X124987274Y-79505319D01*
X125120400Y-79526404D01*
X125253526Y-79505319D01*
X125373620Y-79444128D01*
X125468928Y-79348820D01*
X125530119Y-79228726D01*
X125551204Y-79095600D01*
X125530119Y-78962474D01*
X125468928Y-78842380D01*
X125374894Y-78748346D01*
X125347119Y-78693832D01*
X125345900Y-78678345D01*
X125345900Y-73679700D01*
X125364807Y-73621509D01*
X125414307Y-73585545D01*
X125444900Y-73580700D01*
X128962588Y-73580700D01*
X128962596Y-73580701D01*
X128974119Y-73580701D01*
X129063828Y-73580701D01*
X129063829Y-73580701D01*
X129122434Y-73556425D01*
X129146710Y-73546370D01*
X129210144Y-73482936D01*
X129210144Y-73482935D01*
X129224050Y-73469029D01*
X129224058Y-73469019D01*
X134264983Y-68428096D01*
X134319500Y-68400319D01*
X134334987Y-68399100D01*
X135371145Y-68399100D01*
X135429336Y-68418007D01*
X135441142Y-68428090D01*
X135535180Y-68522128D01*
X135655274Y-68583319D01*
X135788400Y-68604404D01*
X135921526Y-68583319D01*
X136041620Y-68522128D01*
X136136928Y-68426820D01*
X136198119Y-68306726D01*
X136219204Y-68173600D01*
X136219196Y-68173552D01*
X136206070Y-68090675D01*
X136198119Y-68040474D01*
X136136928Y-67920380D01*
X136041620Y-67825072D01*
X136041617Y-67825070D01*
X135921529Y-67763882D01*
X135921527Y-67763881D01*
X135788400Y-67742796D01*
X135655272Y-67763881D01*
X135655270Y-67763882D01*
X135535182Y-67825070D01*
X135535180Y-67825071D01*
X135535180Y-67825072D01*
X135441146Y-67919105D01*
X135386632Y-67946881D01*
X135371145Y-67948100D01*
X134256960Y-67948100D01*
X134256952Y-67948099D01*
X134245429Y-67948099D01*
X134155719Y-67948099D01*
X134155717Y-67948099D01*
X134097116Y-67972371D01*
X134097117Y-67972372D01*
X134072838Y-67982430D01*
X134072836Y-67982431D01*
X134009403Y-68045863D01*
X134009404Y-68045864D01*
X134009403Y-68045865D01*
X128954565Y-73100704D01*
X128900048Y-73128481D01*
X128884561Y-73129700D01*
X125075543Y-73129700D01*
X124992666Y-73164028D01*
X124929228Y-73227466D01*
X124894900Y-73310343D01*
X124894900Y-78678345D01*
X124875993Y-78736536D01*
X124865909Y-78748342D01*
X124791926Y-78822326D01*
X124771870Y-78842382D01*
X124710682Y-78962470D01*
X124710681Y-78962472D01*
X124689596Y-79095599D01*
X124228300Y-79095599D01*
X124228300Y-73423886D01*
X124247207Y-73365695D01*
X124282350Y-73335679D01*
X124357620Y-73297328D01*
X124452928Y-73202020D01*
X124514119Y-73081926D01*
X124535204Y-72948800D01*
X124514119Y-72815674D01*
X124506228Y-72800188D01*
X124452929Y-72695582D01*
X124452928Y-72695580D01*
X124357620Y-72600272D01*
X124356121Y-72599508D01*
X124354934Y-72598321D01*
X124351318Y-72595694D01*
X124351734Y-72595121D01*
X124312858Y-72556244D01*
X124303287Y-72495812D01*
X124331065Y-72441296D01*
X124385582Y-72413519D01*
X124401068Y-72412300D01*
X128839032Y-72412300D01*
X128839040Y-72412301D01*
X128850563Y-72412301D01*
X128940272Y-72412301D01*
X128940273Y-72412301D01*
X129009762Y-72383517D01*
X129023154Y-72377970D01*
X129086588Y-72314536D01*
X129086588Y-72314534D01*
X133164134Y-68236988D01*
X133164136Y-68236988D01*
X133227570Y-68173554D01*
X133243765Y-68134455D01*
X133261901Y-68090673D01*
X133261901Y-68000963D01*
X133261901Y-67992989D01*
X133261900Y-67992975D01*
X133261900Y-67148412D01*
X133280807Y-67090221D01*
X133290890Y-67078414D01*
X134735705Y-65633599D01*
X136525996Y-65633599D01*
X136525996Y-65633600D01*
X136547081Y-65766727D01*
X136547082Y-65766729D01*
X136599504Y-65869612D01*
X136608272Y-65886820D01*
X136703580Y-65982128D01*
X136823674Y-66043319D01*
X136956800Y-66064404D01*
X137089926Y-66043319D01*
X137089929Y-66043317D01*
X137091283Y-66043103D01*
X137151716Y-66052674D01*
X137176775Y-66070880D01*
X141121904Y-70016009D01*
X141149681Y-70070526D01*
X141150900Y-70086013D01*
X141150900Y-93820187D01*
X141131993Y-93878378D01*
X141121903Y-93890191D01*
X140873666Y-94138427D01*
X140819150Y-94166204D01*
X140788177Y-94166204D01*
X140741402Y-94158796D01*
X140741399Y-94158796D01*
X140608272Y-94179881D01*
X140608270Y-94179882D01*
X140488182Y-94241070D01*
X140392870Y-94336382D01*
X140331682Y-94456470D01*
X140331681Y-94456472D01*
X140310596Y-94589599D01*
X140310596Y-94589600D01*
X140331681Y-94722727D01*
X140331682Y-94722729D01*
X140392870Y-94842817D01*
X140392872Y-94842820D01*
X140488180Y-94938128D01*
X140608274Y-94999319D01*
X140741400Y-95020404D01*
X140874526Y-94999319D01*
X140994620Y-94938128D01*
X141089928Y-94842820D01*
X141151119Y-94722726D01*
X141172204Y-94589600D01*
X141164795Y-94542822D01*
X141174366Y-94482390D01*
X141192569Y-94457334D01*
X141504134Y-94145770D01*
X141504136Y-94145770D01*
X141567570Y-94082336D01*
X141581790Y-94048005D01*
X141601901Y-93999454D01*
X141601901Y-93909745D01*
X141601901Y-93901771D01*
X141601900Y-93901757D01*
X141601900Y-89038600D01*
X143294011Y-89038600D01*
X143313512Y-89224138D01*
X143371162Y-89401567D01*
X143371163Y-89401569D01*
X143371164Y-89401571D01*
X143371166Y-89401576D01*
X143445271Y-89529928D01*
X143464442Y-89563133D01*
X143589275Y-89701774D01*
X143740205Y-89811432D01*
X143740209Y-89811434D01*
X143740211Y-89811435D01*
X143910630Y-89887309D01*
X143910637Y-89887312D01*
X144093120Y-89926100D01*
X144093123Y-89926100D01*
X144279677Y-89926100D01*
X144279680Y-89926100D01*
X144462163Y-89887312D01*
X144632595Y-89811432D01*
X144783525Y-89701774D01*
X144908358Y-89563133D01*
X145001638Y-89401567D01*
X145059288Y-89224138D01*
X145078789Y-89038600D01*
X145059288Y-88853062D01*
X145001638Y-88675633D01*
X145001634Y-88675627D01*
X145001633Y-88675623D01*
X144953712Y-88592622D01*
X144908358Y-88514067D01*
X144783525Y-88375426D01*
X144632595Y-88265768D01*
X144632591Y-88265766D01*
X144632588Y-88265764D01*
X144462169Y-88189890D01*
X144462164Y-88189888D01*
X144462163Y-88189888D01*
X144462160Y-88189887D01*
X144462159Y-88189887D01*
X144427450Y-88182509D01*
X144279680Y-88151100D01*
X144093120Y-88151100D01*
X143976759Y-88175833D01*
X143910640Y-88189887D01*
X143910630Y-88189890D01*
X143740216Y-88265762D01*
X143740209Y-88265766D01*
X143589273Y-88375427D01*
X143513048Y-88460084D01*
X143464442Y-88514067D01*
X143464440Y-88514069D01*
X143464440Y-88514070D01*
X143371166Y-88675623D01*
X143371164Y-88675628D01*
X143313512Y-88853060D01*
X143313512Y-88853062D01*
X143294011Y-89038600D01*
X141601900Y-89038600D01*
X141601900Y-69906743D01*
X141567571Y-69823866D01*
X141567570Y-69823865D01*
X141567570Y-69823864D01*
X141504136Y-69760430D01*
X141504134Y-69760429D01*
X137412286Y-65668581D01*
X137384510Y-65614066D01*
X137366519Y-65500474D01*
X137305328Y-65380380D01*
X137210020Y-65285072D01*
X137210017Y-65285070D01*
X137089929Y-65223882D01*
X137089927Y-65223881D01*
X136956800Y-65202796D01*
X136823672Y-65223881D01*
X136823670Y-65223882D01*
X136703582Y-65285070D01*
X136608270Y-65380382D01*
X136547082Y-65500470D01*
X136547081Y-65500472D01*
X136525996Y-65633599D01*
X134735705Y-65633599D01*
X135497705Y-64871599D01*
X141326596Y-64871599D01*
X141326596Y-64871600D01*
X141347681Y-65004727D01*
X141347682Y-65004729D01*
X141408870Y-65124817D01*
X141408872Y-65124820D01*
X141504180Y-65220128D01*
X141624274Y-65281319D01*
X141732345Y-65298435D01*
X141757399Y-65302404D01*
X141757399Y-65302403D01*
X141757400Y-65302404D01*
X141804176Y-65294995D01*
X141864607Y-65304566D01*
X141889667Y-65322772D01*
X142919904Y-66353009D01*
X142947681Y-66407526D01*
X142948900Y-66423013D01*
X142948900Y-82893757D01*
X142948899Y-82893771D01*
X142948899Y-82901745D01*
X142948899Y-82991455D01*
X142969008Y-83040003D01*
X142973173Y-83050058D01*
X142981890Y-83071100D01*
X142983230Y-83074336D01*
X143046664Y-83137770D01*
X143046665Y-83137770D01*
X143366261Y-83457366D01*
X143394038Y-83511883D01*
X143384467Y-83572315D01*
X143381996Y-83576866D01*
X143371163Y-83595629D01*
X143313512Y-83773060D01*
X143313512Y-83773062D01*
X143294011Y-83958600D01*
X143313512Y-84144138D01*
X143371162Y-84321567D01*
X143371163Y-84321569D01*
X143371164Y-84321571D01*
X143371166Y-84321576D01*
X143445271Y-84449928D01*
X143464442Y-84483133D01*
X143589275Y-84621774D01*
X143740205Y-84731432D01*
X143740209Y-84731434D01*
X143740211Y-84731435D01*
X143910630Y-84807309D01*
X143910637Y-84807312D01*
X144093120Y-84846100D01*
X144093123Y-84846100D01*
X144279677Y-84846100D01*
X144279680Y-84846100D01*
X144462163Y-84807312D01*
X144632595Y-84731432D01*
X144783525Y-84621774D01*
X144783529Y-84621770D01*
X144800328Y-84603113D01*
X144853316Y-84572520D01*
X144914166Y-84578915D01*
X144959636Y-84619855D01*
X144972900Y-84669356D01*
X144972900Y-85352187D01*
X144953993Y-85410378D01*
X144943903Y-85422191D01*
X144686055Y-85680038D01*
X144631539Y-85707815D01*
X144575786Y-85700475D01*
X144462169Y-85649890D01*
X144462164Y-85649888D01*
X144462163Y-85649888D01*
X144462160Y-85649887D01*
X144462159Y-85649887D01*
X144427450Y-85642509D01*
X144279680Y-85611100D01*
X144093120Y-85611100D01*
X143976759Y-85635833D01*
X143910640Y-85649887D01*
X143910630Y-85649890D01*
X143740216Y-85725762D01*
X143740209Y-85725766D01*
X143589273Y-85835427D01*
X143530685Y-85900497D01*
X143464442Y-85974067D01*
X143464440Y-85974069D01*
X143464440Y-85974070D01*
X143371166Y-86135623D01*
X143371164Y-86135628D01*
X143313512Y-86313060D01*
X143313512Y-86313062D01*
X143294011Y-86498600D01*
X143313512Y-86684138D01*
X143371162Y-86861567D01*
X143371163Y-86861569D01*
X143371164Y-86861571D01*
X143371166Y-86861576D01*
X143429254Y-86962186D01*
X143464442Y-87023133D01*
X143589275Y-87161774D01*
X143740205Y-87271432D01*
X143740209Y-87271434D01*
X143740211Y-87271435D01*
X143910630Y-87347309D01*
X143910637Y-87347312D01*
X144093120Y-87386100D01*
X144093123Y-87386100D01*
X144279677Y-87386100D01*
X144279680Y-87386100D01*
X144462163Y-87347312D01*
X144632595Y-87271432D01*
X144783525Y-87161774D01*
X144908358Y-87023133D01*
X145001638Y-86861567D01*
X145059288Y-86684138D01*
X145078789Y-86498600D01*
X145059288Y-86313062D01*
X145001638Y-86135633D01*
X145001632Y-86135623D01*
X144998635Y-86130432D01*
X144990805Y-86116870D01*
X144978083Y-86057025D01*
X145002967Y-86001129D01*
X145006518Y-85997385D01*
X145312212Y-85691692D01*
X145312215Y-85691690D01*
X145326135Y-85677770D01*
X145326136Y-85677770D01*
X145389570Y-85614336D01*
X145399625Y-85590060D01*
X145423901Y-85531455D01*
X145423901Y-85441745D01*
X145423901Y-85433771D01*
X145423900Y-85433757D01*
X145423900Y-75975801D01*
X145423901Y-75975792D01*
X145423901Y-75874562D01*
X145419435Y-75863780D01*
X145411900Y-75825896D01*
X145411900Y-74892118D01*
X145419436Y-74854233D01*
X145423901Y-74843453D01*
X145423901Y-74745771D01*
X145423900Y-74745757D01*
X145423900Y-69312012D01*
X145442807Y-69253821D01*
X145452890Y-69242014D01*
X146414134Y-68280770D01*
X146414136Y-68280770D01*
X146477570Y-68217336D01*
X146495705Y-68173554D01*
X146511901Y-68134455D01*
X146511901Y-68044745D01*
X146511901Y-68036771D01*
X146511900Y-68036757D01*
X146511900Y-62090986D01*
X146511901Y-62090977D01*
X146511901Y-61989745D01*
X146477570Y-61906865D01*
X146477570Y-61906864D01*
X146414136Y-61843430D01*
X146414134Y-61843429D01*
X146070221Y-61499516D01*
X146042444Y-61444999D01*
X146052015Y-61384567D01*
X146052916Y-61382842D01*
X146092003Y-61309718D01*
X146092003Y-61309717D01*
X146092005Y-61309714D01*
X146147785Y-61125831D01*
X146147786Y-61125826D01*
X146166620Y-60934603D01*
X146166620Y-60934596D01*
X146147786Y-60743373D01*
X146147785Y-60743368D01*
X146097622Y-60578004D01*
X146092005Y-60559486D01*
X146090633Y-60556919D01*
X146001430Y-60390030D01*
X146001425Y-60390023D01*
X146001423Y-60390019D01*
X145891353Y-60255898D01*
X145879524Y-60241484D01*
X145879515Y-60241475D01*
X145792921Y-60170410D01*
X145730981Y-60119577D01*
X145730978Y-60119575D01*
X145730969Y-60119569D01*
X145561519Y-60028997D01*
X145561514Y-60028995D01*
X145377631Y-59973214D01*
X145377626Y-59973213D01*
X145186403Y-59954380D01*
X145186397Y-59954380D01*
X144995173Y-59973213D01*
X144995168Y-59973214D01*
X144811285Y-60028995D01*
X144811280Y-60028997D01*
X144641830Y-60119569D01*
X144641820Y-60119576D01*
X144493284Y-60241475D01*
X144493275Y-60241484D01*
X144371376Y-60390020D01*
X144371369Y-60390030D01*
X144280797Y-60559480D01*
X144280795Y-60559485D01*
X144225014Y-60743368D01*
X144225013Y-60743373D01*
X144206180Y-60934596D01*
X144206180Y-60934603D01*
X144225013Y-61125826D01*
X144225014Y-61125831D01*
X144280795Y-61309714D01*
X144280797Y-61309719D01*
X144371369Y-61479169D01*
X144371375Y-61479178D01*
X144371377Y-61479181D01*
X144422210Y-61541121D01*
X144493275Y-61627715D01*
X144493284Y-61627724D01*
X144537643Y-61664128D01*
X144641819Y-61749623D01*
X144641823Y-61749625D01*
X144641830Y-61749630D01*
X144811280Y-61840202D01*
X144811286Y-61840205D01*
X144904421Y-61868457D01*
X144995168Y-61895985D01*
X144995173Y-61895986D01*
X145186397Y-61914820D01*
X145186400Y-61914820D01*
X145186403Y-61914820D01*
X145377626Y-61895986D01*
X145377631Y-61895985D01*
X145403924Y-61888009D01*
X145561514Y-61840205D01*
X145634643Y-61801115D01*
X145694874Y-61790358D01*
X145749926Y-61817059D01*
X145751316Y-61818421D01*
X146031904Y-62099009D01*
X146059681Y-62153526D01*
X146060900Y-62169013D01*
X146060900Y-62725804D01*
X146041993Y-62783995D01*
X145992493Y-62819959D01*
X145931307Y-62819959D01*
X145885374Y-62788612D01*
X145879522Y-62781482D01*
X145879515Y-62781475D01*
X145792921Y-62710410D01*
X145730981Y-62659577D01*
X145730978Y-62659575D01*
X145730969Y-62659569D01*
X145561519Y-62568997D01*
X145561514Y-62568995D01*
X145377631Y-62513214D01*
X145377626Y-62513213D01*
X145186403Y-62494380D01*
X145186397Y-62494380D01*
X144995173Y-62513213D01*
X144995168Y-62513214D01*
X144811285Y-62568995D01*
X144811280Y-62568997D01*
X144641830Y-62659569D01*
X144641820Y-62659576D01*
X144493284Y-62781475D01*
X144493275Y-62781484D01*
X144371376Y-62930020D01*
X144371369Y-62930030D01*
X144280797Y-63099480D01*
X144280795Y-63099485D01*
X144225014Y-63283368D01*
X144225013Y-63283373D01*
X144206180Y-63474596D01*
X144206180Y-63474603D01*
X144225013Y-63665826D01*
X144225014Y-63665831D01*
X144280795Y-63849714D01*
X144280797Y-63849719D01*
X144371369Y-64019169D01*
X144371375Y-64019178D01*
X144371377Y-64019181D01*
X144422210Y-64081121D01*
X144493275Y-64167715D01*
X144493284Y-64167724D01*
X144561120Y-64223395D01*
X144641819Y-64289623D01*
X144641823Y-64289625D01*
X144641830Y-64289630D01*
X144811280Y-64380202D01*
X144811286Y-64380205D01*
X144939388Y-64419064D01*
X144995168Y-64435985D01*
X144995173Y-64435986D01*
X145186397Y-64454820D01*
X145186400Y-64454820D01*
X145186403Y-64454820D01*
X145377626Y-64435986D01*
X145377631Y-64435985D01*
X145561514Y-64380205D01*
X145622270Y-64347729D01*
X145730969Y-64289630D01*
X145730972Y-64289627D01*
X145730981Y-64289623D01*
X145879520Y-64167720D01*
X145885371Y-64160591D01*
X145936902Y-64127603D01*
X145997982Y-64131204D01*
X146045279Y-64170019D01*
X146060900Y-64223395D01*
X146060900Y-65265804D01*
X146041993Y-65323995D01*
X145992493Y-65359959D01*
X145931307Y-65359959D01*
X145885374Y-65328612D01*
X145879522Y-65321482D01*
X145879515Y-65321475D01*
X145792921Y-65250410D01*
X145730981Y-65199577D01*
X145730978Y-65199575D01*
X145730969Y-65199569D01*
X145561519Y-65108997D01*
X145561514Y-65108995D01*
X145377631Y-65053214D01*
X145377626Y-65053213D01*
X145186403Y-65034380D01*
X145186397Y-65034380D01*
X144995173Y-65053213D01*
X144995168Y-65053214D01*
X144811285Y-65108995D01*
X144811280Y-65108997D01*
X144641830Y-65199569D01*
X144641820Y-65199576D01*
X144493284Y-65321475D01*
X144493275Y-65321484D01*
X144371376Y-65470020D01*
X144371369Y-65470030D01*
X144280797Y-65639480D01*
X144280795Y-65639485D01*
X144225014Y-65823368D01*
X144225013Y-65823373D01*
X144206180Y-66014596D01*
X144206180Y-66014603D01*
X144225013Y-66205826D01*
X144225014Y-66205831D01*
X144280795Y-66389714D01*
X144280797Y-66389719D01*
X144371369Y-66559169D01*
X144371375Y-66559178D01*
X144371377Y-66559181D01*
X144422210Y-66621121D01*
X144493275Y-66707715D01*
X144493284Y-66707724D01*
X144561120Y-66763395D01*
X144641819Y-66829623D01*
X144641823Y-66829625D01*
X144641830Y-66829630D01*
X144795840Y-66911949D01*
X144811286Y-66920205D01*
X144939388Y-66959064D01*
X144995168Y-66975985D01*
X144995173Y-66975986D01*
X145186397Y-66994820D01*
X145186400Y-66994820D01*
X145186403Y-66994820D01*
X145377626Y-66975986D01*
X145377631Y-66975985D01*
X145561514Y-66920205D01*
X145625017Y-66886262D01*
X145730969Y-66829630D01*
X145730972Y-66829627D01*
X145730981Y-66829623D01*
X145879520Y-66707720D01*
X145885371Y-66700591D01*
X145936902Y-66667603D01*
X145997982Y-66671204D01*
X146045279Y-66710019D01*
X146060900Y-66763395D01*
X146060900Y-67955187D01*
X146041993Y-68013378D01*
X146031904Y-68025191D01*
X145058665Y-68998430D01*
X145058664Y-68998429D01*
X144995231Y-69061863D01*
X144995230Y-69061864D01*
X144995230Y-69061865D01*
X144974296Y-69112404D01*
X144960899Y-69144746D01*
X144960899Y-69234455D01*
X144965364Y-69245235D01*
X144972900Y-69283120D01*
X144972900Y-72812100D01*
X144953993Y-72870291D01*
X144904493Y-72906255D01*
X144873900Y-72911100D01*
X143498900Y-72911100D01*
X143440709Y-72892193D01*
X143404745Y-72842693D01*
X143399900Y-72812100D01*
X143399900Y-66344986D01*
X143399901Y-66344977D01*
X143399901Y-66243746D01*
X143365570Y-66160865D01*
X143365570Y-66160864D01*
X143302136Y-66097430D01*
X143302134Y-66097429D01*
X142208572Y-65003867D01*
X142180795Y-64949350D01*
X142180795Y-64918375D01*
X142188204Y-64871599D01*
X142184235Y-64846545D01*
X142167119Y-64738474D01*
X142105928Y-64618380D01*
X142011894Y-64524346D01*
X141984119Y-64469832D01*
X141982900Y-64454345D01*
X141982900Y-61958013D01*
X142001807Y-61899822D01*
X142011896Y-61888009D01*
X143170234Y-60729671D01*
X144621485Y-59278419D01*
X144676000Y-59250644D01*
X144736432Y-59260215D01*
X144738056Y-59261063D01*
X144811286Y-59300205D01*
X144939388Y-59339064D01*
X144995168Y-59355985D01*
X144995173Y-59355986D01*
X145186397Y-59374820D01*
X145186400Y-59374820D01*
X145186403Y-59374820D01*
X145377626Y-59355986D01*
X145377631Y-59355985D01*
X145561514Y-59300205D01*
X145636330Y-59260215D01*
X145730969Y-59209630D01*
X145730972Y-59209627D01*
X145730981Y-59209623D01*
X145879520Y-59087720D01*
X146001423Y-58939181D01*
X146001427Y-58939172D01*
X146001430Y-58939169D01*
X146092002Y-58769719D01*
X146092005Y-58769714D01*
X146147785Y-58585831D01*
X146147786Y-58585826D01*
X146166620Y-58394603D01*
X146166620Y-58394596D01*
X146147786Y-58203373D01*
X146147785Y-58203368D01*
X146130864Y-58147588D01*
X146092005Y-58019486D01*
X146092002Y-58019480D01*
X146001430Y-57850030D01*
X146001425Y-57850023D01*
X146001423Y-57850019D01*
X145936375Y-57770758D01*
X145879524Y-57701484D01*
X145879515Y-57701475D01*
X145792921Y-57630410D01*
X145730981Y-57579577D01*
X145730978Y-57579575D01*
X145730969Y-57579569D01*
X145561519Y-57488997D01*
X145561514Y-57488995D01*
X145377631Y-57433214D01*
X145377626Y-57433213D01*
X145186403Y-57414380D01*
X145186397Y-57414380D01*
X144995173Y-57433213D01*
X144995168Y-57433214D01*
X144811285Y-57488995D01*
X144811280Y-57488997D01*
X144641830Y-57579569D01*
X144641820Y-57579576D01*
X144493284Y-57701475D01*
X144493275Y-57701484D01*
X144371376Y-57850020D01*
X144371369Y-57850030D01*
X144280797Y-58019480D01*
X144280795Y-58019485D01*
X144225014Y-58203368D01*
X144225013Y-58203373D01*
X144206180Y-58394596D01*
X144206180Y-58394603D01*
X144225013Y-58585826D01*
X144225014Y-58585831D01*
X144280795Y-58769714D01*
X144280797Y-58769719D01*
X144319883Y-58842843D01*
X144330639Y-58903075D01*
X144303938Y-58958126D01*
X144302577Y-58959515D01*
X141629665Y-61632429D01*
X141629664Y-61632430D01*
X141629663Y-61632429D01*
X141566230Y-61695862D01*
X141566230Y-61695865D01*
X141531899Y-61778745D01*
X141531899Y-61879977D01*
X141531900Y-61879986D01*
X141531900Y-64454345D01*
X141512993Y-64512536D01*
X141502909Y-64524342D01*
X141408872Y-64618380D01*
X141408870Y-64618382D01*
X141347682Y-64738470D01*
X141347681Y-64738472D01*
X141326596Y-64871599D01*
X135497705Y-64871599D01*
X140183334Y-60185970D01*
X140183336Y-60185970D01*
X140246770Y-60122536D01*
X140260990Y-60088205D01*
X140281101Y-60039654D01*
X140281101Y-59949945D01*
X140281101Y-59941971D01*
X140281100Y-59941957D01*
X140281100Y-52452232D01*
X144210900Y-52452232D01*
X144210900Y-54176963D01*
X144218180Y-54213565D01*
X144218181Y-54213568D01*
X144245919Y-54255081D01*
X144259820Y-54264369D01*
X144287431Y-54282819D01*
X144296519Y-54284626D01*
X144324037Y-54290100D01*
X146048762Y-54290099D01*
X146048763Y-54290099D01*
X146057913Y-54288279D01*
X146085368Y-54282819D01*
X146126881Y-54255081D01*
X146154619Y-54213568D01*
X146161900Y-54176963D01*
X146161899Y-52452238D01*
X146160434Y-52444874D01*
X146154619Y-52415634D01*
X146154619Y-52415632D01*
X146126881Y-52374119D01*
X146126690Y-52373991D01*
X146085368Y-52346380D01*
X146048764Y-52339100D01*
X144324036Y-52339100D01*
X144287434Y-52346380D01*
X144287432Y-52346381D01*
X144245920Y-52374118D01*
X144245917Y-52374121D01*
X144218180Y-52415631D01*
X144218180Y-52415632D01*
X144210900Y-52452232D01*
X140281100Y-52452232D01*
X140281100Y-49221735D01*
X140300007Y-49163544D01*
X140306530Y-49155490D01*
X140320358Y-49140133D01*
X140413638Y-48978567D01*
X140471288Y-48801138D01*
X140490789Y-48615600D01*
X140471288Y-48430062D01*
X140413638Y-48252633D01*
X140413634Y-48252627D01*
X140413633Y-48252623D01*
X140363513Y-48165813D01*
X140320358Y-48091067D01*
X140195525Y-47952426D01*
X140044595Y-47842768D01*
X140044591Y-47842766D01*
X140044588Y-47842764D01*
X139874169Y-47766890D01*
X139874164Y-47766888D01*
X139874163Y-47766888D01*
X139874160Y-47766887D01*
X139874159Y-47766887D01*
X139839450Y-47759509D01*
X139691680Y-47728100D01*
X139505120Y-47728100D01*
X139388759Y-47752833D01*
X139322640Y-47766887D01*
X139322630Y-47766890D01*
X139152216Y-47842762D01*
X139152209Y-47842766D01*
X139001273Y-47952427D01*
X138925048Y-48037084D01*
X138876442Y-48091067D01*
X138876440Y-48091069D01*
X138876440Y-48091070D01*
X138783166Y-48252623D01*
X138783164Y-48252628D01*
X138725512Y-48430060D01*
X138706011Y-48615600D01*
X138725512Y-48801139D01*
X138739265Y-48843465D01*
X138783162Y-48978567D01*
X138783163Y-48978569D01*
X138783164Y-48978571D01*
X138783166Y-48978576D01*
X138822915Y-49047422D01*
X138876442Y-49140133D01*
X139001275Y-49278774D01*
X139152205Y-49388432D01*
X139152209Y-49388434D01*
X139152211Y-49388435D01*
X139322630Y-49464309D01*
X139322637Y-49464312D01*
X139505120Y-49503100D01*
X139505123Y-49503100D01*
X139691680Y-49503100D01*
X139710516Y-49499096D01*
X139771365Y-49505490D01*
X139816835Y-49546430D01*
X139830100Y-49595932D01*
X139830100Y-59860386D01*
X139811193Y-59918577D01*
X139801104Y-59930390D01*
X132908664Y-66822830D01*
X132908663Y-66822829D01*
X132845230Y-66886262D01*
X132845230Y-66886265D01*
X132810899Y-66969145D01*
X132810899Y-67070377D01*
X132810900Y-67070386D01*
X132810900Y-67344237D01*
X132791993Y-67402428D01*
X132742493Y-67438392D01*
X132681307Y-67438392D01*
X132666955Y-67432447D01*
X132649284Y-67423443D01*
X132619526Y-67408281D01*
X132486400Y-67387196D01*
X132353272Y-67408281D01*
X132353270Y-67408282D01*
X132233182Y-67469470D01*
X132233180Y-67469471D01*
X132233180Y-67469472D01*
X132139146Y-67563505D01*
X132084632Y-67591281D01*
X132069145Y-67592500D01*
X129951986Y-67592500D01*
X129951978Y-67592499D01*
X129940455Y-67592499D01*
X129850746Y-67592499D01*
X129850745Y-67592499D01*
X129813979Y-67607727D01*
X129813980Y-67607728D01*
X129767864Y-67626829D01*
X129704429Y-67690263D01*
X129704430Y-67690264D01*
X129704429Y-67690265D01*
X129164266Y-68230427D01*
X129109749Y-68258204D01*
X129078776Y-68258204D01*
X129032002Y-68250796D01*
X129031999Y-68250796D01*
X128898872Y-68271881D01*
X128898870Y-68271882D01*
X128778782Y-68333070D01*
X128683470Y-68428382D01*
X128622282Y-68548470D01*
X128622281Y-68548472D01*
X128601196Y-68681599D01*
X128601196Y-68681600D01*
X128622281Y-68814727D01*
X128622282Y-68814729D01*
X128683470Y-68934817D01*
X128683472Y-68934820D01*
X128778780Y-69030128D01*
X128898874Y-69091319D01*
X129032000Y-69112404D01*
X129165126Y-69091319D01*
X129285220Y-69030128D01*
X129380528Y-68934820D01*
X129441719Y-68814726D01*
X129462804Y-68681600D01*
X129455395Y-68634822D01*
X129464966Y-68574390D01*
X129483173Y-68549331D01*
X129960010Y-68072496D01*
X130014526Y-68044719D01*
X130030013Y-68043500D01*
X132069145Y-68043500D01*
X132127336Y-68062407D01*
X132139142Y-68072490D01*
X132233180Y-68166528D01*
X132352643Y-68227397D01*
X132395907Y-68270661D01*
X132405478Y-68331093D01*
X132377701Y-68385610D01*
X128831009Y-71932304D01*
X128776492Y-71960081D01*
X128761005Y-71961300D01*
X127558255Y-71961300D01*
X127500064Y-71942393D01*
X127464100Y-71892893D01*
X127464100Y-71831707D01*
X127488249Y-71792298D01*
X127551728Y-71728820D01*
X127612919Y-71608726D01*
X127634004Y-71475600D01*
X127612919Y-71342474D01*
X127603504Y-71323997D01*
X127551729Y-71222382D01*
X127551728Y-71222380D01*
X127456420Y-71127072D01*
X127455917Y-71126815D01*
X127431952Y-71114604D01*
X127388689Y-71071338D01*
X127377900Y-71026396D01*
X127377900Y-65361612D01*
X127396807Y-65303421D01*
X127406890Y-65291614D01*
X130931733Y-61766770D01*
X130986248Y-61738995D01*
X131017222Y-61738995D01*
X131064000Y-61746404D01*
X131197126Y-61725319D01*
X131317220Y-61664128D01*
X131412528Y-61568820D01*
X131413290Y-61567323D01*
X131414476Y-61566137D01*
X131417106Y-61562518D01*
X131417679Y-61562934D01*
X131456552Y-61524059D01*
X131516983Y-61514485D01*
X131571501Y-61542261D01*
X131599281Y-61596776D01*
X131600500Y-61612267D01*
X131600500Y-62755986D01*
X131581593Y-62814177D01*
X131571504Y-62825990D01*
X128853464Y-65544030D01*
X128853463Y-65544029D01*
X128790030Y-65607462D01*
X128790030Y-65607465D01*
X128755699Y-65690345D01*
X128755699Y-65791577D01*
X128755700Y-65791586D01*
X128755700Y-66841945D01*
X128736793Y-66900136D01*
X128726709Y-66911942D01*
X128669507Y-66969145D01*
X128632670Y-67005982D01*
X128571482Y-67126070D01*
X128571481Y-67126072D01*
X128550396Y-67259199D01*
X128550396Y-67259200D01*
X128571481Y-67392327D01*
X128571482Y-67392329D01*
X128632670Y-67512417D01*
X128632672Y-67512420D01*
X128727980Y-67607728D01*
X128848074Y-67668919D01*
X128981200Y-67690004D01*
X129114326Y-67668919D01*
X129234420Y-67607728D01*
X129329728Y-67512420D01*
X129390919Y-67392326D01*
X129412004Y-67259200D01*
X129390919Y-67126074D01*
X129329728Y-67005980D01*
X129235694Y-66911946D01*
X129207919Y-66857432D01*
X129206700Y-66841945D01*
X129206700Y-65869612D01*
X129225607Y-65811421D01*
X129235690Y-65799614D01*
X131953734Y-63081570D01*
X131953736Y-63081570D01*
X132017170Y-63018136D01*
X132031390Y-62983805D01*
X132051501Y-62935254D01*
X132051501Y-62845545D01*
X132051501Y-62837571D01*
X132051500Y-62837557D01*
X132051500Y-61153325D01*
X132017171Y-61070448D01*
X132017170Y-61070447D01*
X132017170Y-61070446D01*
X131953736Y-61007012D01*
X131953734Y-61007011D01*
X129660588Y-58713865D01*
X129660588Y-58713864D01*
X129621815Y-58675091D01*
X129594040Y-58620577D01*
X129603611Y-58560145D01*
X129621814Y-58535089D01*
X132410934Y-55745970D01*
X132410936Y-55745970D01*
X132474370Y-55682536D01*
X132508700Y-55599655D01*
X132508700Y-49377768D01*
X132527607Y-49319577D01*
X132549506Y-49297677D01*
X132575525Y-49278774D01*
X132700358Y-49140133D01*
X132793638Y-48978567D01*
X132851288Y-48801138D01*
X132870789Y-48615600D01*
X133626011Y-48615600D01*
X133645512Y-48801139D01*
X133659265Y-48843465D01*
X133703162Y-48978567D01*
X133703163Y-48978569D01*
X133703164Y-48978571D01*
X133703166Y-48978576D01*
X133742915Y-49047422D01*
X133796442Y-49140133D01*
X133921275Y-49278774D01*
X134072205Y-49388432D01*
X134072209Y-49388434D01*
X134072211Y-49388435D01*
X134242630Y-49464309D01*
X134242637Y-49464312D01*
X134425120Y-49503100D01*
X134425123Y-49503100D01*
X134611677Y-49503100D01*
X134611680Y-49503100D01*
X134794163Y-49464312D01*
X134964595Y-49388432D01*
X135115525Y-49278774D01*
X135240358Y-49140133D01*
X135333638Y-48978567D01*
X135391288Y-48801138D01*
X135410789Y-48615600D01*
X136166011Y-48615600D01*
X136185512Y-48801139D01*
X136199265Y-48843465D01*
X136243162Y-48978567D01*
X136243163Y-48978569D01*
X136243164Y-48978571D01*
X136243166Y-48978576D01*
X136282915Y-49047422D01*
X136336442Y-49140133D01*
X136461275Y-49278774D01*
X136612205Y-49388432D01*
X136612209Y-49388434D01*
X136612211Y-49388435D01*
X136782630Y-49464309D01*
X136782637Y-49464312D01*
X136965120Y-49503100D01*
X136965123Y-49503100D01*
X137151677Y-49503100D01*
X137151680Y-49503100D01*
X137334163Y-49464312D01*
X137504595Y-49388432D01*
X137655525Y-49278774D01*
X137780358Y-49140133D01*
X137873638Y-48978567D01*
X137931288Y-48801138D01*
X137950789Y-48615600D01*
X137931288Y-48430062D01*
X137873638Y-48252633D01*
X137873634Y-48252627D01*
X137873633Y-48252623D01*
X137823513Y-48165813D01*
X137780358Y-48091067D01*
X137655525Y-47952426D01*
X137504595Y-47842768D01*
X137504591Y-47842766D01*
X137504588Y-47842764D01*
X137334169Y-47766890D01*
X137334164Y-47766888D01*
X137334163Y-47766888D01*
X137334160Y-47766887D01*
X137334159Y-47766887D01*
X137299450Y-47759509D01*
X137151680Y-47728100D01*
X136965120Y-47728100D01*
X136848759Y-47752833D01*
X136782640Y-47766887D01*
X136782630Y-47766890D01*
X136612216Y-47842762D01*
X136612209Y-47842766D01*
X136461273Y-47952427D01*
X136385048Y-48037084D01*
X136336442Y-48091067D01*
X136336440Y-48091069D01*
X136336440Y-48091070D01*
X136243166Y-48252623D01*
X136243164Y-48252628D01*
X136185512Y-48430060D01*
X136166011Y-48615600D01*
X135410789Y-48615600D01*
X135391288Y-48430062D01*
X135333638Y-48252633D01*
X135333634Y-48252627D01*
X135333633Y-48252623D01*
X135283513Y-48165813D01*
X135240358Y-48091067D01*
X135115525Y-47952426D01*
X134964595Y-47842768D01*
X134964591Y-47842766D01*
X134964588Y-47842764D01*
X134794169Y-47766890D01*
X134794164Y-47766888D01*
X134794163Y-47766888D01*
X134794160Y-47766887D01*
X134794159Y-47766887D01*
X134759450Y-47759509D01*
X134611680Y-47728100D01*
X134425120Y-47728100D01*
X134308759Y-47752833D01*
X134242640Y-47766887D01*
X134242630Y-47766890D01*
X134072216Y-47842762D01*
X134072209Y-47842766D01*
X133921273Y-47952427D01*
X133845048Y-48037084D01*
X133796442Y-48091067D01*
X133796440Y-48091069D01*
X133796440Y-48091070D01*
X133703166Y-48252623D01*
X133703164Y-48252628D01*
X133645512Y-48430060D01*
X133626011Y-48615600D01*
X132870789Y-48615600D01*
X132851288Y-48430062D01*
X132793638Y-48252633D01*
X132793634Y-48252627D01*
X132793633Y-48252623D01*
X132743513Y-48165813D01*
X132700358Y-48091067D01*
X132575525Y-47952426D01*
X132424595Y-47842768D01*
X132424591Y-47842766D01*
X132424588Y-47842764D01*
X132254169Y-47766890D01*
X132254164Y-47766888D01*
X132254163Y-47766888D01*
X132254160Y-47766887D01*
X132254159Y-47766887D01*
X132219450Y-47759509D01*
X132071680Y-47728100D01*
X131885120Y-47728100D01*
X131768759Y-47752833D01*
X131702640Y-47766887D01*
X131702630Y-47766890D01*
X131532216Y-47842762D01*
X131532209Y-47842766D01*
X131381273Y-47952427D01*
X131305048Y-48037084D01*
X131256442Y-48091067D01*
X131256440Y-48091069D01*
X131256440Y-48091070D01*
X131163166Y-48252623D01*
X131163164Y-48252628D01*
X131105512Y-48430060D01*
X131086011Y-48615600D01*
X131105512Y-48801139D01*
X131119265Y-48843465D01*
X131163162Y-48978567D01*
X131163163Y-48978569D01*
X131163164Y-48978571D01*
X131163166Y-48978576D01*
X131202915Y-49047422D01*
X131256442Y-49140133D01*
X131381275Y-49278774D01*
X131532205Y-49388432D01*
X131532209Y-49388434D01*
X131532211Y-49388435D01*
X131702630Y-49464309D01*
X131702637Y-49464312D01*
X131885120Y-49503100D01*
X131958700Y-49503100D01*
X132016891Y-49522007D01*
X132052855Y-49571507D01*
X132057700Y-49602100D01*
X132057700Y-55420386D01*
X132038793Y-55478577D01*
X132028704Y-55490390D01*
X129128666Y-58390427D01*
X129074149Y-58418204D01*
X129043176Y-58418204D01*
X128996402Y-58410796D01*
X128996399Y-58410796D01*
X128863272Y-58431881D01*
X128863270Y-58431882D01*
X128743182Y-58493070D01*
X128647870Y-58588382D01*
X128586682Y-58708470D01*
X128586681Y-58708472D01*
X128565596Y-58841599D01*
X128565596Y-58841600D01*
X128586681Y-58974727D01*
X128586682Y-58974729D01*
X128644254Y-59087720D01*
X128647872Y-59094820D01*
X128743180Y-59190128D01*
X128863274Y-59251319D01*
X128996400Y-59272404D01*
X129129526Y-59251319D01*
X129249620Y-59190128D01*
X129304328Y-59135419D01*
X129358843Y-59107644D01*
X129419275Y-59117215D01*
X129444334Y-59135421D01*
X129888501Y-59579588D01*
X129916278Y-59634105D01*
X129906707Y-59694537D01*
X129863443Y-59737801D01*
X129743981Y-59798671D01*
X129743980Y-59798671D01*
X129743980Y-59798672D01*
X129649946Y-59892705D01*
X129595432Y-59920481D01*
X129579945Y-59921700D01*
X125710543Y-59921700D01*
X125627666Y-59956028D01*
X125564228Y-60019466D01*
X125529900Y-60102343D01*
X125529900Y-66740345D01*
X125510993Y-66798536D01*
X125500909Y-66810342D01*
X125453820Y-66857432D01*
X125406870Y-66904382D01*
X125345682Y-67024470D01*
X125345681Y-67024472D01*
X125324596Y-67157599D01*
X125324596Y-67157600D01*
X125345681Y-67290727D01*
X125345682Y-67290729D01*
X125406870Y-67410817D01*
X125406872Y-67410820D01*
X125502180Y-67506128D01*
X125622274Y-67567319D01*
X125755400Y-67588404D01*
X125888526Y-67567319D01*
X126008620Y-67506128D01*
X126103928Y-67410820D01*
X126165119Y-67290726D01*
X126186204Y-67157600D01*
X126165119Y-67024474D01*
X126103928Y-66904380D01*
X126009894Y-66810346D01*
X125982119Y-66755832D01*
X125980900Y-66740345D01*
X125980900Y-60471700D01*
X125999807Y-60413509D01*
X126049307Y-60377545D01*
X126079900Y-60372700D01*
X129579945Y-60372700D01*
X129638136Y-60391607D01*
X129649942Y-60401690D01*
X129743980Y-60495728D01*
X129864074Y-60556919D01*
X129997200Y-60578004D01*
X130130326Y-60556919D01*
X130250420Y-60495728D01*
X130345728Y-60400420D01*
X130406597Y-60280956D01*
X130449862Y-60237692D01*
X130510294Y-60228121D01*
X130564811Y-60255898D01*
X131038584Y-60729671D01*
X131066361Y-60784188D01*
X131056790Y-60844620D01*
X131013525Y-60887885D01*
X130984067Y-60897456D01*
X130930872Y-60905881D01*
X130930870Y-60905882D01*
X130810782Y-60967070D01*
X130715470Y-61062382D01*
X130654282Y-61182470D01*
X130654281Y-61182472D01*
X130633196Y-61315598D01*
X130633196Y-61315601D01*
X130640604Y-61362376D01*
X130631032Y-61422808D01*
X130612827Y-61447866D01*
X127024665Y-65036029D01*
X127024664Y-65036030D01*
X127024663Y-65036029D01*
X126961230Y-65099462D01*
X126961230Y-65099465D01*
X126926899Y-65182345D01*
X126926899Y-65283577D01*
X126926900Y-65283586D01*
X126926900Y-71109144D01*
X126907993Y-71167335D01*
X126897904Y-71179147D01*
X126854673Y-71222378D01*
X126854670Y-71222382D01*
X126793482Y-71342470D01*
X126793481Y-71342472D01*
X126772396Y-71475599D01*
X126772396Y-71475600D01*
X126793481Y-71608727D01*
X126793482Y-71608729D01*
X126854670Y-71728817D01*
X126854672Y-71728820D01*
X126918150Y-71792298D01*
X126945926Y-71846813D01*
X126936355Y-71907245D01*
X126893090Y-71950510D01*
X126848145Y-71961300D01*
X122893343Y-71961300D01*
X122810466Y-71995628D01*
X122000190Y-72805904D01*
X121945673Y-72833681D01*
X121930186Y-72834900D01*
X120671612Y-72834900D01*
X120613421Y-72815993D01*
X120577457Y-72766493D01*
X120577457Y-72705307D01*
X120601606Y-72665898D01*
X121779812Y-71487691D01*
X121779815Y-71487690D01*
X121793735Y-71473770D01*
X121793736Y-71473770D01*
X121857170Y-71410336D01*
X121869758Y-71379945D01*
X121891501Y-71327455D01*
X121891501Y-71237745D01*
X121891501Y-71229771D01*
X121891500Y-71229757D01*
X121891500Y-70692816D01*
X121905229Y-70647555D01*
X121904238Y-70647145D01*
X121907970Y-70638136D01*
X121921258Y-70606055D01*
X121942301Y-70555255D01*
X121942301Y-70465545D01*
X121942301Y-70457571D01*
X121942300Y-70457557D01*
X121942300Y-52577999D01*
X124283196Y-52577999D01*
X124283196Y-52578000D01*
X124304281Y-52711127D01*
X124304282Y-52711129D01*
X124365470Y-52831217D01*
X124365472Y-52831220D01*
X124460780Y-52926528D01*
X124580874Y-52987719D01*
X124714000Y-53008804D01*
X124847126Y-52987719D01*
X124967220Y-52926528D01*
X125062528Y-52831220D01*
X125074994Y-52806753D01*
X125118259Y-52763490D01*
X125163203Y-52752700D01*
X130680145Y-52752700D01*
X130738336Y-52771607D01*
X130750142Y-52781690D01*
X130844180Y-52875728D01*
X130844182Y-52875729D01*
X130943880Y-52926528D01*
X130964274Y-52936919D01*
X131097400Y-52958004D01*
X131230526Y-52936919D01*
X131350620Y-52875728D01*
X131445928Y-52780420D01*
X131507119Y-52660326D01*
X131528204Y-52527200D01*
X131507119Y-52394074D01*
X131445928Y-52273980D01*
X131350620Y-52178672D01*
X131350617Y-52178670D01*
X131230529Y-52117482D01*
X131230527Y-52117481D01*
X131097400Y-52096396D01*
X130964272Y-52117481D01*
X130964270Y-52117482D01*
X130844182Y-52178670D01*
X130844180Y-52178671D01*
X130844180Y-52178672D01*
X130750146Y-52272705D01*
X130695632Y-52300481D01*
X130680145Y-52301700D01*
X125080456Y-52301700D01*
X125022265Y-52282793D01*
X125010453Y-52272704D01*
X124967221Y-52229473D01*
X124967217Y-52229470D01*
X124847129Y-52168282D01*
X124847127Y-52168281D01*
X124714000Y-52147196D01*
X124580872Y-52168281D01*
X124580870Y-52168282D01*
X124460782Y-52229470D01*
X124365470Y-52324782D01*
X124304282Y-52444870D01*
X124304281Y-52444872D01*
X124283196Y-52577999D01*
X121942300Y-52577999D01*
X121942300Y-49105613D01*
X121961207Y-49047422D01*
X121971296Y-49035609D01*
X122391305Y-48615600D01*
X126006011Y-48615600D01*
X126025512Y-48801139D01*
X126039265Y-48843465D01*
X126083162Y-48978567D01*
X126083163Y-48978569D01*
X126083164Y-48978571D01*
X126083166Y-48978576D01*
X126122915Y-49047422D01*
X126176442Y-49140133D01*
X126301275Y-49278774D01*
X126452205Y-49388432D01*
X126452209Y-49388434D01*
X126452211Y-49388435D01*
X126622630Y-49464309D01*
X126622637Y-49464312D01*
X126805120Y-49503100D01*
X126805123Y-49503100D01*
X126991677Y-49503100D01*
X126991680Y-49503100D01*
X127174163Y-49464312D01*
X127344595Y-49388432D01*
X127495525Y-49278774D01*
X127620358Y-49140133D01*
X127713638Y-48978567D01*
X127771288Y-48801138D01*
X127790789Y-48615600D01*
X127771288Y-48430062D01*
X127713638Y-48252633D01*
X127713634Y-48252627D01*
X127713633Y-48252623D01*
X127663513Y-48165813D01*
X127620358Y-48091067D01*
X127495525Y-47952426D01*
X127344595Y-47842768D01*
X127344591Y-47842766D01*
X127344588Y-47842764D01*
X127174169Y-47766890D01*
X127174164Y-47766888D01*
X127174163Y-47766888D01*
X127174160Y-47766887D01*
X127174159Y-47766887D01*
X127139450Y-47759509D01*
X126991680Y-47728100D01*
X126805120Y-47728100D01*
X126688759Y-47752833D01*
X126622640Y-47766887D01*
X126622630Y-47766890D01*
X126452216Y-47842762D01*
X126452209Y-47842766D01*
X126301273Y-47952427D01*
X126225048Y-48037084D01*
X126176442Y-48091067D01*
X126176440Y-48091069D01*
X126176440Y-48091070D01*
X126083166Y-48252623D01*
X126083164Y-48252628D01*
X126025512Y-48430060D01*
X126006011Y-48615600D01*
X122391305Y-48615600D01*
X125688809Y-45318096D01*
X125743326Y-45290319D01*
X125758813Y-45289100D01*
X126189960Y-45289100D01*
X126248151Y-45308007D01*
X126284115Y-45357507D01*
X126284115Y-45418693D01*
X126263532Y-45454344D01*
X126176440Y-45551069D01*
X126176440Y-45551070D01*
X126083166Y-45712623D01*
X126083164Y-45712628D01*
X126025512Y-45890060D01*
X126025512Y-45890062D01*
X126006011Y-46075600D01*
X126025512Y-46261138D01*
X126083162Y-46438567D01*
X126083163Y-46438569D01*
X126083164Y-46438571D01*
X126083166Y-46438576D01*
X126157271Y-46566928D01*
X126176442Y-46600133D01*
X126301275Y-46738774D01*
X126452205Y-46848432D01*
X126452209Y-46848434D01*
X126452211Y-46848435D01*
X126622630Y-46924309D01*
X126622637Y-46924312D01*
X126805120Y-46963100D01*
X126805123Y-46963100D01*
X126991677Y-46963100D01*
X126991680Y-46963100D01*
X127174163Y-46924312D01*
X127344595Y-46848432D01*
X127495525Y-46738774D01*
X127620358Y-46600133D01*
X127713638Y-46438567D01*
X127771288Y-46261138D01*
X127790789Y-46075600D01*
X127771288Y-45890062D01*
X127713638Y-45712633D01*
X127713634Y-45712627D01*
X127713633Y-45712623D01*
X127657593Y-45615560D01*
X127620358Y-45551067D01*
X127533267Y-45454343D01*
X127508382Y-45398448D01*
X127521104Y-45338600D01*
X127566573Y-45297659D01*
X127606840Y-45289100D01*
X131269960Y-45289100D01*
X131328151Y-45308007D01*
X131364115Y-45357507D01*
X131364115Y-45418693D01*
X131343532Y-45454344D01*
X131256440Y-45551069D01*
X131256440Y-45551070D01*
X131163166Y-45712623D01*
X131163164Y-45712628D01*
X131105512Y-45890060D01*
X131105512Y-45890062D01*
X131086011Y-46075600D01*
X131105512Y-46261138D01*
X131163162Y-46438567D01*
X131163163Y-46438569D01*
X131163164Y-46438571D01*
X131163166Y-46438576D01*
X131237271Y-46566928D01*
X131256442Y-46600133D01*
X131381275Y-46738774D01*
X131532205Y-46848432D01*
X131532209Y-46848434D01*
X131532211Y-46848435D01*
X131702630Y-46924309D01*
X131702637Y-46924312D01*
X131885120Y-46963100D01*
X131885123Y-46963100D01*
X132071677Y-46963100D01*
X132071680Y-46963100D01*
X132254163Y-46924312D01*
X132367788Y-46873723D01*
X132428635Y-46867328D01*
X132478056Y-46894161D01*
X132799229Y-47215334D01*
X132799230Y-47215336D01*
X132862664Y-47278770D01*
X132862665Y-47278770D01*
X132862666Y-47278771D01*
X132886938Y-47288825D01*
X132886939Y-47288825D01*
X132945545Y-47313101D01*
X132945546Y-47313101D01*
X133046778Y-47313101D01*
X133046786Y-47313100D01*
X137920414Y-47313100D01*
X137920422Y-47313101D01*
X137931945Y-47313101D01*
X138021654Y-47313101D01*
X138021655Y-47313101D01*
X138080260Y-47288825D01*
X138104536Y-47278770D01*
X138167970Y-47215336D01*
X138167970Y-47215335D01*
X138181876Y-47201429D01*
X138181885Y-47201419D01*
X138202134Y-47181170D01*
X138202136Y-47181170D01*
X138265570Y-47117736D01*
X138299900Y-47034855D01*
X138299900Y-46075600D01*
X138706011Y-46075600D01*
X138725512Y-46261138D01*
X138783162Y-46438567D01*
X138783163Y-46438569D01*
X138783164Y-46438571D01*
X138783166Y-46438576D01*
X138857271Y-46566928D01*
X138876442Y-46600133D01*
X139001275Y-46738774D01*
X139152205Y-46848432D01*
X139152209Y-46848434D01*
X139152211Y-46848435D01*
X139322630Y-46924309D01*
X139322637Y-46924312D01*
X139505120Y-46963100D01*
X139505123Y-46963100D01*
X139691677Y-46963100D01*
X139691680Y-46963100D01*
X139874163Y-46924312D01*
X140044595Y-46848432D01*
X140195525Y-46738774D01*
X140320358Y-46600133D01*
X140413638Y-46438567D01*
X140471288Y-46261138D01*
X140490789Y-46075600D01*
X140471288Y-45890062D01*
X140413638Y-45712633D01*
X140413634Y-45712627D01*
X140413633Y-45712623D01*
X140357593Y-45615560D01*
X140320358Y-45551067D01*
X140195525Y-45412426D01*
X140044595Y-45302768D01*
X140044591Y-45302766D01*
X140044588Y-45302764D01*
X139874169Y-45226890D01*
X139874164Y-45226888D01*
X139874163Y-45226888D01*
X139874160Y-45226887D01*
X139874159Y-45226887D01*
X139839450Y-45219509D01*
X139691680Y-45188100D01*
X139505120Y-45188100D01*
X139388759Y-45212833D01*
X139322640Y-45226887D01*
X139322630Y-45226890D01*
X139152216Y-45302762D01*
X139152209Y-45302766D01*
X139001273Y-45412427D01*
X138950115Y-45469245D01*
X138876442Y-45551067D01*
X138876440Y-45551069D01*
X138876440Y-45551070D01*
X138783166Y-45712623D01*
X138783164Y-45712628D01*
X138725512Y-45890060D01*
X138725512Y-45890062D01*
X138706011Y-46075600D01*
X138299900Y-46075600D01*
X138299900Y-45716801D01*
X138299901Y-45716792D01*
X138299901Y-45615560D01*
X138265570Y-45532680D01*
X138265570Y-45532679D01*
X138202136Y-45469245D01*
X138202134Y-45469244D01*
X136496355Y-43763465D01*
X136496355Y-43763464D01*
X136432921Y-43700030D01*
X136408645Y-43689974D01*
X136408643Y-43689973D01*
X136408643Y-43689972D01*
X136374313Y-43675753D01*
X136350040Y-43665699D01*
X136260330Y-43665699D01*
X136248807Y-43665699D01*
X136248799Y-43665700D01*
X125125986Y-43665700D01*
X125125978Y-43665699D01*
X125114455Y-43665699D01*
X125024745Y-43665699D01*
X125024743Y-43665699D01*
X124966142Y-43689971D01*
X124966143Y-43689972D01*
X124941864Y-43700030D01*
X124941862Y-43700031D01*
X124878429Y-43763463D01*
X124878430Y-43763464D01*
X124878429Y-43763465D01*
X120801665Y-47840229D01*
X120801664Y-47840230D01*
X120801663Y-47840229D01*
X120738230Y-47903662D01*
X120738230Y-47903665D01*
X120703899Y-47986545D01*
X120703899Y-48087777D01*
X120703900Y-48087786D01*
X120703900Y-71389812D01*
X120684993Y-71448003D01*
X120674904Y-71459816D01*
X119760464Y-72374256D01*
X119760463Y-72374255D01*
X119697030Y-72437688D01*
X119697030Y-72437691D01*
X119662699Y-72520571D01*
X119118500Y-72520571D01*
X119118500Y-42763500D01*
X119137407Y-42705309D01*
X119186907Y-42669345D01*
X119217500Y-42664500D01*
X131183354Y-42664500D01*
X131419110Y-42627159D01*
X131419111Y-42627158D01*
X131419115Y-42627158D01*
X131646134Y-42553395D01*
X131858819Y-42445027D01*
X131965602Y-42367443D01*
X132023792Y-42348536D01*
X132049416Y-42351909D01*
X132051210Y-42352389D01*
X132051214Y-42352392D01*
X132178508Y-42386500D01*
X132178510Y-42386500D01*
X132310290Y-42386500D01*
X132310292Y-42386500D01*
X132437586Y-42352392D01*
X132437588Y-42352390D01*
X132437590Y-42352390D01*
X132551709Y-42286503D01*
X132551709Y-42286502D01*
X132551714Y-42286500D01*
X132551717Y-42286496D01*
X132556860Y-42282551D01*
X132558218Y-42284321D01*
X132603913Y-42261040D01*
X132664345Y-42270611D01*
X132681524Y-42283092D01*
X132681940Y-42282551D01*
X132687090Y-42286503D01*
X132801210Y-42352390D01*
X132801208Y-42352390D01*
X132801212Y-42352391D01*
X132801214Y-42352392D01*
X132928508Y-42386500D01*
X132928510Y-42386500D01*
X133060290Y-42386500D01*
X133060292Y-42386500D01*
X133187586Y-42352392D01*
X133187588Y-42352390D01*
X133187590Y-42352390D01*
X133301709Y-42286503D01*
X133301709Y-42286502D01*
X133301714Y-42286500D01*
X133301717Y-42286496D01*
X133306860Y-42282551D01*
X133308218Y-42284321D01*
X133353913Y-42261040D01*
X133414345Y-42270611D01*
G37*
%TD.AperFunction*%
%TD*%
M02*
