%TF.GenerationSoftware,KiCad,Pcbnew,8.0.4+dfsg-1*%
%TF.CreationDate,2025-01-29T13:42:24+01:00*%
%TF.ProjectId,panel,70616e65-6c2e-46b6-9963-61645f706362,rev?*%
%TF.SameCoordinates,Original*%
%TF.FileFunction,Soldermask,Top*%
%TF.FilePolarity,Negative*%
%FSLAX46Y46*%
G04 Gerber Fmt 4.6, Leading zero omitted, Abs format (unit mm)*
G04 Created by KiCad (PCBNEW 8.0.4+dfsg-1) date 2025-01-29 13:42:24*
%MOMM*%
%LPD*%
G01*
G04 APERTURE LIST*
G04 Aperture macros list*
%AMRoundRect*
0 Rectangle with rounded corners*
0 $1 Rounding radius*
0 $2 $3 $4 $5 $6 $7 $8 $9 X,Y pos of 4 corners*
0 Add a 4 corners polygon primitive as box body*
4,1,4,$2,$3,$4,$5,$6,$7,$8,$9,$2,$3,0*
0 Add four circle primitives for the rounded corners*
1,1,$1+$1,$2,$3*
1,1,$1+$1,$4,$5*
1,1,$1+$1,$6,$7*
1,1,$1+$1,$8,$9*
0 Add four rect primitives between the rounded corners*
20,1,$1+$1,$2,$3,$4,$5,0*
20,1,$1+$1,$4,$5,$6,$7,0*
20,1,$1+$1,$6,$7,$8,$9,0*
20,1,$1+$1,$8,$9,$2,$3,0*%
G04 Aperture macros list end*
%ADD10C,0.500000*%
%ADD11RoundRect,0.225000X-0.225000X-0.250000X0.225000X-0.250000X0.225000X0.250000X-0.225000X0.250000X0*%
%ADD12R,2.070000X1.600000*%
%ADD13R,1.308000X1.600000*%
%ADD14R,2.257300X1.600000*%
%ADD15O,1.225400X1.600000*%
%ADD16O,1.225400X1.562000*%
%ADD17R,2.257300X1.562000*%
%ADD18RoundRect,0.030000X-0.175000X0.295000X-0.175000X-0.295000X0.175000X-0.295000X0.175000X0.295000X0*%
%ADD19RoundRect,0.030000X-0.295000X0.175000X-0.295000X-0.175000X0.295000X-0.175000X0.295000X0.175000X0*%
%ADD20RoundRect,0.030000X-0.175000X0.460000X-0.175000X-0.460000X0.175000X-0.460000X0.175000X0.460000X0*%
%ADD21RoundRect,0.030000X-0.454000X0.175000X-0.454000X-0.175000X0.454000X-0.175000X0.454000X0.175000X0*%
%ADD22R,1.000000X1.500000*%
%ADD23RoundRect,0.250000X0.450000X-0.262500X0.450000X0.262500X-0.450000X0.262500X-0.450000X-0.262500X0*%
%ADD24RoundRect,0.250000X0.475000X-0.250000X0.475000X0.250000X-0.475000X0.250000X-0.475000X-0.250000X0*%
%ADD25O,1.700000X1.700000*%
%ADD26R,1.700000X1.700000*%
%ADD27C,1.524000*%
%ADD28R,1.524000X1.524000*%
%ADD29R,1.676400X1.676400*%
%ADD30RoundRect,0.250000X-0.475000X0.250000X-0.475000X-0.250000X0.475000X-0.250000X0.475000X0.250000X0*%
%ADD31RoundRect,0.250000X-0.250000X-0.475000X0.250000X-0.475000X0.250000X0.475000X-0.250000X0.475000X0*%
%ADD32R,0.622300X0.254000*%
%ADD33R,0.254000X0.622300*%
G04 APERTURE END LIST*
D10*
%TO.C,mouse-bite-2mm-slot*%
X131838000Y-97548000D03*
X131838000Y-99048000D03*
X132588000Y-97548000D03*
X132588000Y-99048000D03*
X133338000Y-97548000D03*
X133338000Y-99048000D03*
%TD*%
%TO.C,mouse-bite-2mm-slot*%
X133744400Y-41886000D03*
X133744400Y-40386000D03*
X132994400Y-41886000D03*
X132994400Y-40386000D03*
X132244400Y-41886000D03*
X132244400Y-40386000D03*
%TD*%
D11*
%TO.C,C1*%
X100825000Y-47498000D03*
X102375000Y-47498000D03*
%TD*%
D10*
%TO.C,mouse-bite-2mm-slot*%
X164072000Y-63234000D03*
X164072000Y-61734000D03*
X163322000Y-63234000D03*
X163322000Y-61734000D03*
X162572000Y-63234000D03*
X162572000Y-61734000D03*
%TD*%
D11*
%TO.C,C5*%
X164097000Y-47498000D03*
X162547000Y-47498000D03*
%TD*%
%TO.C,C2*%
X102375000Y-54610000D03*
X100825000Y-54610000D03*
%TD*%
D12*
%TO.C,J3*%
X96755000Y-82296000D03*
D13*
X97936000Y-82296000D03*
D14*
X96848650Y-84836000D03*
D15*
X97977300Y-84836000D03*
D14*
X96848650Y-87376000D03*
D15*
X97977300Y-87376000D03*
D14*
X96848650Y-89916000D03*
D15*
X97977300Y-89916000D03*
D14*
X96848650Y-92456000D03*
D15*
X97977300Y-92456000D03*
D14*
X96848650Y-94996000D03*
D15*
X97977300Y-94996000D03*
D14*
X96848650Y-97536000D03*
D15*
X97977300Y-97536000D03*
D14*
X96848650Y-100076000D03*
D15*
X97977300Y-100076000D03*
X105222700Y-100076000D03*
D14*
X106351350Y-100076000D03*
D15*
X105222700Y-97536000D03*
D14*
X106351350Y-97536000D03*
D15*
X105222700Y-94996000D03*
D14*
X106351350Y-94996000D03*
D15*
X105222700Y-92456000D03*
D14*
X106351350Y-92456000D03*
D15*
X105222700Y-89916000D03*
D14*
X106351350Y-89916000D03*
D15*
X105222700Y-87376000D03*
D14*
X106351350Y-87376000D03*
D15*
X105222700Y-84836000D03*
D14*
X106351350Y-84836000D03*
D16*
X105222700Y-82315000D03*
D17*
X106351350Y-82315000D03*
%TD*%
D10*
%TO.C,mouse-bite-2mm-slot*%
X164072000Y-40374000D03*
X164072000Y-38874000D03*
X163322000Y-40374000D03*
X163322000Y-38874000D03*
X162572000Y-40374000D03*
X162572000Y-38874000D03*
%TD*%
%TO.C,mouse-bite-2mm-slot*%
X100850000Y-61734000D03*
X100850000Y-63234000D03*
X101600000Y-61734000D03*
X101600000Y-63234000D03*
X102350000Y-61734000D03*
X102350000Y-63234000D03*
%TD*%
D18*
%TO.C,U5*%
X163312000Y-49124000D03*
D19*
X162147000Y-49539000D03*
X162147000Y-50039000D03*
X162147000Y-50539000D03*
X162147000Y-51039000D03*
X162147000Y-51539000D03*
X162147000Y-52039000D03*
X162147000Y-52539000D03*
D18*
X163312000Y-52954000D03*
D19*
X164477000Y-52539000D03*
X164477000Y-52039000D03*
X164477000Y-51539000D03*
X164477000Y-51039000D03*
X164477000Y-50539000D03*
X164477000Y-50039000D03*
X164477000Y-49539000D03*
%TD*%
D11*
%TO.C,C3*%
X100825000Y-87630000D03*
X102375000Y-87630000D03*
%TD*%
D19*
%TO.C,U3*%
X102755000Y-49539000D03*
X102755000Y-50039000D03*
X102755000Y-50539000D03*
X102755000Y-51039000D03*
X102755000Y-51539000D03*
X102755000Y-52039000D03*
X102755000Y-52539000D03*
D18*
X101590000Y-52954000D03*
D19*
X100425000Y-52539000D03*
X100425000Y-52039000D03*
X100425000Y-51539000D03*
X100425000Y-51039000D03*
X100425000Y-50539000D03*
X100425000Y-50039000D03*
X100425000Y-49539000D03*
D18*
X101590000Y-49124000D03*
%TD*%
D11*
%TO.C,C4*%
X102375000Y-94742000D03*
X100825000Y-94742000D03*
%TD*%
%TO.C,C7*%
X162547000Y-87630000D03*
X164097000Y-87630000D03*
%TD*%
D19*
%TO.C,U4*%
X102755000Y-89671000D03*
X102755000Y-90171000D03*
X102755000Y-90671000D03*
X102755000Y-91171000D03*
X102755000Y-91671000D03*
X102755000Y-92171000D03*
X102755000Y-92671000D03*
D18*
X101590000Y-93086000D03*
D19*
X100425000Y-92671000D03*
X100425000Y-92171000D03*
X100425000Y-91671000D03*
X100425000Y-91171000D03*
X100425000Y-90671000D03*
X100425000Y-90171000D03*
X100425000Y-89671000D03*
D18*
X101590000Y-89256000D03*
%TD*%
D11*
%TO.C,C8*%
X162547000Y-94742000D03*
X164097000Y-94742000D03*
%TD*%
D12*
%TO.C,J2*%
X96755000Y-42164000D03*
D13*
X97936000Y-42164000D03*
D14*
X96848650Y-44704000D03*
D15*
X97977300Y-44704000D03*
D14*
X96848650Y-47244000D03*
D15*
X97977300Y-47244000D03*
D14*
X96848650Y-49784000D03*
D15*
X97977300Y-49784000D03*
D14*
X96848650Y-52324000D03*
D15*
X97977300Y-52324000D03*
D14*
X96848650Y-54864000D03*
D15*
X97977300Y-54864000D03*
D14*
X96848650Y-57404000D03*
D15*
X97977300Y-57404000D03*
D14*
X96848650Y-59944000D03*
D15*
X97977300Y-59944000D03*
X105222700Y-59944000D03*
D14*
X106351350Y-59944000D03*
D15*
X105222700Y-57404000D03*
D14*
X106351350Y-57404000D03*
D15*
X105222700Y-54864000D03*
D14*
X106351350Y-54864000D03*
D15*
X105222700Y-52324000D03*
D14*
X106351350Y-52324000D03*
D15*
X105222700Y-49784000D03*
D14*
X106351350Y-49784000D03*
D15*
X105222700Y-47244000D03*
D14*
X106351350Y-47244000D03*
D15*
X105222700Y-44704000D03*
D14*
X106351350Y-44704000D03*
D16*
X105222700Y-42183000D03*
D17*
X106351350Y-42183000D03*
%TD*%
D11*
%TO.C,C6*%
X164097000Y-54610000D03*
X162547000Y-54610000D03*
%TD*%
D19*
%TO.C,U6*%
X164477000Y-89671000D03*
X164477000Y-90171000D03*
X164477000Y-90671000D03*
X164477000Y-91171000D03*
X164477000Y-91671000D03*
X164477000Y-92171000D03*
X164477000Y-92671000D03*
D18*
X163312000Y-93086000D03*
D19*
X162147000Y-92671000D03*
X162147000Y-92171000D03*
X162147000Y-91671000D03*
X162147000Y-91171000D03*
X162147000Y-90671000D03*
X162147000Y-90171000D03*
X162147000Y-89671000D03*
D18*
X163312000Y-89256000D03*
%TD*%
D10*
%TO.C,mouse-bite-2mm-slot*%
X100850000Y-38874000D03*
X100850000Y-40374000D03*
X101600000Y-38874000D03*
X101600000Y-40374000D03*
X102350000Y-38874000D03*
X102350000Y-40374000D03*
%TD*%
%TO.C,mouse-bite-2mm-slot*%
X100850000Y-79006000D03*
X100850000Y-80506000D03*
X101600000Y-79006000D03*
X101600000Y-80506000D03*
X102350000Y-79006000D03*
X102350000Y-80506000D03*
%TD*%
D12*
%TO.C,J4*%
X158477000Y-82296000D03*
D13*
X159658000Y-82296000D03*
D14*
X158570650Y-84836000D03*
D15*
X159699300Y-84836000D03*
D14*
X158570650Y-87376000D03*
D15*
X159699300Y-87376000D03*
D14*
X158570650Y-89916000D03*
D15*
X159699300Y-89916000D03*
D14*
X158570650Y-92456000D03*
D15*
X159699300Y-92456000D03*
D14*
X158570650Y-94996000D03*
D15*
X159699300Y-94996000D03*
D14*
X158570650Y-97536000D03*
D15*
X159699300Y-97536000D03*
D14*
X158570650Y-100076000D03*
D15*
X159699300Y-100076000D03*
X166944700Y-100076000D03*
D14*
X168073350Y-100076000D03*
D15*
X166944700Y-97536000D03*
D14*
X168073350Y-97536000D03*
D15*
X166944700Y-94996000D03*
D14*
X168073350Y-94996000D03*
D15*
X166944700Y-92456000D03*
D14*
X168073350Y-92456000D03*
D15*
X166944700Y-89916000D03*
D14*
X168073350Y-89916000D03*
D15*
X166944700Y-87376000D03*
D14*
X168073350Y-87376000D03*
D15*
X166944700Y-84836000D03*
D14*
X168073350Y-84836000D03*
D16*
X166944700Y-82315000D03*
D17*
X168073350Y-82315000D03*
%TD*%
%TO.C,J5*%
X168073350Y-42183000D03*
D16*
X166944700Y-42183000D03*
D14*
X168073350Y-44704000D03*
D15*
X166944700Y-44704000D03*
D14*
X168073350Y-47244000D03*
D15*
X166944700Y-47244000D03*
D14*
X168073350Y-49784000D03*
D15*
X166944700Y-49784000D03*
D14*
X168073350Y-52324000D03*
D15*
X166944700Y-52324000D03*
D14*
X168073350Y-54864000D03*
D15*
X166944700Y-54864000D03*
D14*
X168073350Y-57404000D03*
D15*
X166944700Y-57404000D03*
D14*
X168073350Y-59944000D03*
D15*
X166944700Y-59944000D03*
X159699300Y-59944000D03*
D14*
X158570650Y-59944000D03*
D15*
X159699300Y-57404000D03*
D14*
X158570650Y-57404000D03*
D15*
X159699300Y-54864000D03*
D14*
X158570650Y-54864000D03*
D15*
X159699300Y-52324000D03*
D14*
X158570650Y-52324000D03*
D15*
X159699300Y-49784000D03*
D14*
X158570650Y-49784000D03*
D15*
X159699300Y-47244000D03*
D14*
X158570650Y-47244000D03*
D15*
X159699300Y-44704000D03*
D14*
X158570650Y-44704000D03*
D13*
X159658000Y-42164000D03*
D12*
X158477000Y-42164000D03*
%TD*%
D10*
%TO.C,mouse-bite-2mm-slot*%
X162572000Y-101866000D03*
X162572000Y-103366000D03*
X163322000Y-101866000D03*
X163322000Y-103366000D03*
X164072000Y-101866000D03*
X164072000Y-103366000D03*
%TD*%
%TO.C,mouse-bite-2mm-slot*%
X100850000Y-101866000D03*
X100850000Y-103366000D03*
X101600000Y-101866000D03*
X101600000Y-103366000D03*
X102350000Y-101866000D03*
X102350000Y-103366000D03*
%TD*%
%TO.C,mouse-bite-2mm-slot*%
X162572000Y-79006000D03*
X162572000Y-80506000D03*
X163322000Y-79006000D03*
X163322000Y-80506000D03*
X164072000Y-79006000D03*
X164072000Y-80506000D03*
%TD*%
D20*
%TO.C,U2*%
X131343400Y-62293600D03*
D21*
X130019400Y-62873600D03*
X130019400Y-63373600D03*
X130019400Y-63873600D03*
X130019400Y-64373600D03*
X130019400Y-64873600D03*
X130019400Y-65373600D03*
X130019400Y-65873600D03*
D20*
X131343400Y-66453600D03*
D21*
X132667400Y-65873600D03*
X132667400Y-65373600D03*
X132667400Y-64873600D03*
X132667400Y-64373600D03*
X132667400Y-63873600D03*
X132667400Y-63373600D03*
X132667400Y-62873600D03*
%TD*%
D22*
%TO.C,JP5*%
X126995400Y-74904600D03*
X128295400Y-74904600D03*
%TD*%
%TO.C,JP8*%
X127025400Y-85826600D03*
X128325400Y-85826600D03*
%TD*%
D23*
%TO.C,R2*%
X131414400Y-74306600D03*
X131414400Y-76131600D03*
%TD*%
D22*
%TO.C,JP6*%
X127025400Y-78714600D03*
X128325400Y-78714600D03*
%TD*%
D24*
%TO.C,C13*%
X134416800Y-62941200D03*
X134416800Y-64841200D03*
%TD*%
D22*
%TO.C,JP4*%
X127025400Y-89382600D03*
X128325400Y-89382600D03*
%TD*%
D25*
%TO.C,J1*%
X145186400Y-66014600D03*
X145186400Y-63474600D03*
X145186400Y-60934600D03*
X145186400Y-58394600D03*
X145186400Y-55854600D03*
D26*
X145186400Y-53314600D03*
%TD*%
D27*
%TO.C,PMOD1*%
X126898400Y-46075600D03*
X129438400Y-46075600D03*
X131978400Y-46075600D03*
X134518400Y-46075600D03*
X137058400Y-46075600D03*
X139598400Y-46075600D03*
X126898400Y-48615600D03*
X129438400Y-48615600D03*
X131978400Y-48615600D03*
X134518400Y-48615600D03*
X137058400Y-48615600D03*
X139598400Y-48615600D03*
%TD*%
D22*
%TO.C,JP3*%
X138612400Y-92938600D03*
X137312400Y-92938600D03*
%TD*%
%TO.C,JP7*%
X127025400Y-82397600D03*
X128325400Y-82397600D03*
%TD*%
%TO.C,JP2*%
X128325400Y-92938600D03*
X127025400Y-92938600D03*
%TD*%
D28*
%TO.C,CON1*%
X144186400Y-73798600D03*
D27*
X144186400Y-76338600D03*
X144186400Y-78878600D03*
X144186400Y-81418600D03*
X144186400Y-83958600D03*
X144186400Y-86498600D03*
X144186400Y-89038600D03*
X144186400Y-91578600D03*
X121326400Y-91578600D03*
X121326400Y-89038600D03*
X121326400Y-86498600D03*
X121326400Y-83958600D03*
X121326400Y-81418600D03*
X121326400Y-78878600D03*
X121326400Y-76338600D03*
D29*
X121326400Y-73798600D03*
%TD*%
D23*
%TO.C,R1*%
X141224000Y-57658000D03*
X141224000Y-59483000D03*
%TD*%
%TO.C,R3*%
X134391400Y-74306600D03*
X134391400Y-76131600D03*
%TD*%
D30*
%TO.C,C14*%
X134620000Y-55748000D03*
X134620000Y-53848000D03*
%TD*%
D24*
%TO.C,C12*%
X127457200Y-64333200D03*
X127457200Y-62433200D03*
%TD*%
D30*
%TO.C,C10*%
X141427200Y-52933600D03*
X141427200Y-54833600D03*
%TD*%
D22*
%TO.C,JP1*%
X138597400Y-74777600D03*
X137297400Y-74777600D03*
%TD*%
D31*
%TO.C,C9*%
X132420400Y-94081600D03*
X130520400Y-94081600D03*
%TD*%
D22*
%TO.C,JP11*%
X138582400Y-86080600D03*
X137282400Y-86080600D03*
%TD*%
D30*
%TO.C,C11*%
X128347400Y-56008600D03*
X128347400Y-54108600D03*
%TD*%
D32*
%TO.C,U1*%
X132306250Y-56396001D03*
X132306250Y-56896000D03*
X132306250Y-57395999D03*
D33*
X131597400Y-57854850D03*
X131097400Y-57854850D03*
D32*
X130388550Y-57395999D03*
X130388550Y-56896000D03*
X130388550Y-56396001D03*
D33*
X131097400Y-55937150D03*
X131597400Y-55937150D03*
%TD*%
D22*
%TO.C,JP10*%
X138612400Y-82397600D03*
X137312400Y-82397600D03*
%TD*%
%TO.C,JP9*%
X138556400Y-78714600D03*
X137256400Y-78714600D03*
%TD*%
%TO.C,JP12*%
X138612400Y-89636600D03*
X137312400Y-89636600D03*
%TD*%
M02*
