%TF.GenerationSoftware,KiCad,Pcbnew,8.0.4+dfsg-1*%
%TF.CreationDate,2025-01-29T13:42:24+01:00*%
%TF.ProjectId,panel,70616e65-6c2e-46b6-9963-61645f706362,rev?*%
%TF.SameCoordinates,Original*%
%TF.FileFunction,Legend,Top*%
%TF.FilePolarity,Positive*%
%FSLAX46Y46*%
G04 Gerber Fmt 4.6, Leading zero omitted, Abs format (unit mm)*
G04 Created by KiCad (PCBNEW 8.0.4+dfsg-1) date 2025-01-29 13:42:24*
%MOMM*%
%LPD*%
G01*
G04 APERTURE LIST*
%ADD10C,0.150000*%
%ADD11C,0.100000*%
%ADD12C,0.160000*%
%ADD13C,0.060000*%
%ADD14C,0.120000*%
%ADD15C,0.409210*%
%ADD16C,0.200000*%
%ADD17C,0.127000*%
%ADD18C,0.304800*%
%ADD19C,0.000000*%
%ADD20C,0.152400*%
%ADD21C,1.524000*%
G04 APERTURE END LIST*
D10*
X163108207Y-96674580D02*
X163060588Y-96722200D01*
X163060588Y-96722200D02*
X162917731Y-96769819D01*
X162917731Y-96769819D02*
X162822493Y-96769819D01*
X162822493Y-96769819D02*
X162679636Y-96722200D01*
X162679636Y-96722200D02*
X162584398Y-96626961D01*
X162584398Y-96626961D02*
X162536779Y-96531723D01*
X162536779Y-96531723D02*
X162489160Y-96341247D01*
X162489160Y-96341247D02*
X162489160Y-96198390D01*
X162489160Y-96198390D02*
X162536779Y-96007914D01*
X162536779Y-96007914D02*
X162584398Y-95912676D01*
X162584398Y-95912676D02*
X162679636Y-95817438D01*
X162679636Y-95817438D02*
X162822493Y-95769819D01*
X162822493Y-95769819D02*
X162917731Y-95769819D01*
X162917731Y-95769819D02*
X163060588Y-95817438D01*
X163060588Y-95817438D02*
X163108207Y-95865057D01*
X163489160Y-95865057D02*
X163536779Y-95817438D01*
X163536779Y-95817438D02*
X163632017Y-95769819D01*
X163632017Y-95769819D02*
X163870112Y-95769819D01*
X163870112Y-95769819D02*
X163965350Y-95817438D01*
X163965350Y-95817438D02*
X164012969Y-95865057D01*
X164012969Y-95865057D02*
X164060588Y-95960295D01*
X164060588Y-95960295D02*
X164060588Y-96055533D01*
X164060588Y-96055533D02*
X164012969Y-96198390D01*
X164012969Y-96198390D02*
X163441541Y-96769819D01*
X163441541Y-96769819D02*
X164060588Y-96769819D01*
X163208207Y-86574580D02*
X163160588Y-86622200D01*
X163160588Y-86622200D02*
X163017731Y-86669819D01*
X163017731Y-86669819D02*
X162922493Y-86669819D01*
X162922493Y-86669819D02*
X162779636Y-86622200D01*
X162779636Y-86622200D02*
X162684398Y-86526961D01*
X162684398Y-86526961D02*
X162636779Y-86431723D01*
X162636779Y-86431723D02*
X162589160Y-86241247D01*
X162589160Y-86241247D02*
X162589160Y-86098390D01*
X162589160Y-86098390D02*
X162636779Y-85907914D01*
X162636779Y-85907914D02*
X162684398Y-85812676D01*
X162684398Y-85812676D02*
X162779636Y-85717438D01*
X162779636Y-85717438D02*
X162922493Y-85669819D01*
X162922493Y-85669819D02*
X163017731Y-85669819D01*
X163017731Y-85669819D02*
X163160588Y-85717438D01*
X163160588Y-85717438D02*
X163208207Y-85765057D01*
X164160588Y-86669819D02*
X163589160Y-86669819D01*
X163874874Y-86669819D02*
X163874874Y-85669819D01*
X163874874Y-85669819D02*
X163779636Y-85812676D01*
X163779636Y-85812676D02*
X163684398Y-85907914D01*
X163684398Y-85907914D02*
X163589160Y-85955533D01*
X163108207Y-56574580D02*
X163060588Y-56622200D01*
X163060588Y-56622200D02*
X162917731Y-56669819D01*
X162917731Y-56669819D02*
X162822493Y-56669819D01*
X162822493Y-56669819D02*
X162679636Y-56622200D01*
X162679636Y-56622200D02*
X162584398Y-56526961D01*
X162584398Y-56526961D02*
X162536779Y-56431723D01*
X162536779Y-56431723D02*
X162489160Y-56241247D01*
X162489160Y-56241247D02*
X162489160Y-56098390D01*
X162489160Y-56098390D02*
X162536779Y-55907914D01*
X162536779Y-55907914D02*
X162584398Y-55812676D01*
X162584398Y-55812676D02*
X162679636Y-55717438D01*
X162679636Y-55717438D02*
X162822493Y-55669819D01*
X162822493Y-55669819D02*
X162917731Y-55669819D01*
X162917731Y-55669819D02*
X163060588Y-55717438D01*
X163060588Y-55717438D02*
X163108207Y-55765057D01*
X163489160Y-55765057D02*
X163536779Y-55717438D01*
X163536779Y-55717438D02*
X163632017Y-55669819D01*
X163632017Y-55669819D02*
X163870112Y-55669819D01*
X163870112Y-55669819D02*
X163965350Y-55717438D01*
X163965350Y-55717438D02*
X164012969Y-55765057D01*
X164012969Y-55765057D02*
X164060588Y-55860295D01*
X164060588Y-55860295D02*
X164060588Y-55955533D01*
X164060588Y-55955533D02*
X164012969Y-56098390D01*
X164012969Y-56098390D02*
X163441541Y-56669819D01*
X163441541Y-56669819D02*
X164060588Y-56669819D01*
X163208207Y-46474580D02*
X163160588Y-46522200D01*
X163160588Y-46522200D02*
X163017731Y-46569819D01*
X163017731Y-46569819D02*
X162922493Y-46569819D01*
X162922493Y-46569819D02*
X162779636Y-46522200D01*
X162779636Y-46522200D02*
X162684398Y-46426961D01*
X162684398Y-46426961D02*
X162636779Y-46331723D01*
X162636779Y-46331723D02*
X162589160Y-46141247D01*
X162589160Y-46141247D02*
X162589160Y-45998390D01*
X162589160Y-45998390D02*
X162636779Y-45807914D01*
X162636779Y-45807914D02*
X162684398Y-45712676D01*
X162684398Y-45712676D02*
X162779636Y-45617438D01*
X162779636Y-45617438D02*
X162922493Y-45569819D01*
X162922493Y-45569819D02*
X163017731Y-45569819D01*
X163017731Y-45569819D02*
X163160588Y-45617438D01*
X163160588Y-45617438D02*
X163208207Y-45665057D01*
X164160588Y-46569819D02*
X163589160Y-46569819D01*
X163874874Y-46569819D02*
X163874874Y-45569819D01*
X163874874Y-45569819D02*
X163779636Y-45712676D01*
X163779636Y-45712676D02*
X163684398Y-45807914D01*
X163684398Y-45807914D02*
X163589160Y-45855533D01*
X101308207Y-96674580D02*
X101260588Y-96722200D01*
X101260588Y-96722200D02*
X101117731Y-96769819D01*
X101117731Y-96769819D02*
X101022493Y-96769819D01*
X101022493Y-96769819D02*
X100879636Y-96722200D01*
X100879636Y-96722200D02*
X100784398Y-96626961D01*
X100784398Y-96626961D02*
X100736779Y-96531723D01*
X100736779Y-96531723D02*
X100689160Y-96341247D01*
X100689160Y-96341247D02*
X100689160Y-96198390D01*
X100689160Y-96198390D02*
X100736779Y-96007914D01*
X100736779Y-96007914D02*
X100784398Y-95912676D01*
X100784398Y-95912676D02*
X100879636Y-95817438D01*
X100879636Y-95817438D02*
X101022493Y-95769819D01*
X101022493Y-95769819D02*
X101117731Y-95769819D01*
X101117731Y-95769819D02*
X101260588Y-95817438D01*
X101260588Y-95817438D02*
X101308207Y-95865057D01*
X101689160Y-95865057D02*
X101736779Y-95817438D01*
X101736779Y-95817438D02*
X101832017Y-95769819D01*
X101832017Y-95769819D02*
X102070112Y-95769819D01*
X102070112Y-95769819D02*
X102165350Y-95817438D01*
X102165350Y-95817438D02*
X102212969Y-95865057D01*
X102212969Y-95865057D02*
X102260588Y-95960295D01*
X102260588Y-95960295D02*
X102260588Y-96055533D01*
X102260588Y-96055533D02*
X102212969Y-96198390D01*
X102212969Y-96198390D02*
X101641541Y-96769819D01*
X101641541Y-96769819D02*
X102260588Y-96769819D01*
X101408207Y-86574580D02*
X101360588Y-86622200D01*
X101360588Y-86622200D02*
X101217731Y-86669819D01*
X101217731Y-86669819D02*
X101122493Y-86669819D01*
X101122493Y-86669819D02*
X100979636Y-86622200D01*
X100979636Y-86622200D02*
X100884398Y-86526961D01*
X100884398Y-86526961D02*
X100836779Y-86431723D01*
X100836779Y-86431723D02*
X100789160Y-86241247D01*
X100789160Y-86241247D02*
X100789160Y-86098390D01*
X100789160Y-86098390D02*
X100836779Y-85907914D01*
X100836779Y-85907914D02*
X100884398Y-85812676D01*
X100884398Y-85812676D02*
X100979636Y-85717438D01*
X100979636Y-85717438D02*
X101122493Y-85669819D01*
X101122493Y-85669819D02*
X101217731Y-85669819D01*
X101217731Y-85669819D02*
X101360588Y-85717438D01*
X101360588Y-85717438D02*
X101408207Y-85765057D01*
X102360588Y-86669819D02*
X101789160Y-86669819D01*
X102074874Y-86669819D02*
X102074874Y-85669819D01*
X102074874Y-85669819D02*
X101979636Y-85812676D01*
X101979636Y-85812676D02*
X101884398Y-85907914D01*
X101884398Y-85907914D02*
X101789160Y-85955533D01*
X101408207Y-56474580D02*
X101360588Y-56522200D01*
X101360588Y-56522200D02*
X101217731Y-56569819D01*
X101217731Y-56569819D02*
X101122493Y-56569819D01*
X101122493Y-56569819D02*
X100979636Y-56522200D01*
X100979636Y-56522200D02*
X100884398Y-56426961D01*
X100884398Y-56426961D02*
X100836779Y-56331723D01*
X100836779Y-56331723D02*
X100789160Y-56141247D01*
X100789160Y-56141247D02*
X100789160Y-55998390D01*
X100789160Y-55998390D02*
X100836779Y-55807914D01*
X100836779Y-55807914D02*
X100884398Y-55712676D01*
X100884398Y-55712676D02*
X100979636Y-55617438D01*
X100979636Y-55617438D02*
X101122493Y-55569819D01*
X101122493Y-55569819D02*
X101217731Y-55569819D01*
X101217731Y-55569819D02*
X101360588Y-55617438D01*
X101360588Y-55617438D02*
X101408207Y-55665057D01*
X101789160Y-55665057D02*
X101836779Y-55617438D01*
X101836779Y-55617438D02*
X101932017Y-55569819D01*
X101932017Y-55569819D02*
X102170112Y-55569819D01*
X102170112Y-55569819D02*
X102265350Y-55617438D01*
X102265350Y-55617438D02*
X102312969Y-55665057D01*
X102312969Y-55665057D02*
X102360588Y-55760295D01*
X102360588Y-55760295D02*
X102360588Y-55855533D01*
X102360588Y-55855533D02*
X102312969Y-55998390D01*
X102312969Y-55998390D02*
X101741541Y-56569819D01*
X101741541Y-56569819D02*
X102360588Y-56569819D01*
X101508207Y-46374580D02*
X101460588Y-46422200D01*
X101460588Y-46422200D02*
X101317731Y-46469819D01*
X101317731Y-46469819D02*
X101222493Y-46469819D01*
X101222493Y-46469819D02*
X101079636Y-46422200D01*
X101079636Y-46422200D02*
X100984398Y-46326961D01*
X100984398Y-46326961D02*
X100936779Y-46231723D01*
X100936779Y-46231723D02*
X100889160Y-46041247D01*
X100889160Y-46041247D02*
X100889160Y-45898390D01*
X100889160Y-45898390D02*
X100936779Y-45707914D01*
X100936779Y-45707914D02*
X100984398Y-45612676D01*
X100984398Y-45612676D02*
X101079636Y-45517438D01*
X101079636Y-45517438D02*
X101222493Y-45469819D01*
X101222493Y-45469819D02*
X101317731Y-45469819D01*
X101317731Y-45469819D02*
X101460588Y-45517438D01*
X101460588Y-45517438D02*
X101508207Y-45565057D01*
X102460588Y-46469819D02*
X101889160Y-46469819D01*
X102174874Y-46469819D02*
X102174874Y-45469819D01*
X102174874Y-45469819D02*
X102079636Y-45612676D01*
X102079636Y-45612676D02*
X101984398Y-45707914D01*
X101984398Y-45707914D02*
X101889160Y-45755533D01*
D11*
X161017238Y-57772985D02*
X161017238Y-56972985D01*
X161017238Y-56972985D02*
X161207714Y-56972985D01*
X161207714Y-56972985D02*
X161322000Y-57011080D01*
X161322000Y-57011080D02*
X161398190Y-57087270D01*
X161398190Y-57087270D02*
X161436285Y-57163461D01*
X161436285Y-57163461D02*
X161474381Y-57315842D01*
X161474381Y-57315842D02*
X161474381Y-57430128D01*
X161474381Y-57430128D02*
X161436285Y-57582509D01*
X161436285Y-57582509D02*
X161398190Y-57658699D01*
X161398190Y-57658699D02*
X161322000Y-57734890D01*
X161322000Y-57734890D02*
X161207714Y-57772985D01*
X161207714Y-57772985D02*
X161017238Y-57772985D01*
X161817238Y-57772985D02*
X161817238Y-57239651D01*
X161817238Y-57392032D02*
X161855333Y-57315842D01*
X161855333Y-57315842D02*
X161893428Y-57277747D01*
X161893428Y-57277747D02*
X161969619Y-57239651D01*
X161969619Y-57239651D02*
X162045809Y-57239651D01*
X162426761Y-57772985D02*
X162350571Y-57734890D01*
X162350571Y-57734890D02*
X162312476Y-57696794D01*
X162312476Y-57696794D02*
X162274380Y-57620604D01*
X162274380Y-57620604D02*
X162274380Y-57392032D01*
X162274380Y-57392032D02*
X162312476Y-57315842D01*
X162312476Y-57315842D02*
X162350571Y-57277747D01*
X162350571Y-57277747D02*
X162426761Y-57239651D01*
X162426761Y-57239651D02*
X162541047Y-57239651D01*
X162541047Y-57239651D02*
X162617238Y-57277747D01*
X162617238Y-57277747D02*
X162655333Y-57315842D01*
X162655333Y-57315842D02*
X162693428Y-57392032D01*
X162693428Y-57392032D02*
X162693428Y-57620604D01*
X162693428Y-57620604D02*
X162655333Y-57696794D01*
X162655333Y-57696794D02*
X162617238Y-57734890D01*
X162617238Y-57734890D02*
X162541047Y-57772985D01*
X162541047Y-57772985D02*
X162426761Y-57772985D01*
X163036286Y-57772985D02*
X163036286Y-56972985D01*
X163379143Y-57772985D02*
X163379143Y-57353937D01*
X163379143Y-57353937D02*
X163341048Y-57277747D01*
X163341048Y-57277747D02*
X163264857Y-57239651D01*
X163264857Y-57239651D02*
X163150571Y-57239651D01*
X163150571Y-57239651D02*
X163074381Y-57277747D01*
X163074381Y-57277747D02*
X163036286Y-57315842D01*
X163760096Y-57239651D02*
X163760096Y-57772985D01*
X163760096Y-57315842D02*
X163798191Y-57277747D01*
X163798191Y-57277747D02*
X163874381Y-57239651D01*
X163874381Y-57239651D02*
X163988667Y-57239651D01*
X163988667Y-57239651D02*
X164064858Y-57277747D01*
X164064858Y-57277747D02*
X164102953Y-57353937D01*
X164102953Y-57353937D02*
X164102953Y-57772985D01*
X164750572Y-57353937D02*
X164483906Y-57353937D01*
X164483906Y-57772985D02*
X164483906Y-56972985D01*
X164483906Y-56972985D02*
X164864858Y-56972985D01*
X165169620Y-57772985D02*
X165169620Y-56972985D01*
X165169620Y-57353937D02*
X165626763Y-57353937D01*
X165626763Y-57772985D02*
X165626763Y-56972985D01*
X162102952Y-58641892D02*
X162217238Y-58679987D01*
X162217238Y-58679987D02*
X162255333Y-58718083D01*
X162255333Y-58718083D02*
X162293429Y-58794273D01*
X162293429Y-58794273D02*
X162293429Y-58908559D01*
X162293429Y-58908559D02*
X162255333Y-58984749D01*
X162255333Y-58984749D02*
X162217238Y-59022845D01*
X162217238Y-59022845D02*
X162141048Y-59060940D01*
X162141048Y-59060940D02*
X161836286Y-59060940D01*
X161836286Y-59060940D02*
X161836286Y-58260940D01*
X161836286Y-58260940D02*
X162102952Y-58260940D01*
X162102952Y-58260940D02*
X162179143Y-58299035D01*
X162179143Y-58299035D02*
X162217238Y-58337130D01*
X162217238Y-58337130D02*
X162255333Y-58413321D01*
X162255333Y-58413321D02*
X162255333Y-58489511D01*
X162255333Y-58489511D02*
X162217238Y-58565702D01*
X162217238Y-58565702D02*
X162179143Y-58603797D01*
X162179143Y-58603797D02*
X162102952Y-58641892D01*
X162102952Y-58641892D02*
X161836286Y-58641892D01*
X162636286Y-59060940D02*
X162636286Y-58527606D01*
X162636286Y-58679987D02*
X162674381Y-58603797D01*
X162674381Y-58603797D02*
X162712476Y-58565702D01*
X162712476Y-58565702D02*
X162788667Y-58527606D01*
X162788667Y-58527606D02*
X162864857Y-58527606D01*
X163436286Y-59022845D02*
X163360095Y-59060940D01*
X163360095Y-59060940D02*
X163207714Y-59060940D01*
X163207714Y-59060940D02*
X163131524Y-59022845D01*
X163131524Y-59022845D02*
X163093428Y-58946654D01*
X163093428Y-58946654D02*
X163093428Y-58641892D01*
X163093428Y-58641892D02*
X163131524Y-58565702D01*
X163131524Y-58565702D02*
X163207714Y-58527606D01*
X163207714Y-58527606D02*
X163360095Y-58527606D01*
X163360095Y-58527606D02*
X163436286Y-58565702D01*
X163436286Y-58565702D02*
X163474381Y-58641892D01*
X163474381Y-58641892D02*
X163474381Y-58718083D01*
X163474381Y-58718083D02*
X163093428Y-58794273D01*
X164160095Y-59060940D02*
X164160095Y-58641892D01*
X164160095Y-58641892D02*
X164122000Y-58565702D01*
X164122000Y-58565702D02*
X164045809Y-58527606D01*
X164045809Y-58527606D02*
X163893428Y-58527606D01*
X163893428Y-58527606D02*
X163817238Y-58565702D01*
X164160095Y-59022845D02*
X164083904Y-59060940D01*
X164083904Y-59060940D02*
X163893428Y-59060940D01*
X163893428Y-59060940D02*
X163817238Y-59022845D01*
X163817238Y-59022845D02*
X163779142Y-58946654D01*
X163779142Y-58946654D02*
X163779142Y-58870464D01*
X163779142Y-58870464D02*
X163817238Y-58794273D01*
X163817238Y-58794273D02*
X163893428Y-58756178D01*
X163893428Y-58756178D02*
X164083904Y-58756178D01*
X164083904Y-58756178D02*
X164160095Y-58718083D01*
X164541048Y-59060940D02*
X164541048Y-58260940D01*
X164617238Y-58756178D02*
X164845810Y-59060940D01*
X164845810Y-58527606D02*
X164541048Y-58832368D01*
X162655333Y-59548895D02*
X162807714Y-59548895D01*
X162807714Y-59548895D02*
X162883904Y-59586990D01*
X162883904Y-59586990D02*
X162960095Y-59663180D01*
X162960095Y-59663180D02*
X162998190Y-59815561D01*
X162998190Y-59815561D02*
X162998190Y-60082228D01*
X162998190Y-60082228D02*
X162960095Y-60234609D01*
X162960095Y-60234609D02*
X162883904Y-60310800D01*
X162883904Y-60310800D02*
X162807714Y-60348895D01*
X162807714Y-60348895D02*
X162655333Y-60348895D01*
X162655333Y-60348895D02*
X162579142Y-60310800D01*
X162579142Y-60310800D02*
X162502952Y-60234609D01*
X162502952Y-60234609D02*
X162464856Y-60082228D01*
X162464856Y-60082228D02*
X162464856Y-59815561D01*
X162464856Y-59815561D02*
X162502952Y-59663180D01*
X162502952Y-59663180D02*
X162579142Y-59586990D01*
X162579142Y-59586990D02*
X162655333Y-59548895D01*
X163683904Y-59815561D02*
X163683904Y-60348895D01*
X163341047Y-59815561D02*
X163341047Y-60234609D01*
X163341047Y-60234609D02*
X163379142Y-60310800D01*
X163379142Y-60310800D02*
X163455332Y-60348895D01*
X163455332Y-60348895D02*
X163569618Y-60348895D01*
X163569618Y-60348895D02*
X163645809Y-60310800D01*
X163645809Y-60310800D02*
X163683904Y-60272704D01*
X163950571Y-59815561D02*
X164255333Y-59815561D01*
X164064857Y-59548895D02*
X164064857Y-60234609D01*
X164064857Y-60234609D02*
X164102952Y-60310800D01*
X164102952Y-60310800D02*
X164179142Y-60348895D01*
X164179142Y-60348895D02*
X164255333Y-60348895D01*
X100861905Y-42950665D02*
X101004762Y-42998284D01*
X101004762Y-42998284D02*
X101052381Y-43045903D01*
X101052381Y-43045903D02*
X101100000Y-43141141D01*
X101100000Y-43141141D02*
X101100000Y-43283998D01*
X101100000Y-43283998D02*
X101052381Y-43379236D01*
X101052381Y-43379236D02*
X101004762Y-43426856D01*
X101004762Y-43426856D02*
X100909524Y-43474475D01*
X100909524Y-43474475D02*
X100528572Y-43474475D01*
X100528572Y-43474475D02*
X100528572Y-42474475D01*
X100528572Y-42474475D02*
X100861905Y-42474475D01*
X100861905Y-42474475D02*
X100957143Y-42522094D01*
X100957143Y-42522094D02*
X101004762Y-42569713D01*
X101004762Y-42569713D02*
X101052381Y-42664951D01*
X101052381Y-42664951D02*
X101052381Y-42760189D01*
X101052381Y-42760189D02*
X101004762Y-42855427D01*
X101004762Y-42855427D02*
X100957143Y-42903046D01*
X100957143Y-42903046D02*
X100861905Y-42950665D01*
X100861905Y-42950665D02*
X100528572Y-42950665D01*
X101528572Y-43474475D02*
X101528572Y-42474475D01*
X101528572Y-42474475D02*
X101861905Y-43188760D01*
X101861905Y-43188760D02*
X102195238Y-42474475D01*
X102195238Y-42474475D02*
X102195238Y-43474475D01*
X102671429Y-43474475D02*
X102671429Y-42474475D01*
X100600000Y-44084419D02*
X100695238Y-44084419D01*
X100695238Y-44084419D02*
X100790476Y-44132038D01*
X100790476Y-44132038D02*
X100838095Y-44179657D01*
X100838095Y-44179657D02*
X100885714Y-44274895D01*
X100885714Y-44274895D02*
X100933333Y-44465371D01*
X100933333Y-44465371D02*
X100933333Y-44703466D01*
X100933333Y-44703466D02*
X100885714Y-44893942D01*
X100885714Y-44893942D02*
X100838095Y-44989180D01*
X100838095Y-44989180D02*
X100790476Y-45036800D01*
X100790476Y-45036800D02*
X100695238Y-45084419D01*
X100695238Y-45084419D02*
X100600000Y-45084419D01*
X100600000Y-45084419D02*
X100504762Y-45036800D01*
X100504762Y-45036800D02*
X100457143Y-44989180D01*
X100457143Y-44989180D02*
X100409524Y-44893942D01*
X100409524Y-44893942D02*
X100361905Y-44703466D01*
X100361905Y-44703466D02*
X100361905Y-44465371D01*
X100361905Y-44465371D02*
X100409524Y-44274895D01*
X100409524Y-44274895D02*
X100457143Y-44179657D01*
X100457143Y-44179657D02*
X100504762Y-44132038D01*
X100504762Y-44132038D02*
X100600000Y-44084419D01*
X101504762Y-44512990D02*
X101409524Y-44465371D01*
X101409524Y-44465371D02*
X101361905Y-44417752D01*
X101361905Y-44417752D02*
X101314286Y-44322514D01*
X101314286Y-44322514D02*
X101314286Y-44274895D01*
X101314286Y-44274895D02*
X101361905Y-44179657D01*
X101361905Y-44179657D02*
X101409524Y-44132038D01*
X101409524Y-44132038D02*
X101504762Y-44084419D01*
X101504762Y-44084419D02*
X101695238Y-44084419D01*
X101695238Y-44084419D02*
X101790476Y-44132038D01*
X101790476Y-44132038D02*
X101838095Y-44179657D01*
X101838095Y-44179657D02*
X101885714Y-44274895D01*
X101885714Y-44274895D02*
X101885714Y-44322514D01*
X101885714Y-44322514D02*
X101838095Y-44417752D01*
X101838095Y-44417752D02*
X101790476Y-44465371D01*
X101790476Y-44465371D02*
X101695238Y-44512990D01*
X101695238Y-44512990D02*
X101504762Y-44512990D01*
X101504762Y-44512990D02*
X101409524Y-44560609D01*
X101409524Y-44560609D02*
X101361905Y-44608228D01*
X101361905Y-44608228D02*
X101314286Y-44703466D01*
X101314286Y-44703466D02*
X101314286Y-44893942D01*
X101314286Y-44893942D02*
X101361905Y-44989180D01*
X101361905Y-44989180D02*
X101409524Y-45036800D01*
X101409524Y-45036800D02*
X101504762Y-45084419D01*
X101504762Y-45084419D02*
X101695238Y-45084419D01*
X101695238Y-45084419D02*
X101790476Y-45036800D01*
X101790476Y-45036800D02*
X101838095Y-44989180D01*
X101838095Y-44989180D02*
X101885714Y-44893942D01*
X101885714Y-44893942D02*
X101885714Y-44703466D01*
X101885714Y-44703466D02*
X101838095Y-44608228D01*
X101838095Y-44608228D02*
X101790476Y-44560609D01*
X101790476Y-44560609D02*
X101695238Y-44512990D01*
X102457143Y-44512990D02*
X102361905Y-44465371D01*
X102361905Y-44465371D02*
X102314286Y-44417752D01*
X102314286Y-44417752D02*
X102266667Y-44322514D01*
X102266667Y-44322514D02*
X102266667Y-44274895D01*
X102266667Y-44274895D02*
X102314286Y-44179657D01*
X102314286Y-44179657D02*
X102361905Y-44132038D01*
X102361905Y-44132038D02*
X102457143Y-44084419D01*
X102457143Y-44084419D02*
X102647619Y-44084419D01*
X102647619Y-44084419D02*
X102742857Y-44132038D01*
X102742857Y-44132038D02*
X102790476Y-44179657D01*
X102790476Y-44179657D02*
X102838095Y-44274895D01*
X102838095Y-44274895D02*
X102838095Y-44322514D01*
X102838095Y-44322514D02*
X102790476Y-44417752D01*
X102790476Y-44417752D02*
X102742857Y-44465371D01*
X102742857Y-44465371D02*
X102647619Y-44512990D01*
X102647619Y-44512990D02*
X102457143Y-44512990D01*
X102457143Y-44512990D02*
X102361905Y-44560609D01*
X102361905Y-44560609D02*
X102314286Y-44608228D01*
X102314286Y-44608228D02*
X102266667Y-44703466D01*
X102266667Y-44703466D02*
X102266667Y-44893942D01*
X102266667Y-44893942D02*
X102314286Y-44989180D01*
X102314286Y-44989180D02*
X102361905Y-45036800D01*
X102361905Y-45036800D02*
X102457143Y-45084419D01*
X102457143Y-45084419D02*
X102647619Y-45084419D01*
X102647619Y-45084419D02*
X102742857Y-45036800D01*
X102742857Y-45036800D02*
X102790476Y-44989180D01*
X102790476Y-44989180D02*
X102838095Y-44893942D01*
X102838095Y-44893942D02*
X102838095Y-44703466D01*
X102838095Y-44703466D02*
X102790476Y-44608228D01*
X102790476Y-44608228D02*
X102742857Y-44560609D01*
X102742857Y-44560609D02*
X102647619Y-44512990D01*
X99295238Y-97904985D02*
X99295238Y-97104985D01*
X99295238Y-97104985D02*
X99485714Y-97104985D01*
X99485714Y-97104985D02*
X99600000Y-97143080D01*
X99600000Y-97143080D02*
X99676190Y-97219270D01*
X99676190Y-97219270D02*
X99714285Y-97295461D01*
X99714285Y-97295461D02*
X99752381Y-97447842D01*
X99752381Y-97447842D02*
X99752381Y-97562128D01*
X99752381Y-97562128D02*
X99714285Y-97714509D01*
X99714285Y-97714509D02*
X99676190Y-97790699D01*
X99676190Y-97790699D02*
X99600000Y-97866890D01*
X99600000Y-97866890D02*
X99485714Y-97904985D01*
X99485714Y-97904985D02*
X99295238Y-97904985D01*
X100095238Y-97904985D02*
X100095238Y-97371651D01*
X100095238Y-97524032D02*
X100133333Y-97447842D01*
X100133333Y-97447842D02*
X100171428Y-97409747D01*
X100171428Y-97409747D02*
X100247619Y-97371651D01*
X100247619Y-97371651D02*
X100323809Y-97371651D01*
X100704761Y-97904985D02*
X100628571Y-97866890D01*
X100628571Y-97866890D02*
X100590476Y-97828794D01*
X100590476Y-97828794D02*
X100552380Y-97752604D01*
X100552380Y-97752604D02*
X100552380Y-97524032D01*
X100552380Y-97524032D02*
X100590476Y-97447842D01*
X100590476Y-97447842D02*
X100628571Y-97409747D01*
X100628571Y-97409747D02*
X100704761Y-97371651D01*
X100704761Y-97371651D02*
X100819047Y-97371651D01*
X100819047Y-97371651D02*
X100895238Y-97409747D01*
X100895238Y-97409747D02*
X100933333Y-97447842D01*
X100933333Y-97447842D02*
X100971428Y-97524032D01*
X100971428Y-97524032D02*
X100971428Y-97752604D01*
X100971428Y-97752604D02*
X100933333Y-97828794D01*
X100933333Y-97828794D02*
X100895238Y-97866890D01*
X100895238Y-97866890D02*
X100819047Y-97904985D01*
X100819047Y-97904985D02*
X100704761Y-97904985D01*
X101314286Y-97904985D02*
X101314286Y-97104985D01*
X101657143Y-97904985D02*
X101657143Y-97485937D01*
X101657143Y-97485937D02*
X101619048Y-97409747D01*
X101619048Y-97409747D02*
X101542857Y-97371651D01*
X101542857Y-97371651D02*
X101428571Y-97371651D01*
X101428571Y-97371651D02*
X101352381Y-97409747D01*
X101352381Y-97409747D02*
X101314286Y-97447842D01*
X102038096Y-97371651D02*
X102038096Y-97904985D01*
X102038096Y-97447842D02*
X102076191Y-97409747D01*
X102076191Y-97409747D02*
X102152381Y-97371651D01*
X102152381Y-97371651D02*
X102266667Y-97371651D01*
X102266667Y-97371651D02*
X102342858Y-97409747D01*
X102342858Y-97409747D02*
X102380953Y-97485937D01*
X102380953Y-97485937D02*
X102380953Y-97904985D01*
X103028572Y-97485937D02*
X102761906Y-97485937D01*
X102761906Y-97904985D02*
X102761906Y-97104985D01*
X102761906Y-97104985D02*
X103142858Y-97104985D01*
X103447620Y-97904985D02*
X103447620Y-97104985D01*
X103447620Y-97485937D02*
X103904763Y-97485937D01*
X103904763Y-97904985D02*
X103904763Y-97104985D01*
X100380952Y-98773892D02*
X100495238Y-98811987D01*
X100495238Y-98811987D02*
X100533333Y-98850083D01*
X100533333Y-98850083D02*
X100571429Y-98926273D01*
X100571429Y-98926273D02*
X100571429Y-99040559D01*
X100571429Y-99040559D02*
X100533333Y-99116749D01*
X100533333Y-99116749D02*
X100495238Y-99154845D01*
X100495238Y-99154845D02*
X100419048Y-99192940D01*
X100419048Y-99192940D02*
X100114286Y-99192940D01*
X100114286Y-99192940D02*
X100114286Y-98392940D01*
X100114286Y-98392940D02*
X100380952Y-98392940D01*
X100380952Y-98392940D02*
X100457143Y-98431035D01*
X100457143Y-98431035D02*
X100495238Y-98469130D01*
X100495238Y-98469130D02*
X100533333Y-98545321D01*
X100533333Y-98545321D02*
X100533333Y-98621511D01*
X100533333Y-98621511D02*
X100495238Y-98697702D01*
X100495238Y-98697702D02*
X100457143Y-98735797D01*
X100457143Y-98735797D02*
X100380952Y-98773892D01*
X100380952Y-98773892D02*
X100114286Y-98773892D01*
X100914286Y-99192940D02*
X100914286Y-98659606D01*
X100914286Y-98811987D02*
X100952381Y-98735797D01*
X100952381Y-98735797D02*
X100990476Y-98697702D01*
X100990476Y-98697702D02*
X101066667Y-98659606D01*
X101066667Y-98659606D02*
X101142857Y-98659606D01*
X101714286Y-99154845D02*
X101638095Y-99192940D01*
X101638095Y-99192940D02*
X101485714Y-99192940D01*
X101485714Y-99192940D02*
X101409524Y-99154845D01*
X101409524Y-99154845D02*
X101371428Y-99078654D01*
X101371428Y-99078654D02*
X101371428Y-98773892D01*
X101371428Y-98773892D02*
X101409524Y-98697702D01*
X101409524Y-98697702D02*
X101485714Y-98659606D01*
X101485714Y-98659606D02*
X101638095Y-98659606D01*
X101638095Y-98659606D02*
X101714286Y-98697702D01*
X101714286Y-98697702D02*
X101752381Y-98773892D01*
X101752381Y-98773892D02*
X101752381Y-98850083D01*
X101752381Y-98850083D02*
X101371428Y-98926273D01*
X102438095Y-99192940D02*
X102438095Y-98773892D01*
X102438095Y-98773892D02*
X102400000Y-98697702D01*
X102400000Y-98697702D02*
X102323809Y-98659606D01*
X102323809Y-98659606D02*
X102171428Y-98659606D01*
X102171428Y-98659606D02*
X102095238Y-98697702D01*
X102438095Y-99154845D02*
X102361904Y-99192940D01*
X102361904Y-99192940D02*
X102171428Y-99192940D01*
X102171428Y-99192940D02*
X102095238Y-99154845D01*
X102095238Y-99154845D02*
X102057142Y-99078654D01*
X102057142Y-99078654D02*
X102057142Y-99002464D01*
X102057142Y-99002464D02*
X102095238Y-98926273D01*
X102095238Y-98926273D02*
X102171428Y-98888178D01*
X102171428Y-98888178D02*
X102361904Y-98888178D01*
X102361904Y-98888178D02*
X102438095Y-98850083D01*
X102819048Y-99192940D02*
X102819048Y-98392940D01*
X102895238Y-98888178D02*
X103123810Y-99192940D01*
X103123810Y-98659606D02*
X102819048Y-98964368D01*
X100933333Y-99680895D02*
X101085714Y-99680895D01*
X101085714Y-99680895D02*
X101161904Y-99718990D01*
X101161904Y-99718990D02*
X101238095Y-99795180D01*
X101238095Y-99795180D02*
X101276190Y-99947561D01*
X101276190Y-99947561D02*
X101276190Y-100214228D01*
X101276190Y-100214228D02*
X101238095Y-100366609D01*
X101238095Y-100366609D02*
X101161904Y-100442800D01*
X101161904Y-100442800D02*
X101085714Y-100480895D01*
X101085714Y-100480895D02*
X100933333Y-100480895D01*
X100933333Y-100480895D02*
X100857142Y-100442800D01*
X100857142Y-100442800D02*
X100780952Y-100366609D01*
X100780952Y-100366609D02*
X100742856Y-100214228D01*
X100742856Y-100214228D02*
X100742856Y-99947561D01*
X100742856Y-99947561D02*
X100780952Y-99795180D01*
X100780952Y-99795180D02*
X100857142Y-99718990D01*
X100857142Y-99718990D02*
X100933333Y-99680895D01*
X101961904Y-99947561D02*
X101961904Y-100480895D01*
X101619047Y-99947561D02*
X101619047Y-100366609D01*
X101619047Y-100366609D02*
X101657142Y-100442800D01*
X101657142Y-100442800D02*
X101733332Y-100480895D01*
X101733332Y-100480895D02*
X101847618Y-100480895D01*
X101847618Y-100480895D02*
X101923809Y-100442800D01*
X101923809Y-100442800D02*
X101961904Y-100404704D01*
X102228571Y-99947561D02*
X102533333Y-99947561D01*
X102342857Y-99680895D02*
X102342857Y-100366609D01*
X102342857Y-100366609D02*
X102380952Y-100442800D01*
X102380952Y-100442800D02*
X102457142Y-100480895D01*
X102457142Y-100480895D02*
X102533333Y-100480895D01*
X162583905Y-42950665D02*
X162726762Y-42998284D01*
X162726762Y-42998284D02*
X162774381Y-43045903D01*
X162774381Y-43045903D02*
X162822000Y-43141141D01*
X162822000Y-43141141D02*
X162822000Y-43283998D01*
X162822000Y-43283998D02*
X162774381Y-43379236D01*
X162774381Y-43379236D02*
X162726762Y-43426856D01*
X162726762Y-43426856D02*
X162631524Y-43474475D01*
X162631524Y-43474475D02*
X162250572Y-43474475D01*
X162250572Y-43474475D02*
X162250572Y-42474475D01*
X162250572Y-42474475D02*
X162583905Y-42474475D01*
X162583905Y-42474475D02*
X162679143Y-42522094D01*
X162679143Y-42522094D02*
X162726762Y-42569713D01*
X162726762Y-42569713D02*
X162774381Y-42664951D01*
X162774381Y-42664951D02*
X162774381Y-42760189D01*
X162774381Y-42760189D02*
X162726762Y-42855427D01*
X162726762Y-42855427D02*
X162679143Y-42903046D01*
X162679143Y-42903046D02*
X162583905Y-42950665D01*
X162583905Y-42950665D02*
X162250572Y-42950665D01*
X163250572Y-43474475D02*
X163250572Y-42474475D01*
X163250572Y-42474475D02*
X163583905Y-43188760D01*
X163583905Y-43188760D02*
X163917238Y-42474475D01*
X163917238Y-42474475D02*
X163917238Y-43474475D01*
X164393429Y-43474475D02*
X164393429Y-42474475D01*
X162322000Y-44084419D02*
X162417238Y-44084419D01*
X162417238Y-44084419D02*
X162512476Y-44132038D01*
X162512476Y-44132038D02*
X162560095Y-44179657D01*
X162560095Y-44179657D02*
X162607714Y-44274895D01*
X162607714Y-44274895D02*
X162655333Y-44465371D01*
X162655333Y-44465371D02*
X162655333Y-44703466D01*
X162655333Y-44703466D02*
X162607714Y-44893942D01*
X162607714Y-44893942D02*
X162560095Y-44989180D01*
X162560095Y-44989180D02*
X162512476Y-45036800D01*
X162512476Y-45036800D02*
X162417238Y-45084419D01*
X162417238Y-45084419D02*
X162322000Y-45084419D01*
X162322000Y-45084419D02*
X162226762Y-45036800D01*
X162226762Y-45036800D02*
X162179143Y-44989180D01*
X162179143Y-44989180D02*
X162131524Y-44893942D01*
X162131524Y-44893942D02*
X162083905Y-44703466D01*
X162083905Y-44703466D02*
X162083905Y-44465371D01*
X162083905Y-44465371D02*
X162131524Y-44274895D01*
X162131524Y-44274895D02*
X162179143Y-44179657D01*
X162179143Y-44179657D02*
X162226762Y-44132038D01*
X162226762Y-44132038D02*
X162322000Y-44084419D01*
X163226762Y-44512990D02*
X163131524Y-44465371D01*
X163131524Y-44465371D02*
X163083905Y-44417752D01*
X163083905Y-44417752D02*
X163036286Y-44322514D01*
X163036286Y-44322514D02*
X163036286Y-44274895D01*
X163036286Y-44274895D02*
X163083905Y-44179657D01*
X163083905Y-44179657D02*
X163131524Y-44132038D01*
X163131524Y-44132038D02*
X163226762Y-44084419D01*
X163226762Y-44084419D02*
X163417238Y-44084419D01*
X163417238Y-44084419D02*
X163512476Y-44132038D01*
X163512476Y-44132038D02*
X163560095Y-44179657D01*
X163560095Y-44179657D02*
X163607714Y-44274895D01*
X163607714Y-44274895D02*
X163607714Y-44322514D01*
X163607714Y-44322514D02*
X163560095Y-44417752D01*
X163560095Y-44417752D02*
X163512476Y-44465371D01*
X163512476Y-44465371D02*
X163417238Y-44512990D01*
X163417238Y-44512990D02*
X163226762Y-44512990D01*
X163226762Y-44512990D02*
X163131524Y-44560609D01*
X163131524Y-44560609D02*
X163083905Y-44608228D01*
X163083905Y-44608228D02*
X163036286Y-44703466D01*
X163036286Y-44703466D02*
X163036286Y-44893942D01*
X163036286Y-44893942D02*
X163083905Y-44989180D01*
X163083905Y-44989180D02*
X163131524Y-45036800D01*
X163131524Y-45036800D02*
X163226762Y-45084419D01*
X163226762Y-45084419D02*
X163417238Y-45084419D01*
X163417238Y-45084419D02*
X163512476Y-45036800D01*
X163512476Y-45036800D02*
X163560095Y-44989180D01*
X163560095Y-44989180D02*
X163607714Y-44893942D01*
X163607714Y-44893942D02*
X163607714Y-44703466D01*
X163607714Y-44703466D02*
X163560095Y-44608228D01*
X163560095Y-44608228D02*
X163512476Y-44560609D01*
X163512476Y-44560609D02*
X163417238Y-44512990D01*
X164179143Y-44512990D02*
X164083905Y-44465371D01*
X164083905Y-44465371D02*
X164036286Y-44417752D01*
X164036286Y-44417752D02*
X163988667Y-44322514D01*
X163988667Y-44322514D02*
X163988667Y-44274895D01*
X163988667Y-44274895D02*
X164036286Y-44179657D01*
X164036286Y-44179657D02*
X164083905Y-44132038D01*
X164083905Y-44132038D02*
X164179143Y-44084419D01*
X164179143Y-44084419D02*
X164369619Y-44084419D01*
X164369619Y-44084419D02*
X164464857Y-44132038D01*
X164464857Y-44132038D02*
X164512476Y-44179657D01*
X164512476Y-44179657D02*
X164560095Y-44274895D01*
X164560095Y-44274895D02*
X164560095Y-44322514D01*
X164560095Y-44322514D02*
X164512476Y-44417752D01*
X164512476Y-44417752D02*
X164464857Y-44465371D01*
X164464857Y-44465371D02*
X164369619Y-44512990D01*
X164369619Y-44512990D02*
X164179143Y-44512990D01*
X164179143Y-44512990D02*
X164083905Y-44560609D01*
X164083905Y-44560609D02*
X164036286Y-44608228D01*
X164036286Y-44608228D02*
X163988667Y-44703466D01*
X163988667Y-44703466D02*
X163988667Y-44893942D01*
X163988667Y-44893942D02*
X164036286Y-44989180D01*
X164036286Y-44989180D02*
X164083905Y-45036800D01*
X164083905Y-45036800D02*
X164179143Y-45084419D01*
X164179143Y-45084419D02*
X164369619Y-45084419D01*
X164369619Y-45084419D02*
X164464857Y-45036800D01*
X164464857Y-45036800D02*
X164512476Y-44989180D01*
X164512476Y-44989180D02*
X164560095Y-44893942D01*
X164560095Y-44893942D02*
X164560095Y-44703466D01*
X164560095Y-44703466D02*
X164512476Y-44608228D01*
X164512476Y-44608228D02*
X164464857Y-44560609D01*
X164464857Y-44560609D02*
X164369619Y-44512990D01*
X100861905Y-83082665D02*
X101004762Y-83130284D01*
X101004762Y-83130284D02*
X101052381Y-83177903D01*
X101052381Y-83177903D02*
X101100000Y-83273141D01*
X101100000Y-83273141D02*
X101100000Y-83415998D01*
X101100000Y-83415998D02*
X101052381Y-83511236D01*
X101052381Y-83511236D02*
X101004762Y-83558856D01*
X101004762Y-83558856D02*
X100909524Y-83606475D01*
X100909524Y-83606475D02*
X100528572Y-83606475D01*
X100528572Y-83606475D02*
X100528572Y-82606475D01*
X100528572Y-82606475D02*
X100861905Y-82606475D01*
X100861905Y-82606475D02*
X100957143Y-82654094D01*
X100957143Y-82654094D02*
X101004762Y-82701713D01*
X101004762Y-82701713D02*
X101052381Y-82796951D01*
X101052381Y-82796951D02*
X101052381Y-82892189D01*
X101052381Y-82892189D02*
X101004762Y-82987427D01*
X101004762Y-82987427D02*
X100957143Y-83035046D01*
X100957143Y-83035046D02*
X100861905Y-83082665D01*
X100861905Y-83082665D02*
X100528572Y-83082665D01*
X101528572Y-83606475D02*
X101528572Y-82606475D01*
X101528572Y-82606475D02*
X101861905Y-83320760D01*
X101861905Y-83320760D02*
X102195238Y-82606475D01*
X102195238Y-82606475D02*
X102195238Y-83606475D01*
X102671429Y-83606475D02*
X102671429Y-82606475D01*
X100600000Y-84216419D02*
X100695238Y-84216419D01*
X100695238Y-84216419D02*
X100790476Y-84264038D01*
X100790476Y-84264038D02*
X100838095Y-84311657D01*
X100838095Y-84311657D02*
X100885714Y-84406895D01*
X100885714Y-84406895D02*
X100933333Y-84597371D01*
X100933333Y-84597371D02*
X100933333Y-84835466D01*
X100933333Y-84835466D02*
X100885714Y-85025942D01*
X100885714Y-85025942D02*
X100838095Y-85121180D01*
X100838095Y-85121180D02*
X100790476Y-85168800D01*
X100790476Y-85168800D02*
X100695238Y-85216419D01*
X100695238Y-85216419D02*
X100600000Y-85216419D01*
X100600000Y-85216419D02*
X100504762Y-85168800D01*
X100504762Y-85168800D02*
X100457143Y-85121180D01*
X100457143Y-85121180D02*
X100409524Y-85025942D01*
X100409524Y-85025942D02*
X100361905Y-84835466D01*
X100361905Y-84835466D02*
X100361905Y-84597371D01*
X100361905Y-84597371D02*
X100409524Y-84406895D01*
X100409524Y-84406895D02*
X100457143Y-84311657D01*
X100457143Y-84311657D02*
X100504762Y-84264038D01*
X100504762Y-84264038D02*
X100600000Y-84216419D01*
X101504762Y-84644990D02*
X101409524Y-84597371D01*
X101409524Y-84597371D02*
X101361905Y-84549752D01*
X101361905Y-84549752D02*
X101314286Y-84454514D01*
X101314286Y-84454514D02*
X101314286Y-84406895D01*
X101314286Y-84406895D02*
X101361905Y-84311657D01*
X101361905Y-84311657D02*
X101409524Y-84264038D01*
X101409524Y-84264038D02*
X101504762Y-84216419D01*
X101504762Y-84216419D02*
X101695238Y-84216419D01*
X101695238Y-84216419D02*
X101790476Y-84264038D01*
X101790476Y-84264038D02*
X101838095Y-84311657D01*
X101838095Y-84311657D02*
X101885714Y-84406895D01*
X101885714Y-84406895D02*
X101885714Y-84454514D01*
X101885714Y-84454514D02*
X101838095Y-84549752D01*
X101838095Y-84549752D02*
X101790476Y-84597371D01*
X101790476Y-84597371D02*
X101695238Y-84644990D01*
X101695238Y-84644990D02*
X101504762Y-84644990D01*
X101504762Y-84644990D02*
X101409524Y-84692609D01*
X101409524Y-84692609D02*
X101361905Y-84740228D01*
X101361905Y-84740228D02*
X101314286Y-84835466D01*
X101314286Y-84835466D02*
X101314286Y-85025942D01*
X101314286Y-85025942D02*
X101361905Y-85121180D01*
X101361905Y-85121180D02*
X101409524Y-85168800D01*
X101409524Y-85168800D02*
X101504762Y-85216419D01*
X101504762Y-85216419D02*
X101695238Y-85216419D01*
X101695238Y-85216419D02*
X101790476Y-85168800D01*
X101790476Y-85168800D02*
X101838095Y-85121180D01*
X101838095Y-85121180D02*
X101885714Y-85025942D01*
X101885714Y-85025942D02*
X101885714Y-84835466D01*
X101885714Y-84835466D02*
X101838095Y-84740228D01*
X101838095Y-84740228D02*
X101790476Y-84692609D01*
X101790476Y-84692609D02*
X101695238Y-84644990D01*
X102457143Y-84644990D02*
X102361905Y-84597371D01*
X102361905Y-84597371D02*
X102314286Y-84549752D01*
X102314286Y-84549752D02*
X102266667Y-84454514D01*
X102266667Y-84454514D02*
X102266667Y-84406895D01*
X102266667Y-84406895D02*
X102314286Y-84311657D01*
X102314286Y-84311657D02*
X102361905Y-84264038D01*
X102361905Y-84264038D02*
X102457143Y-84216419D01*
X102457143Y-84216419D02*
X102647619Y-84216419D01*
X102647619Y-84216419D02*
X102742857Y-84264038D01*
X102742857Y-84264038D02*
X102790476Y-84311657D01*
X102790476Y-84311657D02*
X102838095Y-84406895D01*
X102838095Y-84406895D02*
X102838095Y-84454514D01*
X102838095Y-84454514D02*
X102790476Y-84549752D01*
X102790476Y-84549752D02*
X102742857Y-84597371D01*
X102742857Y-84597371D02*
X102647619Y-84644990D01*
X102647619Y-84644990D02*
X102457143Y-84644990D01*
X102457143Y-84644990D02*
X102361905Y-84692609D01*
X102361905Y-84692609D02*
X102314286Y-84740228D01*
X102314286Y-84740228D02*
X102266667Y-84835466D01*
X102266667Y-84835466D02*
X102266667Y-85025942D01*
X102266667Y-85025942D02*
X102314286Y-85121180D01*
X102314286Y-85121180D02*
X102361905Y-85168800D01*
X102361905Y-85168800D02*
X102457143Y-85216419D01*
X102457143Y-85216419D02*
X102647619Y-85216419D01*
X102647619Y-85216419D02*
X102742857Y-85168800D01*
X102742857Y-85168800D02*
X102790476Y-85121180D01*
X102790476Y-85121180D02*
X102838095Y-85025942D01*
X102838095Y-85025942D02*
X102838095Y-84835466D01*
X102838095Y-84835466D02*
X102790476Y-84740228D01*
X102790476Y-84740228D02*
X102742857Y-84692609D01*
X102742857Y-84692609D02*
X102647619Y-84644990D01*
X161017238Y-97904985D02*
X161017238Y-97104985D01*
X161017238Y-97104985D02*
X161207714Y-97104985D01*
X161207714Y-97104985D02*
X161322000Y-97143080D01*
X161322000Y-97143080D02*
X161398190Y-97219270D01*
X161398190Y-97219270D02*
X161436285Y-97295461D01*
X161436285Y-97295461D02*
X161474381Y-97447842D01*
X161474381Y-97447842D02*
X161474381Y-97562128D01*
X161474381Y-97562128D02*
X161436285Y-97714509D01*
X161436285Y-97714509D02*
X161398190Y-97790699D01*
X161398190Y-97790699D02*
X161322000Y-97866890D01*
X161322000Y-97866890D02*
X161207714Y-97904985D01*
X161207714Y-97904985D02*
X161017238Y-97904985D01*
X161817238Y-97904985D02*
X161817238Y-97371651D01*
X161817238Y-97524032D02*
X161855333Y-97447842D01*
X161855333Y-97447842D02*
X161893428Y-97409747D01*
X161893428Y-97409747D02*
X161969619Y-97371651D01*
X161969619Y-97371651D02*
X162045809Y-97371651D01*
X162426761Y-97904985D02*
X162350571Y-97866890D01*
X162350571Y-97866890D02*
X162312476Y-97828794D01*
X162312476Y-97828794D02*
X162274380Y-97752604D01*
X162274380Y-97752604D02*
X162274380Y-97524032D01*
X162274380Y-97524032D02*
X162312476Y-97447842D01*
X162312476Y-97447842D02*
X162350571Y-97409747D01*
X162350571Y-97409747D02*
X162426761Y-97371651D01*
X162426761Y-97371651D02*
X162541047Y-97371651D01*
X162541047Y-97371651D02*
X162617238Y-97409747D01*
X162617238Y-97409747D02*
X162655333Y-97447842D01*
X162655333Y-97447842D02*
X162693428Y-97524032D01*
X162693428Y-97524032D02*
X162693428Y-97752604D01*
X162693428Y-97752604D02*
X162655333Y-97828794D01*
X162655333Y-97828794D02*
X162617238Y-97866890D01*
X162617238Y-97866890D02*
X162541047Y-97904985D01*
X162541047Y-97904985D02*
X162426761Y-97904985D01*
X163036286Y-97904985D02*
X163036286Y-97104985D01*
X163379143Y-97904985D02*
X163379143Y-97485937D01*
X163379143Y-97485937D02*
X163341048Y-97409747D01*
X163341048Y-97409747D02*
X163264857Y-97371651D01*
X163264857Y-97371651D02*
X163150571Y-97371651D01*
X163150571Y-97371651D02*
X163074381Y-97409747D01*
X163074381Y-97409747D02*
X163036286Y-97447842D01*
X163760096Y-97371651D02*
X163760096Y-97904985D01*
X163760096Y-97447842D02*
X163798191Y-97409747D01*
X163798191Y-97409747D02*
X163874381Y-97371651D01*
X163874381Y-97371651D02*
X163988667Y-97371651D01*
X163988667Y-97371651D02*
X164064858Y-97409747D01*
X164064858Y-97409747D02*
X164102953Y-97485937D01*
X164102953Y-97485937D02*
X164102953Y-97904985D01*
X164750572Y-97485937D02*
X164483906Y-97485937D01*
X164483906Y-97904985D02*
X164483906Y-97104985D01*
X164483906Y-97104985D02*
X164864858Y-97104985D01*
X165169620Y-97904985D02*
X165169620Y-97104985D01*
X165169620Y-97485937D02*
X165626763Y-97485937D01*
X165626763Y-97904985D02*
X165626763Y-97104985D01*
X162102952Y-98773892D02*
X162217238Y-98811987D01*
X162217238Y-98811987D02*
X162255333Y-98850083D01*
X162255333Y-98850083D02*
X162293429Y-98926273D01*
X162293429Y-98926273D02*
X162293429Y-99040559D01*
X162293429Y-99040559D02*
X162255333Y-99116749D01*
X162255333Y-99116749D02*
X162217238Y-99154845D01*
X162217238Y-99154845D02*
X162141048Y-99192940D01*
X162141048Y-99192940D02*
X161836286Y-99192940D01*
X161836286Y-99192940D02*
X161836286Y-98392940D01*
X161836286Y-98392940D02*
X162102952Y-98392940D01*
X162102952Y-98392940D02*
X162179143Y-98431035D01*
X162179143Y-98431035D02*
X162217238Y-98469130D01*
X162217238Y-98469130D02*
X162255333Y-98545321D01*
X162255333Y-98545321D02*
X162255333Y-98621511D01*
X162255333Y-98621511D02*
X162217238Y-98697702D01*
X162217238Y-98697702D02*
X162179143Y-98735797D01*
X162179143Y-98735797D02*
X162102952Y-98773892D01*
X162102952Y-98773892D02*
X161836286Y-98773892D01*
X162636286Y-99192940D02*
X162636286Y-98659606D01*
X162636286Y-98811987D02*
X162674381Y-98735797D01*
X162674381Y-98735797D02*
X162712476Y-98697702D01*
X162712476Y-98697702D02*
X162788667Y-98659606D01*
X162788667Y-98659606D02*
X162864857Y-98659606D01*
X163436286Y-99154845D02*
X163360095Y-99192940D01*
X163360095Y-99192940D02*
X163207714Y-99192940D01*
X163207714Y-99192940D02*
X163131524Y-99154845D01*
X163131524Y-99154845D02*
X163093428Y-99078654D01*
X163093428Y-99078654D02*
X163093428Y-98773892D01*
X163093428Y-98773892D02*
X163131524Y-98697702D01*
X163131524Y-98697702D02*
X163207714Y-98659606D01*
X163207714Y-98659606D02*
X163360095Y-98659606D01*
X163360095Y-98659606D02*
X163436286Y-98697702D01*
X163436286Y-98697702D02*
X163474381Y-98773892D01*
X163474381Y-98773892D02*
X163474381Y-98850083D01*
X163474381Y-98850083D02*
X163093428Y-98926273D01*
X164160095Y-99192940D02*
X164160095Y-98773892D01*
X164160095Y-98773892D02*
X164122000Y-98697702D01*
X164122000Y-98697702D02*
X164045809Y-98659606D01*
X164045809Y-98659606D02*
X163893428Y-98659606D01*
X163893428Y-98659606D02*
X163817238Y-98697702D01*
X164160095Y-99154845D02*
X164083904Y-99192940D01*
X164083904Y-99192940D02*
X163893428Y-99192940D01*
X163893428Y-99192940D02*
X163817238Y-99154845D01*
X163817238Y-99154845D02*
X163779142Y-99078654D01*
X163779142Y-99078654D02*
X163779142Y-99002464D01*
X163779142Y-99002464D02*
X163817238Y-98926273D01*
X163817238Y-98926273D02*
X163893428Y-98888178D01*
X163893428Y-98888178D02*
X164083904Y-98888178D01*
X164083904Y-98888178D02*
X164160095Y-98850083D01*
X164541048Y-99192940D02*
X164541048Y-98392940D01*
X164617238Y-98888178D02*
X164845810Y-99192940D01*
X164845810Y-98659606D02*
X164541048Y-98964368D01*
X162655333Y-99680895D02*
X162807714Y-99680895D01*
X162807714Y-99680895D02*
X162883904Y-99718990D01*
X162883904Y-99718990D02*
X162960095Y-99795180D01*
X162960095Y-99795180D02*
X162998190Y-99947561D01*
X162998190Y-99947561D02*
X162998190Y-100214228D01*
X162998190Y-100214228D02*
X162960095Y-100366609D01*
X162960095Y-100366609D02*
X162883904Y-100442800D01*
X162883904Y-100442800D02*
X162807714Y-100480895D01*
X162807714Y-100480895D02*
X162655333Y-100480895D01*
X162655333Y-100480895D02*
X162579142Y-100442800D01*
X162579142Y-100442800D02*
X162502952Y-100366609D01*
X162502952Y-100366609D02*
X162464856Y-100214228D01*
X162464856Y-100214228D02*
X162464856Y-99947561D01*
X162464856Y-99947561D02*
X162502952Y-99795180D01*
X162502952Y-99795180D02*
X162579142Y-99718990D01*
X162579142Y-99718990D02*
X162655333Y-99680895D01*
X163683904Y-99947561D02*
X163683904Y-100480895D01*
X163341047Y-99947561D02*
X163341047Y-100366609D01*
X163341047Y-100366609D02*
X163379142Y-100442800D01*
X163379142Y-100442800D02*
X163455332Y-100480895D01*
X163455332Y-100480895D02*
X163569618Y-100480895D01*
X163569618Y-100480895D02*
X163645809Y-100442800D01*
X163645809Y-100442800D02*
X163683904Y-100404704D01*
X163950571Y-99947561D02*
X164255333Y-99947561D01*
X164064857Y-99680895D02*
X164064857Y-100366609D01*
X164064857Y-100366609D02*
X164102952Y-100442800D01*
X164102952Y-100442800D02*
X164179142Y-100480895D01*
X164179142Y-100480895D02*
X164255333Y-100480895D01*
X162583905Y-83082665D02*
X162726762Y-83130284D01*
X162726762Y-83130284D02*
X162774381Y-83177903D01*
X162774381Y-83177903D02*
X162822000Y-83273141D01*
X162822000Y-83273141D02*
X162822000Y-83415998D01*
X162822000Y-83415998D02*
X162774381Y-83511236D01*
X162774381Y-83511236D02*
X162726762Y-83558856D01*
X162726762Y-83558856D02*
X162631524Y-83606475D01*
X162631524Y-83606475D02*
X162250572Y-83606475D01*
X162250572Y-83606475D02*
X162250572Y-82606475D01*
X162250572Y-82606475D02*
X162583905Y-82606475D01*
X162583905Y-82606475D02*
X162679143Y-82654094D01*
X162679143Y-82654094D02*
X162726762Y-82701713D01*
X162726762Y-82701713D02*
X162774381Y-82796951D01*
X162774381Y-82796951D02*
X162774381Y-82892189D01*
X162774381Y-82892189D02*
X162726762Y-82987427D01*
X162726762Y-82987427D02*
X162679143Y-83035046D01*
X162679143Y-83035046D02*
X162583905Y-83082665D01*
X162583905Y-83082665D02*
X162250572Y-83082665D01*
X163250572Y-83606475D02*
X163250572Y-82606475D01*
X163250572Y-82606475D02*
X163583905Y-83320760D01*
X163583905Y-83320760D02*
X163917238Y-82606475D01*
X163917238Y-82606475D02*
X163917238Y-83606475D01*
X164393429Y-83606475D02*
X164393429Y-82606475D01*
X162322000Y-84216419D02*
X162417238Y-84216419D01*
X162417238Y-84216419D02*
X162512476Y-84264038D01*
X162512476Y-84264038D02*
X162560095Y-84311657D01*
X162560095Y-84311657D02*
X162607714Y-84406895D01*
X162607714Y-84406895D02*
X162655333Y-84597371D01*
X162655333Y-84597371D02*
X162655333Y-84835466D01*
X162655333Y-84835466D02*
X162607714Y-85025942D01*
X162607714Y-85025942D02*
X162560095Y-85121180D01*
X162560095Y-85121180D02*
X162512476Y-85168800D01*
X162512476Y-85168800D02*
X162417238Y-85216419D01*
X162417238Y-85216419D02*
X162322000Y-85216419D01*
X162322000Y-85216419D02*
X162226762Y-85168800D01*
X162226762Y-85168800D02*
X162179143Y-85121180D01*
X162179143Y-85121180D02*
X162131524Y-85025942D01*
X162131524Y-85025942D02*
X162083905Y-84835466D01*
X162083905Y-84835466D02*
X162083905Y-84597371D01*
X162083905Y-84597371D02*
X162131524Y-84406895D01*
X162131524Y-84406895D02*
X162179143Y-84311657D01*
X162179143Y-84311657D02*
X162226762Y-84264038D01*
X162226762Y-84264038D02*
X162322000Y-84216419D01*
X163226762Y-84644990D02*
X163131524Y-84597371D01*
X163131524Y-84597371D02*
X163083905Y-84549752D01*
X163083905Y-84549752D02*
X163036286Y-84454514D01*
X163036286Y-84454514D02*
X163036286Y-84406895D01*
X163036286Y-84406895D02*
X163083905Y-84311657D01*
X163083905Y-84311657D02*
X163131524Y-84264038D01*
X163131524Y-84264038D02*
X163226762Y-84216419D01*
X163226762Y-84216419D02*
X163417238Y-84216419D01*
X163417238Y-84216419D02*
X163512476Y-84264038D01*
X163512476Y-84264038D02*
X163560095Y-84311657D01*
X163560095Y-84311657D02*
X163607714Y-84406895D01*
X163607714Y-84406895D02*
X163607714Y-84454514D01*
X163607714Y-84454514D02*
X163560095Y-84549752D01*
X163560095Y-84549752D02*
X163512476Y-84597371D01*
X163512476Y-84597371D02*
X163417238Y-84644990D01*
X163417238Y-84644990D02*
X163226762Y-84644990D01*
X163226762Y-84644990D02*
X163131524Y-84692609D01*
X163131524Y-84692609D02*
X163083905Y-84740228D01*
X163083905Y-84740228D02*
X163036286Y-84835466D01*
X163036286Y-84835466D02*
X163036286Y-85025942D01*
X163036286Y-85025942D02*
X163083905Y-85121180D01*
X163083905Y-85121180D02*
X163131524Y-85168800D01*
X163131524Y-85168800D02*
X163226762Y-85216419D01*
X163226762Y-85216419D02*
X163417238Y-85216419D01*
X163417238Y-85216419D02*
X163512476Y-85168800D01*
X163512476Y-85168800D02*
X163560095Y-85121180D01*
X163560095Y-85121180D02*
X163607714Y-85025942D01*
X163607714Y-85025942D02*
X163607714Y-84835466D01*
X163607714Y-84835466D02*
X163560095Y-84740228D01*
X163560095Y-84740228D02*
X163512476Y-84692609D01*
X163512476Y-84692609D02*
X163417238Y-84644990D01*
X164179143Y-84644990D02*
X164083905Y-84597371D01*
X164083905Y-84597371D02*
X164036286Y-84549752D01*
X164036286Y-84549752D02*
X163988667Y-84454514D01*
X163988667Y-84454514D02*
X163988667Y-84406895D01*
X163988667Y-84406895D02*
X164036286Y-84311657D01*
X164036286Y-84311657D02*
X164083905Y-84264038D01*
X164083905Y-84264038D02*
X164179143Y-84216419D01*
X164179143Y-84216419D02*
X164369619Y-84216419D01*
X164369619Y-84216419D02*
X164464857Y-84264038D01*
X164464857Y-84264038D02*
X164512476Y-84311657D01*
X164512476Y-84311657D02*
X164560095Y-84406895D01*
X164560095Y-84406895D02*
X164560095Y-84454514D01*
X164560095Y-84454514D02*
X164512476Y-84549752D01*
X164512476Y-84549752D02*
X164464857Y-84597371D01*
X164464857Y-84597371D02*
X164369619Y-84644990D01*
X164369619Y-84644990D02*
X164179143Y-84644990D01*
X164179143Y-84644990D02*
X164083905Y-84692609D01*
X164083905Y-84692609D02*
X164036286Y-84740228D01*
X164036286Y-84740228D02*
X163988667Y-84835466D01*
X163988667Y-84835466D02*
X163988667Y-85025942D01*
X163988667Y-85025942D02*
X164036286Y-85121180D01*
X164036286Y-85121180D02*
X164083905Y-85168800D01*
X164083905Y-85168800D02*
X164179143Y-85216419D01*
X164179143Y-85216419D02*
X164369619Y-85216419D01*
X164369619Y-85216419D02*
X164464857Y-85168800D01*
X164464857Y-85168800D02*
X164512476Y-85121180D01*
X164512476Y-85121180D02*
X164560095Y-85025942D01*
X164560095Y-85025942D02*
X164560095Y-84835466D01*
X164560095Y-84835466D02*
X164512476Y-84740228D01*
X164512476Y-84740228D02*
X164464857Y-84692609D01*
X164464857Y-84692609D02*
X164369619Y-84644990D01*
X99295238Y-57772985D02*
X99295238Y-56972985D01*
X99295238Y-56972985D02*
X99485714Y-56972985D01*
X99485714Y-56972985D02*
X99600000Y-57011080D01*
X99600000Y-57011080D02*
X99676190Y-57087270D01*
X99676190Y-57087270D02*
X99714285Y-57163461D01*
X99714285Y-57163461D02*
X99752381Y-57315842D01*
X99752381Y-57315842D02*
X99752381Y-57430128D01*
X99752381Y-57430128D02*
X99714285Y-57582509D01*
X99714285Y-57582509D02*
X99676190Y-57658699D01*
X99676190Y-57658699D02*
X99600000Y-57734890D01*
X99600000Y-57734890D02*
X99485714Y-57772985D01*
X99485714Y-57772985D02*
X99295238Y-57772985D01*
X100095238Y-57772985D02*
X100095238Y-57239651D01*
X100095238Y-57392032D02*
X100133333Y-57315842D01*
X100133333Y-57315842D02*
X100171428Y-57277747D01*
X100171428Y-57277747D02*
X100247619Y-57239651D01*
X100247619Y-57239651D02*
X100323809Y-57239651D01*
X100704761Y-57772985D02*
X100628571Y-57734890D01*
X100628571Y-57734890D02*
X100590476Y-57696794D01*
X100590476Y-57696794D02*
X100552380Y-57620604D01*
X100552380Y-57620604D02*
X100552380Y-57392032D01*
X100552380Y-57392032D02*
X100590476Y-57315842D01*
X100590476Y-57315842D02*
X100628571Y-57277747D01*
X100628571Y-57277747D02*
X100704761Y-57239651D01*
X100704761Y-57239651D02*
X100819047Y-57239651D01*
X100819047Y-57239651D02*
X100895238Y-57277747D01*
X100895238Y-57277747D02*
X100933333Y-57315842D01*
X100933333Y-57315842D02*
X100971428Y-57392032D01*
X100971428Y-57392032D02*
X100971428Y-57620604D01*
X100971428Y-57620604D02*
X100933333Y-57696794D01*
X100933333Y-57696794D02*
X100895238Y-57734890D01*
X100895238Y-57734890D02*
X100819047Y-57772985D01*
X100819047Y-57772985D02*
X100704761Y-57772985D01*
X101314286Y-57772985D02*
X101314286Y-56972985D01*
X101657143Y-57772985D02*
X101657143Y-57353937D01*
X101657143Y-57353937D02*
X101619048Y-57277747D01*
X101619048Y-57277747D02*
X101542857Y-57239651D01*
X101542857Y-57239651D02*
X101428571Y-57239651D01*
X101428571Y-57239651D02*
X101352381Y-57277747D01*
X101352381Y-57277747D02*
X101314286Y-57315842D01*
X102038096Y-57239651D02*
X102038096Y-57772985D01*
X102038096Y-57315842D02*
X102076191Y-57277747D01*
X102076191Y-57277747D02*
X102152381Y-57239651D01*
X102152381Y-57239651D02*
X102266667Y-57239651D01*
X102266667Y-57239651D02*
X102342858Y-57277747D01*
X102342858Y-57277747D02*
X102380953Y-57353937D01*
X102380953Y-57353937D02*
X102380953Y-57772985D01*
X103028572Y-57353937D02*
X102761906Y-57353937D01*
X102761906Y-57772985D02*
X102761906Y-56972985D01*
X102761906Y-56972985D02*
X103142858Y-56972985D01*
X103447620Y-57772985D02*
X103447620Y-56972985D01*
X103447620Y-57353937D02*
X103904763Y-57353937D01*
X103904763Y-57772985D02*
X103904763Y-56972985D01*
X100380952Y-58641892D02*
X100495238Y-58679987D01*
X100495238Y-58679987D02*
X100533333Y-58718083D01*
X100533333Y-58718083D02*
X100571429Y-58794273D01*
X100571429Y-58794273D02*
X100571429Y-58908559D01*
X100571429Y-58908559D02*
X100533333Y-58984749D01*
X100533333Y-58984749D02*
X100495238Y-59022845D01*
X100495238Y-59022845D02*
X100419048Y-59060940D01*
X100419048Y-59060940D02*
X100114286Y-59060940D01*
X100114286Y-59060940D02*
X100114286Y-58260940D01*
X100114286Y-58260940D02*
X100380952Y-58260940D01*
X100380952Y-58260940D02*
X100457143Y-58299035D01*
X100457143Y-58299035D02*
X100495238Y-58337130D01*
X100495238Y-58337130D02*
X100533333Y-58413321D01*
X100533333Y-58413321D02*
X100533333Y-58489511D01*
X100533333Y-58489511D02*
X100495238Y-58565702D01*
X100495238Y-58565702D02*
X100457143Y-58603797D01*
X100457143Y-58603797D02*
X100380952Y-58641892D01*
X100380952Y-58641892D02*
X100114286Y-58641892D01*
X100914286Y-59060940D02*
X100914286Y-58527606D01*
X100914286Y-58679987D02*
X100952381Y-58603797D01*
X100952381Y-58603797D02*
X100990476Y-58565702D01*
X100990476Y-58565702D02*
X101066667Y-58527606D01*
X101066667Y-58527606D02*
X101142857Y-58527606D01*
X101714286Y-59022845D02*
X101638095Y-59060940D01*
X101638095Y-59060940D02*
X101485714Y-59060940D01*
X101485714Y-59060940D02*
X101409524Y-59022845D01*
X101409524Y-59022845D02*
X101371428Y-58946654D01*
X101371428Y-58946654D02*
X101371428Y-58641892D01*
X101371428Y-58641892D02*
X101409524Y-58565702D01*
X101409524Y-58565702D02*
X101485714Y-58527606D01*
X101485714Y-58527606D02*
X101638095Y-58527606D01*
X101638095Y-58527606D02*
X101714286Y-58565702D01*
X101714286Y-58565702D02*
X101752381Y-58641892D01*
X101752381Y-58641892D02*
X101752381Y-58718083D01*
X101752381Y-58718083D02*
X101371428Y-58794273D01*
X102438095Y-59060940D02*
X102438095Y-58641892D01*
X102438095Y-58641892D02*
X102400000Y-58565702D01*
X102400000Y-58565702D02*
X102323809Y-58527606D01*
X102323809Y-58527606D02*
X102171428Y-58527606D01*
X102171428Y-58527606D02*
X102095238Y-58565702D01*
X102438095Y-59022845D02*
X102361904Y-59060940D01*
X102361904Y-59060940D02*
X102171428Y-59060940D01*
X102171428Y-59060940D02*
X102095238Y-59022845D01*
X102095238Y-59022845D02*
X102057142Y-58946654D01*
X102057142Y-58946654D02*
X102057142Y-58870464D01*
X102057142Y-58870464D02*
X102095238Y-58794273D01*
X102095238Y-58794273D02*
X102171428Y-58756178D01*
X102171428Y-58756178D02*
X102361904Y-58756178D01*
X102361904Y-58756178D02*
X102438095Y-58718083D01*
X102819048Y-59060940D02*
X102819048Y-58260940D01*
X102895238Y-58756178D02*
X103123810Y-59060940D01*
X103123810Y-58527606D02*
X102819048Y-58832368D01*
X100933333Y-59548895D02*
X101085714Y-59548895D01*
X101085714Y-59548895D02*
X101161904Y-59586990D01*
X101161904Y-59586990D02*
X101238095Y-59663180D01*
X101238095Y-59663180D02*
X101276190Y-59815561D01*
X101276190Y-59815561D02*
X101276190Y-60082228D01*
X101276190Y-60082228D02*
X101238095Y-60234609D01*
X101238095Y-60234609D02*
X101161904Y-60310800D01*
X101161904Y-60310800D02*
X101085714Y-60348895D01*
X101085714Y-60348895D02*
X100933333Y-60348895D01*
X100933333Y-60348895D02*
X100857142Y-60310800D01*
X100857142Y-60310800D02*
X100780952Y-60234609D01*
X100780952Y-60234609D02*
X100742856Y-60082228D01*
X100742856Y-60082228D02*
X100742856Y-59815561D01*
X100742856Y-59815561D02*
X100780952Y-59663180D01*
X100780952Y-59663180D02*
X100857142Y-59586990D01*
X100857142Y-59586990D02*
X100933333Y-59548895D01*
X101961904Y-59815561D02*
X101961904Y-60348895D01*
X101619047Y-59815561D02*
X101619047Y-60234609D01*
X101619047Y-60234609D02*
X101657142Y-60310800D01*
X101657142Y-60310800D02*
X101733332Y-60348895D01*
X101733332Y-60348895D02*
X101847618Y-60348895D01*
X101847618Y-60348895D02*
X101923809Y-60310800D01*
X101923809Y-60310800D02*
X101961904Y-60272704D01*
X102228571Y-59815561D02*
X102533333Y-59815561D01*
X102342857Y-59548895D02*
X102342857Y-60234609D01*
X102342857Y-60234609D02*
X102380952Y-60310800D01*
X102380952Y-60310800D02*
X102457142Y-60348895D01*
X102457142Y-60348895D02*
X102533333Y-60348895D01*
D12*
X120906224Y-47311120D02*
X120906224Y-47463501D01*
X120906224Y-47463501D02*
X120868129Y-47539691D01*
X120868129Y-47539691D02*
X120791939Y-47615882D01*
X120791939Y-47615882D02*
X120639558Y-47653977D01*
X120639558Y-47653977D02*
X120372891Y-47653977D01*
X120372891Y-47653977D02*
X120220510Y-47615882D01*
X120220510Y-47615882D02*
X120144320Y-47539691D01*
X120144320Y-47539691D02*
X120106224Y-47463501D01*
X120106224Y-47463501D02*
X120106224Y-47311120D01*
X120106224Y-47311120D02*
X120144320Y-47234929D01*
X120144320Y-47234929D02*
X120220510Y-47158739D01*
X120220510Y-47158739D02*
X120372891Y-47120643D01*
X120372891Y-47120643D02*
X120639558Y-47120643D01*
X120639558Y-47120643D02*
X120791939Y-47158739D01*
X120791939Y-47158739D02*
X120868129Y-47234929D01*
X120868129Y-47234929D02*
X120906224Y-47311120D01*
X120106224Y-47996834D02*
X120906224Y-47996834D01*
X120906224Y-47996834D02*
X120334796Y-48263500D01*
X120334796Y-48263500D02*
X120906224Y-48530167D01*
X120906224Y-48530167D02*
X120106224Y-48530167D01*
X120334796Y-48873024D02*
X120334796Y-49253977D01*
X120106224Y-48796834D02*
X120906224Y-49063501D01*
X120906224Y-49063501D02*
X120106224Y-49330167D01*
X120106224Y-50053977D02*
X120487177Y-49787310D01*
X120106224Y-49596834D02*
X120906224Y-49596834D01*
X120906224Y-49596834D02*
X120906224Y-49901596D01*
X120906224Y-49901596D02*
X120868129Y-49977786D01*
X120868129Y-49977786D02*
X120830034Y-50015881D01*
X120830034Y-50015881D02*
X120753843Y-50053977D01*
X120753843Y-50053977D02*
X120639558Y-50053977D01*
X120639558Y-50053977D02*
X120563367Y-50015881D01*
X120563367Y-50015881D02*
X120525272Y-49977786D01*
X120525272Y-49977786D02*
X120487177Y-49901596D01*
X120487177Y-49901596D02*
X120487177Y-49596834D01*
X120906224Y-50930167D02*
X120906224Y-51463501D01*
X120906224Y-51463501D02*
X120106224Y-50930167D01*
X120106224Y-50930167D02*
X120106224Y-51463501D01*
X120334796Y-51730167D02*
X120334796Y-52111120D01*
X120106224Y-51653977D02*
X120906224Y-51920644D01*
X120906224Y-51920644D02*
X120106224Y-52187310D01*
X120106224Y-52453977D02*
X120906224Y-52453977D01*
X120906224Y-52453977D02*
X120334796Y-52720643D01*
X120334796Y-52720643D02*
X120906224Y-52987310D01*
X120906224Y-52987310D02*
X120106224Y-52987310D01*
X120106224Y-53368263D02*
X120906224Y-53368263D01*
X120906224Y-53368263D02*
X120334796Y-53634929D01*
X120334796Y-53634929D02*
X120906224Y-53901596D01*
X120906224Y-53901596D02*
X120106224Y-53901596D01*
X120334796Y-54244453D02*
X120334796Y-54625406D01*
X120106224Y-54168263D02*
X120906224Y-54434930D01*
X120906224Y-54434930D02*
X120106224Y-54701596D01*
X120106224Y-55425406D02*
X120487177Y-55158739D01*
X120106224Y-54968263D02*
X120906224Y-54968263D01*
X120906224Y-54968263D02*
X120906224Y-55273025D01*
X120906224Y-55273025D02*
X120868129Y-55349215D01*
X120868129Y-55349215D02*
X120830034Y-55387310D01*
X120830034Y-55387310D02*
X120753843Y-55425406D01*
X120753843Y-55425406D02*
X120639558Y-55425406D01*
X120639558Y-55425406D02*
X120563367Y-55387310D01*
X120563367Y-55387310D02*
X120525272Y-55349215D01*
X120525272Y-55349215D02*
X120487177Y-55273025D01*
X120487177Y-55273025D02*
X120487177Y-54968263D01*
X120830034Y-56339691D02*
X120868129Y-56377787D01*
X120868129Y-56377787D02*
X120906224Y-56453977D01*
X120906224Y-56453977D02*
X120906224Y-56644453D01*
X120906224Y-56644453D02*
X120868129Y-56720644D01*
X120868129Y-56720644D02*
X120830034Y-56758739D01*
X120830034Y-56758739D02*
X120753843Y-56796834D01*
X120753843Y-56796834D02*
X120677653Y-56796834D01*
X120677653Y-56796834D02*
X120563367Y-56758739D01*
X120563367Y-56758739D02*
X120106224Y-56301596D01*
X120106224Y-56301596D02*
X120106224Y-56796834D01*
X120906224Y-57292073D02*
X120906224Y-57368263D01*
X120906224Y-57368263D02*
X120868129Y-57444454D01*
X120868129Y-57444454D02*
X120830034Y-57482549D01*
X120830034Y-57482549D02*
X120753843Y-57520644D01*
X120753843Y-57520644D02*
X120601462Y-57558739D01*
X120601462Y-57558739D02*
X120410986Y-57558739D01*
X120410986Y-57558739D02*
X120258605Y-57520644D01*
X120258605Y-57520644D02*
X120182415Y-57482549D01*
X120182415Y-57482549D02*
X120144320Y-57444454D01*
X120144320Y-57444454D02*
X120106224Y-57368263D01*
X120106224Y-57368263D02*
X120106224Y-57292073D01*
X120106224Y-57292073D02*
X120144320Y-57215882D01*
X120144320Y-57215882D02*
X120182415Y-57177787D01*
X120182415Y-57177787D02*
X120258605Y-57139692D01*
X120258605Y-57139692D02*
X120410986Y-57101596D01*
X120410986Y-57101596D02*
X120601462Y-57101596D01*
X120601462Y-57101596D02*
X120753843Y-57139692D01*
X120753843Y-57139692D02*
X120830034Y-57177787D01*
X120830034Y-57177787D02*
X120868129Y-57215882D01*
X120868129Y-57215882D02*
X120906224Y-57292073D01*
X120830034Y-57863501D02*
X120868129Y-57901597D01*
X120868129Y-57901597D02*
X120906224Y-57977787D01*
X120906224Y-57977787D02*
X120906224Y-58168263D01*
X120906224Y-58168263D02*
X120868129Y-58244454D01*
X120868129Y-58244454D02*
X120830034Y-58282549D01*
X120830034Y-58282549D02*
X120753843Y-58320644D01*
X120753843Y-58320644D02*
X120677653Y-58320644D01*
X120677653Y-58320644D02*
X120563367Y-58282549D01*
X120563367Y-58282549D02*
X120106224Y-57825406D01*
X120106224Y-57825406D02*
X120106224Y-58320644D01*
X120639558Y-59006359D02*
X120106224Y-59006359D01*
X120944320Y-58815883D02*
X120372891Y-58625406D01*
X120372891Y-58625406D02*
X120372891Y-59120645D01*
X120944320Y-59996835D02*
X119915748Y-59311121D01*
X120830034Y-60225406D02*
X120868129Y-60263502D01*
X120868129Y-60263502D02*
X120906224Y-60339692D01*
X120906224Y-60339692D02*
X120906224Y-60530168D01*
X120906224Y-60530168D02*
X120868129Y-60606359D01*
X120868129Y-60606359D02*
X120830034Y-60644454D01*
X120830034Y-60644454D02*
X120753843Y-60682549D01*
X120753843Y-60682549D02*
X120677653Y-60682549D01*
X120677653Y-60682549D02*
X120563367Y-60644454D01*
X120563367Y-60644454D02*
X120106224Y-60187311D01*
X120106224Y-60187311D02*
X120106224Y-60682549D01*
X120906224Y-61177788D02*
X120906224Y-61253978D01*
X120906224Y-61253978D02*
X120868129Y-61330169D01*
X120868129Y-61330169D02*
X120830034Y-61368264D01*
X120830034Y-61368264D02*
X120753843Y-61406359D01*
X120753843Y-61406359D02*
X120601462Y-61444454D01*
X120601462Y-61444454D02*
X120410986Y-61444454D01*
X120410986Y-61444454D02*
X120258605Y-61406359D01*
X120258605Y-61406359D02*
X120182415Y-61368264D01*
X120182415Y-61368264D02*
X120144320Y-61330169D01*
X120144320Y-61330169D02*
X120106224Y-61253978D01*
X120106224Y-61253978D02*
X120106224Y-61177788D01*
X120106224Y-61177788D02*
X120144320Y-61101597D01*
X120144320Y-61101597D02*
X120182415Y-61063502D01*
X120182415Y-61063502D02*
X120258605Y-61025407D01*
X120258605Y-61025407D02*
X120410986Y-60987311D01*
X120410986Y-60987311D02*
X120601462Y-60987311D01*
X120601462Y-60987311D02*
X120753843Y-61025407D01*
X120753843Y-61025407D02*
X120830034Y-61063502D01*
X120830034Y-61063502D02*
X120868129Y-61101597D01*
X120868129Y-61101597D02*
X120906224Y-61177788D01*
X120830034Y-61749216D02*
X120868129Y-61787312D01*
X120868129Y-61787312D02*
X120906224Y-61863502D01*
X120906224Y-61863502D02*
X120906224Y-62053978D01*
X120906224Y-62053978D02*
X120868129Y-62130169D01*
X120868129Y-62130169D02*
X120830034Y-62168264D01*
X120830034Y-62168264D02*
X120753843Y-62206359D01*
X120753843Y-62206359D02*
X120677653Y-62206359D01*
X120677653Y-62206359D02*
X120563367Y-62168264D01*
X120563367Y-62168264D02*
X120106224Y-61711121D01*
X120106224Y-61711121D02*
X120106224Y-62206359D01*
X120906224Y-62930169D02*
X120906224Y-62549217D01*
X120906224Y-62549217D02*
X120525272Y-62511121D01*
X120525272Y-62511121D02*
X120563367Y-62549217D01*
X120563367Y-62549217D02*
X120601462Y-62625407D01*
X120601462Y-62625407D02*
X120601462Y-62815883D01*
X120601462Y-62815883D02*
X120563367Y-62892074D01*
X120563367Y-62892074D02*
X120525272Y-62930169D01*
X120525272Y-62930169D02*
X120449081Y-62968264D01*
X120449081Y-62968264D02*
X120258605Y-62968264D01*
X120258605Y-62968264D02*
X120182415Y-62930169D01*
X120182415Y-62930169D02*
X120144320Y-62892074D01*
X120144320Y-62892074D02*
X120106224Y-62815883D01*
X120106224Y-62815883D02*
X120106224Y-62625407D01*
X120106224Y-62625407D02*
X120144320Y-62549217D01*
X120144320Y-62549217D02*
X120182415Y-62511121D01*
D13*
X133248457Y-66933651D02*
X133248457Y-67419365D01*
X133248457Y-67419365D02*
X133277028Y-67476508D01*
X133277028Y-67476508D02*
X133305600Y-67505080D01*
X133305600Y-67505080D02*
X133362742Y-67533651D01*
X133362742Y-67533651D02*
X133477028Y-67533651D01*
X133477028Y-67533651D02*
X133534171Y-67505080D01*
X133534171Y-67505080D02*
X133562742Y-67476508D01*
X133562742Y-67476508D02*
X133591314Y-67419365D01*
X133591314Y-67419365D02*
X133591314Y-66933651D01*
X133848456Y-66990794D02*
X133877028Y-66962222D01*
X133877028Y-66962222D02*
X133934171Y-66933651D01*
X133934171Y-66933651D02*
X134077028Y-66933651D01*
X134077028Y-66933651D02*
X134134171Y-66962222D01*
X134134171Y-66962222D02*
X134162742Y-66990794D01*
X134162742Y-66990794D02*
X134191313Y-67047937D01*
X134191313Y-67047937D02*
X134191313Y-67105080D01*
X134191313Y-67105080D02*
X134162742Y-67190794D01*
X134162742Y-67190794D02*
X133819885Y-67533651D01*
X133819885Y-67533651D02*
X134191313Y-67533651D01*
X128176399Y-72826451D02*
X128176399Y-73255022D01*
X128176399Y-73255022D02*
X128147828Y-73340737D01*
X128147828Y-73340737D02*
X128090685Y-73397880D01*
X128090685Y-73397880D02*
X128004971Y-73426451D01*
X128004971Y-73426451D02*
X127947828Y-73426451D01*
X128462114Y-73426451D02*
X128462114Y-72826451D01*
X128462114Y-72826451D02*
X128690685Y-72826451D01*
X128690685Y-72826451D02*
X128747828Y-72855022D01*
X128747828Y-72855022D02*
X128776399Y-72883594D01*
X128776399Y-72883594D02*
X128804971Y-72940737D01*
X128804971Y-72940737D02*
X128804971Y-73026451D01*
X128804971Y-73026451D02*
X128776399Y-73083594D01*
X128776399Y-73083594D02*
X128747828Y-73112165D01*
X128747828Y-73112165D02*
X128690685Y-73140737D01*
X128690685Y-73140737D02*
X128462114Y-73140737D01*
X129347828Y-72826451D02*
X129062114Y-72826451D01*
X129062114Y-72826451D02*
X129033542Y-73112165D01*
X129033542Y-73112165D02*
X129062114Y-73083594D01*
X129062114Y-73083594D02*
X129119257Y-73055022D01*
X129119257Y-73055022D02*
X129262114Y-73055022D01*
X129262114Y-73055022D02*
X129319257Y-73083594D01*
X129319257Y-73083594D02*
X129347828Y-73112165D01*
X129347828Y-73112165D02*
X129376399Y-73169308D01*
X129376399Y-73169308D02*
X129376399Y-73312165D01*
X129376399Y-73312165D02*
X129347828Y-73369308D01*
X129347828Y-73369308D02*
X129319257Y-73397880D01*
X129319257Y-73397880D02*
X129262114Y-73426451D01*
X129262114Y-73426451D02*
X129119257Y-73426451D01*
X129119257Y-73426451D02*
X129062114Y-73397880D01*
X129062114Y-73397880D02*
X129033542Y-73369308D01*
X128176399Y-83850051D02*
X128176399Y-84278622D01*
X128176399Y-84278622D02*
X128147828Y-84364337D01*
X128147828Y-84364337D02*
X128090685Y-84421480D01*
X128090685Y-84421480D02*
X128004971Y-84450051D01*
X128004971Y-84450051D02*
X127947828Y-84450051D01*
X128462114Y-84450051D02*
X128462114Y-83850051D01*
X128462114Y-83850051D02*
X128690685Y-83850051D01*
X128690685Y-83850051D02*
X128747828Y-83878622D01*
X128747828Y-83878622D02*
X128776399Y-83907194D01*
X128776399Y-83907194D02*
X128804971Y-83964337D01*
X128804971Y-83964337D02*
X128804971Y-84050051D01*
X128804971Y-84050051D02*
X128776399Y-84107194D01*
X128776399Y-84107194D02*
X128747828Y-84135765D01*
X128747828Y-84135765D02*
X128690685Y-84164337D01*
X128690685Y-84164337D02*
X128462114Y-84164337D01*
X129147828Y-84107194D02*
X129090685Y-84078622D01*
X129090685Y-84078622D02*
X129062114Y-84050051D01*
X129062114Y-84050051D02*
X129033542Y-83992908D01*
X129033542Y-83992908D02*
X129033542Y-83964337D01*
X129033542Y-83964337D02*
X129062114Y-83907194D01*
X129062114Y-83907194D02*
X129090685Y-83878622D01*
X129090685Y-83878622D02*
X129147828Y-83850051D01*
X129147828Y-83850051D02*
X129262114Y-83850051D01*
X129262114Y-83850051D02*
X129319257Y-83878622D01*
X129319257Y-83878622D02*
X129347828Y-83907194D01*
X129347828Y-83907194D02*
X129376399Y-83964337D01*
X129376399Y-83964337D02*
X129376399Y-83992908D01*
X129376399Y-83992908D02*
X129347828Y-84050051D01*
X129347828Y-84050051D02*
X129319257Y-84078622D01*
X129319257Y-84078622D02*
X129262114Y-84107194D01*
X129262114Y-84107194D02*
X129147828Y-84107194D01*
X129147828Y-84107194D02*
X129090685Y-84135765D01*
X129090685Y-84135765D02*
X129062114Y-84164337D01*
X129062114Y-84164337D02*
X129033542Y-84221480D01*
X129033542Y-84221480D02*
X129033542Y-84335765D01*
X129033542Y-84335765D02*
X129062114Y-84392908D01*
X129062114Y-84392908D02*
X129090685Y-84421480D01*
X129090685Y-84421480D02*
X129147828Y-84450051D01*
X129147828Y-84450051D02*
X129262114Y-84450051D01*
X129262114Y-84450051D02*
X129319257Y-84421480D01*
X129319257Y-84421480D02*
X129347828Y-84392908D01*
X129347828Y-84392908D02*
X129376399Y-84335765D01*
X129376399Y-84335765D02*
X129376399Y-84221480D01*
X129376399Y-84221480D02*
X129347828Y-84164337D01*
X129347828Y-84164337D02*
X129319257Y-84135765D01*
X129319257Y-84135765D02*
X129262114Y-84107194D01*
X131370400Y-73375651D02*
X131170400Y-73089937D01*
X131027543Y-73375651D02*
X131027543Y-72775651D01*
X131027543Y-72775651D02*
X131256114Y-72775651D01*
X131256114Y-72775651D02*
X131313257Y-72804222D01*
X131313257Y-72804222D02*
X131341828Y-72832794D01*
X131341828Y-72832794D02*
X131370400Y-72889937D01*
X131370400Y-72889937D02*
X131370400Y-72975651D01*
X131370400Y-72975651D02*
X131341828Y-73032794D01*
X131341828Y-73032794D02*
X131313257Y-73061365D01*
X131313257Y-73061365D02*
X131256114Y-73089937D01*
X131256114Y-73089937D02*
X131027543Y-73089937D01*
X131598971Y-72832794D02*
X131627543Y-72804222D01*
X131627543Y-72804222D02*
X131684686Y-72775651D01*
X131684686Y-72775651D02*
X131827543Y-72775651D01*
X131827543Y-72775651D02*
X131884686Y-72804222D01*
X131884686Y-72804222D02*
X131913257Y-72832794D01*
X131913257Y-72832794D02*
X131941828Y-72889937D01*
X131941828Y-72889937D02*
X131941828Y-72947080D01*
X131941828Y-72947080D02*
X131913257Y-73032794D01*
X131913257Y-73032794D02*
X131570400Y-73375651D01*
X131570400Y-73375651D02*
X131941828Y-73375651D01*
X128079399Y-76611051D02*
X128079399Y-77039622D01*
X128079399Y-77039622D02*
X128050828Y-77125337D01*
X128050828Y-77125337D02*
X127993685Y-77182480D01*
X127993685Y-77182480D02*
X127907971Y-77211051D01*
X127907971Y-77211051D02*
X127850828Y-77211051D01*
X128365114Y-77211051D02*
X128365114Y-76611051D01*
X128365114Y-76611051D02*
X128593685Y-76611051D01*
X128593685Y-76611051D02*
X128650828Y-76639622D01*
X128650828Y-76639622D02*
X128679399Y-76668194D01*
X128679399Y-76668194D02*
X128707971Y-76725337D01*
X128707971Y-76725337D02*
X128707971Y-76811051D01*
X128707971Y-76811051D02*
X128679399Y-76868194D01*
X128679399Y-76868194D02*
X128650828Y-76896765D01*
X128650828Y-76896765D02*
X128593685Y-76925337D01*
X128593685Y-76925337D02*
X128365114Y-76925337D01*
X129222257Y-76611051D02*
X129107971Y-76611051D01*
X129107971Y-76611051D02*
X129050828Y-76639622D01*
X129050828Y-76639622D02*
X129022257Y-76668194D01*
X129022257Y-76668194D02*
X128965114Y-76753908D01*
X128965114Y-76753908D02*
X128936542Y-76868194D01*
X128936542Y-76868194D02*
X128936542Y-77096765D01*
X128936542Y-77096765D02*
X128965114Y-77153908D01*
X128965114Y-77153908D02*
X128993685Y-77182480D01*
X128993685Y-77182480D02*
X129050828Y-77211051D01*
X129050828Y-77211051D02*
X129165114Y-77211051D01*
X129165114Y-77211051D02*
X129222257Y-77182480D01*
X129222257Y-77182480D02*
X129250828Y-77153908D01*
X129250828Y-77153908D02*
X129279399Y-77096765D01*
X129279399Y-77096765D02*
X129279399Y-76953908D01*
X129279399Y-76953908D02*
X129250828Y-76896765D01*
X129250828Y-76896765D02*
X129222257Y-76868194D01*
X129222257Y-76868194D02*
X129165114Y-76839622D01*
X129165114Y-76839622D02*
X129050828Y-76839622D01*
X129050828Y-76839622D02*
X128993685Y-76868194D01*
X128993685Y-76868194D02*
X128965114Y-76896765D01*
X128965114Y-76896765D02*
X128936542Y-76953908D01*
X135605885Y-61888508D02*
X135577313Y-61917080D01*
X135577313Y-61917080D02*
X135491599Y-61945651D01*
X135491599Y-61945651D02*
X135434456Y-61945651D01*
X135434456Y-61945651D02*
X135348742Y-61917080D01*
X135348742Y-61917080D02*
X135291599Y-61859937D01*
X135291599Y-61859937D02*
X135263028Y-61802794D01*
X135263028Y-61802794D02*
X135234456Y-61688508D01*
X135234456Y-61688508D02*
X135234456Y-61602794D01*
X135234456Y-61602794D02*
X135263028Y-61488508D01*
X135263028Y-61488508D02*
X135291599Y-61431365D01*
X135291599Y-61431365D02*
X135348742Y-61374222D01*
X135348742Y-61374222D02*
X135434456Y-61345651D01*
X135434456Y-61345651D02*
X135491599Y-61345651D01*
X135491599Y-61345651D02*
X135577313Y-61374222D01*
X135577313Y-61374222D02*
X135605885Y-61402794D01*
X136177313Y-61945651D02*
X135834456Y-61945651D01*
X136005885Y-61945651D02*
X136005885Y-61345651D01*
X136005885Y-61345651D02*
X135948742Y-61431365D01*
X135948742Y-61431365D02*
X135891599Y-61488508D01*
X135891599Y-61488508D02*
X135834456Y-61517080D01*
X136377314Y-61345651D02*
X136748742Y-61345651D01*
X136748742Y-61345651D02*
X136548742Y-61574222D01*
X136548742Y-61574222D02*
X136634457Y-61574222D01*
X136634457Y-61574222D02*
X136691600Y-61602794D01*
X136691600Y-61602794D02*
X136720171Y-61631365D01*
X136720171Y-61631365D02*
X136748742Y-61688508D01*
X136748742Y-61688508D02*
X136748742Y-61831365D01*
X136748742Y-61831365D02*
X136720171Y-61888508D01*
X136720171Y-61888508D02*
X136691600Y-61917080D01*
X136691600Y-61917080D02*
X136634457Y-61945651D01*
X136634457Y-61945651D02*
X136463028Y-61945651D01*
X136463028Y-61945651D02*
X136405885Y-61917080D01*
X136405885Y-61917080D02*
X136377314Y-61888508D01*
X128079399Y-87279051D02*
X128079399Y-87707622D01*
X128079399Y-87707622D02*
X128050828Y-87793337D01*
X128050828Y-87793337D02*
X127993685Y-87850480D01*
X127993685Y-87850480D02*
X127907971Y-87879051D01*
X127907971Y-87879051D02*
X127850828Y-87879051D01*
X128365114Y-87879051D02*
X128365114Y-87279051D01*
X128365114Y-87279051D02*
X128593685Y-87279051D01*
X128593685Y-87279051D02*
X128650828Y-87307622D01*
X128650828Y-87307622D02*
X128679399Y-87336194D01*
X128679399Y-87336194D02*
X128707971Y-87393337D01*
X128707971Y-87393337D02*
X128707971Y-87479051D01*
X128707971Y-87479051D02*
X128679399Y-87536194D01*
X128679399Y-87536194D02*
X128650828Y-87564765D01*
X128650828Y-87564765D02*
X128593685Y-87593337D01*
X128593685Y-87593337D02*
X128365114Y-87593337D01*
X129222257Y-87479051D02*
X129222257Y-87879051D01*
X129079399Y-87250480D02*
X128936542Y-87679051D01*
X128936542Y-87679051D02*
X129307971Y-87679051D01*
X144986399Y-50659051D02*
X144986399Y-51087622D01*
X144986399Y-51087622D02*
X144957828Y-51173337D01*
X144957828Y-51173337D02*
X144900685Y-51230480D01*
X144900685Y-51230480D02*
X144814971Y-51259051D01*
X144814971Y-51259051D02*
X144757828Y-51259051D01*
X145586399Y-51259051D02*
X145243542Y-51259051D01*
X145414971Y-51259051D02*
X145414971Y-50659051D01*
X145414971Y-50659051D02*
X145357828Y-50744765D01*
X145357828Y-50744765D02*
X145300685Y-50801908D01*
X145300685Y-50801908D02*
X145243542Y-50830480D01*
X142285851Y-48618599D02*
X141685851Y-48618599D01*
X141685851Y-48618599D02*
X141685851Y-48390028D01*
X141685851Y-48390028D02*
X141714422Y-48332885D01*
X141714422Y-48332885D02*
X141742994Y-48304314D01*
X141742994Y-48304314D02*
X141800137Y-48275742D01*
X141800137Y-48275742D02*
X141885851Y-48275742D01*
X141885851Y-48275742D02*
X141942994Y-48304314D01*
X141942994Y-48304314D02*
X141971565Y-48332885D01*
X141971565Y-48332885D02*
X142000137Y-48390028D01*
X142000137Y-48390028D02*
X142000137Y-48618599D01*
X142285851Y-48018599D02*
X141685851Y-48018599D01*
X141685851Y-48018599D02*
X142114422Y-47818599D01*
X142114422Y-47818599D02*
X141685851Y-47618599D01*
X141685851Y-47618599D02*
X142285851Y-47618599D01*
X141685851Y-47218600D02*
X141685851Y-47104314D01*
X141685851Y-47104314D02*
X141714422Y-47047171D01*
X141714422Y-47047171D02*
X141771565Y-46990028D01*
X141771565Y-46990028D02*
X141885851Y-46961457D01*
X141885851Y-46961457D02*
X142085851Y-46961457D01*
X142085851Y-46961457D02*
X142200137Y-46990028D01*
X142200137Y-46990028D02*
X142257280Y-47047171D01*
X142257280Y-47047171D02*
X142285851Y-47104314D01*
X142285851Y-47104314D02*
X142285851Y-47218600D01*
X142285851Y-47218600D02*
X142257280Y-47275743D01*
X142257280Y-47275743D02*
X142200137Y-47332885D01*
X142200137Y-47332885D02*
X142085851Y-47361457D01*
X142085851Y-47361457D02*
X141885851Y-47361457D01*
X141885851Y-47361457D02*
X141771565Y-47332885D01*
X141771565Y-47332885D02*
X141714422Y-47275743D01*
X141714422Y-47275743D02*
X141685851Y-47218600D01*
X142285851Y-46704314D02*
X141685851Y-46704314D01*
X141685851Y-46704314D02*
X141685851Y-46561457D01*
X141685851Y-46561457D02*
X141714422Y-46475743D01*
X141714422Y-46475743D02*
X141771565Y-46418600D01*
X141771565Y-46418600D02*
X141828708Y-46390029D01*
X141828708Y-46390029D02*
X141942994Y-46361457D01*
X141942994Y-46361457D02*
X142028708Y-46361457D01*
X142028708Y-46361457D02*
X142142994Y-46390029D01*
X142142994Y-46390029D02*
X142200137Y-46418600D01*
X142200137Y-46418600D02*
X142257280Y-46475743D01*
X142257280Y-46475743D02*
X142285851Y-46561457D01*
X142285851Y-46561457D02*
X142285851Y-46704314D01*
X142285851Y-45790029D02*
X142285851Y-46132886D01*
X142285851Y-45961457D02*
X141685851Y-45961457D01*
X141685851Y-45961457D02*
X141771565Y-46018600D01*
X141771565Y-46018600D02*
X141828708Y-46075743D01*
X141828708Y-46075743D02*
X141857280Y-46132886D01*
X126572851Y-51803200D02*
X127172851Y-51603200D01*
X127172851Y-51603200D02*
X126572851Y-51403200D01*
X127115708Y-50860342D02*
X127144280Y-50888914D01*
X127144280Y-50888914D02*
X127172851Y-50974628D01*
X127172851Y-50974628D02*
X127172851Y-51031771D01*
X127172851Y-51031771D02*
X127144280Y-51117485D01*
X127144280Y-51117485D02*
X127087137Y-51174628D01*
X127087137Y-51174628D02*
X127029994Y-51203199D01*
X127029994Y-51203199D02*
X126915708Y-51231771D01*
X126915708Y-51231771D02*
X126829994Y-51231771D01*
X126829994Y-51231771D02*
X126715708Y-51203199D01*
X126715708Y-51203199D02*
X126658565Y-51174628D01*
X126658565Y-51174628D02*
X126601422Y-51117485D01*
X126601422Y-51117485D02*
X126572851Y-51031771D01*
X126572851Y-51031771D02*
X126572851Y-50974628D01*
X126572851Y-50974628D02*
X126601422Y-50888914D01*
X126601422Y-50888914D02*
X126629994Y-50860342D01*
X127115708Y-50260342D02*
X127144280Y-50288914D01*
X127144280Y-50288914D02*
X127172851Y-50374628D01*
X127172851Y-50374628D02*
X127172851Y-50431771D01*
X127172851Y-50431771D02*
X127144280Y-50517485D01*
X127144280Y-50517485D02*
X127087137Y-50574628D01*
X127087137Y-50574628D02*
X127029994Y-50603199D01*
X127029994Y-50603199D02*
X126915708Y-50631771D01*
X126915708Y-50631771D02*
X126829994Y-50631771D01*
X126829994Y-50631771D02*
X126715708Y-50603199D01*
X126715708Y-50603199D02*
X126658565Y-50574628D01*
X126658565Y-50574628D02*
X126601422Y-50517485D01*
X126601422Y-50517485D02*
X126572851Y-50431771D01*
X126572851Y-50431771D02*
X126572851Y-50374628D01*
X126572851Y-50374628D02*
X126601422Y-50288914D01*
X126601422Y-50288914D02*
X126629994Y-50260342D01*
X129141422Y-51561942D02*
X129112851Y-51619085D01*
X129112851Y-51619085D02*
X129112851Y-51704799D01*
X129112851Y-51704799D02*
X129141422Y-51790513D01*
X129141422Y-51790513D02*
X129198565Y-51847656D01*
X129198565Y-51847656D02*
X129255708Y-51876227D01*
X129255708Y-51876227D02*
X129369994Y-51904799D01*
X129369994Y-51904799D02*
X129455708Y-51904799D01*
X129455708Y-51904799D02*
X129569994Y-51876227D01*
X129569994Y-51876227D02*
X129627137Y-51847656D01*
X129627137Y-51847656D02*
X129684280Y-51790513D01*
X129684280Y-51790513D02*
X129712851Y-51704799D01*
X129712851Y-51704799D02*
X129712851Y-51647656D01*
X129712851Y-51647656D02*
X129684280Y-51561942D01*
X129684280Y-51561942D02*
X129655708Y-51533370D01*
X129655708Y-51533370D02*
X129455708Y-51533370D01*
X129455708Y-51533370D02*
X129455708Y-51647656D01*
X129712851Y-51276227D02*
X129112851Y-51276227D01*
X129112851Y-51276227D02*
X129712851Y-50933370D01*
X129712851Y-50933370D02*
X129112851Y-50933370D01*
X129712851Y-50647656D02*
X129112851Y-50647656D01*
X129112851Y-50647656D02*
X129112851Y-50504799D01*
X129112851Y-50504799D02*
X129141422Y-50419085D01*
X129141422Y-50419085D02*
X129198565Y-50361942D01*
X129198565Y-50361942D02*
X129255708Y-50333371D01*
X129255708Y-50333371D02*
X129369994Y-50304799D01*
X129369994Y-50304799D02*
X129455708Y-50304799D01*
X129455708Y-50304799D02*
X129569994Y-50333371D01*
X129569994Y-50333371D02*
X129627137Y-50361942D01*
X129627137Y-50361942D02*
X129684280Y-50419085D01*
X129684280Y-50419085D02*
X129712851Y-50504799D01*
X129712851Y-50504799D02*
X129712851Y-50647656D01*
X136710799Y-91012851D02*
X136710799Y-91441422D01*
X136710799Y-91441422D02*
X136682228Y-91527137D01*
X136682228Y-91527137D02*
X136625085Y-91584280D01*
X136625085Y-91584280D02*
X136539371Y-91612851D01*
X136539371Y-91612851D02*
X136482228Y-91612851D01*
X136996514Y-91612851D02*
X136996514Y-91012851D01*
X136996514Y-91012851D02*
X137225085Y-91012851D01*
X137225085Y-91012851D02*
X137282228Y-91041422D01*
X137282228Y-91041422D02*
X137310799Y-91069994D01*
X137310799Y-91069994D02*
X137339371Y-91127137D01*
X137339371Y-91127137D02*
X137339371Y-91212851D01*
X137339371Y-91212851D02*
X137310799Y-91269994D01*
X137310799Y-91269994D02*
X137282228Y-91298565D01*
X137282228Y-91298565D02*
X137225085Y-91327137D01*
X137225085Y-91327137D02*
X136996514Y-91327137D01*
X137539371Y-91012851D02*
X137910799Y-91012851D01*
X137910799Y-91012851D02*
X137710799Y-91241422D01*
X137710799Y-91241422D02*
X137796514Y-91241422D01*
X137796514Y-91241422D02*
X137853657Y-91269994D01*
X137853657Y-91269994D02*
X137882228Y-91298565D01*
X137882228Y-91298565D02*
X137910799Y-91355708D01*
X137910799Y-91355708D02*
X137910799Y-91498565D01*
X137910799Y-91498565D02*
X137882228Y-91555708D01*
X137882228Y-91555708D02*
X137853657Y-91584280D01*
X137853657Y-91584280D02*
X137796514Y-91612851D01*
X137796514Y-91612851D02*
X137625085Y-91612851D01*
X137625085Y-91612851D02*
X137567942Y-91584280D01*
X137567942Y-91584280D02*
X137539371Y-91555708D01*
X128079399Y-80422051D02*
X128079399Y-80850622D01*
X128079399Y-80850622D02*
X128050828Y-80936337D01*
X128050828Y-80936337D02*
X127993685Y-80993480D01*
X127993685Y-80993480D02*
X127907971Y-81022051D01*
X127907971Y-81022051D02*
X127850828Y-81022051D01*
X128365114Y-81022051D02*
X128365114Y-80422051D01*
X128365114Y-80422051D02*
X128593685Y-80422051D01*
X128593685Y-80422051D02*
X128650828Y-80450622D01*
X128650828Y-80450622D02*
X128679399Y-80479194D01*
X128679399Y-80479194D02*
X128707971Y-80536337D01*
X128707971Y-80536337D02*
X128707971Y-80622051D01*
X128707971Y-80622051D02*
X128679399Y-80679194D01*
X128679399Y-80679194D02*
X128650828Y-80707765D01*
X128650828Y-80707765D02*
X128593685Y-80736337D01*
X128593685Y-80736337D02*
X128365114Y-80736337D01*
X128907971Y-80422051D02*
X129307971Y-80422051D01*
X129307971Y-80422051D02*
X129050828Y-81022051D01*
X128079399Y-90835051D02*
X128079399Y-91263622D01*
X128079399Y-91263622D02*
X128050828Y-91349337D01*
X128050828Y-91349337D02*
X127993685Y-91406480D01*
X127993685Y-91406480D02*
X127907971Y-91435051D01*
X127907971Y-91435051D02*
X127850828Y-91435051D01*
X128365114Y-91435051D02*
X128365114Y-90835051D01*
X128365114Y-90835051D02*
X128593685Y-90835051D01*
X128593685Y-90835051D02*
X128650828Y-90863622D01*
X128650828Y-90863622D02*
X128679399Y-90892194D01*
X128679399Y-90892194D02*
X128707971Y-90949337D01*
X128707971Y-90949337D02*
X128707971Y-91035051D01*
X128707971Y-91035051D02*
X128679399Y-91092194D01*
X128679399Y-91092194D02*
X128650828Y-91120765D01*
X128650828Y-91120765D02*
X128593685Y-91149337D01*
X128593685Y-91149337D02*
X128365114Y-91149337D01*
X128936542Y-90892194D02*
X128965114Y-90863622D01*
X128965114Y-90863622D02*
X129022257Y-90835051D01*
X129022257Y-90835051D02*
X129165114Y-90835051D01*
X129165114Y-90835051D02*
X129222257Y-90863622D01*
X129222257Y-90863622D02*
X129250828Y-90892194D01*
X129250828Y-90892194D02*
X129279399Y-90949337D01*
X129279399Y-90949337D02*
X129279399Y-91006480D01*
X129279399Y-91006480D02*
X129250828Y-91092194D01*
X129250828Y-91092194D02*
X128907971Y-91435051D01*
X128907971Y-91435051D02*
X129279399Y-91435051D01*
X121469400Y-70988051D02*
X121469400Y-70588051D01*
X121469400Y-70645194D02*
X121497971Y-70616622D01*
X121497971Y-70616622D02*
X121555114Y-70588051D01*
X121555114Y-70588051D02*
X121640828Y-70588051D01*
X121640828Y-70588051D02*
X121697971Y-70616622D01*
X121697971Y-70616622D02*
X121726543Y-70673765D01*
X121726543Y-70673765D02*
X121726543Y-70988051D01*
X121726543Y-70673765D02*
X121755114Y-70616622D01*
X121755114Y-70616622D02*
X121812257Y-70588051D01*
X121812257Y-70588051D02*
X121897971Y-70588051D01*
X121897971Y-70588051D02*
X121955114Y-70616622D01*
X121955114Y-70616622D02*
X121983685Y-70673765D01*
X121983685Y-70673765D02*
X121983685Y-70988051D01*
X122269400Y-70988051D02*
X122269400Y-70588051D01*
X122269400Y-70388051D02*
X122240828Y-70416622D01*
X122240828Y-70416622D02*
X122269400Y-70445194D01*
X122269400Y-70445194D02*
X122297971Y-70416622D01*
X122297971Y-70416622D02*
X122269400Y-70388051D01*
X122269400Y-70388051D02*
X122269400Y-70445194D01*
X122555114Y-70988051D02*
X122555114Y-70388051D01*
X122612257Y-70759480D02*
X122783685Y-70988051D01*
X122783685Y-70588051D02*
X122555114Y-70816622D01*
X123040828Y-70988051D02*
X123040828Y-70588051D01*
X123040828Y-70702337D02*
X123069399Y-70645194D01*
X123069399Y-70645194D02*
X123097971Y-70616622D01*
X123097971Y-70616622D02*
X123155113Y-70588051D01*
X123155113Y-70588051D02*
X123212256Y-70588051D01*
X123497971Y-70988051D02*
X123440828Y-70959480D01*
X123440828Y-70959480D02*
X123412257Y-70930908D01*
X123412257Y-70930908D02*
X123383685Y-70873765D01*
X123383685Y-70873765D02*
X123383685Y-70702337D01*
X123383685Y-70702337D02*
X123412257Y-70645194D01*
X123412257Y-70645194D02*
X123440828Y-70616622D01*
X123440828Y-70616622D02*
X123497971Y-70588051D01*
X123497971Y-70588051D02*
X123583685Y-70588051D01*
X123583685Y-70588051D02*
X123640828Y-70616622D01*
X123640828Y-70616622D02*
X123669400Y-70645194D01*
X123669400Y-70645194D02*
X123697971Y-70702337D01*
X123697971Y-70702337D02*
X123697971Y-70873765D01*
X123697971Y-70873765D02*
X123669400Y-70930908D01*
X123669400Y-70930908D02*
X123640828Y-70959480D01*
X123640828Y-70959480D02*
X123583685Y-70988051D01*
X123583685Y-70988051D02*
X123497971Y-70988051D01*
X124155114Y-70673765D02*
X124240828Y-70702337D01*
X124240828Y-70702337D02*
X124269399Y-70730908D01*
X124269399Y-70730908D02*
X124297971Y-70788051D01*
X124297971Y-70788051D02*
X124297971Y-70873765D01*
X124297971Y-70873765D02*
X124269399Y-70930908D01*
X124269399Y-70930908D02*
X124240828Y-70959480D01*
X124240828Y-70959480D02*
X124183685Y-70988051D01*
X124183685Y-70988051D02*
X123955114Y-70988051D01*
X123955114Y-70988051D02*
X123955114Y-70388051D01*
X123955114Y-70388051D02*
X124155114Y-70388051D01*
X124155114Y-70388051D02*
X124212257Y-70416622D01*
X124212257Y-70416622D02*
X124240828Y-70445194D01*
X124240828Y-70445194D02*
X124269399Y-70502337D01*
X124269399Y-70502337D02*
X124269399Y-70559480D01*
X124269399Y-70559480D02*
X124240828Y-70616622D01*
X124240828Y-70616622D02*
X124212257Y-70645194D01*
X124212257Y-70645194D02*
X124155114Y-70673765D01*
X124155114Y-70673765D02*
X123955114Y-70673765D01*
X124555114Y-70388051D02*
X124555114Y-70873765D01*
X124555114Y-70873765D02*
X124583685Y-70930908D01*
X124583685Y-70930908D02*
X124612257Y-70959480D01*
X124612257Y-70959480D02*
X124669399Y-70988051D01*
X124669399Y-70988051D02*
X124783685Y-70988051D01*
X124783685Y-70988051D02*
X124840828Y-70959480D01*
X124840828Y-70959480D02*
X124869399Y-70930908D01*
X124869399Y-70930908D02*
X124897971Y-70873765D01*
X124897971Y-70873765D02*
X124897971Y-70388051D01*
X125155113Y-70959480D02*
X125240828Y-70988051D01*
X125240828Y-70988051D02*
X125383685Y-70988051D01*
X125383685Y-70988051D02*
X125440828Y-70959480D01*
X125440828Y-70959480D02*
X125469399Y-70930908D01*
X125469399Y-70930908D02*
X125497970Y-70873765D01*
X125497970Y-70873765D02*
X125497970Y-70816622D01*
X125497970Y-70816622D02*
X125469399Y-70759480D01*
X125469399Y-70759480D02*
X125440828Y-70730908D01*
X125440828Y-70730908D02*
X125383685Y-70702337D01*
X125383685Y-70702337D02*
X125269399Y-70673765D01*
X125269399Y-70673765D02*
X125212256Y-70645194D01*
X125212256Y-70645194D02*
X125183685Y-70616622D01*
X125183685Y-70616622D02*
X125155113Y-70559480D01*
X125155113Y-70559480D02*
X125155113Y-70502337D01*
X125155113Y-70502337D02*
X125183685Y-70445194D01*
X125183685Y-70445194D02*
X125212256Y-70416622D01*
X125212256Y-70416622D02*
X125269399Y-70388051D01*
X125269399Y-70388051D02*
X125412256Y-70388051D01*
X125412256Y-70388051D02*
X125497970Y-70416622D01*
X123872257Y-70221480D02*
X125552257Y-70221480D01*
X123139257Y-74136622D02*
X123424972Y-74136622D01*
X123082114Y-74308051D02*
X123282114Y-73708051D01*
X123282114Y-73708051D02*
X123482114Y-74308051D01*
X123682115Y-74308051D02*
X123682115Y-73708051D01*
X123682115Y-73708051D02*
X124024972Y-74308051D01*
X124024972Y-74308051D02*
X124024972Y-73708051D01*
X141214277Y-77211051D02*
X141214277Y-76611051D01*
X141499991Y-77211051D02*
X141499991Y-76611051D01*
X141499991Y-76611051D02*
X141842848Y-77211051D01*
X141842848Y-77211051D02*
X141842848Y-76611051D01*
X142042847Y-76611051D02*
X142385705Y-76611051D01*
X142214276Y-77211051D02*
X142214276Y-76611051D01*
X140787543Y-74163051D02*
X140787543Y-73563051D01*
X140787543Y-73563051D02*
X141016114Y-73563051D01*
X141016114Y-73563051D02*
X141073257Y-73591622D01*
X141073257Y-73591622D02*
X141101828Y-73620194D01*
X141101828Y-73620194D02*
X141130400Y-73677337D01*
X141130400Y-73677337D02*
X141130400Y-73763051D01*
X141130400Y-73763051D02*
X141101828Y-73820194D01*
X141101828Y-73820194D02*
X141073257Y-73848765D01*
X141073257Y-73848765D02*
X141016114Y-73877337D01*
X141016114Y-73877337D02*
X140787543Y-73877337D01*
X141330400Y-73563051D02*
X141473257Y-74163051D01*
X141473257Y-74163051D02*
X141587543Y-73734480D01*
X141587543Y-73734480D02*
X141701828Y-74163051D01*
X141701828Y-74163051D02*
X141844686Y-73563051D01*
X142073257Y-74163051D02*
X142073257Y-73563051D01*
X142073257Y-73563051D02*
X142273257Y-73991622D01*
X142273257Y-73991622D02*
X142473257Y-73563051D01*
X142473257Y-73563051D02*
X142473257Y-74163051D01*
X123078971Y-81881480D02*
X123164686Y-81910051D01*
X123164686Y-81910051D02*
X123307543Y-81910051D01*
X123307543Y-81910051D02*
X123364686Y-81881480D01*
X123364686Y-81881480D02*
X123393257Y-81852908D01*
X123393257Y-81852908D02*
X123421828Y-81795765D01*
X123421828Y-81795765D02*
X123421828Y-81738622D01*
X123421828Y-81738622D02*
X123393257Y-81681480D01*
X123393257Y-81681480D02*
X123364686Y-81652908D01*
X123364686Y-81652908D02*
X123307543Y-81624337D01*
X123307543Y-81624337D02*
X123193257Y-81595765D01*
X123193257Y-81595765D02*
X123136114Y-81567194D01*
X123136114Y-81567194D02*
X123107543Y-81538622D01*
X123107543Y-81538622D02*
X123078971Y-81481480D01*
X123078971Y-81481480D02*
X123078971Y-81424337D01*
X123078971Y-81424337D02*
X123107543Y-81367194D01*
X123107543Y-81367194D02*
X123136114Y-81338622D01*
X123136114Y-81338622D02*
X123193257Y-81310051D01*
X123193257Y-81310051D02*
X123336114Y-81310051D01*
X123336114Y-81310051D02*
X123421828Y-81338622D01*
X124021829Y-81852908D02*
X123993257Y-81881480D01*
X123993257Y-81881480D02*
X123907543Y-81910051D01*
X123907543Y-81910051D02*
X123850400Y-81910051D01*
X123850400Y-81910051D02*
X123764686Y-81881480D01*
X123764686Y-81881480D02*
X123707543Y-81824337D01*
X123707543Y-81824337D02*
X123678972Y-81767194D01*
X123678972Y-81767194D02*
X123650400Y-81652908D01*
X123650400Y-81652908D02*
X123650400Y-81567194D01*
X123650400Y-81567194D02*
X123678972Y-81452908D01*
X123678972Y-81452908D02*
X123707543Y-81395765D01*
X123707543Y-81395765D02*
X123764686Y-81338622D01*
X123764686Y-81338622D02*
X123850400Y-81310051D01*
X123850400Y-81310051D02*
X123907543Y-81310051D01*
X123907543Y-81310051D02*
X123993257Y-81338622D01*
X123993257Y-81338622D02*
X124021829Y-81367194D01*
X124278972Y-81910051D02*
X124278972Y-81310051D01*
X124621829Y-81910051D02*
X124364686Y-81567194D01*
X124621829Y-81310051D02*
X124278972Y-81652908D01*
X122920257Y-89301480D02*
X123377400Y-89301480D01*
X123148828Y-89530051D02*
X123148828Y-89072908D01*
X123605971Y-88930051D02*
X123977399Y-88930051D01*
X123977399Y-88930051D02*
X123777399Y-89158622D01*
X123777399Y-89158622D02*
X123863114Y-89158622D01*
X123863114Y-89158622D02*
X123920257Y-89187194D01*
X123920257Y-89187194D02*
X123948828Y-89215765D01*
X123948828Y-89215765D02*
X123977399Y-89272908D01*
X123977399Y-89272908D02*
X123977399Y-89415765D01*
X123977399Y-89415765D02*
X123948828Y-89472908D01*
X123948828Y-89472908D02*
X123920257Y-89501480D01*
X123920257Y-89501480D02*
X123863114Y-89530051D01*
X123863114Y-89530051D02*
X123691685Y-89530051D01*
X123691685Y-89530051D02*
X123634542Y-89501480D01*
X123634542Y-89501480D02*
X123605971Y-89472908D01*
X124148828Y-88930051D02*
X124348828Y-89530051D01*
X124348828Y-89530051D02*
X124548828Y-88930051D01*
X124691686Y-88930051D02*
X125063114Y-88930051D01*
X125063114Y-88930051D02*
X124863114Y-89158622D01*
X124863114Y-89158622D02*
X124948829Y-89158622D01*
X124948829Y-89158622D02*
X125005972Y-89187194D01*
X125005972Y-89187194D02*
X125034543Y-89215765D01*
X125034543Y-89215765D02*
X125063114Y-89272908D01*
X125063114Y-89272908D02*
X125063114Y-89415765D01*
X125063114Y-89415765D02*
X125034543Y-89472908D01*
X125034543Y-89472908D02*
X125005972Y-89501480D01*
X125005972Y-89501480D02*
X124948829Y-89530051D01*
X124948829Y-89530051D02*
X124777400Y-89530051D01*
X124777400Y-89530051D02*
X124720257Y-89501480D01*
X124720257Y-89501480D02*
X124691686Y-89472908D01*
X123034543Y-86990051D02*
X123034543Y-86390051D01*
X123034543Y-86390051D02*
X123234543Y-86818622D01*
X123234543Y-86818622D02*
X123434543Y-86390051D01*
X123434543Y-86390051D02*
X123434543Y-86990051D01*
X123834542Y-86390051D02*
X123948828Y-86390051D01*
X123948828Y-86390051D02*
X124005971Y-86418622D01*
X124005971Y-86418622D02*
X124063114Y-86475765D01*
X124063114Y-86475765D02*
X124091685Y-86590051D01*
X124091685Y-86590051D02*
X124091685Y-86790051D01*
X124091685Y-86790051D02*
X124063114Y-86904337D01*
X124063114Y-86904337D02*
X124005971Y-86961480D01*
X124005971Y-86961480D02*
X123948828Y-86990051D01*
X123948828Y-86990051D02*
X123834542Y-86990051D01*
X123834542Y-86990051D02*
X123777400Y-86961480D01*
X123777400Y-86961480D02*
X123720257Y-86904337D01*
X123720257Y-86904337D02*
X123691685Y-86790051D01*
X123691685Y-86790051D02*
X123691685Y-86590051D01*
X123691685Y-86590051D02*
X123720257Y-86475765D01*
X123720257Y-86475765D02*
X123777400Y-86418622D01*
X123777400Y-86418622D02*
X123834542Y-86390051D01*
X124320256Y-86961480D02*
X124405971Y-86990051D01*
X124405971Y-86990051D02*
X124548828Y-86990051D01*
X124548828Y-86990051D02*
X124605971Y-86961480D01*
X124605971Y-86961480D02*
X124634542Y-86932908D01*
X124634542Y-86932908D02*
X124663113Y-86875765D01*
X124663113Y-86875765D02*
X124663113Y-86818622D01*
X124663113Y-86818622D02*
X124634542Y-86761480D01*
X124634542Y-86761480D02*
X124605971Y-86732908D01*
X124605971Y-86732908D02*
X124548828Y-86704337D01*
X124548828Y-86704337D02*
X124434542Y-86675765D01*
X124434542Y-86675765D02*
X124377399Y-86647194D01*
X124377399Y-86647194D02*
X124348828Y-86618622D01*
X124348828Y-86618622D02*
X124320256Y-86561480D01*
X124320256Y-86561480D02*
X124320256Y-86504337D01*
X124320256Y-86504337D02*
X124348828Y-86447194D01*
X124348828Y-86447194D02*
X124377399Y-86418622D01*
X124377399Y-86418622D02*
X124434542Y-86390051D01*
X124434542Y-86390051D02*
X124577399Y-86390051D01*
X124577399Y-86390051D02*
X124663113Y-86418622D01*
X124920257Y-86990051D02*
X124920257Y-86390051D01*
X123394828Y-76830051D02*
X123194828Y-76544337D01*
X123051971Y-76830051D02*
X123051971Y-76230051D01*
X123051971Y-76230051D02*
X123280542Y-76230051D01*
X123280542Y-76230051D02*
X123337685Y-76258622D01*
X123337685Y-76258622D02*
X123366256Y-76287194D01*
X123366256Y-76287194D02*
X123394828Y-76344337D01*
X123394828Y-76344337D02*
X123394828Y-76430051D01*
X123394828Y-76430051D02*
X123366256Y-76487194D01*
X123366256Y-76487194D02*
X123337685Y-76515765D01*
X123337685Y-76515765D02*
X123280542Y-76544337D01*
X123280542Y-76544337D02*
X123051971Y-76544337D01*
X123623399Y-76801480D02*
X123709114Y-76830051D01*
X123709114Y-76830051D02*
X123851971Y-76830051D01*
X123851971Y-76830051D02*
X123909114Y-76801480D01*
X123909114Y-76801480D02*
X123937685Y-76772908D01*
X123937685Y-76772908D02*
X123966256Y-76715765D01*
X123966256Y-76715765D02*
X123966256Y-76658622D01*
X123966256Y-76658622D02*
X123937685Y-76601480D01*
X123937685Y-76601480D02*
X123909114Y-76572908D01*
X123909114Y-76572908D02*
X123851971Y-76544337D01*
X123851971Y-76544337D02*
X123737685Y-76515765D01*
X123737685Y-76515765D02*
X123680542Y-76487194D01*
X123680542Y-76487194D02*
X123651971Y-76458622D01*
X123651971Y-76458622D02*
X123623399Y-76401480D01*
X123623399Y-76401480D02*
X123623399Y-76344337D01*
X123623399Y-76344337D02*
X123651971Y-76287194D01*
X123651971Y-76287194D02*
X123680542Y-76258622D01*
X123680542Y-76258622D02*
X123737685Y-76230051D01*
X123737685Y-76230051D02*
X123880542Y-76230051D01*
X123880542Y-76230051D02*
X123966256Y-76258622D01*
X124137685Y-76230051D02*
X124480543Y-76230051D01*
X124309114Y-76830051D02*
X124309114Y-76230051D01*
X141172991Y-91244622D02*
X141115849Y-91216051D01*
X141115849Y-91216051D02*
X141030134Y-91216051D01*
X141030134Y-91216051D02*
X140944420Y-91244622D01*
X140944420Y-91244622D02*
X140887277Y-91301765D01*
X140887277Y-91301765D02*
X140858706Y-91358908D01*
X140858706Y-91358908D02*
X140830134Y-91473194D01*
X140830134Y-91473194D02*
X140830134Y-91558908D01*
X140830134Y-91558908D02*
X140858706Y-91673194D01*
X140858706Y-91673194D02*
X140887277Y-91730337D01*
X140887277Y-91730337D02*
X140944420Y-91787480D01*
X140944420Y-91787480D02*
X141030134Y-91816051D01*
X141030134Y-91816051D02*
X141087277Y-91816051D01*
X141087277Y-91816051D02*
X141172991Y-91787480D01*
X141172991Y-91787480D02*
X141201563Y-91758908D01*
X141201563Y-91758908D02*
X141201563Y-91558908D01*
X141201563Y-91558908D02*
X141087277Y-91558908D01*
X141458706Y-91816051D02*
X141458706Y-91216051D01*
X141458706Y-91216051D02*
X141801563Y-91816051D01*
X141801563Y-91816051D02*
X141801563Y-91216051D01*
X142087277Y-91816051D02*
X142087277Y-91216051D01*
X142087277Y-91216051D02*
X142230134Y-91216051D01*
X142230134Y-91216051D02*
X142315848Y-91244622D01*
X142315848Y-91244622D02*
X142372991Y-91301765D01*
X142372991Y-91301765D02*
X142401562Y-91358908D01*
X142401562Y-91358908D02*
X142430134Y-91473194D01*
X142430134Y-91473194D02*
X142430134Y-91558908D01*
X142430134Y-91558908D02*
X142401562Y-91673194D01*
X142401562Y-91673194D02*
X142372991Y-91730337D01*
X142372991Y-91730337D02*
X142315848Y-91787480D01*
X142315848Y-91787480D02*
X142230134Y-91816051D01*
X142230134Y-91816051D02*
X142087277Y-91816051D01*
X140901828Y-86707480D02*
X140987543Y-86736051D01*
X140987543Y-86736051D02*
X141130400Y-86736051D01*
X141130400Y-86736051D02*
X141187543Y-86707480D01*
X141187543Y-86707480D02*
X141216114Y-86678908D01*
X141216114Y-86678908D02*
X141244685Y-86621765D01*
X141244685Y-86621765D02*
X141244685Y-86564622D01*
X141244685Y-86564622D02*
X141216114Y-86507480D01*
X141216114Y-86507480D02*
X141187543Y-86478908D01*
X141187543Y-86478908D02*
X141130400Y-86450337D01*
X141130400Y-86450337D02*
X141016114Y-86421765D01*
X141016114Y-86421765D02*
X140958971Y-86393194D01*
X140958971Y-86393194D02*
X140930400Y-86364622D01*
X140930400Y-86364622D02*
X140901828Y-86307480D01*
X140901828Y-86307480D02*
X140901828Y-86250337D01*
X140901828Y-86250337D02*
X140930400Y-86193194D01*
X140930400Y-86193194D02*
X140958971Y-86164622D01*
X140958971Y-86164622D02*
X141016114Y-86136051D01*
X141016114Y-86136051D02*
X141158971Y-86136051D01*
X141158971Y-86136051D02*
X141244685Y-86164622D01*
X141501829Y-86736051D02*
X141501829Y-86136051D01*
X141501829Y-86136051D02*
X141644686Y-86136051D01*
X141644686Y-86136051D02*
X141730400Y-86164622D01*
X141730400Y-86164622D02*
X141787543Y-86221765D01*
X141787543Y-86221765D02*
X141816114Y-86278908D01*
X141816114Y-86278908D02*
X141844686Y-86393194D01*
X141844686Y-86393194D02*
X141844686Y-86478908D01*
X141844686Y-86478908D02*
X141816114Y-86593194D01*
X141816114Y-86593194D02*
X141787543Y-86650337D01*
X141787543Y-86650337D02*
X141730400Y-86707480D01*
X141730400Y-86707480D02*
X141644686Y-86736051D01*
X141644686Y-86736051D02*
X141501829Y-86736051D01*
X142073257Y-86564622D02*
X142358972Y-86564622D01*
X142016114Y-86736051D02*
X142216114Y-86136051D01*
X142216114Y-86136051D02*
X142416114Y-86736051D01*
X140985705Y-89174480D02*
X141442848Y-89174480D01*
X141214276Y-89403051D02*
X141214276Y-88945908D01*
X142014276Y-88803051D02*
X141728562Y-88803051D01*
X141728562Y-88803051D02*
X141699990Y-89088765D01*
X141699990Y-89088765D02*
X141728562Y-89060194D01*
X141728562Y-89060194D02*
X141785705Y-89031622D01*
X141785705Y-89031622D02*
X141928562Y-89031622D01*
X141928562Y-89031622D02*
X141985705Y-89060194D01*
X141985705Y-89060194D02*
X142014276Y-89088765D01*
X142014276Y-89088765D02*
X142042847Y-89145908D01*
X142042847Y-89145908D02*
X142042847Y-89288765D01*
X142042847Y-89288765D02*
X142014276Y-89345908D01*
X142014276Y-89345908D02*
X141985705Y-89374480D01*
X141985705Y-89374480D02*
X141928562Y-89403051D01*
X141928562Y-89403051D02*
X141785705Y-89403051D01*
X141785705Y-89403051D02*
X141728562Y-89374480D01*
X141728562Y-89374480D02*
X141699990Y-89345908D01*
X142214276Y-88803051D02*
X142414276Y-89403051D01*
X142414276Y-89403051D02*
X142614276Y-88803051D01*
X123034543Y-84468051D02*
X123034543Y-83868051D01*
X123034543Y-83868051D02*
X123234543Y-84296622D01*
X123234543Y-84296622D02*
X123434543Y-83868051D01*
X123434543Y-83868051D02*
X123434543Y-84468051D01*
X123720257Y-84468051D02*
X123720257Y-83868051D01*
X123977399Y-84439480D02*
X124063114Y-84468051D01*
X124063114Y-84468051D02*
X124205971Y-84468051D01*
X124205971Y-84468051D02*
X124263114Y-84439480D01*
X124263114Y-84439480D02*
X124291685Y-84410908D01*
X124291685Y-84410908D02*
X124320256Y-84353765D01*
X124320256Y-84353765D02*
X124320256Y-84296622D01*
X124320256Y-84296622D02*
X124291685Y-84239480D01*
X124291685Y-84239480D02*
X124263114Y-84210908D01*
X124263114Y-84210908D02*
X124205971Y-84182337D01*
X124205971Y-84182337D02*
X124091685Y-84153765D01*
X124091685Y-84153765D02*
X124034542Y-84125194D01*
X124034542Y-84125194D02*
X124005971Y-84096622D01*
X124005971Y-84096622D02*
X123977399Y-84039480D01*
X123977399Y-84039480D02*
X123977399Y-83982337D01*
X123977399Y-83982337D02*
X124005971Y-83925194D01*
X124005971Y-83925194D02*
X124034542Y-83896622D01*
X124034542Y-83896622D02*
X124091685Y-83868051D01*
X124091685Y-83868051D02*
X124234542Y-83868051D01*
X124234542Y-83868051D02*
X124320256Y-83896622D01*
X124691685Y-83868051D02*
X124805971Y-83868051D01*
X124805971Y-83868051D02*
X124863114Y-83896622D01*
X124863114Y-83896622D02*
X124920257Y-83953765D01*
X124920257Y-83953765D02*
X124948828Y-84068051D01*
X124948828Y-84068051D02*
X124948828Y-84268051D01*
X124948828Y-84268051D02*
X124920257Y-84382337D01*
X124920257Y-84382337D02*
X124863114Y-84439480D01*
X124863114Y-84439480D02*
X124805971Y-84468051D01*
X124805971Y-84468051D02*
X124691685Y-84468051D01*
X124691685Y-84468051D02*
X124634543Y-84439480D01*
X124634543Y-84439480D02*
X124577400Y-84382337D01*
X124577400Y-84382337D02*
X124548828Y-84268051D01*
X124548828Y-84268051D02*
X124548828Y-84068051D01*
X124548828Y-84068051D02*
X124577400Y-83953765D01*
X124577400Y-83953765D02*
X124634543Y-83896622D01*
X124634543Y-83896622D02*
X124691685Y-83868051D01*
X141426990Y-81310051D02*
X141769848Y-81310051D01*
X141598419Y-81910051D02*
X141598419Y-81310051D01*
X141912705Y-81310051D02*
X142312705Y-81910051D01*
X142312705Y-81310051D02*
X141912705Y-81910051D01*
X141043114Y-84167480D02*
X141128829Y-84196051D01*
X141128829Y-84196051D02*
X141271686Y-84196051D01*
X141271686Y-84196051D02*
X141328829Y-84167480D01*
X141328829Y-84167480D02*
X141357400Y-84138908D01*
X141357400Y-84138908D02*
X141385971Y-84081765D01*
X141385971Y-84081765D02*
X141385971Y-84024622D01*
X141385971Y-84024622D02*
X141357400Y-83967480D01*
X141357400Y-83967480D02*
X141328829Y-83938908D01*
X141328829Y-83938908D02*
X141271686Y-83910337D01*
X141271686Y-83910337D02*
X141157400Y-83881765D01*
X141157400Y-83881765D02*
X141100257Y-83853194D01*
X141100257Y-83853194D02*
X141071686Y-83824622D01*
X141071686Y-83824622D02*
X141043114Y-83767480D01*
X141043114Y-83767480D02*
X141043114Y-83710337D01*
X141043114Y-83710337D02*
X141071686Y-83653194D01*
X141071686Y-83653194D02*
X141100257Y-83624622D01*
X141100257Y-83624622D02*
X141157400Y-83596051D01*
X141157400Y-83596051D02*
X141300257Y-83596051D01*
X141300257Y-83596051D02*
X141385971Y-83624622D01*
X141985972Y-84138908D02*
X141957400Y-84167480D01*
X141957400Y-84167480D02*
X141871686Y-84196051D01*
X141871686Y-84196051D02*
X141814543Y-84196051D01*
X141814543Y-84196051D02*
X141728829Y-84167480D01*
X141728829Y-84167480D02*
X141671686Y-84110337D01*
X141671686Y-84110337D02*
X141643115Y-84053194D01*
X141643115Y-84053194D02*
X141614543Y-83938908D01*
X141614543Y-83938908D02*
X141614543Y-83853194D01*
X141614543Y-83853194D02*
X141643115Y-83738908D01*
X141643115Y-83738908D02*
X141671686Y-83681765D01*
X141671686Y-83681765D02*
X141728829Y-83624622D01*
X141728829Y-83624622D02*
X141814543Y-83596051D01*
X141814543Y-83596051D02*
X141871686Y-83596051D01*
X141871686Y-83596051D02*
X141957400Y-83624622D01*
X141957400Y-83624622D02*
X141985972Y-83653194D01*
X142528829Y-84196051D02*
X142243115Y-84196051D01*
X142243115Y-84196051D02*
X142243115Y-83596051D01*
X141784134Y-79116051D02*
X141584134Y-78830337D01*
X141441277Y-79116051D02*
X141441277Y-78516051D01*
X141441277Y-78516051D02*
X141669848Y-78516051D01*
X141669848Y-78516051D02*
X141726991Y-78544622D01*
X141726991Y-78544622D02*
X141755562Y-78573194D01*
X141755562Y-78573194D02*
X141784134Y-78630337D01*
X141784134Y-78630337D02*
X141784134Y-78716051D01*
X141784134Y-78716051D02*
X141755562Y-78773194D01*
X141755562Y-78773194D02*
X141726991Y-78801765D01*
X141726991Y-78801765D02*
X141669848Y-78830337D01*
X141669848Y-78830337D02*
X141441277Y-78830337D01*
X141984134Y-78516051D02*
X142384134Y-79116051D01*
X142384134Y-78516051D02*
X141984134Y-79116051D01*
X123496400Y-79312908D02*
X123467828Y-79341480D01*
X123467828Y-79341480D02*
X123382114Y-79370051D01*
X123382114Y-79370051D02*
X123324971Y-79370051D01*
X123324971Y-79370051D02*
X123239257Y-79341480D01*
X123239257Y-79341480D02*
X123182114Y-79284337D01*
X123182114Y-79284337D02*
X123153543Y-79227194D01*
X123153543Y-79227194D02*
X123124971Y-79112908D01*
X123124971Y-79112908D02*
X123124971Y-79027194D01*
X123124971Y-79027194D02*
X123153543Y-78912908D01*
X123153543Y-78912908D02*
X123182114Y-78855765D01*
X123182114Y-78855765D02*
X123239257Y-78798622D01*
X123239257Y-78798622D02*
X123324971Y-78770051D01*
X123324971Y-78770051D02*
X123382114Y-78770051D01*
X123382114Y-78770051D02*
X123467828Y-78798622D01*
X123467828Y-78798622D02*
X123496400Y-78827194D01*
X123724971Y-79341480D02*
X123810686Y-79370051D01*
X123810686Y-79370051D02*
X123953543Y-79370051D01*
X123953543Y-79370051D02*
X124010686Y-79341480D01*
X124010686Y-79341480D02*
X124039257Y-79312908D01*
X124039257Y-79312908D02*
X124067828Y-79255765D01*
X124067828Y-79255765D02*
X124067828Y-79198622D01*
X124067828Y-79198622D02*
X124039257Y-79141480D01*
X124039257Y-79141480D02*
X124010686Y-79112908D01*
X124010686Y-79112908D02*
X123953543Y-79084337D01*
X123953543Y-79084337D02*
X123839257Y-79055765D01*
X123839257Y-79055765D02*
X123782114Y-79027194D01*
X123782114Y-79027194D02*
X123753543Y-78998622D01*
X123753543Y-78998622D02*
X123724971Y-78941480D01*
X123724971Y-78941480D02*
X123724971Y-78884337D01*
X123724971Y-78884337D02*
X123753543Y-78827194D01*
X123753543Y-78827194D02*
X123782114Y-78798622D01*
X123782114Y-78798622D02*
X123839257Y-78770051D01*
X123839257Y-78770051D02*
X123982114Y-78770051D01*
X123982114Y-78770051D02*
X124067828Y-78798622D01*
X140971600Y-61132851D02*
X140771600Y-60847137D01*
X140628743Y-61132851D02*
X140628743Y-60532851D01*
X140628743Y-60532851D02*
X140857314Y-60532851D01*
X140857314Y-60532851D02*
X140914457Y-60561422D01*
X140914457Y-60561422D02*
X140943028Y-60589994D01*
X140943028Y-60589994D02*
X140971600Y-60647137D01*
X140971600Y-60647137D02*
X140971600Y-60732851D01*
X140971600Y-60732851D02*
X140943028Y-60789994D01*
X140943028Y-60789994D02*
X140914457Y-60818565D01*
X140914457Y-60818565D02*
X140857314Y-60847137D01*
X140857314Y-60847137D02*
X140628743Y-60847137D01*
X141543028Y-61132851D02*
X141200171Y-61132851D01*
X141371600Y-61132851D02*
X141371600Y-60532851D01*
X141371600Y-60532851D02*
X141314457Y-60618565D01*
X141314457Y-60618565D02*
X141257314Y-60675708D01*
X141257314Y-60675708D02*
X141200171Y-60704280D01*
X135180400Y-73375651D02*
X134980400Y-73089937D01*
X134837543Y-73375651D02*
X134837543Y-72775651D01*
X134837543Y-72775651D02*
X135066114Y-72775651D01*
X135066114Y-72775651D02*
X135123257Y-72804222D01*
X135123257Y-72804222D02*
X135151828Y-72832794D01*
X135151828Y-72832794D02*
X135180400Y-72889937D01*
X135180400Y-72889937D02*
X135180400Y-72975651D01*
X135180400Y-72975651D02*
X135151828Y-73032794D01*
X135151828Y-73032794D02*
X135123257Y-73061365D01*
X135123257Y-73061365D02*
X135066114Y-73089937D01*
X135066114Y-73089937D02*
X134837543Y-73089937D01*
X135380400Y-72775651D02*
X135751828Y-72775651D01*
X135751828Y-72775651D02*
X135551828Y-73004222D01*
X135551828Y-73004222D02*
X135637543Y-73004222D01*
X135637543Y-73004222D02*
X135694686Y-73032794D01*
X135694686Y-73032794D02*
X135723257Y-73061365D01*
X135723257Y-73061365D02*
X135751828Y-73118508D01*
X135751828Y-73118508D02*
X135751828Y-73261365D01*
X135751828Y-73261365D02*
X135723257Y-73318508D01*
X135723257Y-73318508D02*
X135694686Y-73347080D01*
X135694686Y-73347080D02*
X135637543Y-73375651D01*
X135637543Y-73375651D02*
X135466114Y-73375651D01*
X135466114Y-73375651D02*
X135408971Y-73347080D01*
X135408971Y-73347080D02*
X135380400Y-73318508D01*
X134278285Y-52636308D02*
X134249713Y-52664880D01*
X134249713Y-52664880D02*
X134163999Y-52693451D01*
X134163999Y-52693451D02*
X134106856Y-52693451D01*
X134106856Y-52693451D02*
X134021142Y-52664880D01*
X134021142Y-52664880D02*
X133963999Y-52607737D01*
X133963999Y-52607737D02*
X133935428Y-52550594D01*
X133935428Y-52550594D02*
X133906856Y-52436308D01*
X133906856Y-52436308D02*
X133906856Y-52350594D01*
X133906856Y-52350594D02*
X133935428Y-52236308D01*
X133935428Y-52236308D02*
X133963999Y-52179165D01*
X133963999Y-52179165D02*
X134021142Y-52122022D01*
X134021142Y-52122022D02*
X134106856Y-52093451D01*
X134106856Y-52093451D02*
X134163999Y-52093451D01*
X134163999Y-52093451D02*
X134249713Y-52122022D01*
X134249713Y-52122022D02*
X134278285Y-52150594D01*
X134849713Y-52693451D02*
X134506856Y-52693451D01*
X134678285Y-52693451D02*
X134678285Y-52093451D01*
X134678285Y-52093451D02*
X134621142Y-52179165D01*
X134621142Y-52179165D02*
X134563999Y-52236308D01*
X134563999Y-52236308D02*
X134506856Y-52264880D01*
X135364000Y-52293451D02*
X135364000Y-52693451D01*
X135221142Y-52064880D02*
X135078285Y-52493451D01*
X135078285Y-52493451D02*
X135449714Y-52493451D01*
X126117308Y-63885714D02*
X126145880Y-63914286D01*
X126145880Y-63914286D02*
X126174451Y-64000000D01*
X126174451Y-64000000D02*
X126174451Y-64057143D01*
X126174451Y-64057143D02*
X126145880Y-64142857D01*
X126145880Y-64142857D02*
X126088737Y-64200000D01*
X126088737Y-64200000D02*
X126031594Y-64228571D01*
X126031594Y-64228571D02*
X125917308Y-64257143D01*
X125917308Y-64257143D02*
X125831594Y-64257143D01*
X125831594Y-64257143D02*
X125717308Y-64228571D01*
X125717308Y-64228571D02*
X125660165Y-64200000D01*
X125660165Y-64200000D02*
X125603022Y-64142857D01*
X125603022Y-64142857D02*
X125574451Y-64057143D01*
X125574451Y-64057143D02*
X125574451Y-64000000D01*
X125574451Y-64000000D02*
X125603022Y-63914286D01*
X125603022Y-63914286D02*
X125631594Y-63885714D01*
X126174451Y-63314286D02*
X126174451Y-63657143D01*
X126174451Y-63485714D02*
X125574451Y-63485714D01*
X125574451Y-63485714D02*
X125660165Y-63542857D01*
X125660165Y-63542857D02*
X125717308Y-63600000D01*
X125717308Y-63600000D02*
X125745880Y-63657143D01*
X125631594Y-63085714D02*
X125603022Y-63057142D01*
X125603022Y-63057142D02*
X125574451Y-63000000D01*
X125574451Y-63000000D02*
X125574451Y-62857142D01*
X125574451Y-62857142D02*
X125603022Y-62800000D01*
X125603022Y-62800000D02*
X125631594Y-62771428D01*
X125631594Y-62771428D02*
X125688737Y-62742857D01*
X125688737Y-62742857D02*
X125745880Y-62742857D01*
X125745880Y-62742857D02*
X125831594Y-62771428D01*
X125831594Y-62771428D02*
X126174451Y-63114285D01*
X126174451Y-63114285D02*
X126174451Y-62742857D01*
X140990685Y-51931708D02*
X140962113Y-51960280D01*
X140962113Y-51960280D02*
X140876399Y-51988851D01*
X140876399Y-51988851D02*
X140819256Y-51988851D01*
X140819256Y-51988851D02*
X140733542Y-51960280D01*
X140733542Y-51960280D02*
X140676399Y-51903137D01*
X140676399Y-51903137D02*
X140647828Y-51845994D01*
X140647828Y-51845994D02*
X140619256Y-51731708D01*
X140619256Y-51731708D02*
X140619256Y-51645994D01*
X140619256Y-51645994D02*
X140647828Y-51531708D01*
X140647828Y-51531708D02*
X140676399Y-51474565D01*
X140676399Y-51474565D02*
X140733542Y-51417422D01*
X140733542Y-51417422D02*
X140819256Y-51388851D01*
X140819256Y-51388851D02*
X140876399Y-51388851D01*
X140876399Y-51388851D02*
X140962113Y-51417422D01*
X140962113Y-51417422D02*
X140990685Y-51445994D01*
X141562113Y-51988851D02*
X141219256Y-51988851D01*
X141390685Y-51988851D02*
X141390685Y-51388851D01*
X141390685Y-51388851D02*
X141333542Y-51474565D01*
X141333542Y-51474565D02*
X141276399Y-51531708D01*
X141276399Y-51531708D02*
X141219256Y-51560280D01*
X141933542Y-51388851D02*
X141990685Y-51388851D01*
X141990685Y-51388851D02*
X142047828Y-51417422D01*
X142047828Y-51417422D02*
X142076400Y-51445994D01*
X142076400Y-51445994D02*
X142104971Y-51503137D01*
X142104971Y-51503137D02*
X142133542Y-51617422D01*
X142133542Y-51617422D02*
X142133542Y-51760280D01*
X142133542Y-51760280D02*
X142104971Y-51874565D01*
X142104971Y-51874565D02*
X142076400Y-51931708D01*
X142076400Y-51931708D02*
X142047828Y-51960280D01*
X142047828Y-51960280D02*
X141990685Y-51988851D01*
X141990685Y-51988851D02*
X141933542Y-51988851D01*
X141933542Y-51988851D02*
X141876400Y-51960280D01*
X141876400Y-51960280D02*
X141847828Y-51931708D01*
X141847828Y-51931708D02*
X141819257Y-51874565D01*
X141819257Y-51874565D02*
X141790685Y-51760280D01*
X141790685Y-51760280D02*
X141790685Y-51617422D01*
X141790685Y-51617422D02*
X141819257Y-51503137D01*
X141819257Y-51503137D02*
X141847828Y-51445994D01*
X141847828Y-51445994D02*
X141876400Y-51417422D01*
X141876400Y-51417422D02*
X141933542Y-51388851D01*
X136507599Y-72674051D02*
X136507599Y-73102622D01*
X136507599Y-73102622D02*
X136479028Y-73188337D01*
X136479028Y-73188337D02*
X136421885Y-73245480D01*
X136421885Y-73245480D02*
X136336171Y-73274051D01*
X136336171Y-73274051D02*
X136279028Y-73274051D01*
X136793314Y-73274051D02*
X136793314Y-72674051D01*
X136793314Y-72674051D02*
X137021885Y-72674051D01*
X137021885Y-72674051D02*
X137079028Y-72702622D01*
X137079028Y-72702622D02*
X137107599Y-72731194D01*
X137107599Y-72731194D02*
X137136171Y-72788337D01*
X137136171Y-72788337D02*
X137136171Y-72874051D01*
X137136171Y-72874051D02*
X137107599Y-72931194D01*
X137107599Y-72931194D02*
X137079028Y-72959765D01*
X137079028Y-72959765D02*
X137021885Y-72988337D01*
X137021885Y-72988337D02*
X136793314Y-72988337D01*
X137707599Y-73274051D02*
X137364742Y-73274051D01*
X137536171Y-73274051D02*
X137536171Y-72674051D01*
X137536171Y-72674051D02*
X137479028Y-72759765D01*
X137479028Y-72759765D02*
X137421885Y-72816908D01*
X137421885Y-72816908D02*
X137364742Y-72845480D01*
X133808800Y-94248108D02*
X133780228Y-94276680D01*
X133780228Y-94276680D02*
X133694514Y-94305251D01*
X133694514Y-94305251D02*
X133637371Y-94305251D01*
X133637371Y-94305251D02*
X133551657Y-94276680D01*
X133551657Y-94276680D02*
X133494514Y-94219537D01*
X133494514Y-94219537D02*
X133465943Y-94162394D01*
X133465943Y-94162394D02*
X133437371Y-94048108D01*
X133437371Y-94048108D02*
X133437371Y-93962394D01*
X133437371Y-93962394D02*
X133465943Y-93848108D01*
X133465943Y-93848108D02*
X133494514Y-93790965D01*
X133494514Y-93790965D02*
X133551657Y-93733822D01*
X133551657Y-93733822D02*
X133637371Y-93705251D01*
X133637371Y-93705251D02*
X133694514Y-93705251D01*
X133694514Y-93705251D02*
X133780228Y-93733822D01*
X133780228Y-93733822D02*
X133808800Y-93762394D01*
X134094514Y-94305251D02*
X134208800Y-94305251D01*
X134208800Y-94305251D02*
X134265943Y-94276680D01*
X134265943Y-94276680D02*
X134294514Y-94248108D01*
X134294514Y-94248108D02*
X134351657Y-94162394D01*
X134351657Y-94162394D02*
X134380228Y-94048108D01*
X134380228Y-94048108D02*
X134380228Y-93819537D01*
X134380228Y-93819537D02*
X134351657Y-93762394D01*
X134351657Y-93762394D02*
X134323086Y-93733822D01*
X134323086Y-93733822D02*
X134265943Y-93705251D01*
X134265943Y-93705251D02*
X134151657Y-93705251D01*
X134151657Y-93705251D02*
X134094514Y-93733822D01*
X134094514Y-93733822D02*
X134065943Y-93762394D01*
X134065943Y-93762394D02*
X134037371Y-93819537D01*
X134037371Y-93819537D02*
X134037371Y-93962394D01*
X134037371Y-93962394D02*
X134065943Y-94019537D01*
X134065943Y-94019537D02*
X134094514Y-94048108D01*
X134094514Y-94048108D02*
X134151657Y-94076680D01*
X134151657Y-94076680D02*
X134265943Y-94076680D01*
X134265943Y-94076680D02*
X134323086Y-94048108D01*
X134323086Y-94048108D02*
X134351657Y-94019537D01*
X134351657Y-94019537D02*
X134380228Y-93962394D01*
X136475885Y-84053251D02*
X136475885Y-84481822D01*
X136475885Y-84481822D02*
X136447314Y-84567537D01*
X136447314Y-84567537D02*
X136390171Y-84624680D01*
X136390171Y-84624680D02*
X136304457Y-84653251D01*
X136304457Y-84653251D02*
X136247314Y-84653251D01*
X136761600Y-84653251D02*
X136761600Y-84053251D01*
X136761600Y-84053251D02*
X136990171Y-84053251D01*
X136990171Y-84053251D02*
X137047314Y-84081822D01*
X137047314Y-84081822D02*
X137075885Y-84110394D01*
X137075885Y-84110394D02*
X137104457Y-84167537D01*
X137104457Y-84167537D02*
X137104457Y-84253251D01*
X137104457Y-84253251D02*
X137075885Y-84310394D01*
X137075885Y-84310394D02*
X137047314Y-84338965D01*
X137047314Y-84338965D02*
X136990171Y-84367537D01*
X136990171Y-84367537D02*
X136761600Y-84367537D01*
X137675885Y-84653251D02*
X137333028Y-84653251D01*
X137504457Y-84653251D02*
X137504457Y-84053251D01*
X137504457Y-84053251D02*
X137447314Y-84138965D01*
X137447314Y-84138965D02*
X137390171Y-84196108D01*
X137390171Y-84196108D02*
X137333028Y-84224680D01*
X138247314Y-84653251D02*
X137904457Y-84653251D01*
X138075886Y-84653251D02*
X138075886Y-84053251D01*
X138075886Y-84053251D02*
X138018743Y-84138965D01*
X138018743Y-84138965D02*
X137961600Y-84196108D01*
X137961600Y-84196108D02*
X137904457Y-84224680D01*
X127117308Y-55485714D02*
X127145880Y-55514286D01*
X127145880Y-55514286D02*
X127174451Y-55600000D01*
X127174451Y-55600000D02*
X127174451Y-55657143D01*
X127174451Y-55657143D02*
X127145880Y-55742857D01*
X127145880Y-55742857D02*
X127088737Y-55800000D01*
X127088737Y-55800000D02*
X127031594Y-55828571D01*
X127031594Y-55828571D02*
X126917308Y-55857143D01*
X126917308Y-55857143D02*
X126831594Y-55857143D01*
X126831594Y-55857143D02*
X126717308Y-55828571D01*
X126717308Y-55828571D02*
X126660165Y-55800000D01*
X126660165Y-55800000D02*
X126603022Y-55742857D01*
X126603022Y-55742857D02*
X126574451Y-55657143D01*
X126574451Y-55657143D02*
X126574451Y-55600000D01*
X126574451Y-55600000D02*
X126603022Y-55514286D01*
X126603022Y-55514286D02*
X126631594Y-55485714D01*
X127174451Y-54914286D02*
X127174451Y-55257143D01*
X127174451Y-55085714D02*
X126574451Y-55085714D01*
X126574451Y-55085714D02*
X126660165Y-55142857D01*
X126660165Y-55142857D02*
X126717308Y-55200000D01*
X126717308Y-55200000D02*
X126745880Y-55257143D01*
X127174451Y-54342857D02*
X127174451Y-54685714D01*
X127174451Y-54514285D02*
X126574451Y-54514285D01*
X126574451Y-54514285D02*
X126660165Y-54571428D01*
X126660165Y-54571428D02*
X126717308Y-54628571D01*
X126717308Y-54628571D02*
X126745880Y-54685714D01*
X129946457Y-54792451D02*
X129946457Y-55278165D01*
X129946457Y-55278165D02*
X129975028Y-55335308D01*
X129975028Y-55335308D02*
X130003600Y-55363880D01*
X130003600Y-55363880D02*
X130060742Y-55392451D01*
X130060742Y-55392451D02*
X130175028Y-55392451D01*
X130175028Y-55392451D02*
X130232171Y-55363880D01*
X130232171Y-55363880D02*
X130260742Y-55335308D01*
X130260742Y-55335308D02*
X130289314Y-55278165D01*
X130289314Y-55278165D02*
X130289314Y-54792451D01*
X130889313Y-55392451D02*
X130546456Y-55392451D01*
X130717885Y-55392451D02*
X130717885Y-54792451D01*
X130717885Y-54792451D02*
X130660742Y-54878165D01*
X130660742Y-54878165D02*
X130603599Y-54935308D01*
X130603599Y-54935308D02*
X130546456Y-54963880D01*
X136526685Y-80395651D02*
X136526685Y-80824222D01*
X136526685Y-80824222D02*
X136498114Y-80909937D01*
X136498114Y-80909937D02*
X136440971Y-80967080D01*
X136440971Y-80967080D02*
X136355257Y-80995651D01*
X136355257Y-80995651D02*
X136298114Y-80995651D01*
X136812400Y-80995651D02*
X136812400Y-80395651D01*
X136812400Y-80395651D02*
X137040971Y-80395651D01*
X137040971Y-80395651D02*
X137098114Y-80424222D01*
X137098114Y-80424222D02*
X137126685Y-80452794D01*
X137126685Y-80452794D02*
X137155257Y-80509937D01*
X137155257Y-80509937D02*
X137155257Y-80595651D01*
X137155257Y-80595651D02*
X137126685Y-80652794D01*
X137126685Y-80652794D02*
X137098114Y-80681365D01*
X137098114Y-80681365D02*
X137040971Y-80709937D01*
X137040971Y-80709937D02*
X136812400Y-80709937D01*
X137726685Y-80995651D02*
X137383828Y-80995651D01*
X137555257Y-80995651D02*
X137555257Y-80395651D01*
X137555257Y-80395651D02*
X137498114Y-80481365D01*
X137498114Y-80481365D02*
X137440971Y-80538508D01*
X137440971Y-80538508D02*
X137383828Y-80567080D01*
X138098114Y-80395651D02*
X138155257Y-80395651D01*
X138155257Y-80395651D02*
X138212400Y-80424222D01*
X138212400Y-80424222D02*
X138240972Y-80452794D01*
X138240972Y-80452794D02*
X138269543Y-80509937D01*
X138269543Y-80509937D02*
X138298114Y-80624222D01*
X138298114Y-80624222D02*
X138298114Y-80767080D01*
X138298114Y-80767080D02*
X138269543Y-80881365D01*
X138269543Y-80881365D02*
X138240972Y-80938508D01*
X138240972Y-80938508D02*
X138212400Y-80967080D01*
X138212400Y-80967080D02*
X138155257Y-80995651D01*
X138155257Y-80995651D02*
X138098114Y-80995651D01*
X138098114Y-80995651D02*
X138040972Y-80967080D01*
X138040972Y-80967080D02*
X138012400Y-80938508D01*
X138012400Y-80938508D02*
X137983829Y-80881365D01*
X137983829Y-80881365D02*
X137955257Y-80767080D01*
X137955257Y-80767080D02*
X137955257Y-80624222D01*
X137955257Y-80624222D02*
X137983829Y-80509937D01*
X137983829Y-80509937D02*
X138012400Y-80452794D01*
X138012400Y-80452794D02*
X138040972Y-80424222D01*
X138040972Y-80424222D02*
X138098114Y-80395651D01*
X136507599Y-76738051D02*
X136507599Y-77166622D01*
X136507599Y-77166622D02*
X136479028Y-77252337D01*
X136479028Y-77252337D02*
X136421885Y-77309480D01*
X136421885Y-77309480D02*
X136336171Y-77338051D01*
X136336171Y-77338051D02*
X136279028Y-77338051D01*
X136793314Y-77338051D02*
X136793314Y-76738051D01*
X136793314Y-76738051D02*
X137021885Y-76738051D01*
X137021885Y-76738051D02*
X137079028Y-76766622D01*
X137079028Y-76766622D02*
X137107599Y-76795194D01*
X137107599Y-76795194D02*
X137136171Y-76852337D01*
X137136171Y-76852337D02*
X137136171Y-76938051D01*
X137136171Y-76938051D02*
X137107599Y-76995194D01*
X137107599Y-76995194D02*
X137079028Y-77023765D01*
X137079028Y-77023765D02*
X137021885Y-77052337D01*
X137021885Y-77052337D02*
X136793314Y-77052337D01*
X137421885Y-77338051D02*
X137536171Y-77338051D01*
X137536171Y-77338051D02*
X137593314Y-77309480D01*
X137593314Y-77309480D02*
X137621885Y-77280908D01*
X137621885Y-77280908D02*
X137679028Y-77195194D01*
X137679028Y-77195194D02*
X137707599Y-77080908D01*
X137707599Y-77080908D02*
X137707599Y-76852337D01*
X137707599Y-76852337D02*
X137679028Y-76795194D01*
X137679028Y-76795194D02*
X137650457Y-76766622D01*
X137650457Y-76766622D02*
X137593314Y-76738051D01*
X137593314Y-76738051D02*
X137479028Y-76738051D01*
X137479028Y-76738051D02*
X137421885Y-76766622D01*
X137421885Y-76766622D02*
X137393314Y-76795194D01*
X137393314Y-76795194D02*
X137364742Y-76852337D01*
X137364742Y-76852337D02*
X137364742Y-76995194D01*
X137364742Y-76995194D02*
X137393314Y-77052337D01*
X137393314Y-77052337D02*
X137421885Y-77080908D01*
X137421885Y-77080908D02*
X137479028Y-77109480D01*
X137479028Y-77109480D02*
X137593314Y-77109480D01*
X137593314Y-77109480D02*
X137650457Y-77080908D01*
X137650457Y-77080908D02*
X137679028Y-77052337D01*
X137679028Y-77052337D02*
X137707599Y-76995194D01*
X136526685Y-87660051D02*
X136526685Y-88088622D01*
X136526685Y-88088622D02*
X136498114Y-88174337D01*
X136498114Y-88174337D02*
X136440971Y-88231480D01*
X136440971Y-88231480D02*
X136355257Y-88260051D01*
X136355257Y-88260051D02*
X136298114Y-88260051D01*
X136812400Y-88260051D02*
X136812400Y-87660051D01*
X136812400Y-87660051D02*
X137040971Y-87660051D01*
X137040971Y-87660051D02*
X137098114Y-87688622D01*
X137098114Y-87688622D02*
X137126685Y-87717194D01*
X137126685Y-87717194D02*
X137155257Y-87774337D01*
X137155257Y-87774337D02*
X137155257Y-87860051D01*
X137155257Y-87860051D02*
X137126685Y-87917194D01*
X137126685Y-87917194D02*
X137098114Y-87945765D01*
X137098114Y-87945765D02*
X137040971Y-87974337D01*
X137040971Y-87974337D02*
X136812400Y-87974337D01*
X137726685Y-88260051D02*
X137383828Y-88260051D01*
X137555257Y-88260051D02*
X137555257Y-87660051D01*
X137555257Y-87660051D02*
X137498114Y-87745765D01*
X137498114Y-87745765D02*
X137440971Y-87802908D01*
X137440971Y-87802908D02*
X137383828Y-87831480D01*
X137955257Y-87717194D02*
X137983829Y-87688622D01*
X137983829Y-87688622D02*
X138040972Y-87660051D01*
X138040972Y-87660051D02*
X138183829Y-87660051D01*
X138183829Y-87660051D02*
X138240972Y-87688622D01*
X138240972Y-87688622D02*
X138269543Y-87717194D01*
X138269543Y-87717194D02*
X138298114Y-87774337D01*
X138298114Y-87774337D02*
X138298114Y-87831480D01*
X138298114Y-87831480D02*
X138269543Y-87917194D01*
X138269543Y-87917194D02*
X137926686Y-88260051D01*
X137926686Y-88260051D02*
X138298114Y-88260051D01*
D11*
%TO.C,mouse-bite-2mm-slot*%
X130588000Y-97298000D02*
G75*
G02*
X130588000Y-99298000I0J-1000000D01*
G01*
X134588000Y-99298000D02*
G75*
G02*
X134588000Y-97298000I0J1000000D01*
G01*
X134994400Y-42136000D02*
G75*
G02*
X134994400Y-40136000I0J1000000D01*
G01*
X130994400Y-40136000D02*
G75*
G02*
X130994400Y-42136000I0J-1000000D01*
G01*
D14*
%TO.C,C1*%
X101459420Y-46988000D02*
X101740580Y-46988000D01*
X101459420Y-48008000D02*
X101740580Y-48008000D01*
D11*
%TO.C,mouse-bite-2mm-slot*%
X165322000Y-63484000D02*
G75*
G02*
X165322000Y-61484000I0J1000000D01*
G01*
X161322000Y-61484000D02*
G75*
G02*
X161322000Y-63484000I0J-1000000D01*
G01*
D14*
%TO.C,C5*%
X163181420Y-48008000D02*
X163462580Y-48008000D01*
X163181420Y-46988000D02*
X163462580Y-46988000D01*
%TO.C,C2*%
X101459420Y-55120000D02*
X101740580Y-55120000D01*
X101459420Y-54100000D02*
X101740580Y-54100000D01*
%TO.C,J3*%
X98950000Y-80966000D02*
X98950000Y-101406000D01*
X98950000Y-101406000D02*
X104250000Y-101406000D01*
X100600000Y-80966000D02*
X98950000Y-80966000D01*
X104250000Y-80966000D02*
X102600000Y-80966000D01*
X104250000Y-101406000D02*
X104250000Y-80966000D01*
X102600000Y-80966000D02*
G75*
G02*
X100600000Y-80966000I-1000000J0D01*
G01*
D15*
X100026605Y-82296000D02*
G75*
G02*
X99617395Y-82296000I-204605J0D01*
G01*
X99617395Y-82296000D02*
G75*
G02*
X100026605Y-82296000I204605J0D01*
G01*
D11*
%TO.C,mouse-bite-2mm-slot*%
X165322000Y-40624000D02*
G75*
G02*
X165322000Y-38624000I0J1000000D01*
G01*
X161322000Y-38624000D02*
G75*
G02*
X161322000Y-40624000I0J-1000000D01*
G01*
X99600000Y-61484000D02*
G75*
G02*
X99600000Y-63484000I0J-1000000D01*
G01*
X103600000Y-63484000D02*
G75*
G02*
X103600000Y-61484000I0J1000000D01*
G01*
D16*
%TO.C,U5*%
X165512000Y-49410000D02*
G75*
G02*
X165312000Y-49410000I-100000J0D01*
G01*
X165312000Y-49410000D02*
G75*
G02*
X165512000Y-49410000I100000J0D01*
G01*
D17*
X164812000Y-53289000D02*
X164812000Y-53039000D01*
X164812000Y-48789000D02*
X164812000Y-49039000D01*
X163812000Y-53289000D02*
X164812000Y-53289000D01*
X163812000Y-48789000D02*
X164812000Y-48789000D01*
X162812000Y-53289000D02*
X161812000Y-53289000D01*
X161812000Y-53289000D02*
X161812000Y-53039000D01*
X161812000Y-49039000D02*
X161812000Y-48789000D01*
X161812000Y-48789000D02*
X162812000Y-48789000D01*
D14*
%TO.C,C3*%
X101459420Y-87120000D02*
X101740580Y-87120000D01*
X101459420Y-88140000D02*
X101740580Y-88140000D01*
D17*
%TO.C,U3*%
X100090000Y-48789000D02*
X101090000Y-48789000D01*
X100090000Y-49039000D02*
X100090000Y-48789000D01*
X100090000Y-53289000D02*
X100090000Y-53039000D01*
X101090000Y-53289000D02*
X100090000Y-53289000D01*
X102090000Y-48789000D02*
X103090000Y-48789000D01*
X102090000Y-53289000D02*
X103090000Y-53289000D01*
X103090000Y-48789000D02*
X103090000Y-49039000D01*
X103090000Y-53289000D02*
X103090000Y-53039000D01*
D16*
X103790000Y-49410000D02*
G75*
G02*
X103590000Y-49410000I-100000J0D01*
G01*
X103590000Y-49410000D02*
G75*
G02*
X103790000Y-49410000I100000J0D01*
G01*
D14*
%TO.C,C4*%
X101459420Y-95252000D02*
X101740580Y-95252000D01*
X101459420Y-94232000D02*
X101740580Y-94232000D01*
%TO.C,C7*%
X163181420Y-87120000D02*
X163462580Y-87120000D01*
X163181420Y-88140000D02*
X163462580Y-88140000D01*
D17*
%TO.C,U4*%
X100090000Y-88921000D02*
X101090000Y-88921000D01*
X100090000Y-89171000D02*
X100090000Y-88921000D01*
X100090000Y-93421000D02*
X100090000Y-93171000D01*
X101090000Y-93421000D02*
X100090000Y-93421000D01*
X102090000Y-88921000D02*
X103090000Y-88921000D01*
X102090000Y-93421000D02*
X103090000Y-93421000D01*
X103090000Y-88921000D02*
X103090000Y-89171000D01*
X103090000Y-93421000D02*
X103090000Y-93171000D01*
D16*
X103790000Y-89542000D02*
G75*
G02*
X103590000Y-89542000I-100000J0D01*
G01*
X103590000Y-89542000D02*
G75*
G02*
X103790000Y-89542000I100000J0D01*
G01*
D14*
%TO.C,C8*%
X163181420Y-94232000D02*
X163462580Y-94232000D01*
X163181420Y-95252000D02*
X163462580Y-95252000D01*
%TO.C,J2*%
X98950000Y-40834000D02*
X98950000Y-61274000D01*
X98950000Y-61274000D02*
X104250000Y-61274000D01*
X100600000Y-40834000D02*
X98950000Y-40834000D01*
X104250000Y-40834000D02*
X102600000Y-40834000D01*
X104250000Y-61274000D02*
X104250000Y-40834000D01*
X102600000Y-40834000D02*
G75*
G02*
X100600000Y-40834000I-1000000J0D01*
G01*
D15*
X100026605Y-42164000D02*
G75*
G02*
X99617395Y-42164000I-204605J0D01*
G01*
X99617395Y-42164000D02*
G75*
G02*
X100026605Y-42164000I204605J0D01*
G01*
D14*
%TO.C,C6*%
X163181420Y-55120000D02*
X163462580Y-55120000D01*
X163181420Y-54100000D02*
X163462580Y-54100000D01*
D17*
%TO.C,U6*%
X161812000Y-88921000D02*
X162812000Y-88921000D01*
X161812000Y-89171000D02*
X161812000Y-88921000D01*
X161812000Y-93421000D02*
X161812000Y-93171000D01*
X162812000Y-93421000D02*
X161812000Y-93421000D01*
X163812000Y-88921000D02*
X164812000Y-88921000D01*
X163812000Y-93421000D02*
X164812000Y-93421000D01*
X164812000Y-88921000D02*
X164812000Y-89171000D01*
X164812000Y-93421000D02*
X164812000Y-93171000D01*
D16*
X165512000Y-89542000D02*
G75*
G02*
X165312000Y-89542000I-100000J0D01*
G01*
X165312000Y-89542000D02*
G75*
G02*
X165512000Y-89542000I100000J0D01*
G01*
D11*
%TO.C,mouse-bite-2mm-slot*%
X99600000Y-38624000D02*
G75*
G02*
X99600000Y-40624000I0J-1000000D01*
G01*
X103600000Y-40624000D02*
G75*
G02*
X103600000Y-38624000I0J1000000D01*
G01*
X99600000Y-78756000D02*
G75*
G02*
X99600000Y-80756000I0J-1000000D01*
G01*
X103600000Y-80756000D02*
G75*
G02*
X103600000Y-78756000I0J1000000D01*
G01*
D14*
%TO.C,J4*%
X160672000Y-80966000D02*
X160672000Y-101406000D01*
X160672000Y-101406000D02*
X165972000Y-101406000D01*
X162322000Y-80966000D02*
X160672000Y-80966000D01*
X165972000Y-80966000D02*
X164322000Y-80966000D01*
X165972000Y-101406000D02*
X165972000Y-80966000D01*
X164322000Y-80966000D02*
G75*
G02*
X162322000Y-80966000I-1000000J0D01*
G01*
D15*
X161748605Y-82296000D02*
G75*
G02*
X161339395Y-82296000I-204605J0D01*
G01*
X161339395Y-82296000D02*
G75*
G02*
X161748605Y-82296000I204605J0D01*
G01*
%TO.C,J5*%
X161748605Y-42164000D02*
G75*
G02*
X161339395Y-42164000I-204605J0D01*
G01*
X161339395Y-42164000D02*
G75*
G02*
X161748605Y-42164000I204605J0D01*
G01*
D14*
X164322000Y-40834000D02*
G75*
G02*
X162322000Y-40834000I-1000000J0D01*
G01*
X165972000Y-61274000D02*
X165972000Y-40834000D01*
X165972000Y-40834000D02*
X164322000Y-40834000D01*
X162322000Y-40834000D02*
X160672000Y-40834000D01*
X160672000Y-61274000D02*
X165972000Y-61274000D01*
X160672000Y-40834000D02*
X160672000Y-61274000D01*
D11*
%TO.C,mouse-bite-2mm-slot*%
X161322000Y-101616000D02*
G75*
G02*
X161322000Y-103616000I0J-1000000D01*
G01*
X165322000Y-103616000D02*
G75*
G02*
X165322000Y-101616000I0J1000000D01*
G01*
X99600000Y-101616000D02*
G75*
G02*
X99600000Y-103616000I0J-1000000D01*
G01*
X103600000Y-103616000D02*
G75*
G02*
X103600000Y-101616000I0J1000000D01*
G01*
X161322000Y-78756000D02*
G75*
G02*
X161322000Y-80756000I0J-1000000D01*
G01*
X165322000Y-80756000D02*
G75*
G02*
X165322000Y-78756000I0J1000000D01*
G01*
D16*
%TO.C,U2*%
X133543400Y-62341600D02*
G75*
G02*
X133343400Y-62341600I-100000J0D01*
G01*
X133343400Y-62341600D02*
G75*
G02*
X133543400Y-62341600I100000J0D01*
G01*
D17*
X132843400Y-66623600D02*
X132843400Y-66373600D01*
X132843400Y-62123600D02*
X132843400Y-62373600D01*
X131843400Y-66623600D02*
X132843400Y-66623600D01*
X131843400Y-62123600D02*
X132843400Y-62123600D01*
X130843400Y-66623600D02*
X129843400Y-66623600D01*
X129843400Y-66623600D02*
X129843400Y-66373600D01*
X129843400Y-62373600D02*
X129843400Y-62123600D01*
X129843400Y-62123600D02*
X130843400Y-62123600D01*
D14*
%TO.C,JP5*%
X129045400Y-75904600D02*
X126245400Y-75904600D01*
X129045400Y-73904600D02*
X129045400Y-75904600D01*
X126245400Y-75904600D02*
X126245400Y-73904600D01*
X126245400Y-73904600D02*
X129045400Y-73904600D01*
%TO.C,JP8*%
X129075400Y-86826600D02*
X126275400Y-86826600D01*
X129075400Y-84826600D02*
X129075400Y-86826600D01*
X126275400Y-86826600D02*
X126275400Y-84826600D01*
X126275400Y-84826600D02*
X129075400Y-84826600D01*
%TO.C,R2*%
X132149400Y-75446164D02*
X132149400Y-74992036D01*
X130679400Y-75446164D02*
X130679400Y-74992036D01*
%TO.C,JP6*%
X129075400Y-79714600D02*
X126275400Y-79714600D01*
X129075400Y-77714600D02*
X129075400Y-79714600D01*
X126275400Y-79714600D02*
X126275400Y-77714600D01*
X126275400Y-77714600D02*
X129075400Y-77714600D01*
%TO.C,C13*%
X135151800Y-64152452D02*
X135151800Y-63629948D01*
X133681800Y-64152452D02*
X133681800Y-63629948D01*
%TO.C,JP4*%
X129075400Y-90382600D02*
X126275400Y-90382600D01*
X129075400Y-88382600D02*
X129075400Y-90382600D01*
X126275400Y-90382600D02*
X126275400Y-88382600D01*
X126275400Y-88382600D02*
X129075400Y-88382600D01*
%TO.C,J1*%
X146516400Y-54584600D02*
X146516400Y-67344600D01*
X143856400Y-67344600D02*
X146516400Y-67344600D01*
X143856400Y-54584600D02*
X146516400Y-54584600D01*
X143856400Y-54584600D02*
X143856400Y-67344600D01*
X143856400Y-53314600D02*
X143856400Y-51984600D01*
X143856400Y-51984600D02*
X145186400Y-51984600D01*
D18*
%TO.C,PMOD1*%
X140868400Y-49885600D02*
X140868400Y-44805600D01*
X140868400Y-44805600D02*
X125628400Y-44805600D01*
X130708400Y-49885600D02*
X130708400Y-44805600D01*
X125628400Y-49885600D02*
X140868400Y-49885600D01*
X125628400Y-44805600D02*
X125628400Y-49885600D01*
D14*
%TO.C,JP3*%
X139362400Y-93938600D02*
X136562400Y-93938600D01*
X139362400Y-91938600D02*
X139362400Y-93938600D01*
X136562400Y-93938600D02*
X136562400Y-91938600D01*
X136562400Y-91938600D02*
X139362400Y-91938600D01*
%TO.C,JP7*%
X129075400Y-83397600D02*
X126275400Y-83397600D01*
X129075400Y-81397600D02*
X129075400Y-83397600D01*
X126275400Y-83397600D02*
X126275400Y-81397600D01*
X126275400Y-81397600D02*
X129075400Y-81397600D01*
%TO.C,JP2*%
X129075400Y-93938600D02*
X126275400Y-93938600D01*
X129075400Y-91938600D02*
X129075400Y-93938600D01*
X126275400Y-93938600D02*
X126275400Y-91938600D01*
X126275400Y-91938600D02*
X129075400Y-91938600D01*
D17*
%TO.C,CON1*%
X146744451Y-94009651D02*
G75*
G02*
X144204451Y-96549651I-2540001J1D01*
G01*
X146744451Y-94009651D02*
G75*
G02*
X144204451Y-96549651I-2540001J1D01*
G01*
X146726400Y-94118600D02*
G75*
G02*
X144186400Y-96658600I-2540000J0D01*
G01*
X146726400Y-94118600D02*
G75*
G02*
X144186400Y-96658600I-2540000J0D01*
G01*
X144204451Y-67974651D02*
G75*
G02*
X146744449Y-70514651I-1J-2539999D01*
G01*
X144186400Y-68083600D02*
G75*
G02*
X146726400Y-70623600I0J-2540000D01*
G01*
X121344451Y-96549651D02*
G75*
G02*
X118804451Y-94009651I-3J2539997D01*
G01*
X121326400Y-96658600D02*
G75*
G02*
X118786400Y-94118600I0J2540000D01*
G01*
X118804451Y-70514651D02*
G75*
G02*
X121344451Y-67974651I2540001J-1D01*
G01*
X118786400Y-70623600D02*
G75*
G02*
X121326400Y-68083600I2540000J0D01*
G01*
X146744451Y-70514651D02*
X146744451Y-94009651D01*
X146726400Y-70623600D02*
X146726400Y-94118600D01*
X145456400Y-92848600D02*
X142926400Y-95438600D01*
X145456400Y-72528600D02*
X145456400Y-92848600D01*
X142916400Y-92848600D02*
X145456400Y-92848600D01*
X142916400Y-75068600D02*
X145456400Y-75068600D01*
X142916400Y-75068600D02*
X142916400Y-92848600D01*
X142916400Y-72528600D02*
X145456400Y-72528600D01*
X142916400Y-72528600D02*
X142916400Y-75068600D01*
X122596400Y-92848600D02*
X122596400Y-75068600D01*
X122596400Y-75068600D02*
X122596400Y-72528600D01*
X122596400Y-72528600D02*
X120056400Y-72528600D01*
X121344451Y-96549651D02*
X144204451Y-96549651D01*
X121326400Y-96658600D02*
X144186400Y-96658600D01*
X120056400Y-92848600D02*
X122596400Y-92848600D01*
X120056400Y-75068600D02*
X122596400Y-75068600D01*
X120056400Y-75068600D02*
X120056400Y-92848600D01*
X120056400Y-72528600D02*
X120056400Y-75068600D01*
X118804451Y-70514651D02*
X118804451Y-94009651D01*
X118786400Y-70623600D02*
X118786400Y-94118600D01*
D14*
%TO.C,R1*%
X141959000Y-58797564D02*
X141959000Y-58343436D01*
X140489000Y-58797564D02*
X140489000Y-58343436D01*
%TO.C,R3*%
X135126400Y-75446164D02*
X135126400Y-74992036D01*
X133656400Y-75446164D02*
X133656400Y-74992036D01*
%TO.C,C14*%
X135355000Y-54536748D02*
X135355000Y-55059252D01*
X133885000Y-54536748D02*
X133885000Y-55059252D01*
%TO.C,C12*%
X126722200Y-63644452D02*
X126722200Y-63121948D01*
X128192200Y-63644452D02*
X128192200Y-63121948D01*
%TO.C,C10*%
X140692200Y-53622348D02*
X140692200Y-54144852D01*
X142162200Y-53622348D02*
X142162200Y-54144852D01*
%TO.C,JP1*%
X139347400Y-75777600D02*
X136547400Y-75777600D01*
X139347400Y-73777600D02*
X139347400Y-75777600D01*
X136547400Y-75777600D02*
X136547400Y-73777600D01*
X136547400Y-73777600D02*
X139347400Y-73777600D01*
%TO.C,C9*%
X131209148Y-94816600D02*
X131731652Y-94816600D01*
X131209148Y-93346600D02*
X131731652Y-93346600D01*
%TO.C,JP11*%
X139332400Y-87080600D02*
X136532400Y-87080600D01*
X139332400Y-85080600D02*
X139332400Y-87080600D01*
X136532400Y-87080600D02*
X136532400Y-85080600D01*
X136532400Y-85080600D02*
X139332400Y-85080600D01*
%TO.C,C11*%
X129082400Y-54797348D02*
X129082400Y-55319852D01*
X127612400Y-54797348D02*
X127612400Y-55319852D01*
D19*
%TO.C,U1*%
G36*
X132871400Y-56261000D02*
G01*
X132617400Y-56261000D01*
X132617400Y-55880000D01*
X132871400Y-55880000D01*
X132871400Y-56261000D01*
G37*
D20*
X132503100Y-58051700D02*
X132503100Y-57764780D01*
X132503100Y-56027220D02*
X132503100Y-55740300D01*
X132503100Y-55740300D02*
X131966180Y-55740300D01*
X131966180Y-58051700D02*
X132503100Y-58051700D01*
X130728620Y-55740300D02*
X130191700Y-55740300D01*
X130191700Y-58051700D02*
X130728620Y-58051700D01*
X130191700Y-57764780D02*
X130191700Y-58051700D01*
X130191700Y-55740300D02*
X130191700Y-56027220D01*
D14*
%TO.C,JP10*%
X139362400Y-83397600D02*
X136562400Y-83397600D01*
X139362400Y-81397600D02*
X139362400Y-83397600D01*
X136562400Y-83397600D02*
X136562400Y-81397600D01*
X136562400Y-81397600D02*
X139362400Y-81397600D01*
%TO.C,JP9*%
X139306400Y-79714600D02*
X136506400Y-79714600D01*
X139306400Y-77714600D02*
X139306400Y-79714600D01*
X136506400Y-79714600D02*
X136506400Y-77714600D01*
X136506400Y-77714600D02*
X139306400Y-77714600D01*
%TO.C,JP12*%
X139362400Y-90636600D02*
X136562400Y-90636600D01*
X139362400Y-88636600D02*
X139362400Y-90636600D01*
X136562400Y-90636600D02*
X136562400Y-88636600D01*
X136562400Y-88636600D02*
X139362400Y-88636600D01*
%TD*%
D21*
%TO.C,PMOD1*%
X126898400Y-46075600D03*
X129438400Y-46075600D03*
X131978400Y-46075600D03*
X134518400Y-46075600D03*
X137058400Y-46075600D03*
X139598400Y-46075600D03*
X126898400Y-48615600D03*
X129438400Y-48615600D03*
X131978400Y-48615600D03*
X134518400Y-48615600D03*
X137058400Y-48615600D03*
X139598400Y-48615600D03*
%TD*%
M02*
